<?xml version="1.0" encoding="UTF-8" standalone="no"?>
<!-- Created with Inkscape (http://www.inkscape.org/) -->

<svg
   xmlns:dc="http://purl.org/dc/elements/1.1/"
   xmlns:cc="http://creativecommons.org/ns#"
   xmlns:rdf="http://www.w3.org/1999/02/22-rdf-syntax-ns#"
   xmlns:svg="http://www.w3.org/2000/svg"
   xmlns="http://www.w3.org/2000/svg"
   xmlns:sodipodi="http://sodipodi.sourceforge.net/DTD/sodipodi-0.dtd"
   xmlns:inkscape="http://www.inkscape.org/namespaces/inkscape"
   width="1920mm"
   height="1080mm"
   viewBox="0 0 1920 1080"
   version="1.1"
   id="svg8"
   inkscape:version="0.92.0 r15299"
   sodipodi:docname="firstPersonShotgun.svg">
  <defs
     id="defs2" />
  <sodipodi:namedview
     id="base"
     pagecolor="#ffffff"
     bordercolor="#666666"
     borderopacity="1.0"
     inkscape:pageopacity="0.0"
     inkscape:pageshadow="2"
     inkscape:zoom="0.35"
     inkscape:cx="3746.9514"
     inkscape:cy="658.33896"
     inkscape:document-units="mm"
     inkscape:current-layer="layer1"
     showgrid="false"
     inkscape:window-width="1920"
     inkscape:window-height="1001"
     inkscape:window-x="-9"
     inkscape:window-y="-9"
     inkscape:window-maximized="1" />
  <metadata
     id="metadata5">
    <rdf:RDF>
      <cc:Work
         rdf:about="">
        <dc:format>image/svg+xml</dc:format>
        <dc:type
           rdf:resource="http://purl.org/dc/dcmitype/StillImage" />
        <dc:title></dc:title>
      </cc:Work>
    </rdf:RDF>
  </metadata>
  <g
     inkscape:label="Layer 1"
     inkscape:groupmode="layer"
     id="layer1"
     transform="translate(0,783)">
    <circle
       style="fill:none;fill-opacity:1;stroke:#000000;stroke-width:0.45651895;stroke-miterlimit:4;stroke-dasharray:none;stroke-opacity:1"
       id="path4487"
       cx="1111.2499"
       cy="-122.40243"
       r="22.820812" />
    <path
       style="fill:none;stroke:#000000;stroke-width:0.19139838px;stroke-linecap:butt;stroke-linejoin:miter;stroke-opacity:1"
       d="M 1094.3627,-106.54782 1311.3794,168.6596"
       id="path4504"
       inkscape:connector-curvature="0" />
    <path
       style="fill:none;stroke:#000000;stroke-width:0.19256994px;stroke-linecap:butt;stroke-linejoin:miter;stroke-opacity:1"
       d="m 1128.913,-136.79054 256.3198,273.7047"
       id="path4506"
       inkscape:connector-curvature="0" />
    <path
       style="fill:none;stroke:#000000;stroke-width:0.26458332px;stroke-linecap:butt;stroke-linejoin:miter;stroke-opacity:1"
       d="m 1385.2328,136.91414 c -32.461,1.65796 -58.2039,17.67428 -73.8534,31.74545"
       id="path4518"
       inkscape:connector-curvature="0" />
    <path
       style="fill:none;stroke:#000000;stroke-width:0.26458332px;stroke-linecap:butt;stroke-linejoin:miter;stroke-opacity:1"
       d="m 1311.3794,168.65959 -9.6294,72.3999 37.7976,59.72024"
       id="path4520"
       inkscape:connector-curvature="0" />
    <path
       style="fill:none;stroke:#000000;stroke-width:0.43699455px;stroke-linecap:butt;stroke-linejoin:miter;stroke-opacity:1"
       d="m 1160.8217,-22.665467 c -21.9955,19.8151638 -29.2236,49.806585 -12.4856,74.913365"
       id="path4528"
       inkscape:connector-curvature="0" />
    <path
       style="fill:none;stroke:#000000;stroke-width:0.41833645px;stroke-linecap:butt;stroke-linejoin:miter;stroke-opacity:1"
       d="m 1148.3872,52.284862 84.1059,118.311818"
       id="path4530"
       inkscape:connector-curvature="0" />
    <path
       style="fill:none;stroke:#000000;stroke-width:0.49511385px;stroke-linecap:butt;stroke-linejoin:miter;stroke-opacity:1"
       d="m 1246.6391,85.719956 c -24.9207,22.450594 -33.1101,56.430794 -14.146,84.876724"
       id="path4528-6"
       inkscape:connector-curvature="0" />
    <path
       style="fill:none;stroke:#000000;stroke-width:0.37949735px;stroke-linecap:butt;stroke-linejoin:miter;stroke-opacity:1"
       d="m 1255.684,96.931513 c -19.1013,17.208067 -25.3784,43.253377 -10.8427,65.056757"
       id="path4528-6-3"
       inkscape:connector-curvature="0" />
    <path
       style="fill:none;stroke:#000000;stroke-width:0.26458332px;stroke-linecap:butt;stroke-linejoin:miter;stroke-opacity:1"
       d="m 1311.3794,168.65959 89.6474,132.08214"
       id="path4562"
       inkscape:connector-curvature="0" />
    <path
       style="fill:none;stroke:#000000;stroke-width:0.26458332px;stroke-linecap:butt;stroke-linejoin:miter;stroke-opacity:1"
       d="M 1385.2328,136.91414 1499.382,301.27627"
       id="path4564"
       inkscape:connector-curvature="0" />
    <path
       style="fill:none;stroke:#000000;stroke-width:0.32393578px;stroke-linecap:butt;stroke-linejoin:miter;stroke-opacity:1"
       d="m 1260.2455,102.82584 c -16.3047,14.68866 -21.6627,36.92072 -9.2552,55.5319"
       id="path4528-6-3-7"
       inkscape:connector-curvature="0" />
    <path
       style="fill:none;stroke:#000000;stroke-width:0.24688151px;stroke-linecap:butt;stroke-linejoin:miter;stroke-opacity:1"
       d="m 1250.9878,158.35631 51.2993,76.5574"
       id="path4581"
       inkscape:connector-curvature="0" />
    <path
       style="fill:none;stroke:#000000;stroke-width:0.44358423px;stroke-linecap:butt;stroke-linejoin:miter;stroke-opacity:1"
       d="M 1174.2421,-5.4705693 C 1151.9149,14.643394 1144.5778,45.087067 1161.5682,70.572444"
       id="path4528-9"
       inkscape:connector-curvature="0" />
    <path
       style="fill:none;stroke:#000000;stroke-width:0.45017388px;stroke-linecap:butt;stroke-linejoin:miter;stroke-opacity:1"
       d="m 1187.5598,11.88099 c -22.6589,20.412761 -30.105,51.308686 -12.8622,77.172663"
       id="path4528-9-9"
       inkscape:connector-curvature="0" />
    <path
       style="fill:none;stroke:#000000;stroke-width:0.46155116px;stroke-linecap:butt;stroke-linejoin:miter;stroke-opacity:1"
       d="m 1201.6464,29.385511 c -23.2315,20.928653 -30.8658,52.605418 -13.1872,79.123069"
       id="path4528-9-9-4"
       inkscape:connector-curvature="0" />
    <path
       style="fill:none;stroke:#000000;stroke-width:0.47253388px;stroke-linecap:butt;stroke-linejoin:miter;stroke-opacity:1"
       d="m 1216.1218,47.460699 c -23.7843,21.426653 -31.6003,53.857181 -13.501,81.005821"
       id="path4528-9-9-4-1"
       inkscape:connector-curvature="0" />
    <path
       style="fill:none;stroke:#000000;stroke-width:0.47822252px;stroke-linecap:butt;stroke-linejoin:miter;stroke-opacity:1"
       d="m 1228.603,63.681843 c -24.0706,21.684597 -31.9807,54.505537 -13.6636,81.981007"
       id="path4528-9-9-4-1-5"
       inkscape:connector-curvature="0" />
    <path
       style="fill:none;stroke:#000000;stroke-width:0.26458332px;stroke-linecap:butt;stroke-linejoin:miter;stroke-opacity:1"
       d="m 1232.4931,170.59666 c 7.6025,8.39433 18.904,8.95154 31.1572,7.20108"
       id="path4729"
       inkscape:connector-curvature="0" />
    <path
       style="fill:none;stroke:#000000;stroke-width:0.26458332px;stroke-linecap:butt;stroke-linejoin:miter;stroke-opacity:1"
       d="m 1244.8413,161.98826 c 3.1265,3.908 7.4555,4.82319 11.5927,5.1187"
       id="path4731"
       inkscape:connector-curvature="0" />
    <path
       style="fill:#ffffff;fill-opacity:1;stroke:none;stroke-width:5.65812683;stroke-miterlimit:4;stroke-dasharray:none;stroke-opacity:1"
       d="m 4171.4503,2575.9438 c -28.9464,-11.312 -47.4984,-32.918 -53.7736,-62.6255 -7.0295,-33.279 7.4837,-68.2638 35.9518,-86.6636 51.2869,-33.1483 118.141,-3.9943 129.376,56.4189 6.5156,35.0361 -13.1023,72.7452 -46.4569,89.2982 -12.2399,6.0743 -15.5727,6.7971 -33.7826,7.3267 -16.8133,0.489 -22.0674,-0.141 -31.3147,-3.7547 z"
       id="path4739"
       inkscape:connector-curvature="0"
       transform="matrix(0.26458333,0,0,0.26458333,0,-783)" />
    <path
       style="fill:#ffffff;fill-opacity:1;stroke:none;stroke-width:5.65812683;stroke-miterlimit:4;stroke-dasharray:none;stroke-opacity:1"
       d="m 4861.2968,3474.0886 c -52.1767,-66.0985 -95.7758,-121.6327 -96.887,-123.4093 -1.1111,-1.7765 -4.6142,-6.0634 -7.7845,-9.5263 -3.1703,-3.4629 -6.8871,-8.8582 -8.2595,-11.9895 -1.3725,-3.1312 -3.0258,-5.4041 -3.674,-5.0507 -1.2963,0.7066 -31.7998,-37.5565 -31.7998,-39.8892 0,-0.7971 -1.3417,-2.4587 -2.9816,-3.6924 -3.7487,-2.8199 -560.651,-709.0456 -559.7984,-709.8981 0.3443,-0.3443 3.6953,1.1526 7.4466,3.3264 18.4033,10.6644 46.5172,13.2674 68.7322,6.3638 32.1504,-9.9913 54.9728,-36.8559 60.7067,-71.4591 1.7043,-10.2854 1.4847,-16.0205 -1.099,-28.6898 -1.776,-8.7091 -2.9079,-16.1559 -2.5153,-16.5485 0.6759,-0.676 948.3903,1010.1953 947.8578,1011.0243 -0.1386,0.2158 -8.4093,1.3741 -18.3792,2.5739 -84.1803,10.1303 -167.5355,45.5374 -235.3098,99.9534 -9.4449,7.5834 -18.1212,14.531 -19.2806,15.4391 -1.3182,1.0326 -37.6488,-43.3728 -96.9746,-118.528 z"
       id="path4741"
       inkscape:connector-curvature="0"
       transform="matrix(0.26458333,0,0,0.26458333,0,-783)" />
    <path
       style="fill:#ffffff;fill-opacity:1;stroke:none;stroke-width:5.65812683;stroke-miterlimit:4;stroke-dasharray:none;stroke-opacity:1"
       d="m 4351.7334,3169.8003 c -26.1961,-37.0282 -38.2013,-65.437 -43.05,-101.8728 -8.0219,-60.2814 19.1703,-132.9948 67.4025,-180.2374 l 11.0066,-10.7808 24.0038,30.5598 24.0038,30.5598 -11.9826,12.5458 c -29.6224,31.0151 -53.3141,72.2659 -62.9011,109.5206 -10.0136,38.912 -8.4983,82.8675 4.0482,117.4327 2.7428,7.5564 4.6798,14.0462 4.3043,14.4217 -0.3755,0.3754 -7.9514,-9.5918 -16.8355,-22.1494 z"
       id="path4743"
       inkscape:connector-curvature="0"
       transform="matrix(0.26458333,0,0,0.26458333,0,-783)" />
    <path
       style="fill:#ffffff;fill-opacity:1;stroke:none;stroke-width:5.65812683;stroke-miterlimit:4;stroke-dasharray:none;stroke-opacity:1"
       d="m 4405.4688,3245.4483 c -22.8786,-32.1596 -35.395,-57.1156 -43.3117,-86.3581 -3.0939,-11.4285 -3.798,-20.7324 -3.6692,-48.4873 0.1444,-31.1059 0.6699,-36.0601 5.5716,-52.5279 11.039,-37.0865 37.2356,-81.0808 63.5945,-106.7998 l 10.0695,-9.8251 24.441,30.8297 24.441,30.8297 -15.8414,16.5008 c -61.9547,64.5335 -83.635,151.372 -56.9727,228.1998 2.2806,6.5715 3.8456,12.2491 3.4778,12.6169 -0.3678,0.3678 -5.678,-6.3726 -11.8004,-14.9787 z"
       id="path4745"
       inkscape:connector-curvature="0"
       transform="matrix(0.26458333,0,0,0.26458333,0,-783)" />
    <path
       style="fill:#ffffff;fill-opacity:1;stroke:none;stroke-width:5.65812683;stroke-miterlimit:4;stroke-dasharray:none;stroke-opacity:1"
       d="m 4452.2746,3311.2787 c -18.6779,-26.8952 -35.0517,-60.4013 -40.8041,-83.4981 -3.7226,-14.9472 -4.5077,-23.5753 -4.4119,-48.4873 0.1007,-26.1901 0.8475,-33.0476 5.5006,-50.5077 10.0919,-37.8683 33.6512,-78.6648 63.529,-110.0102 l 12.4252,-13.0355 25.2915,31.9818 25.2915,31.9818 -16.0042,16.9073 c -26.1636,27.6401 -46.4493,60.6509 -57.8262,94.1003 -14.655,43.0874 -15.0207,94.9871 -0.9634,136.7038 2.3839,7.0745 3.9136,13.2834 3.3995,13.7976 -0.5142,0.5142 -7.4566,-8.456 -15.4275,-19.9338 z"
       id="path4747"
       inkscape:connector-curvature="0"
       transform="matrix(0.26458333,0,0,0.26458333,0,-783)" />
    <path
       style="fill:#ffffff;fill-opacity:1;stroke:none;stroke-width:5.65812683;stroke-miterlimit:4;stroke-dasharray:none;stroke-opacity:1"
       d="m 4505.9193,3386.9984 c -37.8789,-53.4355 -53.5415,-104.7006 -47.7786,-156.3834 5.8035,-52.0455 30.8691,-103.4075 70.7751,-145.0249 l 12.3609,-12.891 26.0682,32.9779 26.0681,32.9779 -16.8356,17.6914 c -26.7697,28.1303 -48.0027,63.2909 -59.4419,98.432 -14.1408,43.4406 -13.81,99.0241 0.8293,139.355 2.6565,7.3185 4.5159,13.6204 4.132,14.0042 -0.3838,0.3839 -7.6637,-9.1287 -16.1775,-21.1391 z"
       id="path4749"
       inkscape:connector-curvature="0"
       transform="matrix(0.26458333,0,0,0.26458333,0,-783)" />
    <path
       style="fill:#ffffff;fill-opacity:1;stroke:none;stroke-width:5.65812683;stroke-miterlimit:4;stroke-dasharray:none;stroke-opacity:1"
       d="m 4563.9957,3468.5574 c -2.4183,-3.5318 -9.058,-13.2399 -14.7549,-21.5737 -62.873,-91.9747 -49.8642,-204.2028 33.9391,-292.7959 l 12.2817,-12.9837 22.5532,28.7357 22.5533,28.7357 -9.8244,10.5119 c -34.0541,36.4371 -54.6806,69.6312 -67.2355,108.2018 -15.2235,46.7691 -14.7986,97.839 1.1828,142.1432 2.7919,7.7396 4.7668,14.3812 4.3888,14.7592 -0.3779,0.378 -2.6658,-2.2024 -5.0841,-5.7342 z"
       id="path4751"
       inkscape:connector-curvature="0"
       transform="matrix(0.26458333,0,0,0.26458333,0,-783)" />
    <path
       style="fill:#ffffff;fill-opacity:1;stroke:none;stroke-width:5.65812683;stroke-miterlimit:4;stroke-dasharray:none;stroke-opacity:1"
       d="m 4613.653,3538.1686 c -10.6903,-15.1499 -23.6307,-34.8184 -28.7564,-43.7077 -50.4819,-87.549 -33.967,-194.0364 42.7888,-275.9004 l 15.6176,-16.6569 29.2387,37.0462 c 16.0813,20.3753 30.4608,38.7471 31.9546,40.8261 2.4293,3.3811 1.6806,4.8876 -7.0956,14.2781 -25.3661,27.1416 -39.6735,47.1719 -53.6773,75.1479 -18.4145,36.7877 -25.7857,67.7737 -25.7857,108.3947 0,28.0323 3.0111,47.1991 11.3395,72.1804 2.734,8.2005 4.7103,15.141 4.3918,15.4234 -0.3185,0.2824 -9.3256,-11.8819 -20.016,-27.0318 z"
       id="path4753"
       inkscape:connector-curvature="0"
       transform="matrix(0.26458333,0,0,0.26458333,0,-783)" />
    <path
       style="fill:#ffffff;fill-opacity:1;stroke:none;stroke-width:5.65812683;stroke-miterlimit:4;stroke-dasharray:none;stroke-opacity:1"
       d="m 4707.3618,3629.7928 c -16.9237,-3.6768 -35.4565,-13.8784 -45.0859,-24.8179 -14.6572,-16.6515 -31.1371,-55.3229 -38.4863,-90.311 -3.5728,-17.0097 -3.006,-61.1661 1.0279,-80.0788 10.3419,-48.4873 34.2016,-93.4837 69.5766,-131.213 l 15.6562,-16.6981 15.563,19.7055 15.563,19.7054 -12.9899,14.8942 c -23.9046,27.4089 -37.1325,50.0369 -46.3611,79.3062 -14.2096,45.0673 -10.4058,91.64 10.938,133.9219 11.4721,22.7259 26.0507,34.3263 46.9013,37.32 9.3654,1.3446 9.9154,1.8294 22.507,19.8362 l 12.9069,18.4579 -9.3749,1.3382 c -15.5954,2.2262 -44.9718,1.538 -58.3418,-1.3667 z"
       id="path4755"
       inkscape:connector-curvature="0"
       transform="matrix(0.26458333,0,0,0.26458333,0,-783)" />
    <path
       style="fill:#ffffff;fill-opacity:1;stroke:none;stroke-width:5.65812683;stroke-miterlimit:4;stroke-dasharray:none;stroke-opacity:1"
       d="m 4723.9212,3583.6233 c -13.0772,-6.0896 -19.7713,-14.1544 -30.408,-36.6345 -13.1822,-27.8599 -15.7923,-39.8483 -15.8353,-72.731 -0.031,-23.4721 0.7484,-31.0341 4.5789,-44.4467 9.3106,-32.6014 31.8643,-71.0677 54.1856,-92.4158 l 7.9077,-7.5629 7.3241,9.4973 7.3241,9.4974 -10.0585,11.0056 c -45.5003,49.7846 -59.4037,111.9529 -37.6927,168.5407 3.3193,8.6514 12.3204,25.2663 20.0025,36.922 7.682,11.6558 13.9673,21.6237 13.9673,22.151 0,2.5899 -12.2445,0.3917 -21.2957,-3.8231 z"
       id="path4757"
       inkscape:connector-curvature="0"
       transform="matrix(0.26458333,0,0,0.26458333,0,-783)" />
    <path
       style="fill:#ffffff;fill-opacity:1;stroke:none;stroke-width:5.65812683;stroke-miterlimit:4;stroke-dasharray:none;stroke-opacity:1"
       d="m 4822.6018,3695.7599 c -54.6654,-81.8241 -101.7728,-153.6312 -104.683,-159.5714 -13.2591,-27.0644 -17.0112,-67.2361 -9.1505,-97.971 4.2657,-16.6788 14.2936,-38.2313 25.4465,-54.6909 8.2806,-12.2207 26.4655,-32.9318 27.6554,-31.4972 0.8338,1.0053 177.0521,224.9161 187.6182,238.396 l 5.5425,7.071 -16.5186,123.5173 -16.5187,123.5173 z"
       id="path4759"
       inkscape:connector-curvature="0"
       transform="matrix(0.26458333,0,0,0.26458333,0,-783)" />
    <path
       style="fill:#ffffff;fill-opacity:1;stroke:none;stroke-width:5.65812683;stroke-miterlimit:4;stroke-dasharray:none;stroke-opacity:1"
       d="m 4935.1627,3567.6933 c -11.6469,-14.721 -58.7047,-74.4951 -104.5729,-132.8314 -45.8682,-58.3363 -84.5232,-107.3618 -85.9001,-108.9455 -1.3768,-1.5836 -9.7763,-12.1511 -18.6657,-23.4831 -8.8893,-11.3321 -98.5624,-125.0422 -199.2734,-252.6892 -323.3117,-409.784 -377.3038,-478.4459 -376.6994,-479.0502 0.3259,-0.326 6.6385,2.2365 14.0279,5.6944 42.1018,19.7019 93.6271,1.3487 114.0616,-40.6284 9.1663,-18.8297 11.6813,-37.3329 7.6614,-56.3658 -1.7442,-8.2587 -2.8365,-15.3506 -2.4273,-15.7599 0.4093,-0.4093 86.0812,90.3454 190.382,201.677 651.8786,695.8212 757.802,808.9845 757.5459,809.3245 -0.1566,0.2078 -11.562,1.8495 -25.3453,3.6483 -81.7908,10.6738 -168.1566,48.7852 -233.2343,102.9215 -8.7673,7.2933 -16.0404,13.2589 -16.1624,13.2568 -0.122,0 -9.7512,-12.048 -21.398,-26.769 z"
       id="path4761"
       inkscape:connector-curvature="0"
       transform="matrix(0.26458333,0,0,0.26458333,0,-783)" />
    <path
       style="fill:none;stroke:#000000;stroke-width:0.26458332px;stroke-linecap:butt;stroke-linejoin:miter;stroke-opacity:1"
       d="m 1401.0268,300.74171 98.3552,0.53453"
       id="path4765"
       inkscape:connector-curvature="0" />
    <path
       style="fill:none;stroke:#000000;stroke-width:0.26458332px;stroke-linecap:butt;stroke-linejoin:miter;stroke-opacity:1"
       d="m 1339.5476,300.77973 61.4792,-0.038"
       id="path4767"
       inkscape:connector-curvature="0" />
    <path
       style="fill:#ffffff;fill-opacity:1;stroke:none;stroke-width:5.65812683;stroke-miterlimit:4;stroke-dasharray:none;stroke-opacity:1"
       d="m 5476.7337,4095.5643 -180.651,-1.0264 -168.3567,-248.0103 c -92.5962,-136.4056 -168.3254,-248.684 -168.2871,-249.5076 0.1257,-2.7013 31.888,-27.4528 55.069,-42.9137 40.0207,-26.6925 90.0253,-49.8188 132.7497,-61.3945 24.1061,-6.5312 63.7667,-13.3568 77.6106,-13.3568 h 10.539 l 198.8669,286.2917 c 109.3768,157.4605 205.9563,296.5585 214.6211,309.1067 11.2821,16.3384 14.7231,22.6762 12.1219,22.3262 -1.9979,-0.2689 -84.9254,-0.9507 -184.2834,-1.5153 z"
       id="path4769"
       inkscape:connector-curvature="0"
       transform="matrix(0.26458333,0,0,0.26458333,0,-783)" />
    <path
       style="fill:#ffffff;fill-opacity:1;stroke:none;stroke-width:5.65812683;stroke-miterlimit:4;stroke-dasharray:none;stroke-opacity:1"
       d="m 5057.5962,4084.9414 c -3.7284,-5.8336 -35.8723,-56.5899 -71.431,-112.7918 l -64.6523,-102.1852 17.6466,-132.7405 c 9.7056,-73.0073 18.0496,-133.1436 18.5422,-133.6362 0.7438,-0.7438 119.3844,173.2346 299.2641,438.8504 l 35.967,53.1099 h -114.2789 -114.279 z"
       id="path4771"
       inkscape:connector-curvature="0"
       transform="matrix(0.26458333,0,0,0.26458333,0,-783)" />
    <path
       style="fill:none;stroke:#000000;stroke-width:0.26458332px;stroke-linecap:butt;stroke-linejoin:miter;stroke-opacity:1"
       d="m 1166.2241,-7.1562932 c 7.1252,-23.3874538 -14.2572,-43.5060478 -34.745,-24.5887868 -7.6934,7.693343 5.8155,39.1071611 0.5346,50.246663 0,0 -2.4872,10.505301 -6.4145,14.432564 -11.2561,11.25609 -13.8906,41.189169 -9.0872,60.402892"
       id="path4781"
       inkscape:connector-curvature="0"
       sodipodi:nodetypes="ccccc" />
    <path
       style="fill:none;stroke:#000000;stroke-width:0.26458332px;stroke-linecap:butt;stroke-linejoin:miter;stroke-opacity:1"
       d="m 1153.9297,64.471936 c -1.6735,12.50178 -9.1593,16.9445 -24.0542,23.519733 -5.2997,5.29965 -115.9949,43.297661 -115.9949,43.297661 l -81.7845,31.00326 -227.1791,86.06078"
       id="path4785"
       inkscape:connector-curvature="0"
       sodipodi:nodetypes="ccccc" />
    <path
       style="fill:none;stroke:#000000;stroke-width:0.26458332px;stroke-linecap:butt;stroke-linejoin:miter;stroke-opacity:1"
       d="m 1205.78,128.0821 c 4.4607,-6.05898 7.7886,-24.11689 6.949,-32.072341 0.9218,-0.92178 0,-7.63871 0,-9.087173 0,-21.88837 -0.4976,-46.468037 -11.7598,-57.730212 0,0 -8.3215,-12.063296 -11.2253,-14.967099 -2.0893,-2.089229 2.3287,2.32873 0,0 -7.4088,-7.4087299 -17.9507,-15.8126909 -23.5198,-21.3815882"
       id="path4793"
       inkscape:connector-curvature="0"
       sodipodi:nodetypes="ccscccc" />
    <path
       style="fill:none;stroke:#000000;stroke-width:0.26458332px;stroke-linecap:butt;stroke-linejoin:miter;stroke-opacity:1"
       d="m 1205.78,128.0821 c 3.9571,5.70926 3.8065,11.70694 7.4835,18.70886 2.9921,5.69758 8.1384,16.69095 9.6218,18.17432 2.5173,2.5173 6.905,8.46463 8.5526,11.75986 0.3286,0.65709 0.5388,2.87281 0.5346,2.13815 -0.014,-2.52459 0.8016,13.3635 0.8016,13.3635 0,0 -2.1095,9.86041 -7.2161,14.96708 -10.9622,10.96216 -82.319,36.34864 -82.319,36.34864 l -63.0756,25.65789"
       id="path4795"
       inkscape:connector-curvature="0"
       sodipodi:nodetypes="csccscccc" />
    <path
       style="fill:none;stroke:#000000;stroke-width:0.26458332px;stroke-linecap:butt;stroke-linejoin:miter;stroke-opacity:1"
       d="M 1080.1634,269.2004 808.82615,377.03297"
       id="path4807"
       inkscape:connector-curvature="0" />
    <path
       style="fill:none;stroke:#000000;stroke-width:0.26458332px;stroke-linecap:butt;stroke-linejoin:miter;stroke-opacity:1"
       d="m 704.917,248.35335 -257.43609,99.19747 361.34524,29.48213"
       id="path4809"
       inkscape:connector-curvature="0" />
    <path
       style="fill:#ffffff;fill-opacity:1;stroke:none;stroke-width:2.11714268;stroke-miterlimit:4;stroke-dasharray:none;stroke-opacity:1"
       d="m 627.71255,361.87108 c -96.97868,-7.95359 -176.32532,-14.64289 -176.32589,-14.86512 -0.001,-0.49297 235.11694,-91.12363 309.56145,-119.3262 29.51994,-11.18333 98.69059,-37.38986 153.71255,-58.23675 55.02195,-20.84689 110.78964,-41.65711 123.92824,-46.24494 57.0438,-19.91891 79.4041,-28.503162 95.5572,-36.685004 12.9806,-6.574975 17.1604,-10.367672 19.2152,-17.435724 0.6599,-2.270205 1.0063,-4.321228 0.7698,-4.557792 -0.45,-0.450003 -0.523,-0.264901 -1.9001,4.816951 -0.4993,1.842876 -2.3003,4.752684 -4.3579,7.041303 -3.0064,3.343805 -5.4597,4.8709 -17.1892,10.699618 l -13.6822,6.799104 -0.9312,-4.768956 c -1.1869,-6.078511 -1.3321,-24.382359 -0.2463,-31.052293 1.8016,-11.066727 4.4068,-17.18273 11.3449,-26.633382 1.2209,-1.663091 3.1686,-5.915316 4.3282,-9.449382 2.6501,-8.076803 2.6337,-12.6151742 -0.1081,-29.8601336 -2.2389,-14.0817594 -2.2288,-19.7577334 0.04,-22.7765764 0.7959,-1.058863 3.4584,-3.170873 5.9167,-4.693364 4.1911,-2.595616 4.8542,-2.768151 10.6386,-2.768151 5.4464,0 6.5325,0.240612 9.2733,2.054437 7.0435,4.661165 11.0188,14.782456 9.4044,23.944368 l -0.8801,4.9952539 4.0205,3.7797581 c 2.2114,2.0788577 7.9325,7.4076718 12.7137,11.8417974 9.2423,8.5713626 21.0846,23.5872866 24.1377,30.6062056 3.2795,7.539514 4.4733,16.156358 5.2734,38.060921 0.8165,22.355254 0.3729,29.868971 -2.3575,39.931811 -0.8262,3.0448 -2.1583,6.82231 -2.9604,8.39447 -1.2606,2.47105 -1.3179,3.05882 -0.4227,4.33689 0.5695,0.81314 1.9588,4.34948 3.0873,7.85852 2.9028,9.02621 10.3088,23.52651 15.4208,30.19258 6.5346,8.52104 6.872,9.42054 7.0533,18.80235 0.1577,8.16758 0.1556,8.17825 -2.866,14.1433 -2.8802,5.68614 -3.317,6.15299 -9.2,9.83266 -9.6242,6.01972 -35.8539,17.37484 -65.3558,28.29319 -6.6155,2.4483 -27.0749,10.56778 -45.4653,18.04324 -84.5425,34.36535 -300.17099,119.52287 -302.42836,119.43712 -1.31766,-0.0501 -81.74191,-6.5985 -178.72059,-14.55208 z"
       id="path4813"
       inkscape:connector-curvature="0" />
  </g>
</svg>
