<?xml version="1.0" encoding="UTF-8" standalone="no"?>
<!-- Created with Inkscape (http://www.inkscape.org/) -->

<svg
   xmlns:dc="http://purl.org/dc/elements/1.1/"
   xmlns:cc="http://creativecommons.org/ns#"
   xmlns:rdf="http://www.w3.org/1999/02/22-rdf-syntax-ns#"
   xmlns:svg="http://www.w3.org/2000/svg"
   xmlns="http://www.w3.org/2000/svg"
   xmlns:sodipodi="http://sodipodi.sourceforge.net/DTD/sodipodi-0.dtd"
   xmlns:inkscape="http://www.inkscape.org/namespaces/inkscape"
   width="80"
   height="80"
   viewBox="0 0 21.166666 21.166667"
   version="1.1"
   id="svg3953"
   inkscape:version="0.92.0 r15299"
   sodipodi:docname="eightForLife.svg"
   inkscape:export-filename="C:\Users\zgcrowno\Documents\ArtAssets\PlanarGazer\Squirgle\icons\steamAchievements\color\earlyAppointment.png"
   inkscape:export-xdpi="96"
   inkscape:export-ydpi="96">
  <defs
     id="defs3947" />
  <sodipodi:namedview
     id="base"
     pagecolor="#0072b2"
     bordercolor="#666666"
     borderopacity="1.0"
     inkscape:pageopacity="1"
     inkscape:pageshadow="2"
     inkscape:zoom="11.313709"
     inkscape:cx="33.387865"
     inkscape:cy="37.38144"
     inkscape:document-units="mm"
     inkscape:current-layer="layer1"
     showgrid="false"
     units="px"
     inkscape:window-width="2400"
     inkscape:window-height="1271"
     inkscape:window-x="2391"
     inkscape:window-y="-9"
     inkscape:window-maximized="1">
    <inkscape:grid
       type="xygrid"
       id="grid3955"
       empspacing="1" />
  </sodipodi:namedview>
  <metadata
     id="metadata3950">
    <rdf:RDF>
      <cc:Work
         rdf:about="">
        <dc:format>image/svg+xml</dc:format>
        <dc:type
           rdf:resource="http://purl.org/dc/dcmitype/StillImage" />
        <dc:title></dc:title>
      </cc:Work>
    </rdf:RDF>
  </metadata>
  <g
     inkscape:label="Layer 1"
     inkscape:groupmode="layer"
     id="layer1"
     transform="translate(0,-275.83331)">
    <circle
       style="fill:#000000;fill-opacity:1;stroke-width:0.07447486"
       id="path4021-8-1"
       cx="16.57626"
       cy="288.87079"
       r="1.1566763" />
    <rect
       style="fill:#e69f00;fill-opacity:1;stroke-width:0.06121651"
       id="rect4053"
       width="12.337881"
       height="1.0156181"
       x="4.4144082"
       y="288.36301" />
    <circle
       style="fill:#000000;fill-opacity:1;stroke-width:0.07447486"
       id="path4021-8-1-3"
       cx="4.5904388"
       cy="288.87079"
       r="1.1566763" />
    <circle
       style="fill:#e69f00;fill-opacity:1;stroke-width:0.07447486"
       id="path4021-8-1-8"
       cx="247.87428"
       cy="-148.41083"
       r="1.1566763"
       transform="rotate(120)" />
    <rect
       style="fill:#e69f00;fill-opacity:1;stroke-width:0.06121651"
       id="rect4053-2"
       width="12.337881"
       height="1.0156181"
       x="235.71243"
       y="-148.91864"
       transform="rotate(120)" />
    <circle
       style="fill:#e69f00;fill-opacity:1;stroke-width:0.07447486"
       id="path4021-8-1-8-2"
       cx="258.45755"
       cy="-130.07999"
       r="1.1566763"
       transform="matrix(0.5,0.8660254,0.8660254,-0.5,0,0)" />
    <rect
       style="fill:#e69f00;fill-opacity:1;stroke-width:0.06121651"
       id="rect4053-2-0"
       width="12.33788"
       height="1.0156181"
       x="246.29579"
       y="-130.58778"
       transform="matrix(0.5,0.8660254,0.8660254,-0.5,0,0)" />
    <circle
       style="fill:#e69f00;fill-opacity:1;stroke-width:0.07447486"
       id="path4021-8-1-3-2-5"
       cx="246.47182"
       cy="-130.07999"
       r="1.1566763"
       transform="matrix(0.5,0.8660254,0.8660254,-0.5,0,0)" />
    <circle
       style="fill:#000000;fill-opacity:1;stroke-width:0.09406565"
       id="path4328"
       cx="10.583347"
       cy="285.41647"
       r="2.9575176" />
    <circle
       style="fill:#ffffff;fill-opacity:1;stroke-width:0.09931671"
       id="path4330"
       cx="8.8993578"
       cy="283.72437"
       r="0.56752402" />
    <circle
       style="fill:#ffffff;fill-opacity:1;stroke-width:0.09931671"
       id="path4330-6"
       cx="8.8993578"
       cy="287.10083"
       r="0.56752402" />
    <rect
       style="fill:#cc79a7;fill-opacity:1;stroke-width:0.13324733"
       id="rect4347"
       width="0.4788484"
       height="3.263263"
       x="8.6556778"
       y="283.85944" />
    <circle
       style="fill:#ffffff;fill-opacity:1;stroke-width:0.09931671"
       id="path4330-9"
       cx="287.10083"
       cy="-12.27585"
       r="0.56752402"
       transform="rotate(90)" />
    <circle
       style="fill:#cc79a7;fill-opacity:1;stroke-width:0.09931671"
       id="path4330-6-1"
       cx="287.11023"
       cy="-8.8951015"
       r="0.56752402"
       transform="rotate(90)" />
    <rect
       style="fill:#cc79a7;fill-opacity:1;stroke-width:0.13324733"
       id="rect4347-3"
       width="0.4788484"
       height="3.263263"
       x="286.87082"
       y="-12.145896"
       transform="rotate(90)" />
    <circle
       style="fill:#cc79a7;fill-opacity:1;stroke-width:0.09931671"
       id="path4330-93"
       cx="-12.271594"
       cy="-287.11026"
       r="0.56752402"
       transform="scale(-1)" />
    <circle
       style="fill:#ffffff;fill-opacity:1;stroke-width:0.09931671"
       id="path4330-6-2"
       cx="-12.27585"
       cy="-283.72437"
       r="0.56752402"
       transform="scale(-1)" />
    <rect
       style="fill:#cc79a7;fill-opacity:1;stroke-width:0.13324733"
       id="rect4347-7"
       width="0.4788484"
       height="3.263263"
       x="-12.511021"
       y="-286.98456"
       transform="scale(-1)" />
    <circle
       style="fill:#cc79a7;fill-opacity:1;stroke-width:0.09931671"
       id="path4330-9-3"
       cx="-283.73376"
       cy="8.8951015"
       r="0.56752402"
       transform="rotate(-90)" />
    <circle
       style="fill:#cc79a7;fill-opacity:1;stroke-width:0.09931671"
       id="path4330-6-1-9"
       cx="-283.73376"
       cy="12.271594"
       r="0.56752402"
       transform="rotate(-90)" />
    <rect
       style="fill:#cc79a7;fill-opacity:1;stroke-width:0.13324733"
       id="rect4347-3-8"
       width="0.4788484"
       height="3.263263"
       x="-283.97314"
       y="9.0208025"
       transform="rotate(-90)" />
    <path
       style="fill:#e69f00;fill-opacity:1;stroke-width:0.03156727"
       d=""
       id="path4519"
       inkscape:connector-curvature="0"
       transform="matrix(0.26458333,0,0,0.26458333,0,246.19998)" />
    <path
       style="fill:#e69f00;fill-opacity:1;stroke-width:0.03156727"
       d=""
       id="path4521"
       inkscape:connector-curvature="0"
       transform="matrix(0.26458333,0,0,0.26458333,0,246.19998)" />
    <path
       style="fill:#e69f00;fill-opacity:1;stroke-width:0.00235096"
       d="m 4.0135202,289.87181 c -0.090232,-0.0523 -0.1684995,-0.11237 -0.2409202,-0.185 -0.1408031,-0.14119 -0.2434271,-0.31749 -0.296159,-0.50877 l -0.00829,-0.03 v -0.27736 -0.27737 l 0.0071,-0.0256 c 0.079173,-0.28504 0.2582096,-0.52495 0.5065533,-0.6788 0.130458,-0.0808 0.2759107,-0.13511 0.4255256,-0.15883 0.069134,-0.011 0.097716,-0.013 0.1826833,-0.0132 l 0.081596,-1.4e-4 0.2710533,-0.46959 0.2710525,-0.46959 0.5850274,-2e-5 0.5850282,-2e-5 -0.00765,0.0135 c -0.00419,0.008 -0.1908465,0.33089 -0.4147925,0.71881 -0.2239441,0.3879 -0.4083437,0.70749 -0.4097757,0.71019 -0.00218,0.004 -8.605e-4,0.008 0.00911,0.0231 0.022447,0.0351 0.044218,0.0734 0.064169,0.11304 0.01106,0.0219 0.020151,0.0391 0.020197,0.0382 4.82e-5,-8.4e-4 -0.0031,-0.008 -0.00701,-0.0159 l -0.0071,-0.014 h 1.6468864 1.6468865 v 0.50662 0.50665 H 7.2778549 5.630962 l 0.00592,-0.0116 c 0.00328,-0.007 0.00592,-0.0125 0.00583,-0.0135 -3.45e-5,-8.5e-4 -0.010394,0.0183 -0.02302,0.0428 -0.057574,0.11202 -0.1170613,0.1945 -0.2049403,0.28414 -0.076576,0.0781 -0.1585552,0.14179 -0.2494988,0.19377 l -0.02967,0.017 H 4.5903815 4.045181 Z m 1.6384817,-0.54 c 0,-8.5e-4 -0.00201,8.4e-4 -0.00446,0.005 -0.00246,0.004 -0.00446,0.009 -0.00446,0.0105 0,8.5e-4 0.00201,-8.4e-4 0.00446,-0.005 0.00246,-0.004 0.00446,-0.009 0.00446,-0.0105 z m 0.0071,-0.0165 c 0,-8.4e-4 -0.00155,3.1e-4 -0.00337,0.003 -0.00182,0.003 -0.00337,0.008 -0.00337,0.008 0,8.5e-4 0.00155,-3e-4 0.00337,-0.003 0.00182,-0.003 0.00337,-0.008 0.00337,-0.008 z m 0.00483,-0.0117 c 0,-8.5e-4 -10e-4,-6.4e-4 -0.00228,8.4e-4 -0.00127,0.002 -0.00228,0.004 -0.00228,0.005 0,8.4e-4 0.001,6.4e-4 0.00228,-8.4e-4 0.00127,-0.002 0.00228,-0.004 0.00228,-0.005 z m 0.00474,-0.0117 c 0,-8.4e-4 -10e-4,-6.3e-4 -0.00228,8.4e-4 -0.00127,0.002 -0.00228,0.004 -0.00228,0.005 0,8.5e-4 0.001,6.5e-4 0.00228,-8.4e-4 0.00127,-0.002 0.00228,-0.004 0.00228,-0.005 z m 0.00574,-0.0153 c 0.0011,-0.003 8.942e-4,-0.004 -6.067e-4,-0.002 -0.00118,0.002 -0.00292,0.007 -0.00374,0.009 -0.0011,0.003 -8.942e-4,0.004 6.067e-4,0.002 0.00118,-0.002 0.00292,-0.007 0.00374,-0.009 z m 0.0082,-0.0216 c 0.00264,-0.008 0.00446,-0.0149 0.00401,-0.0154 -5.101e-4,-6.5e-4 -0.00273,0.004 -0.00501,0.0115 -0.00228,0.008 -0.00456,0.0138 -0.0052,0.0154 -6.066e-4,0.002 -5.429e-4,0.003 1.266e-4,0.003 6.705e-4,0 0.00337,-0.007 0.00611,-0.0145 z m 0.016516,-0.0524 c -9.66e-5,-8.5e-4 -0.00273,0.004 -0.00592,0.0138 -0.00319,0.009 -0.00565,0.0175 -0.00556,0.0187 9.66e-5,8.4e-4 0.00273,-0.004 0.00592,-0.0138 0.00319,-0.009 0.00565,-0.0175 0.00556,-0.0187 z m 0.00456,-0.0154 c 0,-0.002 -7.662e-4,-0.002 -0.00201,8.4e-4 -0.0011,0.003 -0.00201,0.007 -0.00201,0.008 0,0.002 7.662e-4,0.002 0.00201,-8.5e-4 0.0011,-0.003 0.00201,-0.007 0.00201,-0.008 z m 0.00592,-0.0212 c 0.001,-0.005 8.604e-4,-0.007 -5.739e-4,-0.003 -0.0011,0.003 -0.00273,0.008 -0.00355,0.0129 -0.001,0.005 -8.605e-4,0.007 5.739e-4,0.003 0.0011,-0.003 0.00273,-0.008 0.00355,-0.0129 z m 0.0031,-0.0145 c -7.662e-4,-0.002 -0.00127,-8.4e-4 -0.00146,8.5e-4 -1.038e-4,0.002 4.792e-4,0.003 0.00118,0.003 7.98e-4,-6.3e-4 8.605e-4,-0.003 1.858e-4,-0.004 z m 0.00237,-0.009 c -7.661e-4,-0.002 -0.00127,-8.4e-4 -0.00146,8.4e-4 -1.048e-4,0.002 4.791e-4,0.003 0.00118,0.003 7.98e-4,-6.4e-4 8.605e-4,-0.003 1.859e-4,-0.004 z m 0.00501,-0.0195 c 0,-0.003 -3.826e-4,-0.003 -0.00192,8.5e-4 -0.001,0.003 -0.00191,0.008 -0.00191,0.0105 0,0.003 3.825e-4,0.003 0.00191,-8.4e-4 0.001,-0.003 0.00192,-0.008 0.00192,-0.0105 z m 0.00201,-0.0135 c -6.705e-4,-0.002 -0.00118,-2.9e-4 -0.00118,0.003 0,0.003 5.429e-4,0.004 0.00118,0.003 6.696e-4,-0.002 6.696e-4,-0.004 0,-0.005 z m 0.00237,-0.0117 c -6.695e-4,-0.002 -0.00118,-3.1e-4 -0.00118,0.003 0,0.003 5.429e-4,0.004 0.00118,0.003 6.705e-4,-0.002 6.705e-4,-0.004 0,-0.005 z m 0.00237,-0.0117 c -6.705e-4,-0.002 -0.00118,-3e-4 -0.00118,0.003 0,0.003 5.42e-4,0.004 0.00118,0.003 6.705e-4,-0.002 6.705e-4,-0.004 0,-0.005 z m 0.00237,-0.0117 c -6.705e-4,-0.002 -0.00118,-3e-4 -0.00118,0.003 0,0.003 5.43e-4,0.004 0.00118,0.003 6.696e-4,-0.002 6.696e-4,-0.004 0,-0.005 z m 0.00246,-0.0128 c -6.058e-4,-0.002 -0.0011,-8.4e-4 -0.00118,0.003 -4.83e-5,0.003 4.154e-4,0.005 0.0011,0.004 6.387e-4,-0.002 7.024e-4,-0.004 9.02e-5,-0.008 z m 0.00237,-0.0165 c -6.066e-4,-0.002 -0.0011,-3.2e-4 -0.0011,0.004 0,0.004 5.111e-4,0.007 0.0011,0.004 6.068e-4,-0.002 6.068e-4,-0.007 0,-0.008 z m 0.00237,-0.0164 c -6.068e-4,-0.002 -0.0011,-3.2e-4 -0.0011,0.004 0,0.004 5.102e-4,0.007 0.0011,0.004 6.067e-4,-0.002 6.067e-4,-0.007 0,-0.008 z m 0.00237,-0.0189 c -6.067e-4,-0.002 -0.0011,1.4e-4 -10e-4,0.005 2.64e-5,0.005 5.111e-4,0.008 0.0011,0.004 5.739e-4,-0.003 5.42e-4,-0.008 -4.83e-5,-0.009 z m 0.00237,-0.02 c -5.74e-4,-0.003 -10e-4,-6.4e-4 -10e-4,0.005 0,0.005 4.792e-4,0.008 10e-4,0.005 5.749e-4,-0.003 5.749e-4,-0.008 0,-0.0105 z m 0.00237,-0.0247 c -5.429e-4,-0.003 -10e-4,-6.5e-4 -10e-4,0.007 0,0.008 4.144e-4,0.01 10e-4,0.007 5.43e-4,-0.003 5.43e-4,-0.009 0,-0.0129 z m 0.00237,-0.0364 c -5.111e-4,-0.005 -8.942e-4,-0.002 -9.111e-4,0.009 -1.01e-5,0.0103 3.826e-4,0.0148 8.942e-4,0.01 5.101e-4,-0.004 5.101e-4,-0.0133 1.65e-5,-0.0187 z m 0.00237,-0.0752 c -4.145e-4,-0.0107 -7.971e-4,-0.003 -7.971e-4,0.0181 -2.7e-6,0.0207 3.507e-4,0.0294 7.971e-4,0.0195 4.154e-4,-0.01 4.154e-4,-0.0269 5.5e-6,-0.0376 z m -0.00237,-0.0565 c -5.111e-4,-0.005 -8.942e-4,-0.002 -9.111e-4,0.009 -1.01e-5,0.0103 3.826e-4,0.0149 8.942e-4,0.01 5.101e-4,-0.004 5.101e-4,-0.0133 1.65e-5,-0.0188 z m -0.00237,-0.0318 c -5.429e-4,-0.003 -10e-4,-6.5e-4 -10e-4,0.007 0,0.008 4.144e-4,0.01 10e-4,0.007 5.43e-4,-0.003 5.43e-4,-0.009 0,-0.0129 z m -0.00237,-0.0224 c -5.74e-4,-0.003 -10e-4,-6.4e-4 -10e-4,0.005 0,0.005 4.792e-4,0.008 10e-4,0.005 5.749e-4,-0.003 5.749e-4,-0.008 0,-0.0105 z m -0.00237,-0.0201 c -6.067e-4,-0.002 -0.0011,-3.2e-4 -0.0011,0.004 0,0.004 5.111e-4,0.007 0.0011,0.004 6.058e-4,-0.002 6.058e-4,-0.007 0,-0.008 z m -0.00237,-0.0164 c -6.068e-4,-0.002 -0.0011,-3.1e-4 -0.0011,0.004 0,0.004 5.102e-4,0.007 0.0011,0.004 6.067e-4,-0.002 6.067e-4,-0.007 0,-0.008 z m -0.00237,-0.0164 c -6.066e-4,-0.002 -0.0011,-3.2e-4 -0.0011,0.004 0,0.004 5.111e-4,0.007 0.0011,0.004 6.068e-4,-0.002 6.068e-4,-0.007 0,-0.008 z m -0.00237,-0.014 c -6.058e-4,-0.002 -0.0011,-8.4e-4 -0.00118,0.003 -4.83e-5,0.003 4.154e-4,0.005 0.0011,0.004 6.387e-4,-0.002 7.024e-4,-0.004 9.02e-5,-0.008 z m -0.00246,-0.013 c -6.705e-4,-0.002 -0.00118,-2.9e-4 -0.00118,0.003 0,0.003 5.43e-4,0.004 0.00118,0.003 6.696e-4,-0.002 6.696e-4,-0.004 0,-0.005 z m -0.00391,-0.0218 c -0.00164,-0.008 -0.00337,-0.015 -0.00391,-0.0145 -5.739e-4,6.3e-4 2.907e-4,0.008 0.00182,0.0166 0.00164,0.008 0.00337,0.015 0.00391,0.0145 5.749e-4,-6.4e-4 -2.605e-4,-0.008 -0.00182,-0.0166 z m -0.00601,-0.0281 c -8.943e-4,-0.004 -0.00209,-0.008 -0.00264,-0.008 -5.739e-4,6.3e-4 -3.188e-4,0.004 5.748e-4,0.01 8.942e-4,0.004 0.00209,0.008 0.00264,0.008 5.748e-4,-6.3e-4 3.188e-4,-0.004 -5.748e-4,-0.01 z m -0.0041,-0.0159 c -7.66e-4,-0.002 -0.00127,-8.4e-4 -0.00146,8.5e-4 -1.047e-4,0.002 4.793e-4,0.003 0.00118,0.003 7.979e-4,-6.4e-4 8.604e-4,-0.003 1.866e-4,-0.004 z m -0.00237,-0.009 c -7.661e-4,-0.002 -0.00127,-8.4e-4 -0.00146,8.4e-4 -1.039e-4,0.002 4.791e-4,0.003 0.00118,0.003 7.981e-4,-6.3e-4 8.605e-4,-0.003 1.859e-4,-0.004 z m -0.00237,-0.009 c -7.661e-4,-0.002 -0.00127,-8.5e-4 -0.00146,8.4e-4 -1.048e-4,0.002 4.782e-4,0.003 0.00118,0.003 7.98e-4,-6.4e-4 8.605e-4,-0.003 1.858e-4,-0.004 z m -0.00292,-0.0123 c -8.605e-4,-0.003 -0.00201,-0.005 -0.00255,-0.005 -5.748e-4,6.4e-4 -2.978e-4,0.003 5.749e-4,0.008 8.604e-4,0.003 0.00201,0.005 0.00255,0.005 5.74e-4,-6.3e-4 2.97e-4,-0.003 -5.749e-4,-0.008 z m -0.00474,-0.0165 c -8.605e-4,-0.003 -0.00201,-0.005 -0.00255,-0.005 -5.749e-4,6.3e-4 -2.979e-4,0.003 5.748e-4,0.008 8.605e-4,0.003 0.00201,0.005 0.00255,0.005 5.739e-4,-6.4e-4 2.979e-4,-0.003 -5.748e-4,-0.008 z m -0.00592,-0.0199 c -0.00164,-0.005 -0.00328,-0.009 -0.00383,-0.009 -5.42e-4,6.4e-4 3.197e-4,0.005 0.00192,0.0105 0.00164,0.005 0.00328,0.009 0.00383,0.009 5.43e-4,-6.3e-4 -3.188e-4,-0.005 -0.00191,-0.0106 z m -0.016498,-0.0493 c -0.00146,-0.004 -0.003,-0.008 -0.00355,-0.007 -5.111e-4,6.4e-4 2.678e-4,0.004 0.00173,0.008 0.00146,0.004 0.003,0.008 0.00355,0.007 5.102e-4,-6.4e-4 -2.678e-4,-0.004 -0.00173,-0.008 z m -0.015204,-0.0401 c -0.00474,-0.0118 -0.00902,-0.0211 -0.00947,-0.0207 -4.792e-4,3.2e-4 0.003,0.0106 0.00774,0.0224 0.00474,0.0118 0.00902,0.0213 0.00947,0.0207 5.111e-4,-3.2e-4 -0.003,-0.0105 -0.00774,-0.0224 z m -0.014831,-0.0346 c -0.00264,-0.004 -0.00483,-0.008 -0.00483,-0.008 -1.64e-4,0.003 0.00774,0.0184 0.00875,0.0173 5.111e-4,-6.5e-4 -0.00118,-0.004 -0.00383,-0.01 z"
       id="path4523"
       inkscape:connector-curvature="0" />
    <path
       style="fill:#e69f00;fill-opacity:1;stroke-width:0.00235096"
       d="m 4.0160891,289.87361 c -0.1011629,-0.058 -0.2014084,-0.13805 -0.2764026,-0.22082 -0.1272141,-0.14041 -0.2143033,-0.29796 -0.2644033,-0.47832 l -0.0071,-0.0257 v -0.27777 -0.27777 l 0.0072,-0.0256 c 0.035355,-0.12658 0.084092,-0.23318 0.1557695,-0.34071 0.069298,-0.10397 0.1618183,-0.20179 0.2637564,-0.27886 0.144794,-0.10945 0.3201231,-0.18524 0.4995815,-0.21593 0.074025,-0.0127 0.1060458,-0.0151 0.1955254,-0.0152 l 0.081505,-8e-5 0.271097,-0.4696 0.2710972,-0.46961 h 0.5848479 c 0.3216662,0 0.5848479,3.3e-4 0.5848479,8.5e-4 0,6.3e-4 -0.013063,0.0235 -0.029042,0.0511 -0.3073474,0.5311 -0.8032022,1.39218 -0.8032022,1.39479 0,0.002 0.0072,0.0149 0.015988,0.0288 0.017336,0.0275 0.033305,0.0553 0.051297,0.0894 l 0.011478,0.0217 1.6474413,3e-5 1.6474412,2e-5 v 0.50664 0.50663 H 7.2779022 5.6310012 l 0.00474,-0.009 c 0.00264,-0.005 0.00474,-0.0101 0.00474,-0.0112 -2.83e-5,-8.5e-4 -0.01043,0.0182 -0.023111,0.0429 -0.058904,0.11409 -0.11734,0.19372 -0.2105956,0.28698 -0.079173,0.0791 -0.1443977,0.12974 -0.2374521,0.18407 l -0.032759,0.0191 H 4.5908097 4.0450635 l -0.028887,-0.0166 z m 1.6336864,-0.5371 c 0,-8.5e-4 -10e-4,-6.5e-4 -0.00228,8.4e-4 -0.00127,0.002 -0.00228,0.004 -0.00228,0.005 0,8.4e-4 0.001,6.3e-4 0.00228,-8.4e-4 0.00127,-0.002 0.00228,-0.004 0.00228,-0.005 z m 0.00801,-0.0166 c 7.98e-4,-0.002 3.835e-4,-0.003 -9.11e-4,-0.002 -0.00127,6.3e-4 -0.00237,0.002 -0.00237,0.003 0,0.003 0.00173,0.003 0.00328,-8.4e-4 z m 0.0061,-0.0163 c 0,-8.4e-4 -0.001,-6.4e-4 -0.00228,8.5e-4 -0.00127,0.002 -0.00228,0.004 -0.00228,0.005 0,8.4e-4 0.001,6.3e-4 0.00228,-8.4e-4 0.00127,-0.002 0.00228,-0.004 0.00228,-0.005 z m 0.00474,-0.0117 c 0,-8.5e-4 -0.001,-6.4e-4 -0.00228,8.4e-4 -0.00127,0.002 -0.00228,0.004 -0.00228,0.005 0,8.5e-4 10e-4,6.4e-4 0.00228,-8.4e-4 0.00127,-0.002 0.00228,-0.004 0.00228,-0.005 z m 0.015186,-0.0412 c 0.0011,-0.003 8.942e-4,-0.004 -6.067e-4,-0.002 -0.00118,0.002 -0.00292,0.007 -0.00374,0.009 -0.0011,0.003 -8.942e-4,0.004 6.067e-4,0.002 0.00118,-0.002 0.00292,-0.007 0.00374,-0.009 z m 0.047626,-0.18851 c -7.661e-4,-0.002 -0.00127,-8.4e-4 -0.00146,8.4e-4 -1.038e-4,0.002 4.783e-4,0.003 0.00118,0.003 7.979e-4,-6.4e-4 8.604e-4,-0.003 1.867e-4,-0.004 z m 0.00474,-0.0305 c -7.652e-4,-0.002 -0.00127,-8.4e-4 -0.00146,8.4e-4 -1.039e-4,0.002 4.782e-4,0.003 0.00118,0.003 7.981e-4,-6.4e-4 8.605e-4,-0.003 1.868e-4,-0.004 z m 0.00237,-0.0187 c -7.66e-4,-0.002 -0.00127,-8.4e-4 -0.00146,8.5e-4 -1.038e-4,0.002 4.792e-4,0.003 0.00118,0.003 7.979e-4,-6.4e-4 8.604e-4,-0.003 1.858e-4,-0.004 z m 0.00228,-0.0213 c -6.705e-4,-0.002 -0.00118,-3e-4 -0.00118,0.003 0,0.003 5.43e-4,0.004 0.00118,0.003 6.705e-4,-0.002 6.705e-4,-0.004 0,-0.005 z m 0.00237,-0.0235 c -6.696e-4,-0.002 -0.00118,-2.8e-4 -0.00118,0.003 0,0.003 5.429e-4,0.004 0.00118,0.003 6.705e-4,-0.002 6.705e-4,-0.004 0,-0.005 z m 0.00246,-0.0341 c -6.058e-4,-0.002 -0.0011,-3.1e-4 -0.0011,0.004 0,0.004 5.111e-4,0.007 0.0011,0.004 6.067e-4,-0.002 6.067e-4,-0.007 0,-0.008 z m 0.00246,-0.0682 c -5.43e-4,-0.003 -0.001,-8.5e-4 -0.001,0.005 -1.92e-5,0.007 4.145e-4,0.009 0.001,0.007 5.748e-4,-0.003 5.748e-4,-0.008 3.18e-5,-0.0117 z m -0.00246,-0.0635 c -6.058e-4,-0.002 -0.0011,-3.2e-4 -0.0011,0.004 0,0.004 5.111e-4,0.007 0.0011,0.004 6.067e-4,-0.002 6.067e-4,-0.007 0,-0.008 z m -0.00246,-0.0341 c -6.696e-4,-0.002 -0.00118,-2.9e-4 -0.00118,0.003 0,0.003 5.429e-4,0.004 0.00118,0.003 6.705e-4,-0.002 6.705e-4,-0.004 0,-0.005 z m -0.00237,-0.0235 c -6.705e-4,-0.002 -0.00118,-3.1e-4 -0.00118,0.003 0,0.003 5.43e-4,0.004 0.00118,0.003 6.705e-4,-0.002 6.705e-4,-0.004 0,-0.005 z m -0.00237,-0.0212 c -6.704e-4,-0.002 -0.00118,-3e-4 -0.00118,0.003 0,0.003 5.42e-4,0.004 0.00118,0.003 6.705e-4,-0.002 6.705e-4,-0.004 0,-0.005 z m -0.00228,-0.0163 c -7.652e-4,-0.002 -0.00127,-8.4e-4 -0.00146,8.4e-4 -1.039e-4,0.002 4.782e-4,0.003 0.00118,0.003 7.981e-4,-6.4e-4 8.605e-4,-0.003 1.868e-4,-0.004 z m -0.00474,-0.0305 c -7.661e-4,-0.002 -0.00127,-8.4e-4 -0.00146,8.5e-4 -1.038e-4,0.002 4.783e-4,0.003 0.00118,0.003 7.979e-4,-6.5e-4 8.604e-4,-0.003 1.867e-4,-0.004 z m -0.00474,-0.0259 c -7.661e-4,-0.002 -0.00127,-8.4e-4 -0.00146,8.5e-4 -1.048e-4,0.002 4.791e-4,0.003 0.00118,0.003 7.98e-4,-6.4e-4 8.605e-4,-0.003 1.868e-4,-0.004 z m -0.00237,-0.0117 c -7.662e-4,-0.002 -0.00127,-8.5e-4 -0.00146,8.4e-4 -1.038e-4,0.002 4.792e-4,0.003 0.00118,0.003 7.98e-4,-6.5e-4 8.605e-4,-0.003 1.858e-4,-0.004 z m -0.028213,-0.11049 c -7.661e-4,-0.002 -0.00127,-8.4e-4 -0.00146,8.4e-4 -1.039e-4,0.002 4.783e-4,0.003 0.00118,0.003 7.98e-4,-6.4e-4 8.605e-4,-0.003 1.867e-4,-0.004 z m -0.017773,-0.0528 c -0.00273,-0.004 -0.00346,-0.003 -0.00118,0.003 7.981e-4,0.002 0.00192,0.003 0.00255,0.003 6.067e-4,-6.3e-4 -2.09e-5,-0.003 -0.00137,-0.005 z m -0.028213,-0.0705 c -0.00273,-0.004 -0.00346,-0.003 -0.00118,0.003 7.98e-4,0.002 0.00191,0.003 0.00255,0.003 6.068e-4,-6.4e-4 -2e-5,-0.003 -0.00137,-0.005 z m -0.010585,-0.0235 c -0.00201,-0.003 -0.00364,-0.007 -0.00374,-0.005 -1.557e-4,0.003 0.00528,0.0137 0.00638,0.0127 5.43e-4,-6.5e-4 -6.705e-4,-0.003 -0.00264,-0.008 z"
       id="path4525"
       inkscape:connector-curvature="0" />
    <path
       style="fill:#e69f00;fill-opacity:1;stroke-width:0.07447486"
       id="path4527"
       d="m 10.098227,279.4693 c -0.0064,0.0137 -0.01384,0.0267 -0.02209,0.0392 -0.0062,0.0103 -0.01333,0.0197 -0.02079,0.0292 -0.02335,0.0276 -0.03814,0.0289 -0.079467,0.0517 -0.00947,-0.008 -0.010115,-0.0224 -0.011659,-0.0342 -4.775e-4,-0.014 -0.00329,-0.0275 -0.00683,-0.041 -0.00363,-0.0102 -0.00675,-0.0206 -0.00835,-0.0313 -0.00135,-0.0111 -0.00118,-0.0224 -0.00118,-0.0334 5.416e-4,-0.0127 0.00422,-0.0252 0.0081,-0.0374 0.0027,-0.009 0.00801,-0.0178 0.011777,-0.0267 0.00875,-0.0259 -0.00523,-0.007 0.064207,-0.0313 0.0014,-6.3e-4 -0.0012,0.003 -0.0019,0.004 -0.0024,0.005 -0.0025,0.005 -0.0054,0.0113 -0.0091,0.0169 -0.02176,0.0315 -0.034419,0.0456 -0.00967,0.0124 -0.021352,0.0227 -0.032926,0.0332 -0.00734,0.007 -0.01424,0.0127 -0.019858,0.0204 -0.086971,0.0943 -0.063793,0.0275 -0.057078,0.003 0.00456,-0.0167 0.00995,-0.0331 0.015632,-0.0494 0.00422,-0.0114 0.00827,-0.0229 0.012932,-0.0342 3.838e-4,-8.5e-4 3.517e-4,-0.002 0.00118,-0.003 0.020694,-0.0115 0.040949,-0.0241 0.062924,-0.033 0.00219,-8.4e-4 0.00186,0.004 0.00211,0.008 5.745e-4,0.007 -0.00574,0.0137 -0.00884,0.0183 -0.010309,0.0143 -0.0233,0.0261 -0.036621,0.0373 -0.010275,0.008 -0.019985,0.0178 -0.030986,0.0255 -0.03015,0.0187 -0.060427,0.0375 -0.092826,0.0521 -0.00228,6.4e-4 -0.00405,0.002 -0.00565,-8.4e-4 -0.00498,-0.008 -2.312e-4,-0.0112 0.00531,-0.0172 0.00941,-0.01 0.017876,-0.0199 0.026784,-0.03 0.00875,-0.0106 0.017319,-0.0213 0.02654,-0.0316 0.010908,-0.0105 0.02249,-0.0202 0.032732,-0.0313 0.00911,-0.009 0.015564,-0.0193 0.020567,-0.0309 0.00447,-0.0116 0.010199,-0.0224 0.016552,-0.033 0.00236,-0.004 0.00371,-0.007 0.00523,-0.0103 2.607e-4,-8.4e-4 3.838e-4,-0.003 4.792e-4,-0.003 4.72e-5,8.5e-4 3.096e-4,0.003 -3.839e-4,0.003 -0.00143,0.002 -0.013059,0.008 -0.013253,0.008 -0.019951,0.01 -0.069732,0.0377 0.01742,-0.011 0.00489,-0.003 -0.00963,0.005 -0.014434,0.008 -0.014527,0.009 -0.013337,0.008 -0.02724,0.017 -0.03641,0.0251 -0.1441416,0.0812 -0.029214,0.018 0.00253,-8.5e-4 -0.00481,0.003 -0.00717,0.004 -0.00135,8.4e-4 -0.010334,0.008 -0.011962,0.008 -0.00984,0.008 -0.017437,0.017 -0.02384,0.0272 -0.00523,0.01 -0.01,0.0193 -0.015505,0.0287 -0.00548,0.008 -0.011802,0.0159 -0.017142,0.0243 0.011996,-6.4e-4 0.026936,-0.007 0.039126,-0.011 0.02859,-0.0106 0.057348,-0.0209 0.085349,-0.0331 0.022575,-0.0106 0.065447,-0.0353 -0.034318,0.0209 -0.00194,8.5e-4 0.00363,-0.002 0.00548,-0.003 0.00295,-0.002 0.00641,-0.004 0.00916,-0.008 0.00498,-0.004 0.00253,-0.002 0.00734,-0.007 0,0 0.064392,-0.0267 0.064392,-0.0267 v 0 c -0.00464,0.004 -0.00228,0.003 -0.00709,0.008 -0.00481,0.003 -0.0093,0.008 -0.014552,0.0116 -0.028016,0.0164 -0.054539,0.0334 -0.08404,0.0463 -0.028286,0.0114 -0.056808,0.0224 -0.085513,0.0326 -0.010849,0.003 -0.037287,0.0158 -0.046677,0.003 -0.00118,-0.002 -0.00152,-0.003 -0.00228,-0.005 0.0027,-0.007 0.00734,-0.0108 0.01111,-0.0165 0.00101,-8.4e-4 0.0016,-0.003 0.0027,-0.004 9.28e-4,-8.5e-4 0.00211,-0.003 0.00321,-0.003 0.0065,-0.009 0.010748,-0.0187 0.015801,-0.0284 0.00574,-0.0112 0.013692,-0.0215 0.02287,-0.03 0.00641,-0.004 0.012806,-0.01 0.019504,-0.0139 0.079476,-0.0478 0.092441,-0.0533 0.018475,-0.0112 -0.00388,0.002 0.00776,-0.004 0.0116,-0.008 0.045884,-0.0295 0.092798,-0.0578 0.1416631,-0.0821 0.00388,-8.5e-4 0.011979,-0.005 0.016973,-0.003 0.010039,0.003 0.00371,0.0151 5.424e-4,0.0208 -0.00599,0.0106 -0.012924,0.0206 -0.016838,0.0322 -0.00523,0.0119 -0.010047,0.0239 -0.019782,0.033 -0.010132,0.0115 -0.020812,0.0219 -0.032858,0.0315 -0.00934,0.0101 -0.018264,0.0205 -0.026523,0.0315 -0.00893,0.01 -0.017361,0.0203 -0.026371,0.03 -5.737e-4,6.5e-4 -0.00692,0.008 -0.00835,0.008 -0.00186,-8.4e-4 -0.00498,-0.003 -0.00354,-0.004 6.706e-4,-6.3e-4 0.00177,-8.4e-4 0.00253,-8.4e-4 0.022161,-0.01 0.050414,-0.0282 -0.042779,0.0262 -0.00118,8.5e-4 0.00489,-0.003 0.011203,-0.007 0.0016,-8.4e-4 0.00329,-0.002 0.00498,-0.003 0.011954,-0.007 0.021293,-0.016 0.031593,-0.0245 0.013304,-0.0111 0.026599,-0.022 0.037439,-0.0356 5.736e-4,-8.4e-4 0.00875,-0.0138 0.00977,-0.0143 6.698e-4,-2.8e-4 0.00143,8.4e-4 0.00211,8.4e-4 0.020137,-0.011 0.039624,-0.0229 0.059575,-0.0342 7.668e-4,-6.4e-4 -0.00127,8.4e-4 -0.00194,0.002 -0.00599,0.0106 -0.00893,0.0227 -0.013793,0.0338 -0.00599,0.016 -0.011304,0.0324 -0.015784,0.0489 -0.011043,0.0424 -6.698e-4,0.021 -0.070492,0.0556 -4.15e-4,2.2e-4 4.792e-4,-8.4e-4 7.028e-4,-8.4e-4 0.00633,-0.008 0.011684,-0.0159 0.019707,-0.0219 0.01219,-0.01 0.024085,-0.0204 0.033964,-0.0327 0.012561,-0.0138 0.025249,-0.0277 0.03452,-0.044 6.386e-4,-8.5e-4 0.00709,-0.0144 0.00717,-0.0144 0.1199774,-0.0643 0.071487,-0.0515 0.062536,-0.0278 -0.003,0.009 -0.0086,0.0174 -0.01206,0.0266 -0.0039,0.0115 -0.008,0.0232 -0.0092,0.0353 2.8e-5,0.0109 -1.4e-5,0.0217 0.001,0.0324 0.0013,0.0105 0.0041,0.0208 0.0079,0.0308 0.0035,0.0138 0.0069,0.0275 0.007,0.0419 6.5e-5,6.4e-4 0.0038,0.0288 0.0059,0.0238 -0.01925,0.0111 -0.038494,0.0222 -0.057753,0.0333 0.0038,-0.002 0.00371,-8.4e-4 0.00709,-0.004 0.00363,-0.003 0.00633,-0.008 0.010452,-0.0106 0.00768,-0.009 0.015295,-0.0184 0.021343,-0.0287 0.0084,-0.0121 0.016,-0.0245 0.02215,-0.0379 0,0 0.06344,-0.0291 0.06344,-0.0291 z"
       inkscape:connector-curvature="0" />
    <path
       style="fill:#e69f00;fill-opacity:1;stroke-width:0.07447486"
       id="path4529"
       d="m 10.034173,279.4969 c 0.0033,0.002 0.0066,0.003 0.0097,0.005 0.002,8.4e-4 0.004,0.003 0.0062,0.004 0.0024,8.4e-4 0.0048,0.002 0.007,0.003 0.002,8.4e-4 0.0044,0.002 0.0065,0.003 0.0025,8.5e-4 0.0047,0.003 0.007,0.003 0.0027,0.002 0.0056,0.003 0.0087,0.004 0.0025,8.4e-4 0.0048,0.003 0.0073,0.003 0.0024,6.4e-4 0.0044,0.002 0.0065,0.003 0.0024,8.5e-4 0.005,0.002 0.0075,0.003 0.0025,8.5e-4 0.0051,8.5e-4 0.0077,0.002 0.0029,6.4e-4 0.0056,0.002 0.0083,0.003 0.0027,8.5e-4 0.0054,0.003 0.0081,0.004 0.0024,8.5e-4 0.0049,0.003 0.0072,0.004 0.0024,8.4e-4 0.0046,0.003 0.0068,0.004 0.0024,0.002 0.0049,0.003 0.0078,0.004 0.003,8.4e-4 0.0056,0.003 0.0085,0.003 0.003,8.4e-4 0.0059,0.002 0.0089,0.003 0.0031,2.7e-4 0.0059,8.5e-4 0.0087,0.003 0.0027,8.4e-4 0.0057,0.002 0.0086,0.003 0.003,8.4e-4 0.006,0.002 0.009,0.003 0.0027,8.4e-4 0.0054,0.002 0.0081,0.003 0.0022,8.5e-4 0.0046,8.5e-4 0.007,0.002 0.0026,6.3e-4 0.0051,0.002 0.0077,0.003 0.0031,8.4e-4 0.006,0.002 0.0091,0.003 0.0026,2.8e-4 0.0051,8.5e-4 0.0078,0.002 0.0024,2.8e-4 0.0048,8.4e-4 0.0073,8.4e-4 0.0025,6.4e-4 0.0049,8.5e-4 0.0075,8.5e-4 0.0025,3e-5 0.0047,1.4e-4 0.0071,6.3e-4 0.0024,6.5e-4 0.0048,6.5e-4 0.0072,8.4e-4 0.0026,6.5e-4 0.0053,8.5e-4 0.008,0.002 0.0027,8.5e-4 0.0055,8.5e-4 0.0081,0.002 0.0024,8.4e-4 0.0049,0.003 0.0072,0.003 0.0014,8.5e-4 0.0025,0.002 0.0036,0.003 0,0 -0.01486,0.009 -0.01486,0.009 v 0 c -0.0011,-8.5e-4 -0.0021,-0.002 -0.0035,-0.003 -0.0021,-8.4e-4 -0.0046,-0.003 -0.0069,-0.003 -0.0026,-8.4e-4 -0.0053,-0.002 -0.008,-0.002 -0.0026,-6.4e-4 -0.0053,-8.4e-4 -0.0079,-0.002 -0.0024,-2.5e-4 -0.0048,-6.5e-4 -0.0072,-8.5e-4 -0.0024,-2.8e-4 -0.0047,-2.4e-4 -0.007,-6.4e-4 -0.0025,-2.8e-4 -0.005,-8.4e-4 -0.0075,-8.4e-4 -0.0025,-2.8e-4 -0.0049,-8.5e-4 -0.0073,-8.5e-4 -0.0026,-6.3e-4 -0.0053,-8.4e-4 -0.0078,-0.002 -0.003,-8.5e-4 -0.006,-0.002 -0.0091,-0.003 -0.0025,-8.4e-4 -0.0048,-0.002 -0.0076,-0.003 -0.0024,-6.4e-4 -0.0048,-8.4e-4 -0.0072,-0.002 -0.0026,-8.4e-4 -0.0054,-0.002 -0.008,-0.003 -0.003,-8.4e-4 -0.0062,-0.002 -0.0091,-0.003 -0.0028,-8.4e-4 -0.0057,-0.002 -0.0085,-0.003 -0.0027,-8.5e-4 -0.0056,-0.002 -0.0087,-0.003 -0.003,-8.5e-4 -0.006,-0.002 -0.009,-0.003 -0.0028,-8.4e-4 -0.0056,-0.003 -0.0085,-0.003 -0.0028,-8.5e-4 -0.0055,-0.003 -0.008,-0.004 -0.0022,-0.002 -0.0044,-0.003 -0.0068,-0.004 -0.0023,-0.002 -0.0046,-0.003 -0.007,-0.004 -0.0025,-8.4e-4 -0.0052,-0.003 -0.0079,-0.004 -0.0027,-8.5e-4 -0.0054,-0.003 -0.0083,-0.003 -0.0026,-6.4e-4 -0.0053,-8.5e-4 -0.0078,-0.002 -0.0025,-8.5e-4 -0.0052,-0.002 -0.0077,-0.003 -0.0021,-8.5e-4 -0.0043,-0.002 -0.0065,-0.003 -0.0024,-8.5e-4 -0.0046,-0.003 -0.0071,-0.003 -0.0031,-8.4e-4 -0.0059,-0.003 -0.0088,-0.004 -0.0023,-8.4e-4 -0.0046,-0.003 -0.0069,-0.003 -0.0021,-8.4e-4 -0.0044,-0.002 -0.0065,-0.003 -0.0024,-8.5e-4 -0.0048,-0.002 -0.0071,-0.003 -0.0021,-8.4e-4 -0.004,-0.003 -0.0061,-0.004 -0.0032,-0.002 -0.0065,-0.003 -0.0097,-0.004 0,0 0.01462,-0.01 0.01462,-0.01 z"
       inkscape:connector-curvature="0" />
    <path
       style="fill:#e69f00;fill-opacity:1;stroke-width:0.07447486"
       id="path4531"
       d="m 10.270424,279.61084 c -0.0037,1e-4 -0.0073,5e-5 -0.01087,-8.4e-4 -0.0027,-8.4e-4 -0.0054,-0.003 -0.008,-0.003 -0.0025,-8.5e-4 -0.0052,-0.002 -0.0078,-0.003 -0.0026,-8.5e-4 -0.0056,-8.5e-4 -0.0083,-0.002 -0.0011,-2.4e-4 -0.0021,-6.4e-4 -0.0032,-8.5e-4 0,0 0.01444,-0.01 0.01444,-0.01 v 0 c 10e-4,2.7e-4 0.002,6.5e-4 0.003,8.5e-4 0.0027,6.3e-4 0.0056,8.4e-4 0.0083,0.002 0.0027,8.4e-4 0.0055,0.002 0.008,0.003 0.0025,8.4e-4 0.005,0.003 0.0078,0.003 0.0035,8.4e-4 0.007,8.4e-4 0.01063,8.4e-4 0,0 -0.01411,0.0102 -0.01411,0.0102 z"
       inkscape:connector-curvature="0" />
    <path
       style="fill:#e69f00;fill-opacity:1;stroke-width:0.07447486"
       id="path4533"
       d="m 10.283267,279.59753 c 0.0031,8.5e-4 0.0066,0.002 0.0098,0.003 0.0026,8.5e-4 0.0051,0.002 0.0078,0.003 0.002,8.5e-4 0.0039,0.002 0.0061,0.003 0.0027,2.8e-4 0.0052,0.002 0.0079,0.003 0.0028,6.4e-4 0.0056,0.002 0.0083,0.003 0.0024,8.4e-4 0.005,8.4e-4 0.0075,0.002 0.0025,6.5e-4 0.0052,6.5e-4 0.0078,8.5e-4 0.0022,-2.1e-4 0.0044,6.3e-4 0.0065,8.4e-4 0.0024,2.7e-4 0.0046,2.7e-4 0.007,2.7e-4 0.0025,6.5e-4 0.0051,8.4e-4 0.0077,8.4e-4 0.002,6.5e-4 0.0041,8.5e-4 0.0062,8.5e-4 0.0019,-1.8e-4 0.0032,8.4e-4 0.0046,0.002 0.001,6.4e-4 0.0015,6.4e-4 0.0025,8.4e-4 0.0025,8.4e-4 0.0053,0.002 0.0078,0.003 0.0019,8.4e-4 0.0041,8.4e-4 0.0062,8.4e-4 0.0036,0.007 0.0016,0.002 -0.01472,0.0104 -2.61e-4,1.4e-4 -5.74e-4,-2.3e-4 -8.44e-4,-2.8e-4 -0.0012,-2.9e-4 -0.0025,-6.4e-4 -0.0036,-8.4e-4 -0.0025,-8.5e-4 -0.0051,-8.5e-4 -0.0078,-8.5e-4 -0.0026,-10e-6 -0.0053,-1.2e-4 -0.0079,-6.4e-4 -0.0037,-8.4e-4 -0.0078,-8.4e-4 -0.01153,-0.002 -0.0019,-6.4e-4 -0.005,-2.8e-4 -0.0063,-0.002 -2e-4,-2.8e-4 -2.67e-4,-6.4e-4 -3.82e-4,-8.5e-4 0.01768,-0.0113 0.01045,-0.0105 0.02211,-0.008 0.0031,6.4e-4 0.0062,8.4e-4 0.0093,0.002 0.0038,2.8e-4 0.0077,2.8e-4 0.01147,6.4e-4 0.0025,6.3e-4 0.0052,6.3e-4 0.0077,8.4e-4 0.0022,6.5e-4 0.0045,8.4e-4 0.0068,8.4e-4 0.0024,10e-5 0.0046,9e-5 0.007,9e-5 0.0024,7e-5 0.0047,-2e-4 0.0071,2.1e-4 0.0027,2.9e-4 0.0054,8.4e-4 0.008,0.002 0.0026,6.4e-4 0.0054,2.4e-4 0.0081,6.4e-4 0.0026,2.8e-4 0.005,0.002 0.0075,0.003 0.0023,6.4e-4 0.0046,8.4e-4 0.0069,8.4e-4 0.0024,6.4e-4 0.0046,8.5e-4 0.0071,0.002 0.0024,2.8e-4 0.0046,2.8e-4 0.0069,2.8e-4 0.0024,1e-5 0.0047,-10e-6 0.007,-10e-6 0.0024,-1e-5 0.0047,-1e-5 0.007,-1e-5 0.0024,6e-5 0.0048,-1.7e-4 0.0072,2.3e-4 0.0031,1.8e-4 0.0058,8.4e-4 0.0085,0.003 0.0024,8.4e-4 0.0048,0.003 0.0073,0.003 0.002,8.5e-4 0.0043,8.5e-4 0.0065,8.5e-4 0.0024,7e-5 0.0046,5e-5 0.0069,3e-5 0.0015,-10e-6 7.98e-4,8e-5 0.0023,-2.3e-4 0,0 -0.01397,0.0105 -0.01397,0.0105 v 0 c -0.0016,8e-5 -8.3e-4,6e-5 -0.0025,6e-5 -0.0024,10e-6 -0.0047,4e-5 -0.007,-1.4e-4 -0.0024,-2.6e-4 -0.0047,-8.4e-4 -0.0068,-0.002 -0.0024,-8.4e-4 -0.0048,-0.003 -0.0072,-0.003 -0.0025,-8.5e-4 -0.0053,-0.002 -0.0081,-0.002 -0.0024,-1.1e-4 -0.0047,-4e-5 -0.0071,-6e-5 -0.0024,0 -0.0047,0 -0.007,1e-5 -0.0024,0 -0.0047,2e-5 -0.0071,-2e-5 -0.0024,-6e-5 -0.0048,-1.4e-4 -0.0071,-6.4e-4 -0.0024,-6.3e-4 -0.0046,-0.002 -0.0069,-0.002 -0.0024,-1.6e-4 -0.0049,-2.8e-4 -0.0072,-8.5e-4 -0.0024,-8.4e-4 -0.0047,-0.002 -0.0073,-0.002 -0.0027,-2.1e-4 -0.0055,-2e-4 -0.0082,-8.4e-4 -0.0026,-6.4e-4 -0.0053,-8.4e-4 -0.008,-8.4e-4 -0.0024,-1.2e-4 -0.0046,-3e-5 -0.007,-5e-5 -0.0024,-10e-6 -0.0047,-2e-5 -0.0071,-1.8e-4 -0.0024,-2.3e-4 -0.0046,-6.5e-4 -0.0069,-8.4e-4 -0.0024,-2.9e-4 -0.0049,-8.5e-4 -0.0073,-8.5e-4 -0.0038,-7e-5 -0.0078,-10e-5 -0.01159,-6.4e-4 -0.0032,-6.4e-4 -0.0063,-8.4e-4 -0.0094,-0.002 -0.0014,-2.7e-4 -0.003,-8.4e-4 -0.0046,-8.4e-4 -3.51e-4,-4e-5 -7.65e-4,-1.3e-4 -0.0012,-9e-5 -2.52e-4,3e-5 -9.28e-4,2.8e-4 -7.34e-4,2.8e-4 0.0047,-0.003 0.0095,-0.007 0.0143,-0.009 -1.57e-4,-1.3e-4 -3.19e-4,-2.5e-4 -4.78e-4,-3e-4 -1.21e-4,-1.1e-4 2.52e-4,2.4e-4 3.82e-4,3e-4 0.0011,6.3e-4 0.0025,8.4e-4 0.0036,8.4e-4 5.09e-4,10e-5 0.001,1.8e-4 0.0015,2.7e-4 0.0038,6.5e-4 0.0078,8.4e-4 0.01157,0.002 0.0026,2.8e-4 0.0052,2.2e-4 0.0078,6.4e-4 0.0026,2.7e-4 0.0053,8.4e-4 0.0079,8.4e-4 0.0016,2.8e-4 0.001,2.1e-4 0.0025,6.3e-4 3.51e-4,6e-5 7.34e-4,1.6e-4 0.0011,1.7e-4 2.08e-4,10e-6 7.98e-4,-1.9e-4 6.38e-4,-7e-5 -0.01492,0.009 -0.01778,0.003 -0.01379,0.0101 -0.0021,-6.4e-4 -0.0042,-8.4e-4 -0.0062,-0.002 -0.0026,-8.4e-4 -0.0052,-0.002 -0.0078,-0.003 -0.0024,-8.4e-4 -0.0045,-0.002 -0.0071,-0.002 -0.002,-2.7e-4 -0.0041,-8.4e-4 -0.0061,-8.4e-4 -0.0025,-2.8e-4 -0.005,-8.4e-4 -0.0076,-8.4e-4 -0.0024,-5e-5 -0.0048,-1e-4 -0.0072,-6.4e-4 -0.0021,-2.7e-4 -0.0042,-8.5e-4 -0.0064,-6.4e-4 -0.0026,-1.5e-4 -0.0053,-2.8e-4 -0.0079,-8.4e-4 -0.0025,-6.4e-4 -0.0052,-8.4e-4 -0.0077,-0.002 -0.0027,-8.4e-4 -0.0056,-0.002 -0.0083,-0.003 -0.0025,-8.4e-4 -0.0051,-0.002 -0.0078,-0.003 -0.0021,-8.4e-4 -0.004,-0.002 -0.0061,-0.003 -0.0026,-8.4e-4 -0.0051,-0.002 -0.0078,-0.003 -0.0034,-8.4e-4 -0.0067,-0.002 -0.0099,-0.003 0,0 0.01441,-0.01 0.01441,-0.01 z"
       inkscape:connector-curvature="0" />
    <path
       style="fill:#e69f00;fill-opacity:1;stroke-width:0.07447486"
       id="path4535"
       d="m 10.377392,279.63787 c -0.0052,8e-5 -0.01034,-2.7e-4 -0.01551,-6.4e-4 -0.0057,-2.8e-4 -0.01146,-8.4e-4 -0.01713,-0.002 -0.0032,-8.5e-4 -0.0065,-6.4e-4 -0.0097,-8.5e-4 -0.0031,-6.3e-4 -0.0059,-0.002 -0.0087,-0.003 -0.0026,-0.002 -0.0054,-0.003 -0.0082,-0.003 -0.003,-8.5e-4 -0.0061,-0.002 -0.0093,-0.003 -1.42e-4,0 -5.75e-4,1.1e-4 -4.15e-4,3e-5 0.0052,-0.003 0.01022,-0.008 0.01572,-0.009 7.34e-4,-2.9e-4 0.0015,6.3e-4 0.0024,6.3e-4 0.0037,8.5e-4 0.0075,0.002 0.01122,0.003 0.008,0.003 0.0161,0.004 0.0243,0.007 0.005,8.4e-4 0.01014,8.4e-4 0.01526,8.4e-4 0.0018,-9e-5 0.0035,1.6e-4 0.0052,2e-5 0.0054,-6.4e-4 0.0247,-0.0156 -0.01318,0.009 -0.0045,-6.4e-4 -0.0089,-2.9e-4 -0.01336,-6.4e-4 -0.0065,9e-5 -0.01298,-3e-5 -0.01945,-8.5e-4 -0.0059,-8.4e-4 -0.01186,-8.4e-4 -0.01781,-8.4e-4 -0.004,-2.5e-4 -0.005,-8.4e-4 -0.0077,-0.003 0,0 0.01478,-0.009 0.01478,-0.009 v 0 c 0.0024,0.002 0.0035,0.003 0.0068,0.003 0.0059,3e-4 0.01184,8.5e-4 0.01775,0.002 0.0065,6.4e-4 0.01291,6.4e-4 0.01939,6.4e-4 0.0046,2e-5 0.0094,-1.5e-4 0.01394,8.5e-4 -0.01409,0.0112 -0.009,0.011 -0.0205,0.0105 -0.0051,-2.4e-4 -0.01024,-8.4e-4 -0.01526,-0.002 -0.0082,-0.002 -0.01622,-0.003 -0.02421,-0.007 -6.7e-4,-1.9e-4 -0.0073,-0.002 -0.0082,-0.002 -0.0011,-2.8e-4 -0.0022,-6.3e-4 -0.0033,-8.5e-4 -8.3e-4,-2.1e-4 -0.0031,-2e-5 -0.0025,-6.3e-4 0.01088,-0.0114 0.0079,-0.0124 0.01346,-0.0102 0.0032,8.5e-4 0.0064,0.002 0.0094,0.003 0.0028,8.4e-4 0.0056,0.003 0.0083,0.004 0.0026,8.4e-4 0.0055,0.002 0.0084,0.003 0.0032,2.8e-4 0.0065,6.4e-4 0.0096,8.4e-4 0.0056,8.4e-4 0.01127,8.4e-4 0.01694,0.002 0.0052,2.8e-4 0.01047,6.4e-4 0.01571,2.8e-4 0,0 -0.01411,0.0103 -0.01411,0.0103 z"
       inkscape:connector-curvature="0" />
    <path
       style="fill:#e69f00;fill-opacity:1;stroke-width:0.07447486"
       id="path4537"
       d="m 9.8791376,279.41387 c -0.00135,-0.003 -0.00304,-0.005 -0.00531,-0.008 -0.00194,-8.4e-4 -0.00422,-8.4e-4 -0.0065,-8.4e-4 -0.00278,-8.5e-4 -0.00557,-8.5e-4 -0.00847,-0.002 -0.00186,-6.3e-4 -0.00371,2e-5 -0.00557,-6.3e-4 -2.548e-4,-10e-5 -0.00236,-8.5e-4 -0.00262,-8.5e-4 -0.00245,-0.002 -0.00481,-0.003 -0.00692,-0.005 -0.00228,-0.002 -0.00346,-0.004 -0.00498,-0.008 -0.00143,-0.003 -0.00337,-0.005 -0.00582,-0.007 -0.00211,-8.4e-4 -0.0043,-0.002 -0.0065,-0.003 -0.00236,-8.4e-4 -0.00405,-0.003 -0.00565,-0.005 -0.00211,-0.003 -0.00447,-0.004 -0.00666,-0.008 -0.00186,-0.002 -0.00337,-0.004 -0.00456,-0.008 -0.00101,-0.003 -0.00245,-0.004 -0.00422,-0.008 -0.00143,-0.002 -0.00337,-0.003 -0.00548,-0.003 -0.0038,-8.4e-4 -0.00768,-0.002 -0.01149,-0.002 -0.00413,-8.4e-4 -0.00666,-0.002 -0.010106,-0.004 -0.00194,-8.5e-4 -0.00321,-0.003 -0.0043,-0.005 -0.00135,-0.002 -0.00202,-0.004 -0.00304,-0.007 -0.00127,-0.002 -0.0027,-0.004 -0.00422,-0.008 -0.00118,-0.002 -0.00304,-0.004 -0.00464,-0.007 -0.00177,-0.002 -0.00354,-0.004 -0.00548,-0.007 -0.00211,-0.002 -0.00456,-0.003 -0.00692,-0.005 -0.00253,-0.002 -0.00506,-0.003 -0.00751,-0.005 -0.00245,-0.002 -0.00456,-0.004 -0.00633,-0.008 -0.00177,-0.003 -0.00312,-0.005 -0.00481,-0.009 -0.00152,-0.002 -0.00245,-0.004 -0.00413,-0.007 -0.00143,-0.002 -0.00312,-0.003 -0.00464,-0.005 -0.00177,-0.002 -0.00346,-0.003 -0.00498,-0.004 -0.0016,-0.002 -0.00321,-0.003 -0.00498,-0.005 -0.00202,-0.002 -0.00447,-0.003 -0.0065,-0.004 -0.00211,-0.002 -0.00447,-0.003 -0.00666,-0.004 -0.00245,-0.002 -0.00506,-0.003 -0.00734,-0.005 -0.00219,-0.002 -0.00371,-0.004 -0.00506,-0.008 -9.28e-4,-0.002 -0.00186,-0.004 -0.00262,-0.007 -7.01e-4,-0.002 -0.0011,-0.004 -0.00228,-0.007 -0.0011,-0.002 -0.00236,-0.004 -0.0038,-0.007 -0.00202,-0.002 -0.00405,-0.004 -0.00641,-0.007 -0.00186,-0.002 -0.00371,-0.003 -0.00557,-0.004 -0.00186,-0.002 -0.00337,-0.003 -0.00506,-0.005 -0.00202,-0.002 -0.00371,-0.003 -0.00557,-0.005 -0.00194,-0.002 -0.00363,-0.003 -0.00531,-0.007 -0.00135,-0.002 -0.00321,-0.003 -0.00447,-0.007 -0.00118,-0.002 -0.00262,-0.003 -0.00371,-0.007 -7.027e-4,-8.5e-4 -3.096e-4,-6.5e-4 -0.0011,-0.002 0,0 0.015016,-0.009 0.015016,-0.009 v 0 c 8.436e-4,8.4e-4 4.791e-4,6.4e-4 0.00118,0.002 0.0011,0.002 0.00253,0.003 0.00371,0.007 0.00127,0.002 0.00304,0.003 0.00439,0.007 0.0016,0.002 0.00329,0.003 0.00523,0.007 0.00186,0.002 0.00363,0.003 0.00557,0.005 0.0016,0.002 0.00329,0.003 0.00498,0.004 0.00194,0.002 0.00371,0.003 0.00557,0.004 0.00236,0.002 0.00456,0.004 0.00658,0.008 0.00152,0.002 0.00278,0.004 0.00405,0.007 0.00118,0.002 0.00186,0.004 0.00236,0.007 8.301e-4,0.002 0.00177,0.004 0.00253,0.007 0.00118,0.003 0.00262,0.004 0.00472,0.007 0.00228,0.002 0.00489,0.003 0.00726,0.005 0.00228,0.002 0.00456,0.003 0.00675,0.005 0.00211,0.002 0.00456,0.003 0.00658,0.004 0.00186,0.002 0.00346,0.003 0.00506,0.005 0.0016,0.002 0.00337,0.003 0.00498,0.004 0.0016,0.002 0.00329,0.003 0.00472,0.005 0.0016,0.002 0.00262,0.004 0.00422,0.007 0.0016,0.003 0.00304,0.005 0.00472,0.008 0.0016,0.003 0.00363,0.004 0.00599,0.007 0.00236,0.002 0.00498,0.003 0.00751,0.005 0.00245,0.002 0.00489,0.003 0.00709,0.005 0.00194,0.002 0.0038,0.004 0.00557,0.007 0.0016,0.002 0.00346,0.003 0.00472,0.007 0.00152,0.002 0.00304,0.004 0.00439,0.008 0.00101,0.002 0.0016,0.004 0.00295,0.007 0.00101,0.002 0.00202,0.003 0.00371,0.004 0.00295,0.002 0.00607,0.003 0.0096,0.003 0.00388,8.4e-4 0.00801,8.4e-4 0.011844,0.003 0.00236,8.4e-4 0.00439,0.002 0.00591,0.004 0.00177,0.002 0.00321,0.004 0.00439,0.008 0.00118,0.003 0.00253,0.004 0.0043,0.008 0.00211,0.003 0.00464,0.004 0.00666,0.008 0.00152,0.002 0.00321,0.003 0.0054,0.004 0.00211,8.5e-4 0.00447,0.002 0.0065,0.003 0.00253,0.002 0.00464,0.004 0.00616,0.008 0.00143,0.003 0.00253,0.005 0.00472,0.008 0.00202,0.002 0.00422,0.003 0.00666,0.004 0.00253,8.4e-4 0.00506,8.4e-4 0.00785,8.4e-4 0.00278,6.4e-4 0.00557,8.5e-4 0.00835,0.002 0.00253,2.5e-4 0.00498,8.4e-4 0.00709,0.003 0.00236,0.002 0.00413,0.005 0.00574,0.008 0,0 -0.015219,0.008 -0.015219,0.008 z"
       inkscape:connector-curvature="0" />
    <path
       style="fill:#e69f00;fill-opacity:1;stroke-width:0.07447486"
       id="path4539"
       d="m 9.6486556,279.18709 c -0.00186,-0.003 -0.00346,-0.005 -0.00523,-0.008 -0.0011,-0.002 -0.0027,-0.003 -0.0043,-0.005 -0.00186,-0.002 -0.0027,-0.004 -0.00413,-0.007 -0.0011,-0.002 -0.00211,-0.003 -0.00321,-0.007 -0.00118,-0.002 -0.00236,-0.004 -0.00371,-0.007 -0.00127,-0.002 -0.00219,-0.004 -0.00295,-0.008 -9.7e-5,-2.9e-4 -1.932e-4,-8.4e-4 -3.088e-4,-8.4e-4 0,0 0.015354,-0.008 0.015354,-0.008 v 0 c 8.18e-5,2.8e-4 1.637e-4,8.4e-4 2.379e-4,8.4e-4 6.698e-4,0.002 0.00143,0.004 0.00262,0.007 0.00135,0.002 0.00253,0.004 0.0038,0.007 0.0011,0.002 0.00202,0.003 0.00312,0.007 0.00127,0.002 0.00211,0.004 0.00405,0.007 0.0016,0.002 0.00321,0.003 0.00439,0.007 0.00177,0.003 0.00337,0.005 0.00531,0.008 0,0 -0.015117,0.009 -0.015117,0.009 z"
       inkscape:connector-curvature="0" />
    <path
       style="fill:#e69f00;fill-opacity:1;stroke-width:0.07447486"
       id="path4541"
       d="m 9.6256581,279.15473 c 0.00118,-0.003 0.00127,-0.007 0.00118,-0.01 4.13e-5,-0.002 -1.19e-4,-0.003 -4.151e-4,-0.005 0,0 0.015379,-0.008 0.015379,-0.008 v 0 c 3.198e-4,0.002 6.386e-4,0.003 5.113e-4,0.005 3.54e-5,0.003 2.78e-5,0.007 -0.00101,0.01 0,0 -0.015775,0.008 -0.015775,0.008 z"
       inkscape:connector-curvature="0" />
    <path
       style="fill:#cc79a7;fill-opacity:1;stroke-width:0.00166238"
       d="m 9.3995708,283.47256 c -0.086534,-0.16814 -0.2537914,-0.28276 -0.4429945,-0.30359 -0.048873,-0.005 -0.1160701,-0.003 -0.1637442,0.007 -0.1051037,0.0196 -0.2057537,0.0694 -0.2793141,0.13826 -0.00784,0.008 -0.014585,0.0129 -0.015013,0.0125 -0.00127,-8.5e-4 0.027539,-0.0283 0.046733,-0.0436 0.081004,-0.0647 0.1757134,-0.10515 0.2808408,-0.11987 0.026008,-0.003 0.091509,-0.004 0.1208045,-0.003 0.194198,0.0166 0.363868,0.12962 0.4553919,0.30348 0.00528,0.01 0.010795,0.0211 0.012226,0.0245 0.00246,0.007 0.00246,0.007 -6.705e-4,0.007 -0.00246,0 -0.00583,-0.005 -0.014284,-0.0214 z"
       id="path4543"
       inkscape:connector-curvature="0" />
    <path
       style="fill:#cc79a7;fill-opacity:1;stroke-width:0.00029387"
       d="m 8.3943178,283.46595 c 0,-2.6e-4 0.00337,-0.007 0.00701,-0.0133 0.048992,-0.09 0.1228496,-0.16613 0.2110557,-0.21766 0.00865,-0.005 0.00982,-0.005 0.010595,-0.005 4.145e-4,0 -0.00146,8.4e-4 -0.00492,0.003 -0.027174,0.0155 -0.056144,0.0355 -0.079328,0.0548 -0.018401,0.0153 -0.041385,0.0372 -0.040301,0.0382 2.979e-4,3.1e-4 0.00137,-3.1e-4 0.00319,-0.002 9.111e-4,-6.4e-4 0.00173,-8.5e-4 0.00192,-8.5e-4 1.194e-4,0 -0.00456,0.004 -0.010349,0.0106 -0.01085,0.0109 -0.017027,0.0175 -0.025307,0.027 -0.026373,0.0301 -0.049211,0.0626 -0.068751,0.0977 -0.00164,0.003 -0.00328,0.007 -0.00374,0.007 -7.014e-4,8.4e-4 -0.0011,0.002 -0.0011,8.4e-4 z"
       id="path4545"
       inkscape:connector-curvature="0" />
    <path
       style="fill:#cc79a7;fill-opacity:1;stroke-width:0.00394591"
       d=""
       id="path4547"
       inkscape:connector-curvature="0"
       transform="matrix(0.26458333,0,0,0.26458333,0,246.19998)" />
    <path
       style="fill:#cc79a7;fill-opacity:1;stroke-width:0.00394591"
       d=""
       id="path4549"
       inkscape:connector-curvature="0"
       transform="matrix(0.26458333,0,0,0.26458333,0,246.19998)" />
    <path
       style="fill:#cc79a7;fill-opacity:1;stroke-width:0.00116367"
       d="m 12.82942,283.84308 c -5.7e-5,-8.4e-4 6.69e-4,-0.007 0.0016,-0.0116 0.02108,-0.11869 0.002,-0.24644 -0.05295,-0.35433 -0.02814,-0.0553 -0.05976,-0.0988 -0.104103,-0.14327 -0.02481,-0.0249 -0.04197,-0.0399 -0.06527,-0.057 -0.06287,-0.0463 -0.135851,-0.0797 -0.21173,-0.0969 -0.01982,-0.004 -0.04681,-0.009 -0.06923,-0.0114 -0.02293,-0.003 -0.08549,-0.003 -0.107058,-6.4e-4 -0.07614,0.008 -0.139034,0.0261 -0.202961,0.058 -0.06712,0.0335 -0.127349,0.0802 -0.175511,0.13614 -0.0052,0.007 -0.0096,0.0106 -0.0099,0.0103 -8.3e-4,-8.5e-4 0.01988,-0.0251 0.03417,-0.0401 0.09225,-0.0964 0.213675,-0.1561 0.349593,-0.17181 0.0349,-0.003 0.09261,-0.003 0.13033,8.4e-4 0.189197,0.0239 0.353877,0.14125 0.437546,0.31177 0.0063,0.0127 0.01456,0.0311 0.01839,0.0408 0.0387,0.0969 0.04982,0.2031 0.0321,0.30662 -0.003,0.0169 -0.0048,0.0254 -0.005,0.0221 z"
       id="path4551"
       inkscape:connector-curvature="0" />
    <path
       style="fill:#cc79a7;fill-opacity:1;stroke-width:0.00029092"
       d="m 11.770918,283.46584 c -5.4e-5,-8.5e-4 0.01141,-0.0216 0.01816,-0.0329 0.02853,-0.0477 0.06312,-0.0899 0.10467,-0.128 0.0019,-0.002 0.0035,-0.003 0.0035,-0.003 7.5e-5,8e-5 -0.002,0.002 -0.0047,0.004 -0.01151,0.0106 -0.0236,0.0227 -0.03367,0.0338 -0.01279,0.014 -0.02665,0.0306 -0.02665,0.0319 0,6.4e-4 3.51e-4,3.2e-4 0.0025,-0.002 8.3e-4,-6.3e-4 0.0015,-8.4e-4 0.0015,-8.4e-4 0,1.1e-4 -0.002,0.003 -0.0046,0.005 -0.02112,0.0259 -0.04042,0.0543 -0.05634,0.0832 -0.0043,0.008 -0.0045,0.008 -0.0046,0.008 z"
       id="path4553"
       inkscape:connector-curvature="0" />
    <path
       style="fill:#cc79a7;fill-opacity:1;stroke-width:0.00029092"
       d="m 11.832867,283.37149 c 0,-6.5e-4 0.0087,-0.0113 0.01686,-0.0206 0.03548,-0.0405 0.07536,-0.0749 0.120596,-0.10392 0.01765,-0.0113 0.04011,-0.0239 0.05792,-0.0323 l 0.0056,-0.003 0.0067,2e-5 0.0067,2e-5 -0.0016,6.4e-4 c -9.28e-4,3.1e-4 -0.0049,0.002 -0.009,0.004 -0.04897,0.0224 -0.09537,0.052 -0.136442,0.0873 -0.01053,0.009 -0.01909,0.017 -0.03055,0.0285 -0.01033,0.0103 -0.01605,0.0164 -0.02514,0.0267 -0.0066,0.008 -0.01093,0.0122 -0.01125,0.0122 -1.49e-4,0 -2.24e-4,-1.1e-4 -2.24e-4,-2.3e-4 z"
       id="path4555"
       inkscape:connector-curvature="0" />
    <path
       style="fill:#cc79a7;fill-opacity:1;stroke-width:0.00029092"
       d="m 11.832867,283.37149 c 0,-8.4e-4 0.01448,-0.0182 0.02606,-0.0309 0.04669,-0.0512 0.105086,-0.0948 0.167655,-0.12515 l 0.0071,-0.003 0.0067,8e-5 0.0067,7e-5 -0.0077,0.003 c -0.04797,0.0217 -0.09186,0.0491 -0.131999,0.0824 -0.0224,0.0186 -0.04321,0.039 -0.06373,0.0623 -0.0059,0.007 -0.01019,0.0114 -0.0105,0.0114 -1.5e-4,0 -2.24e-4,-10e-5 -2.24e-4,-2.2e-4 z"
       id="path4557"
       inkscape:connector-curvature="0" />
    <path
       style="fill:#cc79a7;fill-opacity:1;stroke-width:0.00082283"
       d="m 12.821459,287.25314 c 0,-6.3e-4 0.0011,-0.005 0.0024,-0.0111 0.02712,-0.11434 0.01848,-0.23331 -0.02479,-0.34164 -0.03232,-0.0809 -0.08097,-0.15125 -0.145233,-0.20999 -0.03795,-0.0347 -0.08114,-0.0643 -0.12798,-0.0877 l -0.0146,-0.008 v -0.005 -0.005 l 0.01007,0.004 c 0.06024,0.0285 0.12124,0.0731 0.167404,0.12253 0.08808,0.0942 0.14008,0.21038 0.15221,0.33997 0.0019,0.0191 0.002,0.075 4.15e-4,0.0926 -0.0033,0.0354 -0.0078,0.0629 -0.01549,0.0938 -0.0034,0.0136 -0.0045,0.017 -0.0045,0.0147 z"
       id="path4559"
       inkscape:connector-curvature="0" />
    <path
       style="fill:#cc79a7;fill-opacity:1;stroke-width:0.00041143"
       d="m 11.777873,286.82925 c 1.48e-4,-3.2e-4 0.0024,-0.004 0.0048,-0.009 0.02062,-0.0363 0.04501,-0.0698 0.07357,-0.10141 0.0087,-0.01 0.02902,-0.0299 0.03865,-0.0385 0.03936,-0.0354 0.08092,-0.0639 0.127117,-0.0869 0.0052,-0.003 0.0096,-0.004 0.0097,-0.004 1.48e-4,0 2.23e-4,0.002 2.23e-4,0.003 v 0.003 l -0.0067,0.003 c -0.01544,0.008 -0.03764,0.0196 -0.05332,0.0294 -0.06,0.0375 -0.112256,0.0853 -0.154391,0.14144 -0.01286,0.0171 -0.02613,0.037 -0.03595,0.0541 -0.0032,0.005 -0.0043,0.008 -0.0037,0.005 z"
       id="path4561"
       inkscape:connector-curvature="0" />
    <path
       style="fill:#cc79a7;fill-opacity:1;stroke-width:0.00058184"
       d="m 9.4046257,286.86013 c -0.00865,-0.0181 -0.020834,-0.0396 -0.032184,-0.0572 -0.055788,-0.0865 -0.1341229,-0.15642 -0.2257032,-0.20148 l -0.012061,-0.007 -9.1e-6,-0.005 -9.2e-6,-0.005 0.0031,8.4e-4 c 0.00565,0.003 0.027675,0.0137 0.035765,0.0181 0.094293,0.0521 0.1724267,0.13064 0.2237419,0.22494 0.00774,0.0143 0.020142,0.0395 0.020142,0.0409 0,1.4e-4 -0.00173,2.2e-4 -0.00391,2.2e-4 l -0.00391,-4e-5 z"
       id="path4563"
       inkscape:connector-curvature="0" />
    <path
       style="fill:#cc79a7;fill-opacity:1;stroke-width:0.00058184"
       d="m 8.4116027,286.81158 c 1.858e-4,-6.3e-4 0.003,-0.005 0.00628,-0.0105 0.055232,-0.0886 0.1341758,-0.16063 0.2268474,-0.20701 l 0.010504,-0.005 v 0.003 0.003 l -0.012471,0.007 c -0.091949,0.0456 -0.1711868,0.11665 -0.2255009,0.20206 -0.00483,0.008 -0.00628,0.01 -0.00565,0.008 z"
       id="path4565"
       inkscape:connector-curvature="0" />
    <text
       xml:space="preserve"
       style="font-style:normal;font-variant:normal;font-weight:normal;font-stretch:normal;font-size:7.16178751px;line-height:4.47611666px;font-family:UltraCondensedSansSerif;-inkscape-font-specification:UltraCondensedSansSerif;letter-spacing:0px;word-spacing:0px;fill:#e69f00;fill-opacity:1;stroke:none;stroke-width:0.17904465"
       x="6.5476661"
       y="294.38187"
       id="text4530"><tspan
         sodipodi:role="line"
         id="tspan4528"
         x="6.5476661"
         y="294.38187"
         style="fill:#e69f00;fill-opacity:1;stroke-width:0.17904465">800</tspan></text>
  </g>
</svg>
