<?xml version="1.0" encoding="UTF-8" standalone="no"?>
<!-- Created with Inkscape (http://www.inkscape.org/) -->

<svg
   xmlns:dc="http://purl.org/dc/elements/1.1/"
   xmlns:cc="http://creativecommons.org/ns#"
   xmlns:rdf="http://www.w3.org/1999/02/22-rdf-syntax-ns#"
   xmlns:svg="http://www.w3.org/2000/svg"
   xmlns="http://www.w3.org/2000/svg"
   xmlns:sodipodi="http://sodipodi.sourceforge.net/DTD/sodipodi-0.dtd"
   xmlns:inkscape="http://www.inkscape.org/namespaces/inkscape"
   width="460"
   height="215"
   viewBox="0 0 121.70833 56.885418"
   version="1.1"
   id="svg3953"
   inkscape:version="0.92.0 r15299"
   sodipodi:docname="squirgleLogoWithText.svg"
   inkscape:export-filename="C:\Users\zgcrowno\Documents\ArtAssets\PlanarGazer\Squirgle\squirgleLogo48.png"
   inkscape:export-xdpi="24"
   inkscape:export-ydpi="24">
  <defs
     id="defs3947" />
  <sodipodi:namedview
     id="base"
     pagecolor="#0072b2"
     bordercolor="#666666"
     borderopacity="1.0"
     inkscape:pageopacity="1"
     inkscape:pageshadow="2"
     inkscape:zoom="2.0000001"
     inkscape:cx="167.36715"
     inkscape:cy="55.509958"
     inkscape:document-units="mm"
     inkscape:current-layer="layer1"
     showgrid="false"
     units="px"
     inkscape:window-width="1920"
     inkscape:window-height="1001"
     inkscape:window-x="-9"
     inkscape:window-y="-9"
     inkscape:window-maximized="1">
    <inkscape:grid
       type="xygrid"
       id="grid3955"
       empspacing="1" />
  </sodipodi:namedview>
  <metadata
     id="metadata3950">
    <rdf:RDF>
      <cc:Work
         rdf:about="">
        <dc:format>image/svg+xml</dc:format>
        <dc:type
           rdf:resource="http://purl.org/dc/dcmitype/StillImage" />
        <dc:title></dc:title>
      </cc:Work>
    </rdf:RDF>
  </metadata>
  <g
     inkscape:label="Layer 1"
     inkscape:groupmode="layer"
     id="layer1"
     transform="translate(0,-240.11456)">
    <circle
       style="fill:#000000;fill-opacity:1;stroke-width:0.23333676"
       id="path4021-8-1"
       cx="79.630569"
       cy="280.73654"
       r="3.623976" />
    <rect
       style="fill:#e69f00;fill-opacity:1;stroke-width:0.19179709"
       id="rect4053"
       width="38.655743"
       height="3.1820273"
       x="41.526348"
       y="279.14554" />
    <circle
       style="fill:#000000;fill-opacity:1;stroke-width:0.23333676"
       id="path4021-8-1-3"
       cx="42.077866"
       cy="280.73654"
       r="3.623976" />
    <circle
       style="fill:#e69f00;fill-opacity:1;stroke-width:0.23333676"
       id="path4021-8-1-8"
       cx="222.08623"
       cy="-176.80876"
       r="3.623976"
       transform="rotate(120)" />
    <rect
       style="fill:#e69f00;fill-opacity:1;stroke-width:0.19179709"
       id="rect4053-2"
       width="38.655743"
       height="3.1820273"
       x="183.98199"
       y="-178.39978"
       transform="rotate(120)" />
    <circle
       style="fill:#e69f00;fill-opacity:1;stroke-width:0.23333676"
       id="path4021-8-1-8-2"
       cx="282.94022"
       cy="-71.406288"
       r="3.623976"
       transform="matrix(0.5,0.8660254,0.8660254,-0.5,0,0)" />
    <rect
       style="fill:#e69f00;fill-opacity:1;stroke-width:0.19179708"
       id="rect4053-2-0"
       width="38.655743"
       height="3.1820273"
       x="244.83624"
       y="-72.997322"
       transform="matrix(0.5,0.8660254,0.8660254,-0.5,0,0)" />
    <circle
       style="fill:#e69f00;fill-opacity:1;stroke-width:0.23333676"
       id="path4021-8-1-3-2-5"
       cx="245.38773"
       cy="-71.406281"
       r="3.623976"
       transform="matrix(0.5,0.8660254,0.8660254,-0.5,0,0)" />
    <circle
       style="fill:#000000;fill-opacity:1;stroke-width:0.29471654"
       id="path4328"
       cx="60.854218"
       cy="269.91382"
       r="9.266181" />
    <circle
       style="fill:#ffffff;fill-opacity:1;stroke-width:0.31116858"
       id="path4330"
       cx="55.578114"
       cy="264.61218"
       r="1.7781061" />
    <circle
       style="fill:#ffffff;fill-opacity:1;stroke-width:0.31116858"
       id="path4330-6"
       cx="55.578114"
       cy="275.19104"
       r="1.7781061" />
    <rect
       style="fill:#cc79a7;fill-opacity:1;stroke-width:0.41747645"
       id="rect4347"
       width="1.500277"
       height="10.224111"
       x="54.814644"
       y="265.03549" />
    <circle
       style="fill:#ffffff;fill-opacity:1;stroke-width:0.31116858"
       id="path4330-9"
       cx="275.19104"
       cy="-66.156982"
       r="1.7781061"
       transform="rotate(90)" />
    <circle
       style="fill:#cc79a7;fill-opacity:1;stroke-width:0.31116858"
       id="path4330-6-1"
       cx="275.22052"
       cy="-55.564785"
       r="1.7781061"
       transform="rotate(90)" />
    <rect
       style="fill:#cc79a7;fill-opacity:1;stroke-width:0.41747645"
       id="rect4347-3"
       width="1.500277"
       height="10.224111"
       x="274.4704"
       y="-65.749825"
       transform="rotate(90)" />
    <circle
       style="fill:#cc79a7;fill-opacity:1;stroke-width:0.31116858"
       id="path4330-93"
       cx="-66.143646"
       cy="-275.22058"
       r="1.7781061"
       transform="scale(-1)" />
    <circle
       style="fill:#ffffff;fill-opacity:1;stroke-width:0.31116858"
       id="path4330-6-2"
       cx="-66.156982"
       cy="-264.61218"
       r="1.7781061"
       transform="scale(-1)" />
    <rect
       style="fill:#cc79a7;fill-opacity:1;stroke-width:0.41747645"
       id="rect4347-7"
       width="1.500277"
       height="10.224111"
       x="-66.893791"
       y="-274.82675"
       transform="scale(-1)" />
    <circle
       style="fill:#cc79a7;fill-opacity:1;stroke-width:0.31116858"
       id="path4330-9-3"
       cx="-264.64163"
       cy="55.564785"
       r="1.7781061"
       transform="rotate(-90)" />
    <circle
       style="fill:#cc79a7;fill-opacity:1;stroke-width:0.31116858"
       id="path4330-6-1-9"
       cx="-264.64163"
       cy="66.143646"
       r="1.7781061"
       transform="rotate(-90)" />
    <rect
       style="fill:#cc79a7;fill-opacity:1;stroke-width:0.41747645"
       id="rect4347-3-8"
       width="1.500277"
       height="10.224111"
       x="-265.39182"
       y="55.958614"
       transform="rotate(-90)" />
    <path
       style="fill:#e69f00;fill-opacity:1;stroke-width:0.03156727"
       d=""
       id="path4519"
       inkscape:connector-curvature="0"
       transform="matrix(0.26458333,0,0,0.26458333,0,246.19998)" />
    <path
       style="fill:#e69f00;fill-opacity:1;stroke-width:0.03156727"
       d=""
       id="path4521"
       inkscape:connector-curvature="0"
       transform="matrix(0.26458333,0,0,0.26458333,0,246.19998)" />
    <path
       style="fill:#e69f00;fill-opacity:1;stroke-width:0.0073658"
       d="m 40.270324,283.87277 c -0.282698,-0.16377 -0.527923,-0.35206 -0.754823,-0.5796 -0.441149,-0.44237 -0.762682,-0.99473 -0.927896,-1.59402 l -0.02597,-0.0942 v -0.86901 -0.869 l 0.02235,-0.0805 c 0.248069,-0.89304 0.808994,-1.64469 1.587079,-2.12672 0.408736,-0.25322 0.864454,-0.42332 1.33321,-0.49764 0.2166,-0.0343 0.306154,-0.0408 0.572366,-0.0412 l 0.255636,-4.7e-4 0.849234,-1.47125 0.849235,-1.47125 1.832946,-7e-5 1.832947,-7e-5 -0.02387,0.0423 c -0.01313,0.0232 -0.59794,1.03673 -1.299582,2.25209 -0.701639,1.21536 -1.27938,2.21664 -1.283866,2.22509 -0.0069,0.0131 -0.0027,0.0239 0.02843,0.0725 0.07034,0.10979 0.138542,0.22992 0.201054,0.35415 0.03465,0.0689 0.06314,0.12263 0.06329,0.11948 1.53e-4,-0.003 -0.0097,-0.0255 -0.02193,-0.0497 l -0.02221,-0.044 h 5.159852 5.159851 v 1.58733 1.58734 h -5.159864 -5.159871 l 0.01853,-0.0366 c 0.01017,-0.0201 0.01845,-0.0392 0.01834,-0.0423 -1.1e-4,-0.003 -0.03257,0.0573 -0.07213,0.13419 -0.180381,0.35094 -0.366763,0.60935 -0.642097,0.89022 -0.239909,0.24473 -0.496768,0.44423 -0.781702,0.60713 l -0.09295,0.0531 h -1.70817 -1.708163 z m 5.13352,-1.69187 c 0,-0.004 -0.0063,0.004 -0.01412,0.0183 -0.0078,0.0142 -0.01412,0.0291 -0.01412,0.0332 0,0.004 0.0063,-0.004 0.01412,-0.0185 0.0078,-0.0142 0.01412,-0.0291 0.01412,-0.0332 z m 0.0222,-0.0516 c 0,-0.004 -0.0048,9.3e-4 -0.01053,0.011 -0.0058,0.0104 -0.01053,0.0218 -0.01053,0.0258 0,0.004 0.0048,-9.4e-4 0.01053,-0.011 0.0058,-0.0104 0.01053,-0.0217 0.01053,-0.0258 z m 0.01503,-0.0368 c 0,-0.004 -0.0032,-0.002 -0.0072,0.004 -0.0039,0.006 -0.0072,0.0144 -0.0072,0.0184 0,0.004 0.0032,0.002 0.0072,-0.004 0.0039,-0.006 0.0072,-0.0143 0.0072,-0.0184 z m 0.01473,-0.0368 c 0,-0.004 -0.0032,-0.002 -0.0072,0.004 -0.0039,0.006 -0.0072,0.0144 -0.0072,0.0184 0,0.004 0.0032,0.002 0.0072,-0.004 0.0039,-0.006 0.0072,-0.0144 0.0072,-0.0184 z m 0.0181,-0.0479 c 0.0034,-0.0127 0.0028,-0.015 -0.0019,-0.007 -0.0037,0.006 -0.009,0.0193 -0.01175,0.0295 -0.0034,0.0128 -0.0028,0.015 0.0019,0.007 0.0037,-0.006 0.009,-0.0193 0.01175,-0.0295 z m 0.02559,-0.0676 c 0.0084,-0.025 0.01407,-0.0468 0.01248,-0.0483 -0.0016,-0.002 -0.0087,0.0147 -0.01576,0.0363 -0.0071,0.0216 -0.0144,0.0432 -0.01627,0.0483 -0.0019,0.005 -0.0017,0.009 3.96e-4,0.009 0.0021,0 0.0107,-0.0204 0.01916,-0.0454 z m 0.05174,-0.16405 c -3.04e-4,-0.004 -0.0086,0.0153 -0.01841,0.0434 -0.0099,0.0281 -0.01762,0.0547 -0.01732,0.0589 3.03e-4,0.004 0.0086,-0.0153 0.01841,-0.0434 0.0099,-0.0281 0.01762,-0.0547 0.01732,-0.0589 z m 0.01424,-0.0482 c 0,-0.007 -0.0024,-0.005 -0.0063,0.004 -0.0035,0.008 -0.0063,0.0197 -0.0063,0.0258 0,0.007 0.0024,0.005 0.0063,-0.004 0.0035,-0.008 0.0063,-0.0197 0.0063,-0.0258 z m 0.01854,-0.0663 c 0.0032,-0.0176 0.0027,-0.0212 -0.0018,-0.0111 -0.0035,0.008 -0.0085,0.0263 -0.01112,0.0405 -0.0032,0.0177 -0.0027,0.0212 0.0018,0.0111 0.0035,-0.008 0.0085,-0.0264 0.01112,-0.0406 z m 0.0096,-0.0455 c -0.0024,-0.006 -0.004,-0.004 -0.0045,0.004 -3.27e-4,0.007 0.0015,0.0121 0.0038,0.009 0.0025,-0.002 0.0027,-0.008 5.83e-4,-0.0141 z m 0.0074,-0.0295 c -0.0024,-0.006 -0.004,-0.004 -0.0045,0.004 -3.27e-4,0.007 0.0015,0.0121 0.0038,0.009 0.0025,-0.002 0.0027,-0.008 5.82e-4,-0.0141 z m 0.0156,-0.0612 c 0,-0.0117 -0.0012,-0.0109 -0.0059,0.004 -0.0032,0.0104 -0.0059,0.0251 -0.0059,0.0332 0,0.0116 0.0012,0.0109 0.0059,-0.004 0.0032,-0.0104 0.0059,-0.025 0.0059,-0.0331 z m 0.0063,-0.0423 c -0.0021,-0.005 -0.0037,-9.3e-4 -0.0037,0.009 0,0.0104 0.0017,0.0143 0.0037,0.009 0.0021,-0.005 0.0021,-0.0134 0,-0.0184 z m 0.0074,-0.0368 c -0.0021,-0.005 -0.0037,-9.4e-4 -0.0037,0.009 0,0.0104 0.0017,0.0143 0.0037,0.009 0.0021,-0.005 0.0021,-0.0134 0,-0.0184 z m 0.0074,-0.0368 c -0.0021,-0.005 -0.0037,-9.4e-4 -0.0037,0.009 0,0.0104 0.0017,0.0143 0.0037,0.009 0.0021,-0.005 0.0021,-0.0134 0,-0.0184 z m 0.0074,-0.0368 c -0.0021,-0.005 -0.0037,-9.4e-4 -0.0037,0.009 0,0.0104 0.0017,0.0143 0.0037,0.009 0.0021,-0.005 0.0021,-0.0134 0,-0.0185 z m 0.0076,-0.0403 c -0.0019,-0.007 -0.0035,-0.003 -0.0036,0.009 -1.51e-4,0.0121 0.0013,0.0181 0.0034,0.0131 0.002,-0.005 0.0022,-0.0149 2.81e-4,-0.0221 z m 0.0074,-0.0517 c -0.0019,-0.007 -0.0034,-0.001 -0.0034,0.0129 0,0.0142 0.0016,0.02 0.0034,0.0129 0.0019,-0.007 0.0019,-0.0187 0,-0.0258 z m 0.0074,-0.0516 c -0.0019,-0.007 -0.0033,-10e-4 -0.0033,0.0129 0,0.0142 0.0016,0.02 0.0033,0.0129 0.0019,-0.007 0.0019,-0.0187 0,-0.0258 z m 0.0074,-0.059 c -0.0019,-0.007 -0.0033,4.6e-4 -0.0032,0.0167 8.1e-5,0.0162 0.0016,0.022 0.0033,0.0129 0.0018,-0.009 0.0017,-0.0224 -1.49e-4,-0.0295 z m 0.0075,-0.0626 c -0.0018,-0.009 -0.0032,-0.002 -0.0032,0.0166 0,0.0182 0.0015,0.0257 0.0032,0.0166 0.0018,-0.009 0.0018,-0.0241 0,-0.0331 z m 0.0075,-0.0774 c -0.0017,-0.0111 -0.0031,-0.002 -0.0031,0.0202 0,0.0223 0.0013,0.0314 0.0031,0.0202 0.0017,-0.0111 0.0017,-0.0294 0,-0.0406 z m 0.0075,-0.11398 c -0.0016,-0.0173 -0.0028,-0.005 -0.0029,0.0275 -3e-5,0.0324 0.0012,0.0466 0.0028,0.0315 0.0016,-0.0151 0.0016,-0.0416 5.1e-5,-0.0589 z m 0.0075,-0.23555 c -0.0013,-0.0336 -0.0025,-0.008 -0.0025,0.0567 -7e-6,0.0648 0.0011,0.0923 0.0025,0.0611 0.0013,-0.0312 0.0013,-0.0842 1.5e-5,-0.11786 z m -0.0075,-0.17693 c -0.0016,-0.0173 -0.0028,-0.005 -0.0029,0.0274 -3e-5,0.0324 0.0012,0.0466 0.0028,0.0315 0.0016,-0.015 0.0016,-0.0416 5.1e-5,-0.0589 z m -0.0075,-0.0997 c -0.0017,-0.0111 -0.0031,-0.002 -0.0031,0.0202 0,0.0223 0.0013,0.0314 0.0031,0.0202 0.0017,-0.0111 0.0017,-0.0294 0,-0.0405 z m -0.0075,-0.07 c -0.0018,-0.009 -0.0032,-0.002 -0.0032,0.0166 0,0.0183 0.0015,0.0257 0.0032,0.0166 0.0018,-0.009 0.0018,-0.0241 0,-0.0332 z m -0.0075,-0.0627 c -0.0019,-0.007 -0.0033,-0.001 -0.0033,0.0129 0,0.0142 0.0016,0.02 0.0033,0.0129 0.0019,-0.007 0.0019,-0.0187 0,-0.0258 z m -0.0074,-0.0516 c -0.0019,-0.007 -0.0033,-0.001 -0.0033,0.0129 0,0.0142 0.0016,0.02 0.0033,0.0129 0.0019,-0.007 0.0019,-0.0187 0,-0.0258 z m -0.0074,-0.0515 c -0.0019,-0.007 -0.0034,-10e-4 -0.0034,0.0129 0,0.0142 0.0016,0.02 0.0034,0.0129 0.0019,-0.007 0.0019,-0.0187 0,-0.0258 z m -0.0074,-0.0441 c -0.0019,-0.007 -0.0035,-0.003 -0.0036,0.009 -1.51e-4,0.0121 0.0013,0.018 0.0034,0.0131 0.002,-0.005 0.0022,-0.0149 2.81e-4,-0.0221 z m -0.0076,-0.0407 c -0.0021,-0.005 -0.0037,-9.3e-4 -0.0037,0.009 0,0.0104 0.0017,0.0143 0.0037,0.009 0.0021,-0.005 0.0021,-0.0134 0,-0.0184 z m -0.01224,-0.0681 c -0.0051,-0.0267 -0.01057,-0.0471 -0.01229,-0.0454 -0.0018,0.002 9.1e-4,0.025 0.0058,0.0519 0.005,0.0268 0.01046,0.0472 0.01229,0.0454 0.0018,-0.002 -8.18e-4,-0.0252 -0.0058,-0.0519 z m -0.01882,-0.088 c -0.0028,-0.0147 -0.0065,-0.0254 -0.0083,-0.0235 -0.0018,0.002 -10e-4,0.0154 0.0018,0.0302 0.0028,0.0148 0.0065,0.0254 0.0083,0.0237 0.0018,-0.002 10e-4,-0.0154 -0.0018,-0.0302 z m -0.01298,-0.0497 c -0.0024,-0.006 -0.004,-0.004 -0.0045,0.004 -3.27e-4,0.007 0.0015,0.0121 0.0038,0.009 0.0025,-0.002 0.0027,-0.008 5.83e-4,-0.0141 z m -0.0074,-0.0295 c -0.0024,-0.006 -0.0041,-0.004 -0.0045,0.004 -3.27e-4,0.007 0.0015,0.0121 0.0038,0.009 0.0025,-0.002 0.0027,-0.008 5.82e-4,-0.0141 z m -0.0074,-0.0295 c -0.0024,-0.006 -0.004,-0.004 -0.0045,0.004 -3.27e-4,0.007 0.0015,0.0121 0.0038,0.009 0.0025,-0.002 0.0027,-0.008 5.83e-4,-0.0141 z m -0.0092,-0.0386 c -0.0027,-0.0108 -0.0063,-0.0181 -0.0081,-0.0165 -0.0018,0.002 -9.33e-4,0.012 0.0018,0.0228 0.0027,0.0108 0.0063,0.0182 0.0081,0.0165 0.0018,-0.002 9.32e-4,-0.012 -0.0018,-0.0228 z m -0.01473,-0.0515 c -0.0027,-0.0108 -0.0063,-0.0181 -0.0081,-0.0165 -0.0018,0.002 -9.34e-4,0.012 0.0018,0.0228 0.0027,0.0108 0.0063,0.0181 0.0081,0.0165 0.0018,-0.002 9.33e-4,-0.012 -0.0018,-0.0228 z m -0.01856,-0.0624 c -0.005,-0.0166 -0.01041,-0.0288 -0.01207,-0.0272 -0.0017,0.002 10e-4,0.0166 0.006,0.0332 0.005,0.0166 0.01041,0.0288 0.01207,0.0272 0.0017,-0.002 -0.001,-0.0166 -0.006,-0.0333 z m -0.0517,-0.15453 c -0.0046,-0.0131 -0.0095,-0.0224 -0.01111,-0.0208 -0.0016,0.002 8.4e-4,0.0135 0.0054,0.0265 0.0046,0.0131 0.0095,0.0224 0.01112,0.0208 0.0016,-0.002 -8.4e-4,-0.0135 -0.0054,-0.0265 z m -0.04763,-0.12548 c -0.01486,-0.0371 -0.02821,-0.0663 -0.02966,-0.0648 -0.0015,10e-4 0.0094,0.0331 0.02428,0.0702 0.0148,0.0372 0.02815,0.0664 0.02966,0.0648 0.0016,-10e-4 -0.0094,-0.0331 -0.02428,-0.0702 z m -0.04646,-0.10851 c -0.0082,-0.0156 -0.01508,-0.0259 -0.01527,-0.023 -5.13e-4,0.008 0.02413,0.0575 0.02731,0.0543 0.0016,-0.002 -0.0038,-0.0157 -0.01204,-0.0312 z"
       id="path4523"
       inkscape:connector-curvature="0" />
    <path
       style="fill:#e69f00;fill-opacity:1;stroke-width:0.0073658"
       d="m 40.278373,283.87841 c -0.316953,-0.18158 -0.63103,-0.4325 -0.865994,-0.69184 -0.398575,-0.43993 -0.671433,-0.93354 -0.8284,-1.49861 l -0.02235,-0.0805 v -0.87029 -0.87029 l 0.02248,-0.0805 c 0.110786,-0.39658 0.263477,-0.73056 0.48804,-1.06748 0.217121,-0.32576 0.506993,-0.63221 0.826376,-0.87367 0.453651,-0.34296 1.002976,-0.58039 1.565234,-0.67653 0.23194,-0.0396 0.332251,-0.0475 0.612599,-0.0478 l 0.255359,-2.2e-4 0.849372,-1.47132 0.849372,-1.47132 h 1.832384 c 1.007811,0 1.832384,10e-4 1.832384,0.003 0,0.002 -0.04094,0.0737 -0.09098,0.16021 -0.962948,1.664 -2.516507,4.36183 -2.516507,4.37003 0,0.006 0.02253,0.0467 0.05008,0.0903 0.05431,0.0862 0.104351,0.17343 0.160722,0.28014 l 0.03596,0.068 5.161588,8e-5 5.161588,7e-5 v 1.58733 1.58733 h -5.159895 -5.159896 l 0.01488,-0.0291 c 0.0082,-0.0161 0.01481,-0.0317 0.01472,-0.035 -8.9e-5,-0.003 -0.03267,0.0572 -0.07242,0.13413 -0.184556,0.35746 -0.367638,0.60695 -0.659817,0.89913 -0.24807,0.24807 -0.452413,0.40647 -0.743961,0.57671 l -0.102632,0.06 h -1.70988 -1.709873 l -0.09052,-0.0519 z m 5.118496,-1.68278 c 0,-0.004 -0.0032,-0.002 -0.0072,0.004 -0.0039,0.006 -0.0072,0.0144 -0.0072,0.0184 0,0.004 0.0032,0.002 0.0072,-0.004 0.0039,-0.006 0.0072,-0.0144 0.0072,-0.0184 z m 0.02513,-0.052 c 0.0025,-0.006 0.0012,-0.009 -0.0029,-0.007 -0.004,0.002 -0.0073,0.007 -0.0073,0.0114 0,0.0106 0.0053,0.008 0.01017,-0.004 z m 0.01906,-0.0511 c 0,-0.004 -0.0032,-0.002 -0.0072,0.004 -0.0039,0.006 -0.0072,0.0144 -0.0072,0.0184 0,0.004 0.0032,0.002 0.0072,-0.004 0.0039,-0.006 0.0072,-0.0143 0.0072,-0.0184 z m 0.01473,-0.0368 c 0,-0.004 -0.0032,-0.002 -0.0072,0.004 -0.0039,0.006 -0.0072,0.0144 -0.0072,0.0184 0,0.004 0.0032,0.002 0.0072,-0.004 0.0039,-0.006 0.0072,-0.0144 0.0072,-0.0184 z m 0.04757,-0.1289 c 0.0034,-0.0128 0.0028,-0.015 -0.0019,-0.007 -0.0037,0.006 -0.009,0.0193 -0.01175,0.0295 -0.0034,0.0127 -0.0028,0.015 0.0019,0.007 0.0037,-0.006 0.009,-0.0194 0.01175,-0.0295 z m 0.149204,-0.59064 c -0.0024,-0.006 -0.004,-0.004 -0.0045,0.004 -3.26e-4,0.007 0.0015,0.0121 0.0038,0.009 0.0025,-0.002 0.0027,-0.008 5.84e-4,-0.0141 z m 0.01473,-0.0957 c -0.0024,-0.006 -0.004,-0.004 -0.0045,0.004 -3.26e-4,0.007 0.0015,0.0121 0.0038,0.009 0.0025,-0.002 0.0027,-0.008 5.84e-4,-0.0141 z m 0.0074,-0.0589 c -0.0024,-0.006 -0.004,-0.004 -0.0045,0.004 -3.26e-4,0.007 0.0015,0.0121 0.0038,0.009 0.0025,-0.002 0.0027,-0.008 5.84e-4,-0.0141 z m 0.0072,-0.0667 c -0.0021,-0.005 -0.0037,-9.3e-4 -0.0037,0.009 0,0.0104 0.0017,0.0143 0.0037,0.009 0.0021,-0.005 0.0021,-0.0134 0,-0.0183 z m 0.0074,-0.0736 c -0.0021,-0.005 -0.0037,-9.3e-4 -0.0037,0.009 0,0.0104 0.0017,0.0143 0.0037,0.009 0.0021,-0.005 0.0021,-0.0134 0,-0.0185 z m 0.0076,-0.1068 c -0.0019,-0.007 -0.0033,-10e-4 -0.0033,0.0129 0,0.0142 0.0016,0.02 0.0033,0.0129 0.0019,-0.007 0.0019,-0.0187 0,-0.0258 z m 0.0076,-0.21351 c -0.0017,-0.0112 -0.0031,-0.004 -0.0032,0.0165 -5.8e-5,0.0202 0.0013,0.0295 0.0031,0.0203 0.0018,-0.009 0.0018,-0.0256 1.01e-4,-0.0368 z m -0.0076,-0.19897 c -0.0019,-0.007 -0.0033,-0.001 -0.0033,0.0129 0,0.0142 0.0016,0.02 0.0033,0.0129 0.0019,-0.007 0.0019,-0.0187 0,-0.0257 z m -0.0076,-0.10681 c -0.0021,-0.005 -0.0037,-9.3e-4 -0.0037,0.009 0,0.0104 0.0017,0.0143 0.0037,0.009 0.0021,-0.005 0.0021,-0.0134 0,-0.0185 z m -0.0074,-0.0736 c -0.0021,-0.005 -0.0037,-9.4e-4 -0.0037,0.009 0,0.0104 0.0017,0.0143 0.0037,0.009 0.0021,-0.005 0.0021,-0.0134 0,-0.0185 z m -0.0074,-0.0663 c -0.0021,-0.005 -0.0037,-9.4e-4 -0.0037,0.009 0,0.0104 0.0017,0.0143 0.0037,0.009 0.0021,-0.005 0.0021,-0.0134 0,-0.0184 z m -0.0072,-0.0511 c -0.0024,-0.006 -0.004,-0.004 -0.0045,0.004 -3.26e-4,0.007 0.0015,0.0121 0.0038,0.009 0.0025,-0.002 0.0027,-0.008 5.84e-4,-0.0141 z m -0.01473,-0.0957 c -0.0024,-0.006 -0.004,-0.004 -0.0045,0.004 -3.26e-4,0.007 0.0015,0.0121 0.0038,0.009 0.0025,-0.002 0.0027,-0.008 5.84e-4,-0.0141 z m -0.01473,-0.081 c -0.0024,-0.006 -0.004,-0.004 -0.0045,0.004 -3.27e-4,0.007 0.0015,0.0121 0.0038,0.009 0.0025,-0.002 0.0027,-0.008 5.84e-4,-0.0141 z m -0.0074,-0.0368 c -0.0024,-0.006 -0.0041,-0.004 -0.0045,0.004 -3.27e-4,0.007 0.0015,0.0121 0.0038,0.009 0.0025,-0.002 0.0027,-0.008 5.84e-4,-0.0141 z m -0.08839,-0.34619 c -0.0024,-0.006 -0.004,-0.004 -0.0045,0.004 -3.25e-4,0.007 0.0015,0.0121 0.0038,0.009 0.0025,-0.002 0.0027,-0.008 5.84e-4,-0.0141 z m -0.05569,-0.16563 c -0.0087,-0.0149 -0.01078,-0.0104 -0.0036,0.008 0.0025,0.006 0.0061,0.0104 0.0081,0.008 0.0019,-0.002 -6.5e-5,-0.009 -0.0044,-0.0169 z m -0.08839,-0.22098 c -0.0087,-0.0149 -0.01078,-0.0104 -0.0036,0.008 0.0025,0.006 0.0061,0.0104 0.008,0.008 0.0019,-0.002 -6.5e-5,-0.009 -0.0044,-0.0169 z m -0.03317,-0.0735 c -0.0062,-0.0115 -0.01146,-0.0186 -0.01163,-0.0158 -4.9e-4,0.008 0.01664,0.0429 0.01989,0.0397 0.0017,-0.002 -0.0021,-0.0125 -0.0083,-0.024 z"
       id="path4525"
       inkscape:connector-curvature="0" />
    <path
       style="fill:#e69f00;fill-opacity:1;stroke-width:0.23333676"
       id="path4527"
       d="m 59.334287,251.28072 c -0.02003,0.0427 -0.04334,0.0837 -0.06918,0.12315 -0.01927,0.0322 -0.04176,0.0621 -0.06513,0.0913 -0.07315,0.0865 -0.119503,0.0908 -0.248965,0.16211 -0.02966,-0.0262 -0.03168,-0.0701 -0.03653,-0.10713 -0.0015,-0.044 -0.01027,-0.0862 -0.02136,-0.12853 -0.01146,-0.032 -0.02099,-0.0645 -0.02621,-0.0983 -0.0043,-0.0347 -0.0038,-0.0698 -0.0038,-0.10471 0.0017,-0.0401 0.01309,-0.0791 0.02547,-0.11705 0.0087,-0.0294 0.02512,-0.0555 0.03689,-0.0835 0.0273,-0.0811 -0.01617,-0.0191 0.201169,-0.0981 0.0047,-0.002 -0.0038,0.009 -0.0059,0.0138 -0.0076,0.0168 -0.0081,0.0175 -0.01693,0.0353 -0.02859,0.0528 -0.06817,0.0984 -0.107842,0.14311 -0.03029,0.0387 -0.0669,0.0711 -0.10314,0.10408 -0.02314,0.0188 -0.04462,0.0397 -0.06223,0.0639 -0.272484,0.29541 -0.199872,0.0862 -0.178857,0.009 0.01441,-0.0523 0.03119,-0.1039 0.04897,-0.15513 0.01327,-0.0358 0.02596,-0.0719 0.04054,-0.10718 0.0012,-0.003 0.0011,-0.007 0.0038,-0.009 0.06484,-0.0361 0.12829,-0.0756 0.197128,-0.10341 0.0069,-0.003 0.0058,0.014 0.0065,0.0215 0.0018,0.0198 -0.01794,0.0427 -0.02762,0.0575 -0.0323,0.0445 -0.073,0.0816 -0.114735,0.11688 -0.03218,0.0269 -0.06263,0.0557 -0.09707,0.0798 -0.09447,0.0587 -0.189329,0.11756 -0.290833,0.16317 -0.0072,0.002 -0.0126,0.006 -0.01769,-0.003 -0.01576,-0.0268 -7.24e-4,-0.0352 0.01662,-0.0539 0.02947,-0.0299 0.056,-0.0626 0.08392,-0.094 0.02741,-0.0333 0.05426,-0.0669 0.08314,-0.0991 0.03416,-0.033 0.07046,-0.0631 0.102539,-0.0982 0.02851,-0.0278 0.04878,-0.0605 0.06444,-0.0967 0.01386,-0.0363 0.03198,-0.0702 0.05185,-0.10341 0.0075,-0.0132 0.01164,-0.0186 0.01622,-0.0324 8.16e-4,-0.003 0.0012,-0.0104 0.0015,-0.008 1.5e-4,0.003 9.7e-4,0.008 -0.0012,0.0105 -0.0045,0.005 -0.04092,0.022 -0.04152,0.0223 -0.06252,0.0315 -0.218498,0.11823 0.05458,-0.0344 0.01535,-0.009 -0.0302,0.0179 -0.04524,0.0271 -0.04554,0.0276 -0.04179,0.0255 -0.08534,0.0533 -0.114085,0.0787 -0.45161,0.25452 -0.09154,0.0563 0.008,-0.004 -0.01512,0.0104 -0.02264,0.0156 -0.0044,0.003 -0.03238,0.0229 -0.03746,0.0265 -0.03083,0.0225 -0.05463,0.0532 -0.07469,0.0854 -0.0162,0.0301 -0.03132,0.0605 -0.04857,0.09 -0.01699,0.026 -0.03699,0.0501 -0.05373,0.0762 0.03758,-0.002 0.08441,-0.0209 0.12259,-0.0344 0.08956,-0.0333 0.179682,-0.0657 0.267391,-0.10352 0.07074,-0.0335 0.205056,-0.11044 -0.107504,0.0657 -0.0059,0.003 0.01147,-0.007 0.017,-0.0109 0.0092,-0.006 0.01991,-0.0152 0.02871,-0.0224 0.01579,-0.0131 0.0081,-0.006 0.023,-0.0203 0,0 0.201741,-0.0837 0.201741,-0.0837 v 0 c -0.01446,0.0156 -0.0071,0.008 -0.02228,0.023 -0.01519,0.0115 -0.02913,0.0268 -0.04559,0.0364 -0.08777,0.0515 -0.170883,0.10491 -0.263291,0.14501 -0.08863,0.0358 -0.17798,0.0698 -0.267918,0.10216 -0.034,0.0115 -0.11683,0.0493 -0.146251,0.0104 -0.0038,-0.005 -0.0048,-0.0117 -0.0072,-0.0176 0.0087,-0.02 0.02306,-0.0337 0.03481,-0.0518 0.0031,-0.004 0.0052,-0.0104 0.0085,-0.0149 0.0029,-0.004 0.0066,-0.008 0.01,-0.0116 0.02025,-0.0274 0.03368,-0.0588 0.04953,-0.0889 0.0181,-0.0351 0.04289,-0.0674 0.07163,-0.0943 0.01993,-0.0143 0.04014,-0.031 0.06111,-0.0437 0.248996,-0.14987 0.289629,-0.16709 0.05787,-0.035 -0.01235,0.007 0.02423,-0.0149 0.03633,-0.0224 0.143771,-0.0924 0.290747,-0.18104 0.443845,-0.25701 0.01214,-0.004 0.03752,-0.0179 0.05316,-0.0125 0.03144,0.0113 0.01177,0.0473 0.0017,0.0651 -0.01896,0.0331 -0.04051,0.0644 -0.05276,0.10092 -0.01615,0.0373 -0.03149,0.0747 -0.062,0.10341 -0.03174,0.0358 -0.06523,0.0689 -0.102934,0.0985 -0.02924,0.0316 -0.05724,0.0643 -0.08308,0.0988 -0.0281,0.0309 -0.0544,0.0633 -0.08263,0.094 -0.0018,0.002 -0.02171,0.0262 -0.02638,0.0242 -0.0058,-0.003 -0.01567,-0.0111 -0.01107,-0.0154 0.0021,-0.002 0.0055,-0.003 0.0081,-0.003 0.06943,-0.0303 0.157951,-0.0881 -0.134031,0.0818 -0.0038,0.003 0.01534,-0.009 0.0351,-0.0209 0.0052,-0.003 0.01037,-0.007 0.01556,-0.0104 0.03744,-0.0195 0.06671,-0.0501 0.09897,-0.0769 0.04167,-0.0345 0.08335,-0.0691 0.117307,-0.11156 0.0018,-0.003 0.02746,-0.0433 0.0306,-0.0447 0.0021,-8.8e-4 0.0047,0.003 0.0067,0.003 0.06309,-0.0341 0.124158,-0.072 0.186668,-0.10714 0.0024,-0.002 -0.004,0.003 -0.0061,0.005 -0.01873,0.0332 -0.02792,0.0711 -0.04321,0.10589 -0.01892,0.0503 -0.03542,0.10144 -0.04946,0.15331 -0.0346,0.13316 -0.0021,0.0659 -0.220863,0.17418 -0.0013,6.6e-4 0.0015,-0.003 0.0022,-0.003 0.01956,-0.0236 0.03661,-0.0499 0.06173,-0.0684 0.0382,-0.0309 0.07547,-0.064 0.106389,-0.10237 0.03935,-0.043 0.07913,-0.0867 0.108138,-0.13766 0.002,-0.003 0.02215,-0.045 0.02253,-0.0452 0.375901,-0.20137 0.223978,-0.16143 0.195923,-0.0871 -0.0091,0.0296 -0.02693,0.0545 -0.0378,0.0833 -0.01222,0.0361 -0.0251,0.0727 -0.02873,0.11078 9e-5,0.0339 -4.1e-5,0.068 0.0031,0.10175 0.0041,0.0332 0.01282,0.0651 0.02441,0.0966 0.01073,0.0434 0.02183,0.0862 0.02204,0.13113 2.02e-4,0.002 0.01204,0.0902 0.01865,0.0746 -0.06031,0.0349 -0.120629,0.0697 -0.180943,0.10445 0.01209,-0.005 0.01165,-0.004 0.02217,-0.0142 0.01129,-0.0108 0.01975,-0.0244 0.03274,-0.0333 0.0241,-0.0286 0.04792,-0.0576 0.06688,-0.0898 0.02625,-0.0377 0.05014,-0.0769 0.06941,-0.11874 0,0 0.198772,-0.0914 0.198772,-0.0914 z"
       inkscape:connector-curvature="0" />
    <path
       style="fill:#e69f00;fill-opacity:1;stroke-width:0.23333676"
       id="path4529"
       d="m 59.1336,251.36722 c 0.01016,0.005 0.0206,0.009 0.03035,0.0158 0.0064,0.004 0.01267,0.009 0.01943,0.0135 0.0074,0.003 0.01515,0.005 0.02212,0.009 0.0064,0.004 0.01365,0.007 0.02029,0.0109 0.0079,0.003 0.01475,0.008 0.0219,0.0119 0.0086,0.005 0.01731,0.0106 0.02702,0.0139 0.0081,0.003 0.01508,0.008 0.02277,0.011 0.0073,0.002 0.01366,0.005 0.02028,0.009 0.0078,0.003 0.01569,0.005 0.02349,0.008 0.008,0.003 0.01602,0.003 0.02406,0.005 0.0092,0.002 0.01745,0.007 0.02636,0.0104 0.0087,0.003 0.01687,0.009 0.02532,0.0135 0.0078,0.004 0.01534,0.009 0.02247,0.0149 0.0076,0.004 0.01429,0.0104 0.02135,0.015 0.0075,0.005 0.01533,0.0104 0.02412,0.013 0.009,0.003 0.01749,0.008 0.02646,0.012 0.0095,0.003 0.01858,0.007 0.02809,0.0104 0.0096,8.8e-4 0.0185,0.004 0.02719,0.009 0.0086,0.004 0.0179,0.007 0.02669,0.0106 0.009,0.004 0.0189,0.006 0.02824,0.009 0.0085,0.003 0.01681,0.005 0.0253,0.008 0.0068,0.003 0.01461,0.004 0.02201,0.006 0.0083,0.002 0.01603,0.006 0.024,0.009 0.0096,0.003 0.01886,0.007 0.02843,0.0104 0.0082,8.9e-4 0.01608,0.004 0.02429,0.005 0.0078,8.8e-4 0.01524,0.003 0.02308,0.004 0.0077,0.002 0.01542,0.003 0.02331,0.004 0.0076,1.1e-4 0.01489,4.6e-4 0.02232,0.002 0.0074,0.002 0.01504,0.002 0.02247,0.003 0.0084,0.002 0.01647,0.004 0.02499,0.006 0.0085,0.003 0.0171,0.004 0.02541,0.007 0.0076,0.004 0.01555,0.008 0.02252,0.0127 0.0045,0.003 0.0079,0.006 0.01136,0.009 0,0 -0.04655,0.0285 -0.04655,0.0285 v 0 c -0.0033,-0.003 -0.0067,-0.006 -0.01087,-0.009 -0.0067,-0.004 -0.01413,-0.008 -0.02156,-0.0115 -0.0082,-0.003 -0.01652,-0.005 -0.025,-0.007 -0.0084,-0.002 -0.01642,-0.004 -0.02487,-0.005 -0.0076,-7.8e-4 -0.01513,-0.002 -0.02259,-0.003 -0.0074,-8.8e-4 -0.01474,-7.6e-4 -0.0221,-0.002 -0.0079,-8.8e-4 -0.01557,-0.003 -0.02335,-0.004 -0.0079,-8.8e-4 -0.01543,-0.003 -0.02324,-0.004 -0.0083,-0.002 -0.01644,-0.004 -0.02468,-0.006 -0.0095,-0.003 -0.01892,-0.007 -0.02859,-0.0104 -0.0078,-0.003 -0.01527,-0.007 -0.02355,-0.009 -0.0077,-0.002 -0.01525,-0.003 -0.02243,-0.006 -0.0084,-0.003 -0.01675,-0.005 -0.0251,-0.008 -0.0095,-0.003 -0.01943,-0.005 -0.0286,-0.009 -0.0089,-0.003 -0.01805,-0.006 -0.02662,-0.0109 -0.0087,-0.003 -0.01774,-0.006 -0.027,-0.008 -0.0094,-0.003 -0.01875,-0.007 -0.0282,-0.0105 -0.0088,-0.003 -0.01747,-0.008 -0.02644,-0.0118 -0.0089,-0.003 -0.01721,-0.009 -0.02509,-0.0141 -0.0068,-0.005 -0.01384,-0.0105 -0.02124,-0.015 -0.0071,-0.005 -0.01447,-0.009 -0.02203,-0.0142 -0.0081,-0.004 -0.01617,-0.009 -0.02485,-0.0129 -0.0085,-0.003 -0.01683,-0.008 -0.02598,-0.009 -0.0082,-0.002 -0.01646,-0.003 -0.02437,-0.006 -0.0081,-0.003 -0.01622,-0.005 -0.02404,-0.009 -0.0066,-0.003 -0.01338,-0.006 -0.02027,-0.009 -0.0074,-0.003 -0.0144,-0.008 -0.0223,-0.0108 -0.0097,-0.003 -0.01866,-0.009 -0.02767,-0.0146 -0.0071,-0.004 -0.01432,-0.008 -0.02181,-0.0117 -0.0067,-0.003 -0.01377,-0.007 -0.02031,-0.0108 -0.0073,-0.003 -0.01521,-0.006 -0.0223,-0.009 -0.0067,-0.004 -0.01258,-0.009 -0.01918,-0.0136 -0.0099,-0.006 -0.02023,-0.0105 -0.03048,-0.0156 0,0 0.04582,-0.0298 0.04582,-0.0298 z"
       inkscape:connector-curvature="0" />
    <path
       style="fill:#e69f00;fill-opacity:1;stroke-width:0.23333676"
       id="path4531"
       d="m 59.873793,251.7242 c -0.01174,2.9e-4 -0.02298,1.4e-4 -0.03406,-0.003 -0.0087,-0.003 -0.01682,-0.008 -0.02512,-0.0128 -0.008,-0.003 -0.01627,-0.006 -0.02449,-0.009 -0.0083,-0.003 -0.01735,-0.003 -0.02584,-0.005 -0.0033,-7.4e-4 -0.0066,-0.002 -0.0099,-0.003 0,0 0.04523,-0.0308 0.04523,-0.0308 v 0 c 0.0031,8.3e-4 0.0062,0.002 0.0094,0.003 0.0087,0.002 0.01759,0.003 0.02597,0.005 0.0085,0.003 0.01723,0.005 0.02512,0.009 0.0081,0.004 0.01577,0.009 0.02448,0.0121 0.01089,0.003 0.02205,0.003 0.0333,0.003 0,0 -0.04422,0.032 -0.04422,0.032 z"
       inkscape:connector-curvature="0" />
    <path
       style="fill:#e69f00;fill-opacity:1;stroke-width:0.23333676"
       id="path4533"
       d="m 59.914032,251.6825 c 0.0097,0.004 0.02043,0.006 0.03071,0.009 0.0083,0.003 0.01598,0.007 0.02449,0.009 0.0063,0.003 0.01236,0.006 0.0191,0.008 0.0086,8.8e-4 0.0164,0.005 0.0245,0.008 0.0088,0.002 0.0174,0.005 0.02596,0.008 0.0077,0.003 0.01557,0.003 0.02338,0.005 0.008,0.002 0.01613,0.002 0.02426,0.003 0.0069,-6.1e-4 0.01358,0.002 0.02038,0.003 0.0074,8.8e-4 0.01467,8.8e-4 0.02201,8.8e-4 0.008,0.002 0.01598,0.003 0.02405,0.003 0.0063,0.002 0.01274,0.003 0.0193,0.003 0.0057,-5.6e-4 0.0099,0.003 0.01464,0.005 0.0031,0.002 0.0049,0.002 0.0081,0.003 0.0081,0.003 0.01644,0.006 0.02455,0.009 0.0061,0.003 0.01282,0.003 0.0193,0.004 0.01136,0.0206 0.005,0.005 -0.04613,0.0325 -8.17e-4,4.4e-4 -0.0018,-7.3e-4 -0.0027,-8.8e-4 -0.0038,-8.9e-4 -0.0077,-0.002 -0.01141,-0.003 -0.008,-0.003 -0.01605,-0.003 -0.02425,-0.003 -0.0083,-5e-5 -0.01647,-4e-4 -0.0247,-0.002 -0.01177,-0.003 -0.02414,-0.003 -0.03614,-0.006 -0.0061,-0.002 -0.01561,-8.9e-4 -0.01958,-0.007 -6.29e-4,-8.8e-4 -8.39e-4,-0.002 -0.0012,-0.003 0.05539,-0.0354 0.03275,-0.0327 0.06928,-0.0243 0.0097,0.002 0.01934,0.004 0.0292,0.005 0.01193,8.8e-4 0.02394,8.8e-4 0.03592,0.002 0.008,0.002 0.01628,0.002 0.02411,0.003 0.0069,0.002 0.01411,0.003 0.02128,0.003 0.0074,3.1e-4 0.01461,2.8e-4 0.02192,2.8e-4 0.0074,2.3e-4 0.01494,-6.5e-4 0.02229,6.8e-4 0.0085,8.8e-4 0.01675,0.003 0.02521,0.005 0.0084,0.002 0.01696,7.2e-4 0.02533,0.002 0.0083,8.8e-4 0.01564,0.005 0.02345,0.008 0.0071,0.002 0.01439,0.003 0.02167,0.003 0.0075,0.002 0.01466,0.004 0.02234,0.006 0.0073,8.8e-4 0.01451,8.8e-4 0.02179,8.8e-4 0.0074,2e-5 0.01471,-2e-5 0.02206,-3e-5 0.0074,-10e-6 0.01474,-2e-5 0.0221,-2e-5 0.0076,1.7e-4 0.01517,-5.4e-4 0.02267,7e-4 0.0097,5.6e-4 0.01818,0.004 0.02666,0.009 0.0078,0.003 0.01525,0.008 0.02279,0.0121 0.0062,0.003 0.0133,0.003 0.02027,0.004 0.0073,2.2e-4 0.01451,1.4e-4 0.02176,1.1e-4 0.0049,-3e-5 0.0025,2.3e-4 0.0072,-7.3e-4 0,0 -0.04379,0.0327 -0.04379,0.0327 v 0 c -0.0051,2.6e-4 -0.0026,1.9e-4 -0.0076,2e-4 -0.0074,2e-5 -0.0147,1.1e-4 -0.02204,-4.6e-4 -0.0076,-7.9e-4 -0.01494,-0.003 -0.02153,-0.006 -0.0074,-0.004 -0.01502,-0.008 -0.02265,-0.012 -0.008,-0.004 -0.01646,-0.006 -0.02552,-0.007 -0.0075,-3.4e-4 -0.01494,-1.2e-4 -0.0224,-1.7e-4 -0.0074,0 -0.01473,1e-5 -0.02209,2e-5 -0.0074,2e-5 -0.01475,6e-5 -0.02212,-6e-5 -0.0075,-1.8e-4 -0.01504,-4.6e-4 -0.0224,-0.002 -0.0074,-0.002 -0.01429,-0.005 -0.02182,-0.005 -0.0077,-4.6e-4 -0.01531,-8.8e-4 -0.02255,-0.004 -0.0074,-0.003 -0.01475,-0.006 -0.02276,-0.007 -0.0085,-6.8e-4 -0.01717,-6.4e-4 -0.02557,-0.003 -0.0083,-0.002 -0.0165,-0.004 -0.02502,-0.004 -0.0074,-3.5e-4 -0.01461,-6e-5 -0.02193,-1.4e-4 -0.0074,-3e-5 -0.01478,-4e-5 -0.02215,-5.8e-4 -0.0074,-6.9e-4 -0.01459,-0.002 -0.02174,-0.003 -0.0077,-8.9e-4 -0.0154,-0.003 -0.02318,-0.003 -0.01211,-2.2e-4 -0.02428,-3.3e-4 -0.03631,-0.002 -0.01,-0.002 -0.01975,-0.003 -0.02958,-0.005 -0.0047,-8.8e-4 -0.0093,-0.003 -0.01413,-0.003 -0.0011,-1.5e-4 -0.0024,-3.9e-4 -0.0036,-2.8e-4 -7.92e-4,9e-5 -0.0029,8.8e-4 -0.0023,8.4e-4 0.01484,-0.009 0.02987,-0.0191 0.04481,-0.0286 -4.9e-4,-4e-4 -0.001,-7.5e-4 -0.0015,-8.9e-4 -3.75e-4,-3.6e-4 7.92e-4,7.6e-4 0.0012,8.9e-4 0.0035,0.002 0.0076,0.003 0.01139,0.003 0.0016,3.2e-4 0.0032,6.2e-4 0.0048,8.8e-4 0.01207,0.002 0.02428,0.003 0.03624,0.005 0.0082,8.9e-4 0.01637,7e-4 0.02456,0.002 0.0084,8.6e-4 0.01656,0.003 0.02465,0.004 0.005,8.8e-4 0.0031,6.7e-4 0.008,0.002 0.0011,1.8e-4 0.0023,4.5e-4 0.0034,5.2e-4 6.54e-4,3e-5 0.0025,-5.9e-4 0.002,-2.4e-4 -0.04673,0.0292 -0.05569,0.0128 -0.04321,0.0317 -0.0066,-0.002 -0.01327,-0.003 -0.01948,-0.005 -0.0082,-0.003 -0.01626,-0.006 -0.02443,-0.009 -0.0074,-0.003 -0.01399,-0.007 -0.02215,-0.007 -0.0064,-8.6e-4 -0.01276,-0.003 -0.01918,-0.003 -0.008,-8.4e-4 -0.0158,-0.003 -0.02377,-0.003 -0.0076,-1.6e-4 -0.01517,-3e-4 -0.02264,-0.002 -0.0066,-8.8e-4 -0.01311,-0.003 -0.01988,-0.002 -0.0083,-4.7e-4 -0.01654,-8.8e-4 -0.02466,-0.003 -0.008,-0.002 -0.01621,-0.003 -0.02387,-0.005 -0.0085,-0.003 -0.01727,-0.005 -0.0259,-0.008 -0.008,-0.003 -0.016,-0.006 -0.02448,-0.008 -0.0065,-0.003 -0.01258,-0.005 -0.01908,-0.008 -0.0082,-0.003 -0.01588,-0.007 -0.02422,-0.009 -0.01044,-0.003 -0.02081,-0.005 -0.031,-0.009 0,0 0.04514,-0.0309 0.04514,-0.0309 z"
       inkscape:connector-curvature="0" />
    <path
       style="fill:#e69f00;fill-opacity:1;stroke-width:0.23333676"
       id="path4535"
       d="m 60.208936,251.8089 c -0.01624,2.6e-4 -0.0324,-8.8e-4 -0.0486,-0.002 -0.01797,-8.8e-4 -0.0359,-0.003 -0.05368,-0.005 -0.01006,-0.003 -0.0204,-0.002 -0.03046,-0.003 -0.0096,-0.002 -0.01867,-0.005 -0.02714,-0.009 -0.0082,-0.005 -0.01694,-0.009 -0.02568,-0.0126 -0.0093,-0.004 -0.01912,-0.007 -0.02908,-0.009 -4.43e-4,3e-5 -0.0018,3.4e-4 -0.0013,1e-4 0.01629,-0.0104 0.03199,-0.0215 0.04922,-0.0298 0.0023,-8.8e-4 0.0049,0.002 0.0073,0.002 0.01175,0.003 0.02344,0.007 0.03516,0.0105 0.025,0.008 0.05043,0.0144 0.07613,0.0198 0.01575,0.003 0.03178,0.004 0.04782,0.004 0.0054,-2.8e-4 0.01086,5.2e-4 0.01624,5e-5 0.01686,-0.002 0.07739,-0.0487 -0.04126,0.0292 -0.01392,-0.002 -0.02792,-8.8e-4 -0.04188,-0.002 -0.02036,2.8e-4 -0.04067,-7e-5 -0.06093,-0.003 -0.01852,-0.003 -0.03715,-0.003 -0.0558,-0.004 -0.01258,-7.5e-4 -0.0156,-0.003 -0.02395,-0.0122 0,0 0.04629,-0.0284 0.04629,-0.0284 v 0 c 0.0074,0.007 0.01106,0.008 0.02154,0.009 0.01858,8.9e-4 0.03712,0.003 0.05559,0.005 0.0202,0.002 0.04045,0.002 0.06075,0.002 0.01454,6e-5 0.02935,-4.6e-4 0.04369,0.003 -0.04413,0.0352 -0.02829,0.0342 -0.06421,0.0331 -0.01607,-7.4e-4 -0.03208,-0.003 -0.0478,-0.006 -0.02558,-0.006 -0.05084,-0.0127 -0.07588,-0.0204 -0.0021,-5.8e-4 -0.02281,-0.006 -0.02571,-0.007 -0.0034,-8.9e-4 -0.0068,-0.002 -0.01027,-0.003 -0.0026,-6.8e-4 -0.0096,-8e-5 -0.0079,-0.002 0.03412,-0.0357 0.02491,-0.0389 0.04218,-0.0319 0.01006,0.003 0.01984,0.006 0.02937,0.0104 0.0089,0.003 0.01756,0.008 0.02593,0.0129 0.0083,0.004 0.01703,0.007 0.0262,0.008 0.01006,8.8e-4 0.02014,0.002 0.0301,0.004 0.01757,0.003 0.03532,0.004 0.05309,0.005 0.0164,8.8e-4 0.03278,0.002 0.04921,8.8e-4 0,0 -0.04422,0.0322 -0.04422,0.0322 z"
       inkscape:connector-curvature="0" />
    <path
       style="fill:#e69f00;fill-opacity:1;stroke-width:0.23333676"
       id="path4537"
       d="m 58.647857,251.10708 c -0.0044,-0.008 -0.0094,-0.0166 -0.01666,-0.0227 -0.006,-0.004 -0.01317,-0.004 -0.02023,-0.004 -0.0088,-0.003 -0.01747,-0.004 -0.0265,-0.006 -0.0056,-0.002 -0.01177,7e-5 -0.01727,-0.002 -7.95e-4,-2.9e-4 -0.0074,-0.003 -0.0082,-0.004 -0.0077,-0.005 -0.01502,-0.0105 -0.02165,-0.0168 -0.0072,-0.006 -0.01097,-0.015 -0.01569,-0.0229 -0.0046,-0.008 -0.01052,-0.016 -0.01839,-0.0214 -0.0066,-0.003 -0.01348,-0.007 -0.02017,-0.011 -0.0074,-0.004 -0.01251,-0.0104 -0.01765,-0.0171 -0.0065,-0.008 -0.0141,-0.0142 -0.02076,-0.0217 -0.0056,-0.007 -0.01059,-0.0153 -0.01438,-0.0239 -0.0032,-0.008 -0.0077,-0.0157 -0.01299,-0.0226 -0.0045,-0.006 -0.01057,-0.008 -0.01709,-0.0109 -0.01192,-0.003 -0.02397,-0.005 -0.03599,-0.007 -0.01282,-0.003 -0.02092,-0.006 -0.03164,-0.0129 -0.0059,-0.004 -0.01,-0.0104 -0.01329,-0.0167 -0.0044,-0.006 -0.0064,-0.0139 -0.0093,-0.0209 -0.0039,-0.007 -0.0085,-0.0147 -0.01324,-0.0218 -0.0037,-0.007 -0.0093,-0.0129 -0.01442,-0.0191 -0.0055,-0.007 -0.01111,-0.0138 -0.01725,-0.02 -0.0067,-0.006 -0.01416,-0.0117 -0.02156,-0.0171 -0.008,-0.005 -0.01598,-0.011 -0.02349,-0.0172 -0.0077,-0.006 -0.01414,-0.0144 -0.01965,-0.0227 -0.0055,-0.009 -0.0097,-0.0184 -0.0151,-0.0272 -0.0049,-0.006 -0.0078,-0.0134 -0.01277,-0.0194 -0.0045,-0.006 -0.0096,-0.011 -0.0146,-0.0164 -0.0053,-0.005 -0.01071,-0.0104 -0.01575,-0.0156 -0.005,-0.006 -0.01006,-0.0121 -0.01582,-0.0177 -0.0064,-0.005 -0.01393,-0.009 -0.0203,-0.0146 -0.0067,-0.005 -0.01393,-0.0104 -0.02088,-0.0157 -0.0078,-0.005 -0.01598,-0.0104 -0.02302,-0.0165 -0.0068,-0.006 -0.01174,-0.0136 -0.01587,-0.0217 -0.0029,-0.006 -0.0057,-0.0131 -0.0084,-0.0197 -0.0022,-0.007 -0.0034,-0.0136 -0.0071,-0.0197 -0.0035,-0.007 -0.0074,-0.0133 -0.01201,-0.0194 -0.0062,-0.007 -0.0127,-0.0146 -0.02004,-0.021 -0.0058,-0.005 -0.01163,-0.0104 -0.01752,-0.0155 -0.0056,-0.005 -0.01056,-0.0106 -0.01593,-0.0158 -0.0062,-0.005 -0.0117,-0.0115 -0.01748,-0.0172 -0.0059,-0.006 -0.01141,-0.0124 -0.01649,-0.0192 -0.0044,-0.007 -0.0099,-0.0127 -0.01407,-0.0197 -0.0036,-0.006 -0.0082,-0.0125 -0.01181,-0.0192 -0.0022,-0.003 -9.69e-4,-0.002 -0.0034,-0.005 0,0 0.04703,-0.0279 0.04703,-0.0279 v 0 c 0.0027,0.003 0.0015,0.002 0.0038,0.005 0.0034,0.006 0.008,0.0124 0.01164,0.019 0.004,0.007 0.0094,0.0127 0.01368,0.0192 0.005,0.006 0.0104,0.0127 0.01618,0.0186 0.0056,0.006 0.01142,0.0116 0.01753,0.0171 0.0051,0.005 0.01016,0.0106 0.01573,0.0154 0.0059,0.005 0.01163,0.0104 0.01738,0.0157 0.0074,0.007 0.01421,0.0141 0.02062,0.0219 0.0049,0.006 0.0089,0.0129 0.01248,0.0199 0.0038,0.006 0.0056,0.0133 0.0075,0.0204 0.0026,0.006 0.0054,0.0129 0.008,0.0192 0.0038,0.008 0.0083,0.0144 0.01475,0.02 0.0071,0.006 0.01528,0.0106 0.0228,0.0162 0.0071,0.005 0.01424,0.0104 0.02107,0.016 0.0066,0.005 0.01431,0.009 0.02051,0.0149 0.0058,0.005 0.01078,0.0118 0.01602,0.018 0.0051,0.005 0.01052,0.0104 0.01577,0.0157 0.005,0.005 0.01027,0.0108 0.01477,0.0168 0.005,0.006 0.0083,0.0137 0.0131,0.0202 0.0051,0.009 0.0093,0.0184 0.01487,0.027 0.0052,0.008 0.01149,0.0152 0.01882,0.0213 0.0075,0.006 0.01559,0.0113 0.02338,0.017 0.0077,0.005 0.01529,0.0113 0.02213,0.0179 0.0061,0.006 0.01194,0.0133 0.01749,0.0203 0.0052,0.006 0.01092,0.0122 0.0147,0.0196 0.0049,0.007 0.0094,0.015 0.0137,0.0227 0.003,0.007 0.005,0.0142 0.0092,0.0204 0.003,0.005 0.0063,0.0108 0.0117,0.0144 0.0092,0.006 0.01917,0.009 0.03007,0.0114 0.01241,0.003 0.02504,0.004 0.03711,0.008 0.0074,0.003 0.0138,0.007 0.01861,0.0134 0.0055,0.007 0.01006,0.0151 0.01356,0.0237 0.0036,0.008 0.008,0.0155 0.01345,0.0224 0.0067,0.008 0.01448,0.0142 0.02089,0.0221 0.0049,0.006 0.01006,0.0113 0.0168,0.0152 0.0067,0.004 0.01404,0.007 0.02039,0.0116 0.008,0.006 0.01446,0.0143 0.01947,0.0232 0.0045,0.008 0.0081,0.0158 0.01497,0.0215 0.0063,0.006 0.01321,0.0113 0.02079,0.0154 0.0079,0.003 0.01608,0.003 0.02452,0.004 0.0088,0.002 0.01746,0.004 0.02637,0.005 0.008,7.9e-4 0.01582,0.003 0.02215,0.008 0.0074,0.007 0.01288,0.0158 0.01799,0.0246 0,0 -0.04768,0.0269 -0.04768,0.0269 z"
       inkscape:connector-curvature="0" />
    <path
       style="fill:#e69f00;fill-opacity:1;stroke-width:0.23333676"
       id="path4539"
       d="m 57.925737,250.39653 c -0.0056,-0.008 -0.01078,-0.0174 -0.0163,-0.0261 -0.0035,-0.007 -0.0086,-0.0123 -0.0134,-0.0182 -0.0058,-0.006 -0.0085,-0.0138 -0.01287,-0.0206 -0.0035,-0.006 -0.0065,-0.0127 -0.01,-0.0189 -0.0037,-0.007 -0.0075,-0.0134 -0.01163,-0.0198 -0.0041,-0.007 -0.0068,-0.0145 -0.0091,-0.0221 -3.02e-4,-8.8e-4 -6.06e-4,-0.003 -9.69e-4,-0.003 0,0 0.04809,-0.0259 0.04809,-0.0259 v 0 c 2.57e-4,8.8e-4 5.14e-4,0.003 7.47e-4,0.003 0.0021,0.007 0.0046,0.0143 0.0084,0.0208 0.0043,0.006 0.008,0.0134 0.01192,0.0201 0.0033,0.006 0.0063,0.0126 0.0097,0.0187 0.0041,0.007 0.0067,0.0144 0.01247,0.02 0.005,0.006 0.01006,0.0119 0.01366,0.0188 0.0055,0.009 0.01046,0.0179 0.01657,0.0262 0,0 -0.04735,0.0274 -0.04735,0.0274 z"
       inkscape:connector-curvature="0" />
    <path
       style="fill:#e69f00;fill-opacity:1;stroke-width:0.23333676"
       id="path4541"
       d="m 57.853684,250.29518 c 0.0036,-0.009 0.0039,-0.0199 0.0038,-0.0303 1.29e-4,-0.005 -3.73e-4,-0.011 -0.0013,-0.0163 0,0 0.04819,-0.0256 0.04819,-0.0256 v 0 c 0.001,0.005 0.002,0.0114 0.0016,0.0172 1.12e-4,0.0106 9e-5,0.0213 -0.003,0.0315 0,0 -0.04942,0.0234 -0.04942,0.0234 z"
       inkscape:connector-curvature="0" />
    <path
       style="fill:#cc79a7;fill-opacity:1;stroke-width:0.00520841"
       d="m 57.145329,263.82331 c -0.271126,-0.52677 -0.795153,-0.88588 -1.387942,-0.95115 -0.153119,-0.0169 -0.363659,-0.009 -0.513028,0.0187 -0.329299,0.0614 -0.644645,0.21754 -0.875117,0.43318 -0.02452,0.0229 -0.04569,0.0405 -0.04704,0.0392 -0.0041,-0.004 0.08628,-0.0886 0.146425,-0.1366 0.253792,-0.20278 0.550529,-0.32944 0.879902,-0.37555 0.0815,-0.0114 0.286706,-0.0157 0.378491,-0.008 0.608442,0.0519 1.140033,0.4061 1.426785,0.95082 0.01658,0.0315 0.03382,0.0661 0.03831,0.0769 0.0078,0.0187 0.0077,0.0195 -0.0021,0.0195 -0.0078,0 -0.0183,-0.0158 -0.04474,-0.0671 z"
       id="path4543"
       inkscape:connector-curvature="0" />
    <path
       style="fill:#cc79a7;fill-opacity:1;stroke-width:0.00092073"
       d="m 53.995778,263.8026 c 0,-7.7e-4 0.01066,-0.0211 0.02193,-0.0418 0.153513,-0.28189 0.3849,-0.52052 0.661257,-0.68196 0.02702,-0.0158 0.03076,-0.0178 0.0332,-0.0178 0.0013,0 -0.0045,0.004 -0.01531,0.0104 -0.08515,0.0485 -0.175892,0.11128 -0.248537,0.17189 -0.05766,0.0481 -0.129668,0.11646 -0.126271,0.11985 9.33e-4,9.3e-4 0.0044,-9.8e-4 0.01,-0.005 0.0029,-0.002 0.0055,-0.004 0.0059,-0.004 3.74e-4,0 -0.01421,0.015 -0.03243,0.0334 -0.03399,0.0342 -0.05335,0.0549 -0.0793,0.0845 -0.08262,0.0945 -0.154177,0.19618 -0.215419,0.30604 -0.0051,0.009 -0.01037,0.0188 -0.01168,0.0214 -0.0022,0.004 -0.0033,0.006 -0.0033,0.004 z"
       id="path4545"
       inkscape:connector-curvature="0" />
    <path
       style="fill:#cc79a7;fill-opacity:1;stroke-width:0.00394591"
       d=""
       id="path4547"
       inkscape:connector-curvature="0"
       transform="matrix(0.26458333,0,0,0.26458333,0,246.19998)" />
    <path
       style="fill:#cc79a7;fill-opacity:1;stroke-width:0.00394591"
       d=""
       id="path4549"
       inkscape:connector-curvature="0"
       transform="matrix(0.26458333,0,0,0.26458333,0,246.19998)" />
    <path
       style="fill:#cc79a7;fill-opacity:1;stroke-width:0.00364588"
       d="m 67.891369,264.98421 c -1.78e-4,-0.003 0.0021,-0.0194 0.0052,-0.0364 0.06604,-0.37189 0.0062,-0.77214 -0.165916,-1.11017 -0.08817,-0.17317 -0.187234,-0.30949 -0.326166,-0.44885 -0.07773,-0.078 -0.131494,-0.12497 -0.20451,-0.17876 -0.19699,-0.14513 -0.425632,-0.24974 -0.663369,-0.30352 -0.06208,-0.014 -0.14669,-0.028 -0.216929,-0.0357 -0.07183,-0.008 -0.267841,-0.009 -0.335421,-0.002 -0.238551,0.0253 -0.435606,0.0816 -0.635895,0.18171 -0.2103,0.1051 -0.398996,0.25146 -0.549893,0.4265 -0.01619,0.0188 -0.03021,0.0334 -0.03116,0.0324 -0.0026,-0.003 0.06229,-0.0788 0.107062,-0.12566 0.289022,-0.30213 0.669462,-0.4891 1.095304,-0.53829 0.109347,-0.0127 0.290161,-0.0108 0.408339,0.004 0.592771,0.0749 1.10873,0.44256 1.37087,0.97683 0.01968,0.0401 0.04561,0.0975 0.05762,0.12761 0.121254,0.30368 0.156082,0.63632 0.100589,0.96069 -0.009,0.0529 -0.01507,0.0796 -0.0157,0.0693 z"
       id="path4551"
       inkscape:connector-curvature="0" />
    <path
       style="fill:#cc79a7;fill-opacity:1;stroke-width:0.00091147"
       d="m 64.574986,263.80227 c -1.7e-4,-0.003 0.03576,-0.0677 0.0569,-0.1031 0.0894,-0.14922 0.197775,-0.28175 0.327942,-0.40103 0.0059,-0.005 0.01094,-0.009 0.0112,-0.009 2.33e-4,2.6e-4 -0.0064,0.007 -0.01479,0.0145 -0.03605,0.0332 -0.07395,0.0712 -0.105491,0.10559 -0.04008,0.0439 -0.0835,0.0958 -0.0835,0.1 0,0.002 0.0011,10e-4 0.008,-0.005 0.0026,-0.002 0.0048,-0.004 0.0048,-0.004 0,3.4e-4 -0.0064,0.008 -0.01435,0.0182 -0.0662,0.081 -0.126641,0.17019 -0.176501,0.26047 -0.01351,0.0245 -0.0141,0.0254 -0.01416,0.0242 z"
       id="path4553"
       inkscape:connector-curvature="0" />
    <path
       style="fill:#cc79a7;fill-opacity:1;stroke-width:0.00091147"
       d="m 64.769075,263.50664 c 0,-0.002 0.02724,-0.0353 0.05284,-0.0645 0.111164,-0.12702 0.236097,-0.23467 0.377838,-0.32556 0.05527,-0.0355 0.125675,-0.0748 0.181477,-0.10133 l 0.01741,-0.008 0.02086,8e-5 0.02086,8e-5 -0.005,0.002 c -0.0028,10e-4 -0.01548,0.007 -0.02825,0.0129 -0.153431,0.0698 -0.298802,0.16277 -0.427483,0.2735 -0.033,0.0284 -0.05982,0.0534 -0.09574,0.0893 -0.03236,0.0324 -0.0503,0.0514 -0.07878,0.0839 -0.02044,0.0233 -0.03423,0.0383 -0.03525,0.0383 -4.67e-4,0 -7e-4,-3.3e-4 -7e-4,-7e-4 z"
       id="path4555"
       inkscape:connector-curvature="0" />
    <path
       style="fill:#cc79a7;fill-opacity:1;stroke-width:0.00091147"
       d="m 64.769075,263.50666 c 0,-0.003 0.04537,-0.057 0.08166,-0.0968 0.146287,-0.16033 0.32924,-0.29693 0.525275,-0.39214 l 0.02222,-0.0108 0.02093,2.4e-4 0.02091,2.3e-4 -0.024,0.0109 c -0.150306,0.0679 -0.287814,0.1538 -0.413568,0.25833 -0.07019,0.0584 -0.135375,0.12207 -0.199692,0.19522 -0.01864,0.0212 -0.03193,0.0356 -0.03292,0.0356 -4.67e-4,0 -7e-4,-3e-4 -7e-4,-6.8e-4 z"
       id="path4557"
       inkscape:connector-curvature="0" />
    <path
       style="fill:#cc79a7;fill-opacity:1;stroke-width:0.00257803"
       d="m 67.866428,275.66824 c 0,-0.002 0.0034,-0.0171 0.0076,-0.0346 0.08496,-0.35823 0.05791,-0.73096 -0.07769,-1.07039 -0.101274,-0.25351 -0.25367,-0.47386 -0.455029,-0.6579 -0.118905,-0.10869 -0.25423,-0.20147 -0.400973,-0.27493 l -0.04576,-0.0229 v -0.0165 -0.0165 l 0.03158,0.0149 c 0.188754,0.0893 0.379854,0.22912 0.524491,0.38388 0.275976,0.2953 0.438883,0.65917 0.47689,1.06517 0.0056,0.06 0.0064,0.2348 0.0013,0.29002 -0.01017,0.11114 -0.02435,0.19687 -0.04853,0.29381 -0.01064,0.0426 -0.01388,0.0533 -0.01388,0.0459 z"
       id="path4559"
       inkscape:connector-curvature="0" />
    <path
       style="fill:#cc79a7;fill-opacity:1;stroke-width:0.00128902"
       d="m 64.596773,274.34017 c 4.66e-4,-10e-4 0.0074,-0.0139 0.01521,-0.0277 0.06459,-0.11349 0.141002,-0.21883 0.230501,-0.31774 0.02738,-0.0303 0.09092,-0.0937 0.121115,-0.12077 0.123328,-0.1109 0.253528,-0.19994 0.398266,-0.27237 0.01631,-0.008 0.02996,-0.0148 0.03032,-0.0148 4.65e-4,0 6.99e-4,0.005 6.99e-4,0.0108 v 0.0108 l -0.02095,0.0104 c -0.04838,0.023 -0.117945,0.0613 -0.167065,0.0919 -0.188009,0.11718 -0.35171,0.26715 -0.483721,0.44314 -0.04027,0.0537 -0.08187,0.11628 -0.112668,0.16951 -0.01006,0.0173 -0.01346,0.0225 -0.01167,0.0174 z"
       id="path4561"
       inkscape:connector-curvature="0" />
    <path
       style="fill:#cc79a7;fill-opacity:1;stroke-width:0.00182295"
       d="m 57.161166,274.43689 c -0.02723,-0.0564 -0.06527,-0.12399 -0.100838,-0.17912 -0.174782,-0.27099 -0.42022,-0.4901 -0.707152,-0.63128 l -0.0378,-0.0186 -2.9e-5,-0.0167 -2.9e-5,-0.0168 0.0097,0.004 c 0.01782,0.008 0.08672,0.0428 0.112045,0.0568 0.29543,0.1632 0.540229,0.40932 0.701006,0.70477 0.02438,0.0448 0.06312,0.1235 0.06312,0.12821 0,4.7e-4 -0.0055,7.1e-4 -0.0123,7.1e-4 l -0.0123,-1.2e-4 z"
       id="path4563"
       inkscape:connector-curvature="0" />
    <path
       style="fill:#cc79a7;fill-opacity:1;stroke-width:0.00182295"
       d="m 54.049931,274.2848 c 5.83e-4,-0.002 0.0094,-0.0165 0.01962,-0.0328 0.173062,-0.27756 0.420387,-0.50327 0.710735,-0.64861 l 0.03292,-0.0165 v 0.0106 0.0106 l -0.03907,0.0194 c -0.288085,0.14301 -0.536344,0.36544 -0.706516,0.63302 -0.01517,0.0239 -0.01973,0.0301 -0.0177,0.0243 z"
       id="path4565"
       inkscape:connector-curvature="0" />
    <text
       xml:space="preserve"
       style="font-style:normal;font-variant:normal;font-weight:normal;font-stretch:normal;font-size:11.65746784px;line-height:7.28591681px;font-family:UltraCondensedSansSerif;-inkscape-font-specification:UltraCondensedSansSerif;letter-spacing:0px;word-spacing:0px;fill:#e69f00;fill-opacity:1;stroke:none;stroke-width:0.29143667"
       x="45.19075"
       y="290.41336"
       id="text4530"><tspan
         sodipodi:role="line"
         id="tspan4528"
         x="45.19075"
         y="290.41336"
         style="fill:#e69f00;fill-opacity:1;stroke-width:0.29143667">SQUIRGLE</tspan></text>
  </g>
</svg>
