<?xml version="1.0" encoding="UTF-8" standalone="no"?>
<!-- Created with Inkscape (http://www.inkscape.org/) -->

<svg
   xmlns:dc="http://purl.org/dc/elements/1.1/"
   xmlns:cc="http://creativecommons.org/ns#"
   xmlns:rdf="http://www.w3.org/1999/02/22-rdf-syntax-ns#"
   xmlns:svg="http://www.w3.org/2000/svg"
   xmlns="http://www.w3.org/2000/svg"
   xmlns:sodipodi="http://sodipodi.sourceforge.net/DTD/sodipodi-0.dtd"
   xmlns:inkscape="http://www.inkscape.org/namespaces/inkscape"
   width="1920"
   height="1080"
   viewBox="0 0 507.99996 285.75001"
   version="1.1"
   id="svg3953"
   inkscape:version="0.92.0 r15299"
   sodipodi:docname="squirgleLogoBundle.svg"
   inkscape:export-filename="C:\Users\zgcrowno\Documents\ArtAssets\PlanarGazer\Squirgle\icons\png\squirgleLogoWithTextNan1920x1080.png"
   inkscape:export-xdpi="96"
   inkscape:export-ydpi="96">
  <defs
     id="defs3947" />
  <sodipodi:namedview
     id="base"
     pagecolor="#0072b2"
     bordercolor="#666666"
     borderopacity="1.0"
     inkscape:pageopacity="1"
     inkscape:pageshadow="2"
     inkscape:zoom="0.5"
     inkscape:cx="720.1071"
     inkscape:cy="478.65621"
     inkscape:document-units="mm"
     inkscape:current-layer="layer1"
     showgrid="false"
     units="px"
     inkscape:window-width="2400"
     inkscape:window-height="1271"
     inkscape:window-x="2391"
     inkscape:window-y="-9"
     inkscape:window-maximized="1">
    <inkscape:grid
       type="xygrid"
       id="grid3955"
       empspacing="1" />
  </sodipodi:namedview>
  <metadata
     id="metadata3950">
    <rdf:RDF>
      <cc:Work
         rdf:about="">
        <dc:format>image/svg+xml</dc:format>
        <dc:type
           rdf:resource="http://purl.org/dc/dcmitype/StillImage" />
        <dc:title></dc:title>
      </cc:Work>
    </rdf:RDF>
  </metadata>
  <g
     inkscape:label="Layer 1"
     inkscape:groupmode="layer"
     id="layer1"
     transform="translate(0,-11.249987)">
    <circle
       style="fill:#000000;fill-opacity:1;stroke-width:1.15812147"
       id="path4021-8-1"
       cx="221.87675"
       cy="214.57431"
       r="17.986898" />
    <rect
       style="fill:#e69f00;fill-opacity:1;stroke-width:0.95194739"
       id="rect4053"
       width="191.86026"
       height="15.79337"
       x="32.753807"
       y="206.67773" />
    <circle
       style="fill:#000000;fill-opacity:1;stroke-width:1.15812147"
       id="path4021-8-1-3"
       cx="35.491165"
       cy="214.57431"
       r="17.986898" />
    <circle
       style="fill:#e69f00;fill-opacity:1;stroke-width:1.15812147"
       id="path4021-8-1-8"
       cx="168.08218"
       cy="-138.02322"
       r="17.986898"
       transform="rotate(120)" />
    <rect
       style="fill:#e69f00;fill-opacity:1;stroke-width:0.95194739"
       id="rect4053-2"
       width="191.86026"
       height="15.79337"
       x="-21.040758"
       y="-145.91988"
       transform="rotate(120)" />
    <circle
       style="fill:#e69f00;fill-opacity:1;stroke-width:1.15812147"
       id="path4021-8-1-8-2"
       cx="296.76453"
       cy="84.863091"
       r="17.986898"
       transform="matrix(0.5,0.8660254,0.8660254,-0.5,0,0)" />
    <rect
       style="fill:#e69f00;fill-opacity:1;stroke-width:0.95194715"
       id="rect4053-2-0"
       width="191.86023"
       height="15.79337"
       x="107.64336"
       y="76.966354"
       transform="matrix(0.5,0.8660254,0.8660254,-0.5,0,0)" />
    <circle
       style="fill:#e69f00;fill-opacity:1;stroke-width:1.15812147"
       id="path4021-8-1-3-2-5"
       cx="110.38065"
       cy="84.863091"
       r="17.986898"
       transform="matrix(0.5,0.8660254,0.8660254,-0.5,0,0)" />
    <circle
       style="fill:#000000;fill-opacity:1;stroke-width:1.46276796"
       id="path4328"
       cx="128.68382"
       cy="160.85805"
       r="45.990883" />
    <circle
       style="fill:#ffffff;fill-opacity:1;stroke-width:1.54442465"
       id="path4330"
       cx="102.49702"
       cy="134.5444"
       r="8.8252821" />
    <circle
       style="fill:#ffffff;fill-opacity:1;stroke-width:1.54442465"
       id="path4330-6"
       cx="102.49702"
       cy="187.05052"
       r="8.8252821" />
    <rect
       style="fill:#cc79a7;fill-opacity:1;stroke-width:2.07206273"
       id="rect4347"
       width="7.4463315"
       height="50.745388"
       x="98.707634"
       y="136.64517" />
    <circle
       style="fill:#ffffff;fill-opacity:1;stroke-width:1.54442465"
       id="path4330-9"
       cx="187.05052"
       cy="-155.00317"
       r="8.8252821"
       transform="rotate(90)" />
    <circle
       style="fill:#cc79a7;fill-opacity:1;stroke-width:1.54442465"
       id="path4330-6-1"
       cx="187.19659"
       cy="-102.43082"
       r="8.8252821"
       transform="rotate(90)" />
    <rect
       style="fill:#cc79a7;fill-opacity:1;stroke-width:2.07206273"
       id="rect4347-3"
       width="7.4463315"
       height="50.745388"
       x="183.47368"
       y="-152.98232"
       transform="rotate(90)" />
    <circle
       style="fill:#cc79a7;fill-opacity:1;stroke-width:1.54442465"
       id="path4330-93"
       cx="-154.93692"
       cy="-187.19698"
       r="8.8252821"
       transform="scale(-1)" />
    <circle
       style="fill:#ffffff;fill-opacity:1;stroke-width:1.54442465"
       id="path4330-6-2"
       cx="-155.00317"
       cy="-134.5444"
       r="8.8252821"
       transform="scale(-1)" />
    <rect
       style="fill:#cc79a7;fill-opacity:1;stroke-width:2.07206273"
       id="rect4347-7"
       width="7.4463315"
       height="50.745388"
       x="-158.66019"
       y="-185.24248"
       transform="scale(-1)" />
    <circle
       style="fill:#cc79a7;fill-opacity:1;stroke-width:1.54442465"
       id="path4330-9-3"
       cx="-134.69049"
       cy="102.43082"
       r="8.8252821"
       transform="rotate(-90)" />
    <circle
       style="fill:#cc79a7;fill-opacity:1;stroke-width:1.54442465"
       id="path4330-6-1-9"
       cx="-134.69049"
       cy="154.93692"
       r="8.8252821"
       transform="rotate(-90)" />
    <rect
       style="fill:#cc79a7;fill-opacity:1;stroke-width:2.07206273"
       id="rect4347-3-8"
       width="7.4463315"
       height="50.745388"
       x="-138.41359"
       y="104.38553"
       transform="rotate(-90)" />
    <path
       style="fill:#e69f00;fill-opacity:1;stroke-width:0.03156727"
       d=""
       id="path4519"
       inkscape:connector-curvature="0"
       transform="matrix(0.26458333,0,0,0.26458333,0,246.19998)" />
    <path
       style="fill:#e69f00;fill-opacity:1;stroke-width:0.03156727"
       d=""
       id="path4521"
       inkscape:connector-curvature="0"
       transform="matrix(0.26458333,0,0,0.26458333,0,246.19998)" />
    <path
       style="fill:#e69f00;fill-opacity:1;stroke-width:0.0365587"
       d="m 26.519765,230.14026 c -1.403121,-0.81264 -2.620235,-1.74751 -3.746403,-2.87687 -2.189569,-2.19565 -3.785435,-4.93712 -4.605459,-7.91151 l -0.128955,-0.46656 v -4.31313 -4.31301 l 0.11134,-0.39988 c 1.231245,-4.43251 4.015292,-8.16319 7.877159,-10.55569 2.028682,-1.25673 4.290529,-2.10101 6.617116,-2.46979 1.07501,-0.17108 1.519548,-0.20305 2.840839,-0.20562 l 1.268789,-0.002 4.215016,-7.30219 4.215005,-7.30238 9.097477,-2.1e-4 9.09749,-4e-4 -0.118702,0.20913 c -0.06606,0.11003 -2.967748,5.14555 -6.450212,11.1777 -3.482433,6.03226 -6.349942,11.00187 -6.37223,11.04378 -0.03421,0.0732 -0.01344,0.12248 0.141112,0.36018 0.349148,0.54481 0.687668,1.14062 0.997917,1.75777 0.17206,0.34239 0.313431,0.6084 0.314165,0.59247 7.54e-4,-0.0256 -0.04775,-0.12725 -0.108915,-0.24716 l -0.110127,-0.21905 h 25.609925 25.609928 v 7.87851 7.87837 H 77.281575 51.671556 l 0.09179,-0.18225 c 0.05138,-0.0979 0.09179,-0.19443 0.09056,-0.20914 -5.37e-4,-0.0256 -0.161673,0.28363 -0.358067,0.66578 -0.895236,1.74187 -1.820358,3.02446 -3.186938,4.41852 -1.190785,1.21401 -2.46561,2.20481 -3.879823,3.0134 l -0.461408,0.26413 h -8.477532 -8.47813 z m 25.47923,-8.39739 c 0,-0.0255 -0.03163,0.0256 -0.06977,0.0857 -0.03794,0.0732 -0.06977,0.14422 -0.06977,0.16372 0,0.0255 0.03163,-0.0257 0.06977,-0.0857 0.03794,-0.0732 0.06977,-0.14421 0.06977,-0.16371 z m 0.110115,-0.2555 c 0,-0.0255 -0.02335,0.003 -0.05262,0.0611 -0.02811,0.0611 -0.05251,0.11003 -0.05251,0.12854 0,0.0255 0.02335,-0.003 0.05251,-0.0611 0.02812,-0.0611 0.05262,-0.11003 0.05262,-0.12854 z m 0.07464,-0.18226 c 0,-0.0255 -0.01603,-0.0128 -0.0367,0.0255 -0.01953,0.0256 -0.0367,0.0732 -0.0367,0.0857 0,0.0256 0.01603,0.0129 0.0367,-0.0255 0.01953,-0.0255 0.0367,-0.0736 0.0367,-0.0857 z m 0.07349,-0.18226 c 0,-0.0255 -0.01603,-0.0128 -0.0367,0.0255 -0.01953,0.0256 -0.0367,0.0732 -0.0367,0.0857 0,0.0256 0.01603,0.0128 0.0367,-0.0255 0.01953,-0.0255 0.0367,-0.0732 0.0367,-0.0857 z m 0.08931,-0.23727 c 0.01726,-0.0732 0.01344,-0.0732 -0.01042,-0.0368 -0.01953,0.0255 -0.04404,0.0857 -0.05872,0.14676 -0.01726,0.0732 -0.01344,0.0732 0.01042,0.0369 0.01953,-0.0255 0.04404,-0.0857 0.05872,-0.14677 z m 0.127074,-0.33508 c 0.04155,-0.12471 0.06977,-0.23247 0.06244,-0.23853 -0.0083,-0.0128 -0.0428,0.0732 -0.07835,0.17969 -0.03545,0.0979 -0.07102,0.21394 -0.08073,0.23855 -0.01042,0.0255 -0.0083,0.049 0.0021,0.049 0.01053,0 0.05385,-0.0979 0.0954,-0.22511 z m 0.256733,-0.81506 c -0.0021,-0.0256 -0.04281,0.0732 -0.09179,0.21519 -0.0489,0.13942 -0.08682,0.27147 -0.08569,0.29227 10e-4,0.0256 0.04281,-0.0732 0.09179,-0.21521 0.0489,-0.13941 0.08693,-0.27148 0.08569,-0.29225 z m 0.06977,-0.23855 c 0,-0.0369 -0.0122,-0.0256 -0.03163,0.0255 -0.01726,0.0489 -0.03163,0.0979 -0.03163,0.12854 0,0.0369 0.0122,0.0255 0.03163,-0.0256 0.01726,-0.0489 0.03163,-0.0979 0.03163,-0.12855 z m 0.09179,-0.32893 c 0.01603,-0.0857 0.01344,-0.0979 -0.0094,-0.0611 -0.01726,0.0489 -0.04155,0.12951 -0.055,0.20177 -0.01603,0.0857 -0.01344,0.0979 0.0094,0.0611 0.01726,-0.0489 0.04155,-0.13079 0.055,-0.20177 z m 0.04765,-0.22511 c -0.01219,-0.0257 -0.01953,-0.0257 -0.02336,0.0255 -0.0021,0.0369 0.0073,0.0611 0.01953,0.0489 0.0121,-0.0128 0.01344,-0.0489 0.0032,-0.0732 z m 0.0367,-0.1455 c -0.0122,-0.0256 -0.01953,-0.0256 -0.02336,0.0255 -0.001,0.0369 0.0073,0.0611 0.01953,0.0489 0.01219,-0.0128 0.01344,-0.0489 0.0032,-0.0732 z m 0.07712,-0.30314 c 0,-0.0611 -0.0062,-0.0611 -0.02945,0.0255 -0.01603,0.0611 -0.02945,0.12471 -0.02945,0.16372 0,0.0611 0.0062,0.0611 0.02945,-0.0256 0.01603,-0.0611 0.02945,-0.12471 0.02945,-0.16372 z m 0.03163,-0.20911 c -0.01053,-0.0255 -0.01953,-0.003 -0.01953,0.0489 0,0.0611 0.0083,0.0732 0.01953,0.0489 0.01053,-0.0255 0.01053,-0.0732 0,-0.0857 z m 0.0367,-0.18228 c -0.01053,-0.0255 -0.01953,-0.003 -0.01953,0.0489 0,0.0611 0.0083,0.0732 0.01953,0.0489 0.01053,-0.0255 0.01053,-0.0732 0,-0.0857 z m 0.0367,-0.18226 c -0.01053,-0.0255 -0.01953,-0.003 -0.01953,0.0489 0,0.0611 0.0083,0.0732 0.01953,0.049 0.01053,-0.0255 0.01053,-0.0732 0,-0.0857 z m 0.0367,-0.18227 c -0.01042,-0.0256 -0.01953,-0.003 -0.01953,0.049 0,0.0611 0.0083,0.0732 0.01953,0.0489 0.01053,-0.0255 0.01053,-0.0732 0,-0.0856 z m 0.03794,-0.1992 c -0.01042,-0.0369 -0.01726,-0.0256 -0.0182,0.0489 -7.44e-4,0.0611 0.0062,0.0857 0.01726,0.0732 0.01053,-0.0255 0.01053,-0.0732 10e-4,-0.11003 z m 0.0367,-0.25549 c -0.01042,-0.0368 -0.01726,-0.003 -0.01726,0.0732 0,0.0734 0.0083,0.0979 0.01726,0.0734 0.01042,-0.0368 0.01042,-0.0857 0,-0.12854 z m 0.0367,-0.25549 c -0.01042,-0.0369 -0.01726,-0.003 -0.01726,0.0732 0,0.0732 0.0083,0.0979 0.01726,0.0732 0.01042,-0.0369 0.01042,-0.0857 0,-0.12823 z m 0.0367,-0.29226 c -0.01043,-0.0369 -0.01726,0.002 -0.01603,0.0732 4.02e-4,0.0732 0.0083,0.11003 0.01726,0.0732 0.0094,-0.049 0.0083,-0.11003 -7.23e-4,-0.14549 z m 0.03794,-0.31049 c -0.0094,-0.049 -0.01603,-0.0128 -0.01603,0.0735 0,0.0857 0.0073,0.12856 0.01603,0.0732 0.0094,-0.0489 0.0094,-0.12247 0,-0.16372 z m 0.03794,-0.384 c -0.0083,-0.0611 -0.01468,-0.0128 -0.01468,0.0979 0,0.11004 0.0062,0.15668 0.01468,0.0979 0.0083,-0.0611 0.0083,-0.14547 0,-0.20177 z m 0.03794,-0.5656 c -0.0083,-0.0857 -0.01344,-0.0255 -0.01344,0.13558 -1.55e-4,0.16021 0.0062,0.23248 0.01344,0.15668 0.0083,-0.0732 0.0083,-0.20783 2.68e-4,-0.29226 z m 0.03794,-1.16875 c -0.0062,-0.16627 -0.01219,-0.0489 -0.01219,0.28138 -3.1e-5,0.32163 0.0062,0.45797 0.01219,0.30313 0.0062,-0.15539 0.0062,-0.4182 7.3e-5,-0.58516 z m -0.03794,-0.8775 c -0.0083,-0.0857 -0.01344,-0.0256 -0.01344,0.13559 -1.55e-4,0.1602 0.0062,0.23119 0.01344,0.15636 0.0083,-0.0732 0.0083,-0.20657 2.68e-4,-0.29227 z m -0.03794,-0.49591 c -0.0083,-0.0611 -0.01468,-0.0128 -0.01468,0.0979 0,0.11003 0.0062,0.15541 0.01468,0.0979 0.0083,-0.0611 0.0083,-0.14549 0,-0.20048 z m -0.03794,-0.34729 c -0.0094,-0.049 -0.01603,-0.0129 -0.01603,0.0734 0,0.0857 0.0073,0.12824 0.01603,0.0732 0.0094,-0.0489 0.0094,-0.12215 0,-0.16403 z m -0.03794,-0.31049 c -0.01043,-0.0369 -0.01726,-0.003 -0.01726,0.0732 0,0.0732 0.0083,0.0979 0.01726,0.0732 0.01042,-0.0369 0.01042,-0.0857 0,-0.12854 z m -0.0367,-0.25548 c -0.01042,-0.0369 -0.01726,-0.003 -0.01726,0.0732 0,0.0736 0.0083,0.0979 0.01726,0.0736 0.01042,-0.0369 0.01042,-0.0857 0,-0.12855 z m -0.0367,-0.25455 c -0.01042,-0.0368 -0.01726,-0.003 -0.01726,0.0732 0,0.0736 0.0083,0.0979 0.01726,0.0736 0.01042,-0.0369 0.01042,-0.0857 0,-0.12855 z m -0.0367,-0.21903 c -0.01042,-0.0368 -0.01726,-0.0256 -0.0182,0.0489 -7.44e-4,0.0611 0.0062,0.0857 0.01726,0.0732 0.01053,-0.0255 0.01053,-0.0732 10e-4,-0.11004 z m -0.03794,-0.20176 c -0.01042,-0.0255 -0.01953,-0.003 -0.01953,0.0489 0,0.0611 0.0083,0.0732 0.01953,0.049 0.01053,-0.0255 0.01053,-0.0735 0,-0.0857 z m -0.06119,-0.33752 c -0.02429,-0.13206 -0.05262,-0.23341 -0.06119,-0.2251 -0.0094,0.0128 0.0041,0.1247 0.02812,0.25676 0.02429,0.13207 0.05262,0.2347 0.06119,0.22511 0.0094,-0.0128 -0.0041,-0.12471 -0.02811,-0.25805 z m -0.09302,-0.436 c -0.01344,-0.0732 -0.03298,-0.12598 -0.04155,-0.12214 -0.0094,0.0128 -0.0052,0.0732 0.0094,0.14934 0.01344,0.0734 0.03297,0.12598 0.04155,0.12213 0.0094,-0.0128 0.0052,-0.0732 -0.0094,-0.14933 z m -0.06491,-0.24685 c -0.0121,-0.0255 -0.01953,-0.0255 -0.02336,0.0257 -0.0021,0.0369 0.0073,0.0611 0.01953,0.0489 0.01221,-0.0128 0.01344,-0.0489 0.0032,-0.0732 z m -0.0367,-0.14549 c -0.01219,-0.0255 -0.02077,-0.0255 -0.02336,0.0256 -0.0021,0.0369 0.0073,0.0611 0.01953,0.0489 0.01219,-0.0128 0.01344,-0.0489 0.0032,-0.0732 z m -0.0367,-0.14548 c -0.01219,-0.0256 -0.01953,-0.0256 -0.02336,0.0255 -0.001,0.0369 0.0073,0.0611 0.01953,0.0489 0.01219,-0.0128 0.01344,-0.0489 0.0032,-0.0732 z m -0.04527,-0.1909 c -0.01344,-0.0611 -0.03163,-0.0857 -0.03917,-0.0732 -0.0094,0.0128 -0.0052,0.0611 0.0094,0.11004 0.01344,0.0611 0.03163,0.0857 0.03917,0.0732 0.0094,-0.0129 0.0052,-0.0611 -0.0094,-0.11003 z m -0.07349,-0.25422 c -0.01344,-0.0611 -0.03163,-0.0857 -0.03917,-0.0732 -0.0094,0.0129 -0.0052,0.0611 0.0094,0.11003 0.01344,0.0611 0.03163,0.0857 0.03917,0.0732 0.0094,-0.0129 0.0052,-0.0611 -0.0094,-0.11003 z m -0.09179,-0.30952 c -0.02429,-0.0735 -0.05262,-0.14326 -0.05996,-0.13462 -0.0083,0.0128 0.0052,0.0732 0.02946,0.16371 0.02429,0.0732 0.05251,0.14294 0.05996,0.13463 0.0083,-0.0129 -0.0052,-0.0732 -0.02946,-0.16501 z m -0.256641,-0.76733 c -0.02336,-0.0732 -0.04765,-0.11004 -0.05499,-0.0979 -0.0083,0.0128 0.0041,0.0732 0.02688,0.13079 0.02336,0.0736 0.04765,0.11004 0.05499,0.0979 0.0083,-0.0128 -0.0041,-0.0734 -0.02688,-0.13078 z m -0.236326,-0.62297 c -0.07349,-0.18354 -0.140027,-0.32896 -0.147253,-0.32165 -0.0073,0.003 0.04652,0.16372 0.119911,0.34856 0.07339,0.18449 0.139769,0.32896 0.147253,0.32164 0.0083,-0.003 -0.04652,-0.16372 -0.121131,-0.34855 z m -0.23058,-0.5387 c -0.04032,-0.0732 -0.07464,-0.12853 -0.07587,-0.11004 -0.0021,0.0489 0.119909,0.28491 0.135508,0.26892 0.0083,-0.0128 -0.01953,-0.0732 -0.05996,-0.15413 z"
       id="path4523"
       inkscape:connector-curvature="0" />
    <path
       style="fill:#e69f00;fill-opacity:1;stroke-width:0.0365587"
       d="m 26.559718,230.16813 c -1.573145,-0.90073 -3.132006,-2.14672 -4.298199,-3.43376 -1.978236,-2.18362 -3.332525,-4.63343 -4.111602,-7.4382 l -0.111339,-0.39992 v -4.31933 -4.31962 l 0.112586,-0.39991 c 0.549883,-1.96841 1.307719,-3.62608 2.422289,-5.29831 1.077697,-1.61684 2.516356,-3.13791 4.101544,-4.33631 2.251612,-1.70218 4.978082,-2.88061 7.768755,-3.35792 1.151132,-0.19697 1.649061,-0.2347 3.04049,-0.23725 l 1.267435,-9.9e-4 4.215697,-7.30255 4.215687,-7.30277 h 9.094688 c 5.002074,0 9.094687,0.003 9.094687,0.0255 0,0.0128 -0.203114,0.36564 -0.451567,0.79543 -4.779411,8.25902 -12.490206,21.64919 -12.490206,21.68979 0,0.0256 0.112551,0.23119 0.248546,0.44822 0.269592,0.42864 0.517911,0.86152 0.797695,1.39038 l 0.178419,0.33755 25.618544,3.5e-4 25.618533,3.7e-4 v 7.87836 7.87852 H 77.281817 51.67168 l 0.07339,-0.14422 c 0.04032,-0.0732 0.07349,-0.15764 0.07349,-0.17363 -4.33e-4,-0.0255 -0.162148,0.28363 -0.359411,0.66456 -0.915911,1.7742 -1.82471,3.01261 -3.274885,4.46283 -1.231234,1.23116 -2.245461,2.01739 -3.692494,2.8623 l -0.509475,0.29705 h -8.486504 -8.486625 l -0.449242,-0.25804 z m 25.404658,-8.35215 c 0,-0.0255 -0.01603,-0.0129 -0.0367,0.0257 -0.01953,0.0255 -0.0367,0.0732 -0.0367,0.0857 0,0.0255 0.01603,0.0129 0.0367,-0.0255 0.01953,-0.0255 0.0367,-0.0732 0.0367,-0.0857 z m 0.124739,-0.25804 c 0.01219,-0.0255 0.0062,-0.0489 -0.01344,-0.0369 -0.01953,0.0129 -0.0367,0.0369 -0.0367,0.0611 0,0.0611 0.02563,0.0489 0.05138,-0.0255 z m 0.0954,-0.25325 c 0,-0.0256 -0.01603,-0.0129 -0.0367,0.0256 -0.01953,0.0255 -0.0367,0.0732 -0.0367,0.0857 0,0.0255 0.01603,0.0128 0.0367,-0.0257 0.01953,-0.0255 0.0367,-0.0732 0.0367,-0.0857 z m 0.07339,-0.18227 c 0,-0.0255 -0.01603,-0.0128 -0.0367,0.0256 -0.01953,0.0255 -0.0367,0.0732 -0.0367,0.0857 0,0.0256 0.01603,0.0128 0.0367,-0.0256 0.01953,-0.0255 0.0367,-0.0732 0.0367,-0.0857 z m 0.236079,-0.64006 c 0.01726,-0.0732 0.01344,-0.0732 -0.01042,-0.0368 -0.01953,0.0255 -0.04404,0.0857 -0.05872,0.14548 -0.01726,0.0732 -0.01344,0.0732 0.01042,0.0369 0.01953,-0.0256 0.04404,-0.0857 0.05872,-0.14551 z m 0.740541,-2.93152 c -0.01219,-0.0257 -0.01953,-0.0257 -0.02336,0.0255 -0.0021,0.0369 0.0073,0.0611 0.01953,0.0489 0.01219,-0.0128 0.01344,-0.0489 0.0032,-0.0732 z m 0.07349,-0.47511 c -0.0122,-0.0256 -0.01953,-0.0256 -0.02336,0.0255 -0.0021,0.0369 0.0073,0.0611 0.01953,0.0489 0.01219,-0.0128 0.01344,-0.0489 0.0032,-0.0732 z m 0.0367,-0.29227 c -0.01219,-0.0255 -0.01953,-0.0255 -0.02335,0.0256 -10e-4,0.0369 0.0073,0.0611 0.01953,0.049 0.0121,-0.0128 0.01344,-0.049 0.0032,-0.0732 z m 0.0367,-0.33022 c -0.01053,-0.0255 -0.01953,-0.003 -0.01953,0.0489 0,0.0611 0.0083,0.0732 0.01953,0.0489 0.01053,-0.0257 0.01053,-0.0732 0,-0.0857 z m 0.0367,-0.36564 c -0.01053,-0.0255 -0.0182,-0.003 -0.0182,0.0489 0,0.0611 0.0083,0.0732 0.0182,0.0489 0.01053,-0.0255 0.01053,-0.0732 0,-0.0857 z m 0.03794,-0.53013 c -0.01042,-0.0369 -0.01726,-0.003 -0.01726,0.0735 0,0.0732 0.0083,0.0979 0.01726,0.0732 0.01042,-0.0369 0.01042,-0.0857 0,-0.12855 z m 0.03794,-1.05986 c -0.0083,-0.0611 -0.01468,-0.0255 -0.01603,0.0732 -2.9e-4,0.0979 0.0062,0.14549 0.01468,0.0979 0.0094,-0.0489 0.0094,-0.12727 5.18e-4,-0.18225 z m -0.03794,-0.98764 c -0.01042,-0.0368 -0.01726,-0.003 -0.01726,0.0732 0,0.0734 0.0083,0.0979 0.01726,0.0734 0.01042,-0.0369 0.01042,-0.0857 0,-0.12855 z m -0.03794,-0.53013 c -0.01053,-0.0256 -0.0182,-0.003 -0.0182,0.049 0,0.0611 0.0083,0.0732 0.0182,0.0489 0.01053,-0.0256 0.01053,-0.0732 0,-0.0857 z m -0.0367,-0.36505 c -0.01053,-0.0256 -0.01953,-0.003 -0.01953,0.0489 0,0.0611 0.0083,0.0736 0.01953,0.049 0.01053,-0.0256 0.01053,-0.0737 0,-0.0857 z m -0.0367,-0.32897 c -0.01053,-0.0256 -0.01953,-0.003 -0.01953,0.0489 0,0.0611 0.0083,0.0732 0.01953,0.049 0.01053,-0.0256 0.01053,-0.0732 0,-0.0857 z m -0.0367,-0.25324 c -0.0122,-0.0256 -0.01953,-0.0256 -0.02336,0.0255 -0.0021,0.0368 0.0073,0.0611 0.01953,0.049 0.01219,-0.0128 0.01344,-0.049 0.0032,-0.0732 z m -0.07349,-0.47514 c -0.01219,-0.0255 -0.01953,-0.0255 -0.02336,0.0256 -0.0021,0.0369 0.0073,0.0611 0.01953,0.0489 0.01219,-0.0129 0.01344,-0.0489 0.0032,-0.0735 z m -0.07349,-0.40232 c -0.0122,-0.0256 -0.01953,-0.0256 -0.02336,0.0255 -0.0021,0.0369 0.0073,0.0611 0.01953,0.0489 0.01219,-0.0129 0.01344,-0.0489 0.0032,-0.0732 z m -0.0367,-0.18227 c -0.01219,-0.0256 -0.02079,-0.0256 -0.02336,0.0255 -10e-4,0.0369 0.0073,0.0611 0.01953,0.0489 0.01221,-0.0128 0.01344,-0.0489 0.0032,-0.0732 z m -0.438717,-1.71807 c -0.0122,-0.0255 -0.01953,-0.0255 -0.02336,0.0255 -0.0021,0.0368 0.0073,0.0611 0.01953,0.0489 0.01219,-0.0129 0.01344,-0.0489 0.0032,-0.0732 z m -0.276436,-0.82243 c -0.04279,-0.0732 -0.05385,-0.0611 -0.0182,0.0489 0.0122,0.0255 0.03071,0.0611 0.03917,0.049 0.01042,-0.0128 -3.32e-4,-0.049 -0.02202,-0.0732 z m -0.43873,-1.09659 c -0.04281,-0.0732 -0.05385,-0.0611 -0.0182,0.0489 0.01219,0.0255 0.03071,0.0611 0.03917,0.0489 0.01042,-0.0128 -3.3e-4,-0.0489 -0.02202,-0.0732 z m -0.164617,-0.36442 c -0.03071,-0.0611 -0.05623,-0.0857 -0.05747,-0.0732 -0.0021,0.049 0.08321,0.21265 0.09913,0.19698 0.0083,-0.0128 -0.01053,-0.0611 -0.04155,-0.12215 z"
       id="path4525"
       inkscape:connector-curvature="0" />
    <path
       style="fill:#e69f00;fill-opacity:1;stroke-width:1.15812147"
       id="path4527"
       d="m 121.14003,68.375877 c -0.0992,0.211683 -0.21504,0.415819 -0.34327,0.610873 -0.0955,0.160199 -0.20723,0.308249 -0.32334,0.453069 -0.36296,0.429248 -0.59318,0.450065 -1.23568,0.80404 -0.14725,-0.129502 -0.15714,-0.347326 -0.18124,-0.53138 -0.007,-0.219036 -0.0514,-0.428639 -0.10642,-0.637635 -0.0562,-0.158922 -0.10393,-0.319121 -0.13017,-0.488564 -0.022,-0.17235 -0.0196,-0.346079 -0.0196,-0.520347 0.008,-0.199211 0.065,-0.391931 0.12641,-0.581485 0.0428,-0.145492 0.12461,-0.275315 0.18306,-0.415178 0.13552,-0.402357 -0.0808,-0.0857 0.99851,-0.48735 0.0233,-0.01278 -0.0196,0.04892 -0.0295,0.07355 -0.038,0.07323 -0.0392,0.0857 -0.0846,0.174908 -0.14184,0.262845 -0.33836,0.488563 -0.53526,0.709839 -0.15041,0.191857 -0.33215,0.353432 -0.51191,0.516671 -0.11505,0.08569 -0.22154,0.196971 -0.30892,0.316883 -1.35242,1.466105 -0.99204,0.428032 -0.88779,0.04892 0.071,-0.259327 0.15484,-0.515488 0.24306,-0.769794 0.0661,-0.177468 0.12884,-0.357077 0.20117,-0.531347 0.006,-0.02559 0.004,-0.03676 0.0196,-0.04892 0.32174,-0.178427 0.63676,-0.374217 0.97844,-0.513025 0.0343,-0.02559 0.0281,0.07355 0.0331,0.09786 0.0105,0.09786 -0.0893,0.211681 -0.13707,0.284906 -0.16033,0.219997 -0.36224,0.404787 -0.56945,0.580271 -0.15987,0.132062 -0.31087,0.276274 -0.48185,0.396857 -0.46886,0.290981 -0.93964,0.583947 -1.44347,0.810179 -0.0368,0.01278 -0.0624,0.02559 -0.0882,-0.02559 -0.0784,-0.132061 -0.004,-0.174909 0.0832,-0.26668 0.14626,-0.14805 0.27791,-0.310489 0.41646,-0.465317 0.13613,-0.164997 0.26933,-0.331433 0.41269,-0.492241 0.16963,-0.164038 0.34962,-0.313047 0.50897,-0.487348 0.1415,-0.136858 0.2422,-0.299616 0.31992,-0.479994 0.0686,-0.179706 0.15873,-0.348539 0.25738,-0.512992 0.038,-0.07355 0.0575,-0.08569 0.0808,-0.1602 0.004,-0.02559 0.006,-0.06106 0.007,-0.04892 7.4e-4,0.02559 0.004,0.04892 -0.006,0.06106 -0.0233,0.02559 -0.20315,0.109999 -0.20599,0.109999 -0.31026,0.156683 -1.08445,0.587625 0.27093,-0.170114 0.0759,-0.04892 -0.14982,0.0857 -0.22449,0.134621 -0.22606,0.136858 -0.20739,0.127265 -0.42355,0.264122 -0.56628,0.390716 -2.24147,1.263281 -0.45437,0.280111 0.0392,-0.02559 -0.0746,0.06107 -0.1126,0.07323 -0.022,0.02559 -0.16068,0.11 -0.18587,0.130783 -0.15311,0.109998 -0.27119,0.264124 -0.37074,0.424355 -0.0808,0.149329 -0.15542,0.299616 -0.24097,0.446963 -0.0845,0.129503 -0.18357,0.248134 -0.26677,0.377893 0.18649,-0.01278 0.41904,-0.09786 0.60847,-0.170113 0.44446,-0.164996 0.89179,-0.326539 1.32715,-0.513024 0.3511,-0.164998 1.01773,-0.548487 -0.53362,0.326507 -0.0295,0.02559 0.0561,-0.03677 0.0846,-0.06108 0.0452,-0.02559 0.0991,-0.07323 0.14249,-0.109999 0.0783,-0.07323 0.0392,-0.02559 0.11376,-0.09786 0,0 1.00134,-0.416425 1.00134,-0.416425 v 0 c -0.071,0.07355 -0.0354,0.04892 -0.11131,0.109999 -0.0759,0.06107 -0.14457,0.132062 -0.22628,0.179706 -0.43567,0.25549 -0.84813,0.521595 -1.3068,0.719622 -0.43982,0.177469 -0.88337,0.346111 -1.32976,0.508133 -0.16876,0.06106 -0.57985,0.244618 -0.72584,0.06106 -0.0196,-0.02559 -0.0233,-0.06106 -0.0367,-0.08569 0.0427,-0.09786 0.11504,-0.166275 0.1728,-0.256769 0.0146,-0.02559 0.0256,-0.06108 0.0416,-0.07323 0.0134,-0.02559 0.0331,-0.04892 0.0501,-0.06106 0.10035,-0.1359 0.16717,-0.292263 0.24587,-0.440249 0.0893,-0.174909 0.21296,-0.333862 0.35549,-0.467778 0.0991,-0.07355 0.19922,-0.154124 0.30343,-0.216478 1.23584,-0.744085 1.4375,-0.82975 0.28721,-0.173631 -0.0612,0.03676 0.11992,-0.07355 0.18039,-0.109999 0.71348,-0.459209 1.44304,-0.898305 2.20292,-1.275687 0.0599,-0.02559 0.18614,-0.08569 0.26384,-0.06106 0.15605,0.06106 0.0588,0.235984 0.008,0.32283 -0.0942,0.164038 -0.2011,0.319123 -0.26188,0.500778 -0.0808,0.185782 -0.15641,0.370571 -0.3078,0.513026 -0.15752,0.177467 -0.32372,0.342432 -0.51094,0.489777 -0.14518,0.156683 -0.28415,0.319122 -0.41231,0.491026 -0.13954,0.154125 -0.26998,0.313045 -0.41011,0.465318 -0.0105,0.01278 -0.1077,0.129501 -0.13098,0.122147 -0.0281,-0.02559 -0.0783,-0.06106 -0.0538,-0.07323 0.0105,-0.01278 0.027,-0.02559 0.0392,-0.02559 0.3445,-0.150289 0.78398,-0.43721 -0.66528,0.404786 -0.0196,0.02559 0.0759,-0.04893 0.17427,-0.09786 0.0255,-0.02559 0.0514,-0.03677 0.0772,-0.06106 0.18575,-0.09786 0.33105,-0.248134 0.49112,-0.382178 0.20686,-0.171073 0.41366,-0.342401 0.58217,-0.554594 0.0105,-0.02559 0.13635,-0.215199 0.15189,-0.221275 0.0105,-0.0032 0.0233,0.02559 0.0331,0.02559 0.31309,-0.170113 0.6162,-0.357109 0.92655,-0.531347 0.0122,-0.01278 -0.0196,0.02559 -0.0306,0.02559 -0.093,0.164997 -0.13856,0.353432 -0.2145,0.526487 -0.0943,0.249413 -0.17586,0.504455 -0.24551,0.759976 -0.1717,0.660882 -0.0105,0.326541 -1.0963,0.86406 -0.006,0.0032 0.007,-0.02559 0.0105,-0.02559 0.0979,-0.122149 0.18172,-0.248135 0.30647,-0.339363 0.18954,-0.154125 0.37456,-0.317843 0.52794,-0.508133 0.19531,-0.212641 0.39273,-0.430462 0.53673,-0.68285 0.0105,-0.02559 0.11014,-0.222553 0.1126,-0.223831 1.8657,-0.999863 1.11159,-0.801579 0.97244,-0.433534 -0.0453,0.14677 -0.13378,0.268919 -0.18759,0.413356 -0.0612,0.178426 -0.12461,0.361361 -0.14259,0.549702 4.4e-4,0.168833 -2.1e-4,0.337507 0.0146,0.50567 0.0207,0.164036 0.0636,0.322863 0.1212,0.479994 0.0538,0.215199 0.10887,0.42864 0.11015,0.651097 0.001,0.01278 0.0599,0.44757 0.093,0.370538 -0.29937,0.173632 -0.59868,0.344864 -0.89805,0.517919 0.0599,-0.02559 0.0575,-0.02559 0.11015,-0.07323 0.0561,-0.06106 0.0992,-0.122468 0.16253,-0.164997 0.11997,-0.141973 0.2378,-0.284907 0.3319,-0.445746 0.13036,-0.18706 0.24893,-0.382179 0.34462,-0.588841 0,0 0.98653,-0.453101 0.98653,-0.453101 z"
       inkscape:connector-curvature="0" />
    <path
       style="fill:#e69f00;fill-opacity:1;stroke-width:1.15812147"
       id="path4529"
       d="m 120.14396,68.805189 c 0.0514,0.02559 0.10161,0.04892 0.15068,0.07355 0.0316,0.02559 0.0636,0.04892 0.0967,0.07355 0.0368,0.02559 0.0747,0.02559 0.11016,0.04892 0.0316,0.02559 0.0685,0.03676 0.10035,0.06107 0.038,0.02559 0.0736,0.04892 0.10887,0.06106 0.0428,0.02559 0.0857,0.06108 0.13417,0.07323 0.0392,0.02559 0.0746,0.04892 0.11377,0.06106 0.0368,0.01278 0.0686,0.02559 0.10035,0.04892 0.0379,0.02559 0.0784,0.02559 0.11621,0.04892 0.0392,0.02559 0.0796,0.02559 0.11998,0.02559 0.0453,0.01278 0.0857,0.03676 0.13085,0.06106 0.0428,0.02559 0.0846,0.04892 0.12573,0.07323 0.038,0.02559 0.0759,0.04892 0.11132,0.07355 0.038,0.02559 0.071,0.06106 0.10641,0.07323 0.038,0.02559 0.0759,0.06107 0.11998,0.07323 0.044,0.02559 0.0869,0.04892 0.13128,0.06107 0.0477,0.02559 0.0918,0.03676 0.13956,0.06106 0.0478,0.0032 0.0917,0.02559 0.13501,0.04892 0.0428,0.02559 0.0882,0.03677 0.13243,0.06108 0.044,0.02559 0.0943,0.02559 0.14016,0.04892 0.0415,0.02559 0.0846,0.02559 0.1256,0.04892 0.0341,0.02559 0.0721,0.02559 0.10887,0.02559 0.0403,0.01278 0.0796,0.02559 0.11869,0.04893 0.0478,0.02559 0.0943,0.03676 0.14111,0.06106 0.0403,0.0032 0.0796,0.02559 0.12119,0.02559 0.038,0.0032 0.0759,0.02559 0.11505,0.02559 0.038,0.01278 0.0759,0.02559 0.11622,0.02559 0.038,6.07e-4 0.0735,0.0025 0.11131,0.01278 0.0368,0.01278 0.0746,0.01278 0.11132,0.02559 0.0416,0.01278 0.0819,0.02559 0.12392,0.02559 0.0428,0.02559 0.0846,0.02559 0.12602,0.03677 0.038,0.02559 0.0772,0.04892 0.1126,0.07323 0.0233,0.02559 0.038,0.02559 0.0561,0.04892 0,0 -0.23107,0.141975 -0.23107,0.141975 v 0 c -0.0173,-0.02559 -0.0331,-0.02559 -0.0538,-0.04892 -0.033,-0.02559 -0.0698,-0.04892 -0.10642,-0.06106 -0.0403,-0.02559 -0.0819,-0.02559 -0.12414,-0.03676 -0.0416,-0.01278 -0.0819,-0.02559 -0.12352,-0.02559 -0.038,-0.0032 -0.0746,-0.01278 -0.11259,-0.02559 -0.0368,-0.0032 -0.0736,-0.0032 -0.11015,-0.01278 -0.038,-0.0032 -0.0772,-0.02559 -0.11621,-0.02559 -0.038,-0.0032 -0.0759,-0.02559 -0.11505,-0.02559 -0.0403,-0.01278 -0.0819,-0.02559 -0.1226,-0.02559 -0.0477,-0.02559 -0.0942,-0.03676 -0.14184,-0.06106 -0.038,-0.02559 -0.0759,-0.03676 -0.11622,-0.04892 -0.0379,-0.01278 -0.0759,-0.02559 -0.11131,-0.02559 -0.0415,-0.02559 -0.0832,-0.02559 -0.12448,-0.04892 -0.0478,-0.02559 -0.0967,-0.02559 -0.14198,-0.04892 -0.044,-0.02559 -0.0893,-0.02559 -0.13219,-0.06106 -0.0427,-0.02559 -0.0881,-0.02559 -0.13404,-0.04892 -0.0465,-0.02559 -0.093,-0.03676 -0.14002,-0.06107 -0.0428,-0.02559 -0.0869,-0.04892 -0.13123,-0.06106 -0.044,-0.02559 -0.0846,-0.04893 -0.12461,-0.07355 -0.0343,-0.02559 -0.0685,-0.06106 -0.1053,-0.07323 -0.0354,-0.02559 -0.071,-0.04892 -0.10887,-0.07323 -0.0392,-0.02559 -0.0808,-0.04892 -0.12339,-0.07355 -0.0416,-0.02559 -0.0845,-0.04892 -0.12902,-0.04892 -0.0403,-0.01278 -0.0819,-0.02559 -0.12113,-0.02559 -0.0392,-0.02559 -0.0808,-0.02559 -0.11875,-0.04892 -0.0331,-0.02559 -0.0673,-0.02559 -0.10036,-0.04892 -0.0368,-0.02559 -0.071,-0.04892 -0.11131,-0.06106 -0.0478,-0.02559 -0.093,-0.04892 -0.13733,-0.07323 -0.0354,-0.02559 -0.071,-0.04892 -0.10771,-0.06106 -0.0331,-0.02559 -0.0685,-0.03677 -0.10035,-0.06106 -0.0367,-0.02559 -0.0759,-0.02559 -0.11131,-0.04892 -0.0331,-0.02559 -0.0624,-0.04892 -0.0955,-0.07355 -0.0489,-0.02559 -0.10035,-0.06106 -0.15127,-0.07323 0,0 0.22742,-0.146771 0.22742,-0.146771 z"
       inkscape:connector-curvature="0" />
    <path
       style="fill:#e69f00;fill-opacity:1;stroke-width:1.15812147"
       id="path4531"
       d="m 123.81777,70.577017 c -0.0575,0.0013 -0.11375,6.09e-4 -0.16898,-0.02559 -0.0428,-0.02559 -0.0846,-0.04892 -0.12462,-0.07323 -0.0392,-0.02559 -0.0808,-0.02559 -0.12113,-0.04892 -0.0403,-0.02559 -0.0857,-0.02559 -0.12828,-0.02559 -0.0173,-0.0032 -0.0331,-0.01278 -0.0489,-0.02559 0,0 0.22446,-0.152846 0.22446,-0.152846 v 0 c 0.0147,0.0033 0.0306,0.01278 0.0465,0.02559 0.0427,0.01278 0.0869,0.02559 0.12901,0.02559 0.0416,0.02559 0.0857,0.02559 0.12462,0.04892 0.0392,0.02559 0.0783,0.04892 0.12114,0.06108 0.0538,0.02559 0.11014,0.02559 0.16533,0.02559 0,0 -0.21945,0.158922 -0.21945,0.158922 z"
       inkscape:connector-curvature="0" />
    <path
       style="fill:#e69f00;fill-opacity:1;stroke-width:1.15812147"
       id="path4533"
       d="m 124.01751,70.369971 c 0.0478,0.02559 0.10035,0.02559 0.15237,0.04892 0.0403,0.02559 0.0796,0.03676 0.12117,0.04892 0.0316,0.02559 0.0612,0.02559 0.0955,0.04892 0.0428,0.0032 0.0819,0.02559 0.12119,0.04892 0.0427,0.01278 0.0857,0.02559 0.12889,0.04892 0.038,0.02559 0.0772,0.02559 0.11621,0.02559 0.0392,0.01278 0.0808,0.01278 0.11991,0.02559 0.0341,-0.0024 0.0686,0.01278 0.10035,0.02559 0.0368,0.0032 0.0722,0.0032 0.10887,0.0032 0.0392,0.01278 0.0796,0.02559 0.11869,0.02559 0.0307,0.01278 0.0636,0.02559 0.0967,0.02559 0.0281,-0.0024 0.0489,0.02559 0.0722,0.02559 0.0146,0.01278 0.0233,0.01278 0.0392,0.02559 0.0392,0.02559 0.0819,0.02559 0.12241,0.04892 0.0307,0.02559 0.0636,0.02559 0.0967,0.02559 0.0561,0.09786 0.0242,0.02559 -0.22899,0.16148 -0.003,0.0024 -0.0105,-0.0033 -0.0134,-0.0033 -0.0196,-0.0032 -0.0379,-0.01278 -0.0561,-0.02559 -0.0392,-0.02559 -0.0796,-0.02559 -0.1199,-0.02559 -0.0403,-2.56e-4 -0.0819,-0.0023 -0.12253,-0.01278 -0.0588,-0.02559 -0.11991,-0.02559 -0.17943,-0.02559 -0.0306,-0.01278 -0.0772,-0.0032 -0.0979,-0.03676 -0.004,-0.0032 -0.004,-0.01278 -0.006,-0.02559 0.27486,-0.17491 0.16253,-0.161479 0.34389,-0.122148 0.0478,0.01278 0.0967,0.02559 0.14491,0.02559 0.0588,0.0032 0.11869,0.0032 0.17817,0.01278 0.0392,0.01278 0.0808,0.01278 0.11997,0.02559 0.0343,0.01278 0.0698,0.02559 0.10531,0.02559 0.0367,0.0012 0.0722,0.0012 0.10887,0.0012 0.0368,0.0013 0.0734,-0.0032 0.11131,0.0032 0.0416,0.0032 0.0832,0.02559 0.12506,0.02559 0.0416,0.01278 0.0845,0.0032 0.12573,0.01278 0.0403,0.0032 0.0783,0.02559 0.11621,0.04892 0.0354,0.01278 0.071,0.02559 0.1077,0.02559 0.038,0.01278 0.0722,0.02559 0.11131,0.02559 0.0368,0.0032 0.0722,0.0032 0.10771,0.0032 0.0368,0 0.0734,-1.29e-4 0.11014,-1.29e-4 0.0368,-1.28e-4 0.0734,-1.28e-4 0.11016,-1.28e-4 0.038,7.36e-4 0.0746,-0.0025 0.11259,0.0032 0.0478,0.0024 0.0906,0.02559 0.13232,0.04892 0.038,0.02559 0.0759,0.04892 0.11375,0.06107 0.0306,0.02559 0.0661,0.02559 0.10036,0.02559 0.0367,0.0012 0.0722,6.08e-4 0.1077,3.52e-4 0.0233,-1.28e-4 0.0122,0.0013 0.0368,-0.0032 0,0 -0.21737,0.16148 -0.21737,0.16148 v 0 c -0.0242,0.0012 -0.0134,7.37e-4 -0.038,8.32e-4 -0.0368,1.27e-4 -0.0721,6.39e-4 -0.11014,-0.0024 -0.0379,-0.0032 -0.0734,-0.02559 -0.10643,-0.02559 -0.0367,-0.02559 -0.0746,-0.04892 -0.1126,-0.06106 -0.0392,-0.02559 -0.0819,-0.02559 -0.12669,-0.03676 -0.038,-0.0013 -0.0735,-6.08e-4 -0.11131,-8.31e-4 -0.0368,0 -0.0736,0 -0.11015,9.5e-5 -0.0368,0 -0.0734,2.56e-4 -0.11015,-2.24e-4 -0.038,-9.9e-4 -0.0746,-0.0025 -0.11132,-0.01278 -0.0367,-0.01278 -0.071,-0.02559 -0.10887,-0.02559 -0.038,-0.0024 -0.0759,-0.0032 -0.1126,-0.02559 -0.0368,-0.02559 -0.0736,-0.02559 -0.11377,-0.03676 -0.0415,-0.0032 -0.0843,-0.0032 -0.12693,-0.02559 -0.0403,-0.01278 -0.0819,-0.02559 -0.1242,-0.02559 -0.0368,-0.0013 -0.0721,-3.52e-4 -0.10887,-7.36e-4 -0.0368,-9.6e-5 -0.0736,-2.23e-4 -0.11016,-0.0024 -0.0368,-0.0032 -0.0722,-0.01278 -0.1077,-0.02559 -0.038,-0.0033 -0.0759,-0.02559 -0.11504,-0.02559 -0.0599,-0.0012 -0.11998,-0.0013 -0.18013,-0.01278 -0.0501,-0.01278 -0.0991,-0.02559 -0.14686,-0.02559 -0.0233,-0.0032 -0.0465,-0.02559 -0.0698,-0.02559 -0.004,-7.34e-4 -0.0122,-0.0024 -0.0182,-0.0013 -0.004,3.53e-4 -0.0134,0.0032 -0.0105,0.0032 0.0734,-0.04892 0.14821,-0.08569 0.22239,-0.141974 -0.002,-0.0024 -0.004,-0.0032 -0.007,-0.0032 -0.002,-0.0013 0.004,0.0032 0.006,0.0032 0.0173,0.01278 0.038,0.02559 0.0561,0.02559 0.008,0.0013 0.016,0.0032 0.0233,0.0032 0.0599,0.01278 0.1199,0.02559 0.17977,0.02559 0.0403,0.0032 0.0819,0.0032 0.12235,0.01278 0.0415,0.0032 0.0819,0.02559 0.1224,0.02559 0.0242,0.0032 0.0146,0.0032 0.0392,0.01278 0.004,8.62e-4 0.0105,0.0023 0.0173,0.0023 0.004,2.23e-4 0.0122,-0.0023 0.0105,-0.0012 -0.2319,0.144213 -0.27642,0.07355 -0.21455,0.157643 -0.033,-0.01278 -0.0661,-0.02559 -0.0967,-0.02559 -0.0403,-0.02559 -0.0808,-0.02559 -0.12111,-0.04892 -0.0368,-0.02559 -0.0686,-0.03676 -0.11016,-0.03676 -0.0316,-0.0033 -0.0636,-0.02559 -0.0953,-0.02559 -0.0392,-0.0032 -0.0783,-0.02559 -0.11745,-0.02559 -0.0379,-7.35e-4 -0.0745,-0.0013 -0.1126,-0.01278 -0.0331,-0.0032 -0.065,-0.02559 -0.0992,-0.01278 -0.0403,-0.0023 -0.0819,-0.0033 -0.12241,-0.02559 -0.0392,-0.01278 -0.0808,-0.02559 -0.1187,-0.02559 -0.0416,-0.02559 -0.0857,-0.02559 -0.12856,-0.04892 -0.0392,-0.02559 -0.0796,-0.02559 -0.1212,-0.04892 -0.0331,-0.02559 -0.0624,-0.02559 -0.0955,-0.04892 -0.0403,-0.02559 -0.0796,-0.03676 -0.11991,-0.04892 -0.0525,-0.02559 -0.10267,-0.02559 -0.15384,-0.04892 0,0 0.22409,-0.154124 0.22409,-0.154124 z"
       inkscape:connector-curvature="0" />
    <path
       style="fill:#e69f00;fill-opacity:1;stroke-width:1.15812147"
       id="path4535"
       d="m 125.48118,70.997407 c -0.0808,0.0013 -0.16081,-0.0032 -0.24123,-0.01278 -0.0893,-0.0032 -0.17804,-0.02559 -0.26643,-0.02559 -0.0501,-0.02559 -0.10035,-0.01278 -0.15115,-0.02559 -0.0477,-0.01278 -0.0929,-0.02559 -0.13478,-0.04892 -0.0403,-0.02559 -0.0846,-0.04892 -0.12754,-0.07355 -0.0465,-0.02559 -0.0955,-0.03676 -0.14432,-0.04892 -0.002,2.55e-4 -0.0105,0.0013 -0.006,3.83e-4 0.0808,-0.06106 0.15886,-0.09786 0.24427,-0.14677 0.0105,-0.0032 0.0233,0.01278 0.0367,0.01278 0.0588,0.02559 0.11621,0.03676 0.17448,0.06106 0.12407,0.04892 0.25028,0.07355 0.37795,0.09786 0.0783,0.02559 0.15776,0.02559 0.23742,0.02559 0.027,-0.0014 0.0538,0.0023 0.0808,1.28e-4 0.0846,-0.01278 0.38419,-0.240781 -0.20471,0.145491 -0.0686,-0.01278 -0.13854,-0.0032 -0.20785,-0.01278 -0.10035,0.0013 -0.20189,-3.52e-4 -0.30242,-0.02559 -0.0918,-0.02559 -0.18427,-0.02559 -0.27692,-0.02559 -0.0624,-0.0032 -0.0771,-0.02559 -0.11876,-0.06108 0,0 0.22985,-0.141973 0.22985,-0.141973 v 0 c 0.0368,0.03677 0.0538,0.04892 0.10642,0.04892 0.0917,0.0033 0.18419,0.02559 0.27584,0.02559 0.0991,0.01278 0.20081,0.01278 0.30156,0.01278 0.0721,2.56e-4 0.14565,-0.0024 0.21676,0.02559 -0.21909,0.174909 -0.1404,0.170113 -0.3187,0.164038 -0.0796,-0.0032 -0.15922,-0.02559 -0.23719,-0.02559 -0.12695,-0.02559 -0.25237,-0.07323 -0.3766,-0.09786 -0.0105,-0.0025 -0.11377,-0.02559 -0.12762,-0.03676 -0.0173,-0.0033 -0.0342,-0.01278 -0.0514,-0.02559 -0.0134,-0.0032 -0.0477,-3.84e-4 -0.038,-0.01278 0.16938,-0.177469 0.12367,-0.193135 0.20927,-0.158922 0.0501,0.02559 0.0991,0.02559 0.14577,0.06108 0.044,0.02559 0.087,0.04892 0.12876,0.07355 0.0403,0.02559 0.0846,0.03677 0.13012,0.04892 0.0501,0.0032 0.0991,0.01278 0.14942,0.02559 0.0869,0.02559 0.17526,0.02559 0.26349,0.02559 0.0819,0.0032 0.16266,0.01278 0.24417,0.0032 0,0 -0.21946,0.158922 -0.21946,0.158922 z"
       inkscape:connector-curvature="0" />
    <path
       style="fill:#e69f00;fill-opacity:1;stroke-width:1.15812147"
       id="path4537"
       d="m 117.73307,67.513897 c -0.0221,-0.04892 -0.0465,-0.07323 -0.0832,-0.109999 -0.0295,-0.02559 -0.0661,-0.02559 -0.10036,-0.02559 -0.0428,-0.02559 -0.0869,-0.02559 -0.13158,-0.02559 -0.0281,-0.01278 -0.0588,3.51e-4 -0.0857,-0.01278 -0.004,-0.0013 -0.0368,-0.02559 -0.0403,-0.02559 -0.038,-0.02559 -0.0745,-0.06106 -0.1077,-0.07323 -0.0368,-0.02559 -0.0538,-0.07355 -0.0783,-0.109999 -0.0233,-0.04892 -0.0525,-0.07323 -0.0917,-0.09785 -0.033,-0.02559 -0.0673,-0.03677 -0.0992,-0.06108 -0.0368,-0.02559 -0.0625,-0.06106 -0.0869,-0.07323 -0.0331,-0.04892 -0.0698,-0.07355 -0.10267,-0.109999 -0.0281,-0.03676 -0.0525,-0.07355 -0.071,-0.122469 -0.016,-0.04892 -0.038,-0.07323 -0.065,-0.109999 -0.0233,-0.02559 -0.0525,-0.04892 -0.0846,-0.06108 -0.0588,-0.02559 -0.11875,-0.02559 -0.17855,-0.03676 -0.0636,-0.02559 -0.10393,-0.02559 -0.15703,-0.07323 -0.0295,-0.02559 -0.0501,-0.06108 -0.0661,-0.07355 -0.0221,-0.02559 -0.0316,-0.07323 -0.0466,-0.09786 -0.0196,-0.03676 -0.0416,-0.07323 -0.0661,-0.11 -0.0196,-0.03676 -0.0463,-0.07355 -0.071,-0.08569 -0.0269,-0.03677 -0.055,-0.07355 -0.0857,-0.09786 -0.033,-0.02559 -0.0698,-0.06107 -0.10642,-0.07355 -0.0392,-0.02559 -0.0796,-0.06106 -0.11621,-0.08569 -0.038,-0.02559 -0.0698,-0.07323 -0.0979,-0.109999 -0.027,-0.04892 -0.0478,-0.08569 -0.0746,-0.13462 -0.0233,-0.02559 -0.038,-0.07323 -0.0636,-0.0857 -0.0233,-0.02559 -0.0478,-0.06106 -0.0722,-0.07355 -0.0255,-0.02559 -0.0538,-0.06107 -0.0784,-0.07323 -0.0242,-0.02559 -0.0501,-0.06108 -0.0783,-0.08569 -0.0316,-0.02559 -0.0686,-0.04892 -0.10035,-0.07355 -0.0331,-0.02559 -0.0686,-0.06106 -0.10278,-0.07355 -0.0379,-0.02559 -0.0796,-0.06107 -0.11375,-0.07355 -0.0343,-0.02559 -0.0575,-0.07323 -0.0784,-0.11 -0.0134,-0.02559 -0.0281,-0.07323 -0.0415,-0.09786 -0.0105,-0.03676 -0.0173,-0.07323 -0.0354,-0.09786 -0.0173,-0.03677 -0.0367,-0.07323 -0.0599,-0.08569 -0.0306,-0.03676 -0.0636,-0.07323 -0.0991,-0.09786 -0.0281,-0.02559 -0.0575,-0.06106 -0.0869,-0.07355 -0.0281,-0.02559 -0.0525,-0.06107 -0.0796,-0.07355 -0.0306,-0.02559 -0.0575,-0.06106 -0.0869,-0.08569 -0.0295,-0.02559 -0.0561,-0.06106 -0.0819,-0.08569 -0.022,-0.03676 -0.049,-0.07323 -0.0698,-0.09786 -0.0182,-0.02559 -0.0403,-0.06107 -0.0588,-0.08569 -0.0105,-0.02559 -0.004,-0.01278 -0.0173,-0.02559 0,0 0.23339,-0.138138 0.23339,-0.138138 v 0 c 0.0134,0.02559 0.007,0.01278 0.0196,0.02559 0.0173,0.02559 0.0392,0.06106 0.0575,0.08569 0.0196,0.03676 0.0463,0.07323 0.0686,0.08569 0.0242,0.02559 0.0514,0.07323 0.0808,0.08569 0.0281,0.02559 0.0562,0.06106 0.0869,0.07323 0.0242,0.02559 0.0514,0.06106 0.0783,0.07323 0.0295,0.02559 0.0575,0.06108 0.0857,0.07355 0.0368,0.03676 0.0698,0.07355 0.10152,0.109999 0.0233,0.02559 0.044,0.07323 0.0624,0.09786 0.0196,0.02559 0.0281,0.07323 0.0379,0.09786 0.0134,0.02559 0.0269,0.07355 0.0392,0.08569 0.0196,0.04892 0.0403,0.07355 0.0736,0.09786 0.0354,0.02559 0.0759,0.06106 0.11375,0.07355 0.0354,0.02559 0.0698,0.06108 0.10393,0.07323 0.0331,0.02559 0.071,0.04892 0.10152,0.07355 0.0281,0.02559 0.0539,0.06108 0.0796,0.0857 0.0242,0.02559 0.0526,0.06106 0.0784,0.07323 0.0242,0.02559 0.0514,0.06108 0.0736,0.07355 0.0242,0.02559 0.0403,0.07323 0.065,0.09786 0.0242,0.04892 0.0463,0.08569 0.0734,0.133341 0.0257,0.04892 0.0562,0.07323 0.093,0.09785 0.038,0.02559 0.0772,0.06106 0.11621,0.07355 0.0379,0.02559 0.0759,0.06107 0.11015,0.08569 0.0306,0.02559 0.0588,0.07355 0.0869,0.09786 0.0255,0.02559 0.0538,0.06106 0.0721,0.09786 0.0233,0.03677 0.0465,0.07323 0.0686,0.11 0.0146,0.03676 0.0242,0.07355 0.0452,0.09786 0.0146,0.02559 0.0306,0.06106 0.0575,0.07355 0.0452,0.02559 0.0954,0.04893 0.14919,0.06107 0.0612,0.02559 0.1244,0.02559 0.18418,0.04892 0.0368,0.02559 0.0686,0.03677 0.093,0.07323 0.0269,0.03676 0.0501,0.07323 0.0673,0.122148 0.0182,0.04892 0.0392,0.07355 0.0673,0.109999 0.0331,0.04892 0.071,0.07355 0.10267,0.109999 0.0233,0.02559 0.0501,0.06106 0.0846,0.07323 0.0331,0.02559 0.0698,0.03677 0.10035,0.06108 0.0392,0.02559 0.071,0.07323 0.0967,0.109999 0.0233,0.04892 0.0392,0.07355 0.0746,0.09786 0.0306,0.02559 0.0661,0.06108 0.10267,0.07323 0.038,0.02559 0.0796,0.02559 0.12114,0.02559 0.0428,0.01278 0.0857,0.02559 0.13083,0.02559 0.0392,0.0032 0.0784,0.02559 0.11015,0.04892 0.0368,0.03677 0.0636,0.07323 0.0893,0.122149 0,0 -0.23668,0.132061 -0.23668,0.132061 z"
       inkscape:connector-curvature="0" />
    <path
       style="fill:#e69f00;fill-opacity:1;stroke-width:1.15812147"
       id="path4539"
       d="m 114.14896,63.987379 c -0.0281,-0.04893 -0.0538,-0.08569 -0.0808,-0.129505 -0.0173,-0.03676 -0.0427,-0.06106 -0.0673,-0.08569 -0.0281,-0.02559 -0.0427,-0.07323 -0.0636,-0.09786 -0.0173,-0.02559 -0.033,-0.07323 -0.0501,-0.08569 -0.0182,-0.03677 -0.0379,-0.07323 -0.0575,-0.09786 -0.0207,-0.03676 -0.0341,-0.07355 -0.0452,-0.109999 -10e-4,-0.0032 -0.004,-0.02559 -0.004,-0.02559 0,0 0.23866,-0.128546 0.23866,-0.128546 v 0 c 0.001,0.0033 0.002,0.02559 0.004,0.02559 0.0105,0.03677 0.0233,0.07355 0.0416,0.09786 0.022,0.02559 0.0392,0.07355 0.0588,0.09786 0.0173,0.02559 0.0307,0.07323 0.0478,0.0857 0.0207,0.03676 0.0331,0.07323 0.0624,0.09786 0.0242,0.02559 0.0501,0.06106 0.0686,0.08569 0.027,0.04892 0.0525,0.0857 0.0832,0.129504 0,0 -0.23498,0.135898 -0.23498,0.135898 z"
       inkscape:connector-curvature="0" />
    <path
       style="fill:#e69f00;fill-opacity:1;stroke-width:1.15812147"
       id="path4541"
       d="m 113.79134,63.484362 c 0.0182,-0.04892 0.0196,-0.09786 0.0196,-0.150289 6.5e-4,-0.02559 -0.002,-0.06106 -0.006,-0.07323 0,0 0.23927,-0.127265 0.23927,-0.127265 v 0 c 0.004,0.02559 0.0105,0.06108 0.008,0.08569 5.6e-4,0.06106 4.5e-4,0.09786 -0.0147,0.156683 0,0 -0.24527,0.12215 -0.24527,0.12215 z"
       inkscape:connector-curvature="0" />
    <path
       style="fill:#cc79a7;fill-opacity:1;stroke-width:0.0258509"
       d="m 110.27556,130.62855 c -1.34568,-2.61442 -3.94659,-4.39694 -6.88878,-4.72089 -0.76,-0.0735 -1.80494,-0.049 -2.5463,0.0857 -1.634422,0.30441 -3.199552,1.07942 -4.343482,2.15001 -0.12113,0.11004 -0.2268,0.20049 -0.23353,0.19313 -0.0207,-0.0255 0.42822,-0.43903 0.72672,-0.67799 1.25964,-1.00596 2.73243,-1.63499 4.367212,-1.86398 0.40448,-0.0611 1.42303,-0.0735 1.87858,-0.0489 3.01988,0.25805 5.65833,2.01558 7.08156,4.7192 0.0832,0.15667 0.16778,0.32653 0.19018,0.38217 0.038,0.0857 0.038,0.0979 -0.0105,0.0979 -0.0379,0 -0.0906,-0.0732 -0.22215,-0.33261 z"
       id="path4543"
       inkscape:connector-curvature="0" />
    <path
       style="fill:#cc79a7;fill-opacity:1;stroke-width:0.00456977"
       d="m 94.643388,130.52578 c 0,-0.003 0.0538,-0.0979 0.10887,-0.20656 0.76183,-1.39915 1.91038,-2.58347 3.28201,-3.38467 0.13414,-0.0736 0.15262,-0.0857 0.1647,-0.0857 0.006,0 -0.0233,0.0255 -0.0759,0.0611 -0.42258,0.23982 -0.87307,0.55217 -1.23356,0.85307 -0.28616,0.23853 -0.64362,0.57784 -0.62672,0.59495 0.004,0.003 0.022,-0.003 0.0501,-0.0256 0.0134,-0.0129 0.027,-0.0255 0.0295,-0.0255 0.002,0 -0.0698,0.0732 -0.16106,0.16498 -0.16876,0.17012 -0.26483,0.27278 -0.39359,0.41948 -0.41011,0.46899 -0.76514,0.97298 -1.06915,1.51906 -0.0242,0.0489 -0.0514,0.0857 -0.0575,0.0979 -0.0105,0.0255 -0.0173,0.0255 -0.0173,0.0255 z"
       id="path4545"
       inkscape:connector-curvature="0" />
    <path
       style="fill:#cc79a7;fill-opacity:1;stroke-width:0.00394591"
       d=""
       id="path4547"
       inkscape:connector-curvature="0"
       transform="matrix(0.26458333,0,0,0.26458333,0,246.19998)" />
    <path
       style="fill:#cc79a7;fill-opacity:1;stroke-width:0.00394591"
       d=""
       id="path4549"
       inkscape:connector-curvature="0"
       transform="matrix(0.26458333,0,0,0.26458333,0,246.19998)" />
    <path
       style="fill:#cc79a7;fill-opacity:1;stroke-width:0.01809567"
       d="m 163.61144,136.39049 c -8.8e-4,-0.0256 0.0105,-0.0857 0.0256,-0.1797 0.32775,-1.84582 0.0306,-3.83247 -0.82352,-5.51019 -0.43764,-0.86031 -0.92937,-1.53603 -1.61887,-2.22775 -0.38588,-0.38764 -0.65267,-0.62043 -1.01505,-0.88727 -0.97772,-0.72081 -2.11255,-1.2394 -3.2925,-1.50639 -0.30806,-0.0736 -0.72806,-0.13942 -1.07661,-0.17747 -0.35648,-0.049 -1.32938,-0.049 -1.66479,-0.0128 -1.18394,0.12599 -2.16206,0.4054 -3.15615,0.90197 -1.0438,0.52158 -1.98034,1.24804 -2.72928,2.1168 -0.0808,0.0857 -0.14995,0.16501 -0.15472,0.16021 -0.0134,-0.0256 0.3093,-0.39011 0.53137,-0.62289 1.43451,-1.49956 3.32274,-2.4275 5.43633,-2.67161 0.5428,-0.0732 1.44016,-0.0611 2.02672,0.0255 2.94209,0.37178 5.50296,2.1965 6.80404,4.84828 0.0979,0.19923 0.22642,0.48368 0.286,0.63396 0.60175,1.50713 0.77469,3.15822 0.49921,4.76807 -0.0441,0.26283 -0.0746,0.39502 -0.0783,0.34486 z"
       id="path4551"
       inkscape:connector-curvature="0" />
    <path
       style="fill:#cc79a7;fill-opacity:1;stroke-width:0.00452379"
       d="m 147.15122,130.52419 c -8.4e-4,-0.0255 0.17743,-0.33508 0.28231,-0.51303 0.44375,-0.74041 0.98163,-1.39835 1.62769,-1.99028 0.0295,-0.0255 0.0538,-0.0489 0.0551,-0.0489 0.001,9.9e-4 -0.0316,0.0369 -0.0736,0.0735 -0.1789,0.16371 -0.36712,0.35343 -0.52353,0.52403 -0.19896,0.21777 -0.41438,0.47631 -0.41438,0.4971 0,0.0129 0.004,0.003 0.0392,-0.0255 0.0134,-0.0129 0.0233,-0.0255 0.0233,-0.0255 0,0.002 -0.0316,0.049 -0.071,0.0857 -0.32861,0.40232 -0.62857,0.84441 -0.87603,1.29279 -0.0673,0.12246 -0.0698,0.12599 -0.0698,0.12246 z"
       id="path4553"
       inkscape:connector-curvature="0" />
    <path
       style="fill:#cc79a7;fill-opacity:1;stroke-width:0.00452379"
       d="m 148.11453,129.05679 c 0,-0.0128 0.13527,-0.17489 0.26227,-0.3191 0.55184,-0.63147 1.17182,-1.1651 1.87532,-1.61579 0.27423,-0.1762 0.6238,-0.37236 0.90075,-0.50324 l 0.0857,-0.0489 0.10266,3.4e-4 0.10278,3.5e-4 -0.0242,0.0129 c -0.0134,0.003 -0.0772,0.0369 -0.14027,0.0736 -0.76158,0.34609 -1.48305,0.80773 -2.12173,1.35749 -0.16374,0.14198 -0.29705,0.26541 -0.47524,0.44331 -0.16057,0.16021 -0.24975,0.25454 -0.39101,0.41579 -0.10162,0.11004 -0.16998,0.19091 -0.175,0.19091 -0.002,0 -0.004,-0.002 -0.004,-0.003 z"
       id="path4555"
       inkscape:connector-curvature="0" />
    <path
       style="fill:#cc79a7;fill-opacity:1;stroke-width:0.00452379"
       d="m 148.11453,129.05693 c 0,-0.0255 0.22535,-0.28267 0.40534,-0.48 0.7261,-0.79547 1.63412,-1.47381 2.60711,-1.94635 l 0.11015,-0.0611 0.10393,9.5e-4 0.10394,0.001 -0.1187,0.0611 c -0.74604,0.33755 -1.42851,0.76365 -2.05264,1.28219 -0.3483,0.28874 -0.67189,0.60597 -0.99106,0.96928 -0.093,0.0979 -0.15837,0.17618 -0.1634,0.17618 -0.002,0 -0.003,-9.6e-4 -0.003,-0.003 z"
       id="path4557"
       inkscape:connector-curvature="0" />
    <path
       style="fill:#cc79a7;fill-opacity:1;stroke-width:0.0127955"
       d="m 163.48765,189.41849 c 0,-0.0129 0.0173,-0.0732 0.0379,-0.17108 0.42173,-1.7779 0.2875,-3.62795 -0.38564,-5.31264 -0.50262,-1.25826 -1.25906,-2.35197 -2.25847,-3.26531 -0.59013,-0.53995 -1.26182,-0.99985 -1.99014,-1.36467 l -0.22716,-0.11002 v -0.0736 -0.0732 l 0.15665,0.0732 c 0.93684,0.44332 1.88534,1.13698 2.60321,1.90526 1.36974,1.46578 2.17831,3.27179 2.36695,5.28695 0.0281,0.29608 0.0316,1.16506 0.006,1.43939 -0.0514,0.55214 -0.12111,0.97656 -0.24084,1.45828 -0.0538,0.21168 -0.0685,0.26411 -0.0685,0.22735 z"
       id="path4559"
       inkscape:connector-curvature="0" />
    <path
       style="fill:#cc79a7;fill-opacity:1;stroke-width:0.00639778"
       d="m 147.25934,182.82693 c 0.002,-0.003 0.0367,-0.0732 0.0759,-0.13687 0.32051,-0.56315 0.69978,-1.08676 1.14402,-1.57701 0.13588,-0.1503 0.45122,-0.46533 0.60113,-0.59985 0.61204,-0.55096 1.25834,-0.99255 1.97672,-1.35183 0.0808,-0.0489 0.14872,-0.0732 0.15042,-0.0732 0.002,0 0.004,0.0255 0.004,0.0611 v 0.0611 l -0.10394,0.0611 c -0.2401,0.11003 -0.58535,0.30442 -0.82913,0.45676 -0.93305,0.58151 -1.74566,1.32614 -2.40086,2.19956 -0.19983,0.26669 -0.40631,0.5766 -0.55918,0.84198 -0.0501,0.0857 -0.0673,0.11003 -0.0575,0.0857 z"
       id="path4561"
       inkscape:connector-curvature="0" />
    <path
       style="fill:#cc79a7;fill-opacity:1;stroke-width:0.00904787"
       d="m 110.35416,183.30705 c -0.13526,-0.28012 -0.32395,-0.61565 -0.50054,-0.88974 -0.86745,-1.34511 -2.08567,-2.43258 -3.50979,-3.13325 l -0.18762,-0.0857 -1.3e-4,-0.0732 -1.4e-4,-0.0732 0.0478,0.0256 c 0.0881,0.0489 0.43028,0.21265 0.55613,0.28235 1.46629,0.81018 2.68131,2.0317 3.4793,3.49816 0.12119,0.22127 0.31329,0.61317 0.31329,0.63641 0,0.002 -0.027,0.003 -0.0612,0.003 l -0.0612,-5.9e-4 z"
       id="path4563"
       inkscape:connector-curvature="0" />
    <path
       style="fill:#cc79a7;fill-opacity:1;stroke-width:0.00904787"
       d="m 94.912168,182.55207 c 0.002,-0.0129 0.0465,-0.0732 0.0979,-0.16148 0.859,-1.3777 2.08648,-2.49782 3.52758,-3.21931 l 0.1634,-0.0732 v 0.0611 0.0611 l -0.19384,0.0857 c -1.42985,0.70981 -2.66205,1.81379 -3.50667,3.14195 -0.0745,0.12246 -0.0992,0.14932 -0.0869,0.12246 z"
       id="path4565"
       inkscape:connector-curvature="0" />
    <text
       xml:space="preserve"
       style="font-style:normal;font-variant:normal;font-weight:normal;font-stretch:normal;font-size:57.85955811px;line-height:36.16222763px;font-family:UltraCondensedSansSerif;-inkscape-font-specification:UltraCondensedSansSerif;letter-spacing:0px;word-spacing:0px;fill:#e69f00;fill-opacity:1;stroke:none;stroke-width:1.44648898"
       x="50.941341"
       y="262.60339"
       id="text4530"><tspan
         sodipodi:role="line"
         id="tspan4528"
         x="50.941341"
         y="262.60339"
         style="fill:#e69f00;fill-opacity:1;stroke-width:1.44648898">SQUIRGLE</tspan></text>
    <text
       xml:space="preserve"
       style="font-style:normal;font-variant:normal;font-weight:normal;font-stretch:normal;font-size:36.51785278px;line-height:22.82365799px;font-family:UltraCondensedSansSerif;-inkscape-font-specification:UltraCondensedSansSerif;letter-spacing:0px;word-spacing:0px;fill:#cc79a7;fill-opacity:1;stroke:none;stroke-width:0.91294634"
       x="239.91147"
       y="167.8849"
       id="text4546"><tspan
         sodipodi:role="line"
         id="tspan4544"
         x="239.91147"
         y="167.8849"
         style="font-size:175.28570557px;fill:#cc79a7;fill-opacity:1;stroke-width:0.91294634">+</tspan></text>
    <text
       xml:space="preserve"
       style="font-style:normal;font-variant:normal;font-weight:normal;font-stretch:normal;font-size:129.95915222px;line-height:81.22446442px;font-family:UltraCondensedSansSerif;-inkscape-font-specification:UltraCondensedSansSerif;letter-spacing:0px;word-spacing:0px;fill:#e69f00;fill-opacity:1;stroke:none;stroke-width:3.24897861"
       x="354.80682"
       y="189.73378"
       id="text4550"><tspan
         sodipodi:role="line"
         id="tspan4548"
         x="354.80682"
         y="189.73378"
         style="fill:#e69f00;fill-opacity:1;stroke-width:3.24897861">OST</tspan></text>
  </g>
</svg>
