<?xml version="1.0" encoding="UTF-8" standalone="no"?>
<!-- Created with Inkscape (http://www.inkscape.org/) -->

<svg
   xmlns:dc="http://purl.org/dc/elements/1.1/"
   xmlns:cc="http://creativecommons.org/ns#"
   xmlns:rdf="http://www.w3.org/1999/02/22-rdf-syntax-ns#"
   xmlns:svg="http://www.w3.org/2000/svg"
   xmlns="http://www.w3.org/2000/svg"
   xmlns:sodipodi="http://sodipodi.sourceforge.net/DTD/sodipodi-0.dtd"
   xmlns:inkscape="http://www.inkscape.org/namespaces/inkscape"
   width="192"
   height="192"
   viewBox="0 0 50.799999 50.800001"
   version="1.1"
   id="svg3953"
   inkscape:version="0.92.0 r15299"
   sodipodi:docname="squirgleLogo.svg"
   inkscape:export-filename="C:\Users\zgcrowno\Documents\ArtAssets\PlanarGazer\Squirgle\squirgleLogo48.png"
   inkscape:export-xdpi="24"
   inkscape:export-ydpi="24">
  <defs
     id="defs3947" />
  <sodipodi:namedview
     id="base"
     pagecolor="#0072b2"
     bordercolor="#666666"
     borderopacity="1.0"
     inkscape:pageopacity="1"
     inkscape:pageshadow="2"
     inkscape:zoom="2.8284272"
     inkscape:cx="3.0783167"
     inkscape:cy="86.545712"
     inkscape:document-units="mm"
     inkscape:current-layer="layer1"
     showgrid="false"
     units="px"
     inkscape:window-width="1920"
     inkscape:window-height="1001"
     inkscape:window-x="-9"
     inkscape:window-y="-9"
     inkscape:window-maximized="1">
    <inkscape:grid
       type="xygrid"
       id="grid3955"
       empspacing="1" />
  </sodipodi:namedview>
  <metadata
     id="metadata3950">
    <rdf:RDF>
      <cc:Work
         rdf:about="">
        <dc:format>image/svg+xml</dc:format>
        <dc:type
           rdf:resource="http://purl.org/dc/dcmitype/StillImage" />
        <dc:title />
      </cc:Work>
    </rdf:RDF>
  </metadata>
  <g
     inkscape:label="Layer 1"
     inkscape:groupmode="layer"
     id="layer1"
     transform="translate(0,-246.19998)">
    <circle
       style="fill:#000000;fill-opacity:1;stroke-width:0.22496472"
       id="path4021-8-1"
       cx="43.50267"
       cy="285.16064"
       r="3.4939489" />
    <rect
       style="fill:#e69f00;fill-opacity:1;stroke-width:0.18491548"
       id="rect4053"
       width="37.268787"
       height="3.0678573"
       x="6.7656121"
       y="283.62671" />
    <circle
       style="fill:#000000;fill-opacity:1;stroke-width:0.22496472"
       id="path4021-8-1-3"
       cx="7.2973399"
       cy="285.16064"
       r="3.4939489" />
    <circle
       style="fill:#e69f00;fill-opacity:1;stroke-width:0.22496472"
       id="path4021-8-1-8"
       cx="243.30775"
       cy="-148.89999"
       r="3.4939489"
       transform="rotate(120)" />
    <rect
       style="fill:#e69f00;fill-opacity:1;stroke-width:0.18491548"
       id="rect4053-2"
       width="37.268787"
       height="3.0678573"
       x="206.57069"
       y="-150.43393"
       transform="rotate(120)" />
    <circle
       style="fill:#e69f00;fill-opacity:1;stroke-width:0.22496472"
       id="path4021-8-1-8-2"
       cx="268.70767"
       cy="-104.90593"
       r="3.4939489"
       transform="matrix(0.5,0.8660254,0.8660254,-0.5,0,0)" />
    <rect
       style="fill:#e69f00;fill-opacity:1;stroke-width:0.18491547"
       id="rect4053-2-0"
       width="37.268787"
       height="3.0678573"
       x="231.9707"
       y="-106.43988"
       transform="matrix(0.5,0.8660254,0.8660254,-0.5,0,0)" />
    <circle
       style="fill:#e69f00;fill-opacity:1;stroke-width:0.22496472"
       id="path4021-8-1-3-2-5"
       cx="232.5024"
       cy="-104.90592"
       r="3.4939489"
       transform="matrix(0.5,0.8660254,0.8660254,-0.5,0,0)" />
    <circle
       style="fill:#000000;fill-opacity:1;stroke-width:0.2841422"
       id="path4328"
       cx="25.400005"
       cy="274.72623"
       r="8.9337139" />
    <circle
       style="fill:#ffffff;fill-opacity:1;stroke-width:0.30000395"
       id="path4330"
       cx="20.313208"
       cy="269.61481"
       r="1.7143083" />
    <circle
       style="fill:#ffffff;fill-opacity:1;stroke-width:0.30000395"
       id="path4330-6"
       cx="20.313208"
       cy="279.81412"
       r="1.7143083" />
    <rect
       style="fill:#cc79a7;fill-opacity:1;stroke-width:0.40249753"
       id="rect4347"
       width="1.4464476"
       height="9.8572731"
       x="19.577131"
       y="270.02295" />
    <circle
       style="fill:#ffffff;fill-opacity:1;stroke-width:0.30000395"
       id="path4330-9"
       cx="279.81412"
       cy="-30.51251"
       r="1.7143083"
       transform="rotate(90)" />
    <circle
       style="fill:#cc79a7;fill-opacity:1;stroke-width:0.30000395"
       id="path4330-6-1"
       cx="279.84253"
       cy="-20.300354"
       r="1.7143083"
       transform="rotate(90)" />
    <rect
       style="fill:#cc79a7;fill-opacity:1;stroke-width:0.40249753"
       id="rect4347-3"
       width="1.4464476"
       height="9.8572731"
       x="279.11932"
       y="-30.119959"
       transform="rotate(90)" />
    <circle
       style="fill:#cc79a7;fill-opacity:1;stroke-width:0.30000395"
       id="path4330-93"
       cx="-30.499657"
       cy="-279.84259"
       r="1.7143083"
       transform="scale(-1)" />
    <circle
       style="fill:#ffffff;fill-opacity:1;stroke-width:0.30000395"
       id="path4330-6-2"
       cx="-30.51251"
       cy="-269.61481"
       r="1.7143083"
       transform="scale(-1)" />
    <rect
       style="fill:#cc79a7;fill-opacity:1;stroke-width:0.40249753"
       id="rect4347-7"
       width="1.4464476"
       height="9.8572731"
       x="-31.222881"
       y="-279.46289"
       transform="scale(-1)" />
    <circle
       style="fill:#cc79a7;fill-opacity:1;stroke-width:0.30000395"
       id="path4330-9-3"
       cx="-269.64322"
       cy="20.300354"
       r="1.7143083"
       transform="rotate(-90)" />
    <circle
       style="fill:#cc79a7;fill-opacity:1;stroke-width:0.30000395"
       id="path4330-6-1-9"
       cx="-269.64322"
       cy="30.499657"
       r="1.7143083"
       transform="rotate(-90)" />
    <rect
       style="fill:#cc79a7;fill-opacity:1;stroke-width:0.40249753"
       id="rect4347-3-8"
       width="1.4464476"
       height="9.8572731"
       x="-270.36649"
       y="20.680056"
       transform="rotate(-90)" />
    <path
       style="fill:#e69f00;fill-opacity:1;stroke-width:0.03156727"
       d=""
       id="path4519"
       inkscape:connector-curvature="0"
       transform="matrix(0.26458333,0,0,0.26458333,0,246.19998)" />
    <path
       style="fill:#e69f00;fill-opacity:1;stroke-width:0.03156727"
       d=""
       id="path4521"
       inkscape:connector-curvature="0"
       transform="matrix(0.26458333,0,0,0.26458333,0,246.19998)" />
    <path
       style="fill:#e69f00;fill-opacity:1;stroke-width:0.00710152"
       d="m 5.5546535,288.18428 c -0.2725545,-0.15789 -0.5089811,-0.33943 -0.7277402,-0.5588 -0.4253211,-0.4265 -0.735317,-0.95904 -0.8946024,-1.53683 l -0.025045,-0.0908 v -0.83783 -0.83782 l 0.021548,-0.0776 c 0.2391673,-0.861 0.779967,-1.58568 1.5301343,-2.05042 0.3940699,-0.24413 0.8334371,-0.40813 1.2853755,-0.47978 0.2088276,-0.0331 0.295169,-0.0393 0.551829,-0.0397 l 0.2464635,-4.5e-4 0.8187648,-1.41846 0.8187645,-1.41846 1.7671805,-7e-5 1.767182,-7e-5 -0.02301,0.0408 c -0.01266,0.0224 -0.576486,0.99954 -1.252953,2.17129 -0.676465,1.17175 -1.233477,2.13711 -1.237802,2.14525 -0.0067,0.0126 -0.0026,0.023 0.02741,0.0699 0.06782,0.10585 0.133571,0.22167 0.19384,0.34145 0.03341,0.0664 0.06087,0.11823 0.06102,0.11519 1.47e-4,-0.003 -0.0094,-0.0246 -0.02114,-0.0479 l -0.02141,-0.0424 h 4.974718 4.974718 v 1.53038 1.53038 h -4.974734 -4.974736 l 0.01787,-0.0353 c 0.0098,-0.0194 0.01779,-0.0378 0.01768,-0.0408 -1.06e-4,-0.003 -0.0314,0.0552 -0.06954,0.12937 -0.173909,0.33835 -0.353604,0.58749 -0.6190599,0.85828 -0.2313004,0.23595 -0.4789431,0.42829 -0.7536548,0.58535 l -0.089614,0.0512 H 7.2972325 5.6503583 Z m 4.9493315,-1.63117 c 0,-0.004 -0.0061,0.004 -0.01361,0.0177 -0.0075,0.0137 -0.01361,0.0281 -0.01361,0.032 0,0.004 0.0061,-0.004 0.01361,-0.0178 0.0075,-0.0137 0.01361,-0.0281 0.01361,-0.032 z m 0.0214,-0.0497 c 0,-0.004 -0.0046,9e-4 -0.01015,0.0106 -0.0056,0.01 -0.01015,0.021 -0.01015,0.0249 0,0.004 0.0046,-9e-4 0.01015,-0.0106 0.0056,-0.01 0.01015,-0.0209 0.01015,-0.0249 z m 0.01449,-0.0355 c 0,-0.004 -0.0031,-0.002 -0.0069,0.004 -0.0038,0.006 -0.0069,0.0139 -0.0069,0.0177 0,0.004 0.0031,0.002 0.0069,-0.004 0.0038,-0.006 0.0069,-0.0138 0.0069,-0.0177 z m 0.0142,-0.0355 c 0,-0.004 -0.0031,-0.002 -0.0069,0.004 -0.0038,0.006 -0.0069,0.0139 -0.0069,0.0177 0,0.004 0.0031,0.002 0.0069,-0.004 0.0038,-0.006 0.0069,-0.0139 0.0069,-0.0177 z m 0.01745,-0.0462 c 0.0033,-0.0123 0.0027,-0.0145 -0.0018,-0.007 -0.0036,0.006 -0.0087,0.0186 -0.01133,0.0284 -0.0033,0.0123 -0.0027,0.0145 0.0018,0.007 0.0036,-0.006 0.0087,-0.0186 0.01133,-0.0284 z m 0.02467,-0.0652 c 0.0081,-0.0241 0.01356,-0.0451 0.01203,-0.0466 -0.0015,-0.002 -0.0084,0.0142 -0.01519,0.035 -0.0068,0.0208 -0.01388,0.0417 -0.01569,0.0466 -0.0018,0.005 -0.0016,0.009 3.82e-4,0.009 0.002,0 0.01032,-0.0197 0.01847,-0.0438 z m 0.04988,-0.15816 c -2.93e-4,-0.004 -0.0083,0.0147 -0.01775,0.0418 -0.0095,0.0271 -0.01699,0.0527 -0.0167,0.0568 2.92e-4,0.004 0.0083,-0.0147 0.01775,-0.0418 0.0095,-0.0271 0.01699,-0.0527 0.0167,-0.0568 z m 0.01373,-0.0465 c 0,-0.007 -0.0023,-0.005 -0.0061,0.004 -0.0034,0.008 -0.0061,0.019 -0.0061,0.0249 0,0.007 0.0023,0.005 0.0061,-0.004 0.0034,-0.008 0.0061,-0.019 0.0061,-0.0249 z m 0.01787,-0.0639 c 0.0031,-0.017 0.0026,-0.0204 -0.0017,-0.0107 -0.0034,0.008 -0.0082,0.0254 -0.01072,0.0391 -0.0031,0.0171 -0.0026,0.0204 0.0017,0.0107 0.0034,-0.008 0.0082,-0.0254 0.01072,-0.0391 z m 0.0093,-0.0439 c -0.0023,-0.006 -0.0039,-0.004 -0.0043,0.004 -3.15e-4,0.007 0.0014,0.0117 0.0037,0.009 0.0024,-0.002 0.0026,-0.008 5.62e-4,-0.0136 z m 0.0071,-0.0284 c -0.0023,-0.006 -0.0039,-0.004 -0.0043,0.004 -3.15e-4,0.007 0.0014,0.0117 0.0037,0.009 0.0024,-0.002 0.0026,-0.008 5.62e-4,-0.0136 z m 0.01504,-0.059 c 0,-0.0113 -0.0012,-0.0105 -0.0057,0.004 -0.0031,0.01 -0.0057,0.0242 -0.0057,0.032 0,0.0112 0.0012,0.0105 0.0057,-0.004 0.0031,-0.01 0.0057,-0.0241 0.0057,-0.0319 z m 0.0061,-0.0408 c -0.002,-0.005 -0.0036,-9e-4 -0.0036,0.009 0,0.01 0.0016,0.0138 0.0036,0.009 0.002,-0.005 0.002,-0.0129 0,-0.0177 z m 0.0071,-0.0355 c -0.002,-0.005 -0.0036,-9e-4 -0.0036,0.009 0,0.01 0.0016,0.0138 0.0036,0.009 0.002,-0.005 0.002,-0.0129 0,-0.0177 z m 0.0071,-0.0355 c -0.002,-0.005 -0.0036,-9e-4 -0.0036,0.009 0,0.01 0.0016,0.0138 0.0036,0.009 0.002,-0.005 0.002,-0.0129 0,-0.0177 z m 0.0071,-0.0355 c -0.002,-0.005 -0.0036,-9e-4 -0.0036,0.009 0,0.01 0.0016,0.0138 0.0036,0.009 0.002,-0.005 0.002,-0.0129 0,-0.0178 z m 0.0073,-0.0389 c -0.0018,-0.007 -0.0034,-0.003 -0.0035,0.009 -1.45e-4,0.0117 0.0013,0.0174 0.0033,0.0126 0.0019,-0.005 0.0021,-0.0144 2.7e-4,-0.0213 z m 0.0071,-0.0498 c -0.0018,-0.007 -0.0033,-0.001 -0.0033,0.0124 0,0.0137 0.0015,0.0193 0.0033,0.0124 0.0018,-0.007 0.0018,-0.018 0,-0.0249 z m 0.0071,-0.0497 c -0.0018,-0.007 -0.0032,-10e-4 -0.0032,0.0124 0,0.0137 0.0015,0.0193 0.0032,0.0124 0.0018,-0.007 0.0018,-0.018 0,-0.0249 z m 0.0071,-0.0569 c -0.0018,-0.007 -0.0032,4.5e-4 -0.0031,0.0161 7.8e-5,0.0156 0.0015,0.0212 0.0032,0.0124 0.0017,-0.009 0.0016,-0.0216 -1.44e-4,-0.0284 z m 0.0072,-0.0603 c -0.0017,-0.009 -0.0031,-0.002 -0.0031,0.016 0,0.0176 0.0014,0.0248 0.0031,0.016 0.0017,-0.009 0.0017,-0.0232 0,-0.0319 z m 0.0072,-0.0746 c -0.0016,-0.0107 -0.003,-0.002 -0.003,0.0195 0,0.0215 0.0013,0.0303 0.003,0.0195 0.0016,-0.0107 0.0016,-0.0283 0,-0.0391 z m 0.0072,-0.10989 c -0.0015,-0.0167 -0.0027,-0.005 -0.0028,0.0265 -2.9e-5,0.0312 0.0012,0.0449 0.0027,0.0304 0.0015,-0.0146 0.0015,-0.0401 4.9e-5,-0.0568 z m 0.0072,-0.2271 c -0.0013,-0.0324 -0.0024,-0.008 -0.0024,0.0547 -7e-6,0.0625 0.0011,0.089 0.0024,0.0589 0.0013,-0.0301 0.0013,-0.0812 1.4e-5,-0.11363 z m -0.0072,-0.17058 c -0.0015,-0.0167 -0.0027,-0.005 -0.0028,0.0264 -2.9e-5,0.0312 0.0012,0.0449 0.0027,0.0304 0.0015,-0.0145 0.0015,-0.0401 4.9e-5,-0.0568 z m -0.0072,-0.0961 c -0.0016,-0.0107 -0.003,-0.002 -0.003,0.0195 0,0.0215 0.0013,0.0303 0.003,0.0195 0.0016,-0.0107 0.0016,-0.0283 0,-0.039 z m -0.0072,-0.0675 c -0.0017,-0.009 -0.0031,-0.002 -0.0031,0.016 0,0.0176 0.0014,0.0248 0.0031,0.016 0.0017,-0.009 0.0017,-0.0232 0,-0.032 z m -0.0072,-0.0604 c -0.0018,-0.007 -0.0032,-0.001 -0.0032,0.0124 0,0.0137 0.0015,0.0193 0.0032,0.0124 0.0018,-0.007 0.0018,-0.018 0,-0.0249 z m -0.0071,-0.0497 c -0.0018,-0.007 -0.0032,-10e-4 -0.0032,0.0124 0,0.0137 0.0015,0.0193 0.0032,0.0124 0.0018,-0.007 0.0018,-0.018 0,-0.0249 z m -0.0071,-0.0497 c -0.0018,-0.007 -0.0033,-0.001 -0.0033,0.0124 0,0.0137 0.0015,0.0193 0.0033,0.0124 0.0018,-0.007 0.0018,-0.018 0,-0.0249 z m -0.0071,-0.0425 c -0.0018,-0.007 -0.0034,-0.003 -0.0035,0.009 -1.45e-4,0.0117 0.0013,0.0174 0.0033,0.0126 0.0019,-0.005 0.0021,-0.0144 2.7e-4,-0.0213 z m -0.0073,-0.0392 c -0.002,-0.005 -0.0036,-9e-4 -0.0036,0.009 0,0.01 0.0016,0.0138 0.0036,0.009 0.002,-0.005 0.002,-0.0129 0,-0.0177 z m -0.0118,-0.0657 c -0.0049,-0.0257 -0.01019,-0.0454 -0.01185,-0.0438 -0.0017,0.002 8.77e-4,0.0241 0.0056,0.05 0.0048,0.0258 0.01009,0.0455 0.01185,0.0438 0.0017,-0.002 -7.88e-4,-0.0243 -0.0056,-0.05 z m -0.01815,-0.0848 c -0.0027,-0.0142 -0.0063,-0.0245 -0.008,-0.0227 -0.0017,0.002 -9.68e-4,0.0148 0.0017,0.0291 0.0027,0.0143 0.0063,0.0245 0.008,0.0228 0.0017,-0.002 9.67e-4,-0.0148 -0.0017,-0.0291 z m -0.01251,-0.0479 c -0.0023,-0.006 -0.0039,-0.004 -0.0043,0.004 -3.15e-4,0.007 0.0014,0.0117 0.0037,0.009 0.0024,-0.002 0.0026,-0.008 5.62e-4,-0.0136 z m -0.0071,-0.0284 c -0.0023,-0.006 -0.004,-0.004 -0.0043,0.004 -3.15e-4,0.007 0.0014,0.0117 0.0037,0.009 0.0024,-0.002 0.0026,-0.008 5.62e-4,-0.0136 z m -0.0071,-0.0284 c -0.0023,-0.006 -0.0039,-0.004 -0.0043,0.004 -3.15e-4,0.007 0.0014,0.0117 0.0037,0.009 0.0024,-0.002 0.0026,-0.008 5.62e-4,-0.0136 z m -0.0089,-0.0372 c -0.0026,-0.0104 -0.0061,-0.0175 -0.0078,-0.0159 -0.0017,0.002 -9e-4,0.0116 0.0017,0.022 0.0026,0.0104 0.0061,0.0176 0.0078,0.0159 0.0017,-0.002 8.99e-4,-0.0116 -0.0017,-0.022 z m -0.0142,-0.0497 c -0.0026,-0.0104 -0.0061,-0.0175 -0.0078,-0.0159 -0.0017,0.002 -9e-4,0.0116 0.0017,0.022 0.0026,0.0104 0.0061,0.0175 0.0078,0.0159 0.0017,-0.002 8.99e-4,-0.0116 -0.0017,-0.022 z m -0.01789,-0.0602 c -0.0048,-0.016 -0.01004,-0.0278 -0.01164,-0.0262 -0.0016,0.002 0.001,0.016 0.0058,0.032 0.0048,0.016 0.01004,0.0278 0.01164,0.0262 0.0016,-0.002 -10e-4,-0.016 -0.0058,-0.0321 z m -0.04985,-0.14899 c -0.0044,-0.0126 -0.0092,-0.0216 -0.01071,-0.0201 -0.0015,0.002 8.09e-4,0.013 0.0052,0.0256 0.0044,0.0126 0.0092,0.0216 0.01072,0.0201 0.0015,-0.002 -8.1e-4,-0.013 -0.0052,-0.0256 z m -0.04592,-0.12097 c -0.01433,-0.0358 -0.0272,-0.0639 -0.0286,-0.0625 -0.0014,10e-4 0.0091,0.0319 0.02341,0.0677 0.01427,0.0359 0.02714,0.064 0.0286,0.0625 0.0015,-0.001 -0.0091,-0.0319 -0.02341,-0.0677 z m -0.04479,-0.10462 c -0.0079,-0.015 -0.01454,-0.025 -0.01472,-0.0222 -4.95e-4,0.008 0.02326,0.0554 0.02633,0.0523 0.0015,-0.002 -0.0037,-0.0151 -0.01161,-0.0301 z"
       id="path4523"
       inkscape:connector-curvature="0" />
    <path
       style="fill:#e69f00;fill-opacity:1;stroke-width:0.00710152"
       d="M 5.5624145,288.18972 C 5.2568336,288.01465 4.9540256,287.77274 4.727492,287.5227 4.3432173,287.09856 4.0801498,286.62266 3.9288145,286.07786 l -0.021548,-0.0776 v -0.83907 -0.83906 l 0.02167,-0.0776 c 0.1068106,-0.38235 0.2540245,-0.70435 0.4705304,-1.02918 0.2093294,-0.31407 0.4888015,-0.60953 0.7967254,-0.84232 0.4373738,-0.33066 0.966989,-0.55957 1.5090735,-0.65226 0.2236183,-0.0382 0.3203302,-0.0458 0.5906195,-0.0461 l 0.2461958,-2.2e-4 0.8188975,-1.41853 0.8188973,-1.41853 h 1.7666391 c 0.971651,0 1.766638,10e-4 1.766638,0.003 0,0.002 -0.03947,0.0711 -0.08772,0.15446 -0.928398,1.6043 -2.426216,4.20533 -2.426216,4.21324 0,0.006 0.02172,0.045 0.04828,0.0871 0.05236,0.0831 0.100607,0.16721 0.154955,0.27009 l 0.03467,0.0656 4.976392,7e-5 4.976392,7e-5 v 1.53038 1.53037 h -4.97476 -4.974761 l 0.01435,-0.0281 c 0.0079,-0.0155 0.01428,-0.0306 0.01419,-0.0337 -8.6e-5,-0.003 -0.0315,0.0551 -0.06982,0.12932 -0.177935,0.34464 -0.354448,0.58517 -0.6361433,0.86687 -0.2391704,0.23917 -0.436181,0.39189 -0.7172681,0.55602 l -0.098953,0.0578 H 7.2982113 5.6496888 l -0.087274,-0.05 z m 4.9348465,-1.6224 c 0,-0.004 -0.0031,-0.002 -0.0069,0.004 -0.0038,0.006 -0.0069,0.0139 -0.0069,0.0177 0,0.004 0.0031,0.002 0.0069,-0.004 0.0038,-0.006 0.0069,-0.0139 0.0069,-0.0177 z m 0.02423,-0.0501 c 0.0024,-0.006 0.0012,-0.009 -0.0028,-0.007 -0.0039,0.002 -0.007,0.007 -0.007,0.011 0,0.0102 0.0051,0.008 0.0098,-0.004 z m 0.01838,-0.0493 c 0,-0.004 -0.0031,-0.002 -0.0069,0.004 -0.0038,0.006 -0.0069,0.0139 -0.0069,0.0177 0,0.004 0.0031,0.002 0.0069,-0.004 0.0038,-0.006 0.0069,-0.0138 0.0069,-0.0177 z m 0.0142,-0.0355 c 0,-0.004 -0.0031,-0.002 -0.0069,0.004 -0.0038,0.006 -0.0069,0.0139 -0.0069,0.0177 0,0.004 0.0031,0.002 0.0069,-0.004 0.0038,-0.006 0.0069,-0.0139 0.0069,-0.0177 z m 0.04586,-0.12428 c 0.0033,-0.0123 0.0027,-0.0145 -0.0018,-0.007 -0.0036,0.006 -0.0087,0.0186 -0.01133,0.0284 -0.0033,0.0123 -0.0027,0.0145 0.0018,0.007 0.0036,-0.006 0.0087,-0.0187 0.01133,-0.0284 z m 0.14385,-0.56945 c -0.0023,-0.006 -0.0039,-0.004 -0.0043,0.004 -3.14e-4,0.007 0.0014,0.0117 0.0037,0.009 0.0024,-0.002 0.0026,-0.008 5.63e-4,-0.0136 z m 0.0142,-0.0923 c -0.0023,-0.006 -0.0039,-0.004 -0.0043,0.004 -3.14e-4,0.007 0.0014,0.0117 0.0037,0.009 0.0024,-0.002 0.0026,-0.008 5.63e-4,-0.0136 z m 0.0071,-0.0568 c -0.0023,-0.006 -0.0039,-0.004 -0.0043,0.004 -3.15e-4,0.007 0.0014,0.0117 0.0037,0.009 0.0024,-0.002 0.0026,-0.008 5.63e-4,-0.0136 z m 0.0069,-0.0643 c -0.002,-0.005 -0.0036,-9e-4 -0.0036,0.009 0,0.01 0.0016,0.0138 0.0036,0.009 0.002,-0.005 0.002,-0.0129 0,-0.0177 z m 0.0071,-0.071 c -0.002,-0.005 -0.0036,-9e-4 -0.0036,0.009 0,0.01 0.0016,0.0138 0.0036,0.009 0.002,-0.005 0.002,-0.0129 0,-0.0178 z m 0.0073,-0.10297 c -0.0018,-0.007 -0.0032,-10e-4 -0.0032,0.0124 0,0.0137 0.0015,0.0193 0.0032,0.0124 0.0018,-0.007 0.0018,-0.018 0,-0.0249 z m 0.0073,-0.20585 c -0.0016,-0.0108 -0.003,-0.004 -0.0031,0.0159 -5.6e-5,0.0195 0.0013,0.0284 0.003,0.0196 0.0017,-0.009 0.0017,-0.0247 9.7e-5,-0.0355 z m -0.0073,-0.19183 c -0.0018,-0.007 -0.0032,-0.001 -0.0032,0.0124 0,0.0137 0.0015,0.0193 0.0032,0.0124 0.0018,-0.007 0.0018,-0.018 0,-0.0248 z m -0.0073,-0.10298 c -0.002,-0.005 -0.0036,-9e-4 -0.0036,0.009 0,0.01 0.0016,0.0138 0.0036,0.009 0.002,-0.005 0.002,-0.0129 0,-0.0178 z m -0.0071,-0.071 c -0.002,-0.005 -0.0036,-9e-4 -0.0036,0.009 0,0.01 0.0016,0.0138 0.0036,0.009 0.002,-0.005 0.002,-0.0129 0,-0.0178 z m -0.0071,-0.0639 c -0.002,-0.005 -0.0036,-9e-4 -0.0036,0.009 0,0.01 0.0016,0.0138 0.0036,0.009 0.002,-0.005 0.002,-0.0129 0,-0.0177 z m -0.0069,-0.0493 c -0.0023,-0.006 -0.0039,-0.004 -0.0043,0.004 -3.14e-4,0.007 0.0014,0.0117 0.0037,0.009 0.0024,-0.002 0.0026,-0.008 5.63e-4,-0.0136 z m -0.0142,-0.0923 c -0.0023,-0.006 -0.0039,-0.004 -0.0043,0.004 -3.14e-4,0.007 0.0014,0.0117 0.0037,0.009 0.0024,-0.002 0.0026,-0.008 5.63e-4,-0.0136 z m -0.0142,-0.0781 c -0.0023,-0.006 -0.0039,-0.004 -0.0043,0.004 -3.15e-4,0.007 0.0014,0.0117 0.0037,0.009 0.0024,-0.002 0.0026,-0.008 5.63e-4,-0.0136 z m -0.0071,-0.0355 c -0.0023,-0.006 -0.004,-0.004 -0.0043,0.004 -3.15e-4,0.007 0.0014,0.0117 0.0037,0.009 0.0024,-0.002 0.0026,-0.008 5.63e-4,-0.0136 z m -0.08522,-0.33377 c -0.0023,-0.006 -0.0039,-0.004 -0.0043,0.004 -3.14e-4,0.007 0.0014,0.0117 0.0037,0.009 0.0024,-0.002 0.0026,-0.008 5.63e-4,-0.0136 z m -0.05369,-0.15969 c -0.0084,-0.0144 -0.01039,-0.01 -0.0035,0.008 0.0024,0.006 0.0059,0.01 0.0078,0.008 0.0018,-0.002 -6.3e-5,-0.009 -0.0042,-0.0163 z m -0.08522,-0.21305 c -0.0084,-0.0144 -0.01039,-0.01 -0.0035,0.008 0.0024,0.006 0.0059,0.01 0.0077,0.008 0.0018,-0.002 -6.3e-5,-0.009 -0.0042,-0.0163 z m -0.03198,-0.0709 c -0.006,-0.0111 -0.01105,-0.0179 -0.01121,-0.0152 -4.72e-4,0.008 0.01604,0.0414 0.01918,0.0383 0.0016,-0.002 -0.002,-0.012 -0.008,-0.0231 z"
       id="path4525"
       inkscape:connector-curvature="0" />
    <path
       style="fill:#e69f00;fill-opacity:1;stroke-width:0.22496472"
       id="path4527"
       d="m 23.934609,256.76162 c -0.01931,0.0412 -0.04179,0.0807 -0.0667,0.11873 -0.01858,0.031 -0.04026,0.0599 -0.06279,0.088 -0.07053,0.0834 -0.115216,0.0875 -0.240033,0.15629 -0.0286,-0.0253 -0.03054,-0.0676 -0.03522,-0.10328 -0.0014,-0.0424 -0.0099,-0.0831 -0.02059,-0.12392 -0.01105,-0.0309 -0.02024,-0.0622 -0.02527,-0.0948 -0.0041,-0.0335 -0.0037,-0.0673 -0.0037,-0.10096 0.0016,-0.0387 0.01262,-0.0763 0.02456,-0.11285 0.0084,-0.0283 0.02422,-0.0535 0.03557,-0.0805 0.02632,-0.0782 -0.01559,-0.0184 0.193951,-0.0946 0.0045,-0.002 -0.0037,0.009 -0.0057,0.0133 -0.0073,0.0162 -0.0078,0.0169 -0.01632,0.034 -0.02756,0.0509 -0.06572,0.0949 -0.103972,0.13797 -0.0292,0.0373 -0.0645,0.0686 -0.09944,0.10035 -0.02231,0.0181 -0.04302,0.0383 -0.06,0.0616 -0.262707,0.28481 -0.1927,0.0831 -0.172439,0.009 0.01389,-0.0504 0.03007,-0.10017 0.04721,-0.14956 0.01279,-0.0345 0.02503,-0.0693 0.03909,-0.10334 0.0012,-0.003 0.0011,-0.007 0.0037,-0.009 0.06251,-0.0348 0.123687,-0.0729 0.190055,-0.0997 0.0067,-0.003 0.0056,0.0135 0.0063,0.0207 0.0017,0.0191 -0.0173,0.0412 -0.02663,0.0554 -0.03114,0.0429 -0.07038,0.0787 -0.110618,0.11268 -0.03103,0.0259 -0.06038,0.0537 -0.09359,0.0769 -0.09108,0.0566 -0.182536,0.11334 -0.280398,0.15732 -0.0069,0.002 -0.01215,0.006 -0.01706,-0.003 -0.01519,-0.0258 -6.98e-4,-0.0339 0.01602,-0.052 0.02841,-0.0288 0.05399,-0.0603 0.08091,-0.0906 0.02643,-0.0321 0.05231,-0.0645 0.08016,-0.0955 0.03293,-0.0318 0.06793,-0.0608 0.09886,-0.0947 0.02749,-0.0268 0.04703,-0.0583 0.06213,-0.0932 0.01336,-0.035 0.03083,-0.0677 0.04999,-0.0997 0.0072,-0.0127 0.01122,-0.0179 0.01564,-0.0312 7.87e-4,-0.003 0.0012,-0.01 0.0014,-0.008 1.45e-4,0.003 9.35e-4,0.008 -0.0012,0.0101 -0.0043,0.005 -0.03945,0.0212 -0.04003,0.0215 -0.06028,0.0304 -0.210659,0.11398 0.05262,-0.0332 0.0148,-0.009 -0.02912,0.0173 -0.04362,0.0261 -0.04391,0.0266 -0.04029,0.0246 -0.08228,0.0514 -0.109992,0.0759 -0.435407,0.24539 -0.08826,0.0543 0.0077,-0.004 -0.01458,0.01 -0.02183,0.015 -0.0042,0.003 -0.03122,0.0221 -0.03612,0.0256 -0.02972,0.0217 -0.05267,0.0513 -0.07201,0.0823 -0.01562,0.029 -0.0302,0.0583 -0.04683,0.0868 -0.01638,0.0251 -0.03566,0.0483 -0.0518,0.0735 0.03623,-0.002 0.08138,-0.0202 0.118192,-0.0332 0.08635,-0.0321 0.173235,-0.0633 0.257797,-0.0998 0.0682,-0.0323 0.197699,-0.10648 -0.103647,0.0633 -0.0057,0.003 0.01106,-0.007 0.01639,-0.0105 0.0089,-0.006 0.0192,-0.0147 0.02768,-0.0216 0.01522,-0.0126 0.0078,-0.006 0.02217,-0.0196 0,0 0.194503,-0.0807 0.194503,-0.0807 v 0 c -0.01394,0.015 -0.0068,0.008 -0.02148,0.0222 -0.01465,0.0111 -0.02808,0.0258 -0.04395,0.0351 -0.08462,0.0497 -0.164752,0.10114 -0.253845,0.1398 -0.08545,0.0345 -0.171594,0.0673 -0.258305,0.0985 -0.03278,0.0111 -0.112638,0.0475 -0.141003,0.01 -0.0037,-0.005 -0.0046,-0.0113 -0.0069,-0.017 0.0084,-0.0193 0.02223,-0.0325 0.03356,-0.0499 0.003,-0.004 0.005,-0.01 0.0082,-0.0144 0.0028,-0.004 0.0064,-0.008 0.0096,-0.0112 0.01952,-0.0264 0.03247,-0.0567 0.04775,-0.0857 0.01745,-0.0338 0.04135,-0.065 0.06906,-0.0909 0.01921,-0.0138 0.0387,-0.0299 0.05892,-0.0421 0.240062,-0.1445 0.279237,-0.1611 0.05579,-0.0338 -0.01191,0.007 0.02336,-0.0144 0.03503,-0.0216 0.138613,-0.0891 0.280315,-0.17455 0.42792,-0.24779 0.0117,-0.004 0.03617,-0.0173 0.05125,-0.012 0.03031,0.0109 0.01135,0.0456 0.0016,0.0628 -0.01828,0.0319 -0.03906,0.0621 -0.05087,0.0973 -0.01557,0.036 -0.03036,0.072 -0.05978,0.0997 -0.0306,0.0345 -0.06289,0.0664 -0.09924,0.095 -0.02819,0.0305 -0.05519,0.062 -0.0801,0.0953 -0.02709,0.0298 -0.05245,0.061 -0.07967,0.0906 -0.0017,0.002 -0.02093,0.0253 -0.02543,0.0233 -0.0056,-0.003 -0.01511,-0.0107 -0.01067,-0.0149 0.002,-0.002 0.0053,-0.003 0.0078,-0.003 0.06694,-0.0292 0.152283,-0.0849 -0.129222,0.0789 -0.0037,0.003 0.01479,-0.009 0.03384,-0.0202 0.005,-0.003 0.01,-0.007 0.015,-0.01 0.0361,-0.0188 0.06432,-0.0483 0.09542,-0.0741 0.04018,-0.0333 0.08036,-0.0666 0.113098,-0.10756 0.0017,-0.003 0.02648,-0.0417 0.0295,-0.0431 0.002,-8.5e-4 0.0045,0.003 0.0065,0.003 0.06083,-0.0329 0.119704,-0.0694 0.179971,-0.10329 0.0023,-0.002 -0.0039,0.003 -0.0059,0.005 -0.01806,0.032 -0.02692,0.0686 -0.04166,0.10209 -0.01824,0.0485 -0.03415,0.0978 -0.04769,0.14781 -0.03336,0.12838 -0.002,0.0635 -0.212938,0.16793 -0.0013,6.4e-4 0.0014,-0.003 0.0021,-0.003 0.01886,-0.0227 0.0353,-0.0481 0.05951,-0.0659 0.03683,-0.0298 0.07276,-0.0617 0.102572,-0.0987 0.03794,-0.0415 0.07629,-0.0836 0.104258,-0.13272 0.0019,-0.003 0.02135,-0.0434 0.02172,-0.0436 0.362413,-0.19414 0.215941,-0.15564 0.188893,-0.084 -0.0088,0.0285 -0.02596,0.0525 -0.03644,0.0803 -0.01178,0.0348 -0.0242,0.0701 -0.0277,0.1068 8.7e-5,0.0327 -4e-5,0.0656 0.003,0.0981 0.004,0.032 0.01236,0.0628 0.02353,0.0931 0.01034,0.0418 0.02105,0.0831 0.02125,0.12642 1.95e-4,0.002 0.01161,0.087 0.01798,0.0719 -0.05815,0.0336 -0.116301,0.0672 -0.174451,0.1007 0.01166,-0.005 0.01123,-0.004 0.02137,-0.0137 0.01088,-0.0104 0.01904,-0.0235 0.03156,-0.0321 0.02324,-0.0276 0.0462,-0.0555 0.06448,-0.0866 0.02531,-0.0364 0.04834,-0.0741 0.06692,-0.11448 0,0 0.19164,-0.0881 0.19164,-0.0881 z"
       inkscape:connector-curvature="0" />
    <path
       style="fill:#e69f00;fill-opacity:1;stroke-width:0.22496472"
       id="path4529"
       d="m 23.741122,256.84502 c 0.0098,0.005 0.01986,0.009 0.02926,0.0152 0.0062,0.004 0.01222,0.009 0.01873,0.013 0.0071,0.003 0.01461,0.005 0.02133,0.009 0.0062,0.004 0.01316,0.007 0.01956,0.0105 0.0076,0.003 0.01422,0.008 0.02111,0.0115 0.0083,0.005 0.01669,0.0102 0.02605,0.0134 0.0078,0.003 0.01454,0.008 0.02195,0.0106 0.007,0.002 0.01317,0.005 0.01955,0.009 0.0075,0.003 0.01513,0.005 0.02265,0.008 0.0077,0.003 0.01545,0.003 0.0232,0.005 0.0089,0.002 0.01682,0.007 0.02541,0.01 0.0084,0.003 0.01626,0.009 0.02441,0.013 0.0075,0.004 0.01479,0.009 0.02166,0.0144 0.0073,0.004 0.01378,0.01 0.02058,0.0145 0.0072,0.005 0.01478,0.01 0.02325,0.0125 0.0087,0.003 0.01686,0.008 0.02551,0.0116 0.0092,0.003 0.01791,0.007 0.02708,0.01 0.0093,8.5e-4 0.01784,0.004 0.02622,0.009 0.0083,0.004 0.01726,0.007 0.02573,0.0102 0.0087,0.004 0.01822,0.006 0.02723,0.009 0.0082,0.003 0.01621,0.005 0.02439,0.008 0.0066,0.003 0.01409,0.004 0.02122,0.006 0.008,0.002 0.01546,0.006 0.02314,0.009 0.0093,0.003 0.01818,0.007 0.02741,0.01 0.0079,8.5e-4 0.0155,0.004 0.02342,0.005 0.0075,8.5e-4 0.01469,0.003 0.02225,0.004 0.0074,0.002 0.01487,0.003 0.02247,0.004 0.0073,1.1e-4 0.01436,4.5e-4 0.02152,0.002 0.0071,0.002 0.0145,0.002 0.02166,0.003 0.0081,0.002 0.01588,0.004 0.02409,0.006 0.0082,0.003 0.01649,0.004 0.0245,0.007 0.0073,0.004 0.01499,0.008 0.02171,0.0122 0.0043,0.003 0.0076,0.006 0.01095,0.009 0,0 -0.04488,0.0275 -0.04488,0.0275 v 0 c -0.0032,-0.003 -0.0065,-0.006 -0.01048,-0.009 -0.0065,-0.004 -0.01362,-0.008 -0.02079,-0.0111 -0.0079,-0.003 -0.01593,-0.005 -0.0241,-0.007 -0.0081,-0.002 -0.01583,-0.004 -0.02398,-0.005 -0.0073,-7.5e-4 -0.01459,-0.002 -0.02178,-0.003 -0.0071,-8.5e-4 -0.01421,-7.4e-4 -0.02131,-0.002 -0.0076,-8.5e-4 -0.01501,-0.003 -0.02251,-0.004 -0.0076,-8.5e-4 -0.01488,-0.003 -0.02241,-0.004 -0.008,-0.002 -0.01585,-0.004 -0.02379,-0.006 -0.0092,-0.003 -0.01824,-0.007 -0.02756,-0.01 -0.0075,-0.003 -0.01472,-0.007 -0.02271,-0.009 -0.0074,-0.002 -0.0147,-0.003 -0.02162,-0.006 -0.0081,-0.003 -0.01615,-0.005 -0.0242,-0.008 -0.0092,-0.003 -0.01873,-0.005 -0.02757,-0.009 -0.0086,-0.003 -0.0174,-0.006 -0.02567,-0.0105 -0.0084,-0.003 -0.0171,-0.006 -0.02603,-0.008 -0.0091,-0.003 -0.01808,-0.007 -0.02719,-0.0101 -0.0085,-0.003 -0.01684,-0.008 -0.02549,-0.0114 -0.0086,-0.003 -0.01659,-0.009 -0.02419,-0.0136 -0.0066,-0.005 -0.01334,-0.0101 -0.02048,-0.0145 -0.0068,-0.005 -0.01395,-0.009 -0.02124,-0.0137 -0.0078,-0.004 -0.01559,-0.009 -0.02396,-0.0124 -0.0082,-0.003 -0.01623,-0.008 -0.02505,-0.009 -0.0079,-0.002 -0.01587,-0.003 -0.0235,-0.006 -0.0078,-0.003 -0.01564,-0.005 -0.02318,-0.009 -0.0064,-0.003 -0.0129,-0.006 -0.01954,-0.009 -0.0071,-0.003 -0.01388,-0.008 -0.0215,-0.0104 -0.0094,-0.003 -0.01799,-0.009 -0.02668,-0.0141 -0.0068,-0.004 -0.01381,-0.008 -0.02103,-0.0113 -0.0065,-0.003 -0.01328,-0.007 -0.01958,-0.0104 -0.007,-0.003 -0.01466,-0.006 -0.0215,-0.009 -0.0065,-0.004 -0.01213,-0.009 -0.01849,-0.0131 -0.0095,-0.006 -0.0195,-0.0101 -0.02939,-0.015 0,0 0.04418,-0.0287 0.04418,-0.0287 z"
       inkscape:connector-curvature="0" />
    <path
       style="fill:#e69f00;fill-opacity:1;stroke-width:0.22496472"
       id="path4531"
       d="m 24.454757,257.18919 c -0.01132,2.8e-4 -0.02215,1.4e-4 -0.03284,-0.003 -0.0084,-0.003 -0.01622,-0.008 -0.02422,-0.0123 -0.0077,-0.003 -0.01569,-0.006 -0.02361,-0.009 -0.008,-0.003 -0.01673,-0.003 -0.02491,-0.005 -0.0032,-7.1e-4 -0.0064,-0.002 -0.0095,-0.003 0,0 0.04361,-0.0297 0.04361,-0.0297 v 0 c 0.003,8e-4 0.006,0.002 0.0091,0.003 0.0084,0.002 0.01696,0.003 0.02504,0.005 0.0082,0.003 0.01661,0.005 0.02422,0.009 0.0078,0.004 0.0152,0.009 0.0236,0.0117 0.0105,0.003 0.02126,0.003 0.03211,0.003 0,0 -0.04263,0.0309 -0.04263,0.0309 z"
       inkscape:connector-curvature="0" />
    <path
       style="fill:#e69f00;fill-opacity:1;stroke-width:0.22496472"
       id="path4533"
       d="m 24.493553,257.14899 c 0.0094,0.004 0.0197,0.006 0.02961,0.009 0.008,0.003 0.01541,0.007 0.02361,0.009 0.0061,0.003 0.01192,0.006 0.01841,0.008 0.0083,8.5e-4 0.01581,0.005 0.02362,0.008 0.0085,0.002 0.01678,0.005 0.02503,0.008 0.0074,0.003 0.01501,0.003 0.02254,0.005 0.0077,0.002 0.01555,0.002 0.02339,0.003 0.0067,-5.9e-4 0.01309,0.002 0.01965,0.003 0.0071,8.5e-4 0.01414,8.5e-4 0.02122,8.5e-4 0.0077,0.002 0.01541,0.003 0.02319,0.003 0.0061,0.002 0.01228,0.003 0.01861,0.003 0.0055,-5.4e-4 0.0095,0.003 0.01411,0.005 0.003,0.002 0.0047,0.002 0.0078,0.003 0.0078,0.003 0.01585,0.006 0.02367,0.009 0.0059,0.003 0.01236,0.003 0.01861,0.004 0.01095,0.0199 0.0048,0.005 -0.04448,0.0313 -7.88e-4,4.3e-4 -0.0017,-7e-4 -0.0026,-8.5e-4 -0.0037,-8.5e-4 -0.0074,-0.002 -0.011,-0.003 -0.0077,-0.003 -0.01547,-0.003 -0.02338,-0.003 -0.008,-5e-5 -0.01588,-3.9e-4 -0.02381,-0.002 -0.01135,-0.003 -0.02327,-0.003 -0.03484,-0.006 -0.0059,-0.002 -0.01505,-8.6e-4 -0.01888,-0.007 -6.07e-4,-8.5e-4 -8.09e-4,-0.002 -0.0012,-0.003 0.0534,-0.0341 0.03157,-0.0315 0.06679,-0.0234 0.0094,0.002 0.01865,0.004 0.02815,0.005 0.0115,8.5e-4 0.02308,8.5e-4 0.03463,0.002 0.0077,0.002 0.0157,0.002 0.02325,0.003 0.0067,0.002 0.0136,0.003 0.02052,0.003 0.0071,2.9e-4 0.01409,2.7e-4 0.02113,2.7e-4 0.0071,2.2e-4 0.0144,-6.3e-4 0.02149,6.5e-4 0.0082,8.5e-4 0.01615,0.003 0.02431,0.005 0.0081,0.002 0.01635,7e-4 0.02442,0.002 0.008,8.5e-4 0.01508,0.005 0.02261,0.008 0.0068,0.002 0.01387,0.003 0.02089,0.003 0.0072,0.002 0.01413,0.004 0.02154,0.006 0.007,8.5e-4 0.01399,8.5e-4 0.02101,8.5e-4 0.0071,2e-5 0.01418,-2e-5 0.02127,-3e-5 0.0071,-10e-6 0.01421,-2e-5 0.02131,-2e-5 0.0073,1.6e-4 0.01463,-5.2e-4 0.02186,6.7e-4 0.0094,5.4e-4 0.01753,0.004 0.0257,0.009 0.0075,0.003 0.0147,0.008 0.02197,0.0117 0.006,0.003 0.01282,0.003 0.01954,0.004 0.007,2.2e-4 0.01399,1.4e-4 0.02098,1.1e-4 0.0047,-3e-5 0.0024,2.2e-4 0.0069,-7e-4 0,0 -0.04222,0.0315 -0.04222,0.0315 v 0 c -0.0049,2.5e-4 -0.0025,1.9e-4 -0.0073,2e-4 -0.0071,2e-5 -0.01417,1e-4 -0.02125,-4.5e-4 -0.0073,-7.6e-4 -0.0144,-0.003 -0.02076,-0.006 -0.0071,-0.004 -0.01448,-0.008 -0.02184,-0.0116 -0.0077,-0.004 -0.01587,-0.006 -0.02461,-0.007 -0.0072,-3.3e-4 -0.0144,-1.2e-4 -0.0216,-1.7e-4 -0.0071,0 -0.0142,10e-6 -0.0213,2e-5 -0.0071,2e-5 -0.01422,6e-5 -0.02133,-5e-5 -0.0072,-1.8e-4 -0.0145,-4.5e-4 -0.0216,-0.002 -0.0071,-0.002 -0.01378,-0.005 -0.02104,-0.005 -0.0074,-4.5e-4 -0.01476,-8.5e-4 -0.02174,-0.004 -0.0071,-0.003 -0.01422,-0.006 -0.02194,-0.007 -0.0082,-6.6e-4 -0.01655,-6.2e-4 -0.02465,-0.003 -0.008,-0.002 -0.01591,-0.004 -0.02412,-0.004 -0.0071,-3.4e-4 -0.01409,-6e-5 -0.02114,-1.4e-4 -0.0071,-3e-5 -0.01425,-4e-5 -0.02136,-5.6e-4 -0.0071,-6.6e-4 -0.01407,-0.002 -0.02096,-0.003 -0.0074,-8.5e-4 -0.01485,-0.003 -0.02235,-0.003 -0.01168,-2.2e-4 -0.02341,-3.2e-4 -0.03501,-0.002 -0.0096,-0.002 -0.01904,-0.003 -0.02852,-0.005 -0.0045,-8.5e-4 -0.009,-0.003 -0.01362,-0.003 -0.0011,-1.5e-4 -0.0023,-3.8e-4 -0.0035,-2.7e-4 -7.64e-4,8e-5 -0.0028,8.5e-4 -0.0022,8.1e-4 0.01431,-0.009 0.0288,-0.0184 0.0432,-0.0276 -4.72e-4,-3.8e-4 -0.001,-7.2e-4 -0.0014,-8.5e-4 -3.61e-4,-3.5e-4 7.64e-4,7.3e-4 0.0012,8.5e-4 0.0034,0.002 0.0073,0.003 0.01098,0.003 0.0015,3.1e-4 0.0031,6e-4 0.0046,8.5e-4 0.01164,0.002 0.02341,0.003 0.03494,0.005 0.0079,8.5e-4 0.01578,6.7e-4 0.02368,0.002 0.0081,8.3e-4 0.01597,0.003 0.02377,0.004 0.0048,8.5e-4 0.003,6.5e-4 0.0077,0.002 0.0011,1.7e-4 0.0022,4.3e-4 0.0033,5e-4 6.31e-4,3e-5 0.0024,-5.7e-4 0.0019,-2.3e-4 -0.04505,0.0282 -0.05369,0.0123 -0.04166,0.0306 -0.0064,-0.002 -0.01279,-0.003 -0.01878,-0.005 -0.0079,-0.003 -0.01568,-0.006 -0.02355,-0.009 -0.0071,-0.003 -0.01349,-0.007 -0.02135,-0.007 -0.0062,-8.3e-4 -0.0123,-0.003 -0.01849,-0.003 -0.0077,-8.1e-4 -0.01523,-0.003 -0.02292,-0.003 -0.0073,-1.5e-4 -0.01463,-2.9e-4 -0.02183,-0.002 -0.0064,-8.5e-4 -0.01264,-0.003 -0.01917,-0.002 -0.008,-4.5e-4 -0.01595,-8.5e-4 -0.02378,-0.003 -0.0077,-0.002 -0.01563,-0.003 -0.02301,-0.005 -0.0082,-0.003 -0.01665,-0.005 -0.02497,-0.008 -0.0077,-0.003 -0.01543,-0.006 -0.0236,-0.008 -0.0063,-0.003 -0.01213,-0.005 -0.0184,-0.008 -0.0079,-0.003 -0.01531,-0.007 -0.02335,-0.009 -0.01007,-0.003 -0.02006,-0.005 -0.02989,-0.009 0,0 0.04352,-0.0298 0.04352,-0.0298 z"
       inkscape:connector-curvature="0" />
    <path
       style="fill:#e69f00;fill-opacity:1;stroke-width:0.22496472"
       id="path4535"
       d="m 24.777876,257.27085 c -0.01566,2.5e-4 -0.03124,-8.5e-4 -0.04686,-0.002 -0.01733,-8.5e-4 -0.03461,-0.003 -0.05175,-0.005 -0.0097,-0.003 -0.01967,-0.002 -0.02937,-0.003 -0.0093,-0.002 -0.018,-0.005 -0.02617,-0.009 -0.0079,-0.005 -0.01633,-0.009 -0.02476,-0.0121 -0.009,-0.004 -0.01843,-0.007 -0.02804,-0.009 -4.27e-4,3e-5 -0.0017,3.3e-4 -0.0013,10e-5 0.01571,-0.01 0.03084,-0.0207 0.04745,-0.0287 0.0022,-8.5e-4 0.0047,0.002 0.007,0.002 0.01133,0.003 0.0226,0.007 0.0339,0.0101 0.0241,0.008 0.04862,0.0139 0.0734,0.0191 0.01519,0.003 0.03064,0.004 0.0461,0.004 0.0052,-2.7e-4 0.01047,5e-4 0.01566,5e-5 0.01626,-0.002 0.07461,-0.047 -0.03978,0.0282 -0.01342,-0.002 -0.02692,-8.5e-4 -0.04038,-0.002 -0.01963,2.7e-4 -0.03921,-7e-5 -0.05874,-0.003 -0.01786,-0.003 -0.03582,-0.003 -0.0538,-0.004 -0.01213,-7.2e-4 -0.01504,-0.003 -0.02309,-0.0118 0,0 0.04463,-0.0274 0.04463,-0.0274 v 0 c 0.0071,0.007 0.01066,0.008 0.02077,0.009 0.01791,8.5e-4 0.03579,0.003 0.0536,0.005 0.01948,0.002 0.039,0.002 0.05857,0.002 0.01402,5e-5 0.0283,-4.5e-4 0.04212,0.003 -0.04255,0.0339 -0.02728,0.033 -0.06191,0.0319 -0.01549,-7.2e-4 -0.03093,-0.003 -0.04609,-0.006 -0.02466,-0.006 -0.04902,-0.0122 -0.07316,-0.0197 -0.002,-5.6e-4 -0.02199,-0.006 -0.02479,-0.007 -0.0033,-8.5e-4 -0.0066,-0.002 -0.0099,-0.003 -0.0025,-6.6e-4 -0.0093,-8e-5 -0.0076,-0.002 0.0329,-0.0344 0.02402,-0.0375 0.04067,-0.0308 0.0097,0.003 0.01913,0.006 0.02832,0.01 0.0086,0.003 0.01693,0.008 0.025,0.0124 0.008,0.004 0.01642,0.007 0.02526,0.008 0.0097,8.5e-4 0.01942,0.002 0.02902,0.004 0.01694,0.003 0.03405,0.004 0.05119,0.005 0.01581,8.5e-4 0.0316,0.002 0.04744,8.5e-4 0,0 -0.04263,0.031 -0.04263,0.031 z"
       inkscape:connector-curvature="0" />
    <path
       style="fill:#e69f00;fill-opacity:1;stroke-width:0.22496472"
       id="path4537"
       d="m 23.272808,256.59421 c -0.0042,-0.008 -0.0091,-0.016 -0.01606,-0.0219 -0.0058,-0.004 -0.0127,-0.004 -0.0195,-0.004 -0.0085,-0.003 -0.01684,-0.004 -0.02555,-0.006 -0.0054,-0.002 -0.01135,7e-5 -0.01665,-0.002 -7.66e-4,-2.8e-4 -0.0071,-0.003 -0.0079,-0.004 -0.0074,-0.005 -0.01448,-0.0101 -0.02087,-0.0162 -0.0069,-0.006 -0.01058,-0.0145 -0.01513,-0.0221 -0.0044,-0.008 -0.01014,-0.0154 -0.01773,-0.0206 -0.0064,-0.003 -0.013,-0.007 -0.01945,-0.0106 -0.0071,-0.004 -0.01206,-0.01 -0.01702,-0.0165 -0.0063,-0.008 -0.01359,-0.0137 -0.02002,-0.0209 -0.0054,-0.007 -0.01021,-0.0147 -0.01386,-0.023 -0.0031,-0.008 -0.0074,-0.0151 -0.01252,-0.0218 -0.0043,-0.006 -0.01019,-0.008 -0.01648,-0.0105 -0.01149,-0.003 -0.02311,-0.005 -0.0347,-0.007 -0.01236,-0.003 -0.02017,-0.006 -0.0305,-0.0124 -0.0057,-0.004 -0.0096,-0.01 -0.01281,-0.0161 -0.0042,-0.006 -0.0062,-0.0134 -0.009,-0.0202 -0.0038,-0.007 -0.0082,-0.0142 -0.01276,-0.021 -0.0036,-0.007 -0.009,-0.0124 -0.0139,-0.0184 -0.0053,-0.007 -0.01071,-0.0133 -0.01663,-0.0193 -0.0065,-0.006 -0.01365,-0.0113 -0.02079,-0.0165 -0.0077,-0.005 -0.01541,-0.0106 -0.02265,-0.0166 -0.0074,-0.006 -0.01363,-0.0139 -0.01894,-0.0219 -0.0053,-0.009 -0.0094,-0.0177 -0.01456,-0.0262 -0.0047,-0.006 -0.0075,-0.0129 -0.01231,-0.0187 -0.0043,-0.006 -0.0093,-0.0106 -0.01408,-0.0158 -0.0051,-0.005 -0.01033,-0.01 -0.01519,-0.015 -0.0048,-0.006 -0.0097,-0.0117 -0.01525,-0.0171 -0.0062,-0.005 -0.01343,-0.009 -0.01957,-0.0141 -0.0065,-0.005 -0.01343,-0.01 -0.02013,-0.0151 -0.0075,-0.005 -0.01541,-0.01 -0.02219,-0.0159 -0.0066,-0.006 -0.01132,-0.0131 -0.0153,-0.0209 -0.0028,-0.006 -0.0055,-0.0126 -0.0081,-0.019 -0.0021,-0.007 -0.0033,-0.0131 -0.0068,-0.019 -0.0034,-0.007 -0.0071,-0.0128 -0.01158,-0.0187 -0.006,-0.007 -0.01224,-0.0141 -0.01932,-0.0202 -0.0056,-0.005 -0.01121,-0.01 -0.01689,-0.015 -0.0054,-0.005 -0.01018,-0.0102 -0.01536,-0.0152 -0.006,-0.005 -0.01128,-0.0111 -0.01685,-0.0166 -0.0057,-0.006 -0.011,-0.012 -0.0159,-0.0185 -0.0042,-0.007 -0.0095,-0.0123 -0.01357,-0.019 -0.0035,-0.006 -0.0079,-0.0121 -0.01139,-0.0185 -0.0021,-0.003 -9.35e-4,-0.002 -0.0033,-0.005 0,0 0.04534,-0.0269 0.04534,-0.0269 v 0 c 0.0026,0.003 0.0014,0.002 0.0037,0.005 0.0033,0.006 0.0077,0.012 0.01122,0.0183 0.0039,0.007 0.0091,0.0122 0.01319,0.0185 0.0048,0.006 0.01003,0.0122 0.0156,0.0179 0.0054,0.006 0.01101,0.0112 0.0169,0.0165 0.0049,0.005 0.0098,0.0102 0.01517,0.0149 0.0057,0.005 0.01121,0.01 0.01676,0.0151 0.0071,0.007 0.0137,0.0136 0.01988,0.0211 0.0047,0.006 0.0086,0.0124 0.01203,0.0192 0.0037,0.006 0.0054,0.0128 0.0072,0.0197 0.0025,0.006 0.0052,0.0124 0.0077,0.0185 0.0037,0.008 0.008,0.0139 0.01422,0.0193 0.0068,0.006 0.01473,0.0102 0.02198,0.0156 0.0068,0.005 0.01373,0.01 0.02031,0.0154 0.0064,0.005 0.0138,0.009 0.01977,0.0144 0.0056,0.005 0.01039,0.0114 0.01545,0.0173 0.0049,0.005 0.01014,0.01 0.0152,0.0151 0.0048,0.005 0.0099,0.0104 0.01424,0.0162 0.0048,0.006 0.008,0.0132 0.01263,0.0195 0.0049,0.009 0.009,0.0177 0.01434,0.026 0.005,0.008 0.01108,0.0147 0.01814,0.0205 0.0072,0.006 0.01503,0.0109 0.02254,0.0164 0.0074,0.005 0.01474,0.0109 0.02134,0.0173 0.0059,0.006 0.01151,0.0128 0.01686,0.0196 0.005,0.006 0.01053,0.0118 0.01417,0.0189 0.0047,0.007 0.0091,0.0145 0.01321,0.0219 0.0029,0.007 0.0048,0.0137 0.0089,0.0197 0.0029,0.005 0.0061,0.0104 0.01128,0.0139 0.0089,0.006 0.01848,0.009 0.02899,0.011 0.01196,0.003 0.02414,0.004 0.03578,0.008 0.0071,0.003 0.0133,0.007 0.01794,0.0129 0.0053,0.007 0.0097,0.0146 0.01307,0.0228 0.0035,0.008 0.0077,0.015 0.01297,0.0216 0.0065,0.008 0.01396,0.0137 0.02014,0.0213 0.0047,0.006 0.0097,0.0109 0.0162,0.0146 0.0065,0.004 0.01354,0.007 0.01966,0.0112 0.0077,0.006 0.01394,0.0138 0.01877,0.0224 0.0043,0.008 0.0078,0.0152 0.01443,0.0207 0.0061,0.006 0.01274,0.0109 0.02004,0.0149 0.0076,0.003 0.0155,0.003 0.02364,0.004 0.0085,0.002 0.01683,0.004 0.02542,0.005 0.0077,7.7e-4 0.01525,0.003 0.02136,0.008 0.0071,0.007 0.01242,0.0152 0.01735,0.0237 0,0 -0.04597,0.0259 -0.04597,0.0259 z"
       inkscape:connector-curvature="0" />
    <path
       style="fill:#e69f00;fill-opacity:1;stroke-width:0.22496472"
       id="path4539"
       d="m 22.576597,255.90916 c -0.0054,-0.008 -0.01039,-0.0168 -0.01572,-0.0252 -0.0034,-0.007 -0.0083,-0.0119 -0.01292,-0.0175 -0.0056,-0.006 -0.0082,-0.0133 -0.01241,-0.0199 -0.0034,-0.006 -0.0063,-0.0122 -0.0096,-0.0182 -0.0036,-0.007 -0.0072,-0.0129 -0.01121,-0.0191 -0.004,-0.007 -0.0066,-0.014 -0.0088,-0.0213 -2.92e-4,-8.5e-4 -5.85e-4,-0.003 -9.35e-4,-0.003 0,0 0.04637,-0.025 0.04637,-0.025 v 0 c 2.48e-4,8.5e-4 4.95e-4,0.003 7.2e-4,0.003 0.002,0.007 0.0044,0.0138 0.0081,0.02 0.0041,0.006 0.0077,0.0129 0.01149,0.0194 0.0032,0.006 0.0061,0.0121 0.0094,0.018 0.004,0.007 0.0065,0.0139 0.01202,0.0193 0.0048,0.006 0.0097,0.0115 0.01317,0.0181 0.0053,0.009 0.01008,0.0173 0.01598,0.0253 0,0 -0.04565,0.0264 -0.04565,0.0264 z"
       inkscape:connector-curvature="0" />
    <path
       style="fill:#e69f00;fill-opacity:1;stroke-width:0.22496472"
       id="path4541"
       d="m 22.507129,255.81144 c 0.0035,-0.009 0.0038,-0.0192 0.0037,-0.0292 1.24e-4,-0.005 -3.6e-4,-0.0106 -0.0013,-0.0157 0,0 0.04646,-0.0247 0.04646,-0.0247 v 0 c 0.001,0.005 0.0019,0.011 0.0015,0.0166 1.08e-4,0.0102 8.7e-5,0.0205 -0.0029,0.0304 0,0 -0.04765,0.0226 -0.04765,0.0226 z"
       inkscape:connector-curvature="0" />
    <path
       style="fill:#cc79a7;fill-opacity:1;stroke-width:0.00502153"
       d="m 21.82419,268.85419 c -0.261398,-0.50787 -0.766623,-0.8541 -1.338143,-0.91702 -0.147625,-0.0163 -0.350611,-0.009 -0.494621,0.018 -0.317484,0.0592 -0.621515,0.20973 -0.843718,0.41763 -0.02364,0.0221 -0.04405,0.0391 -0.04535,0.0378 -0.004,-0.004 0.08318,-0.0854 0.141171,-0.1317 0.244686,-0.19551 0.530776,-0.31762 0.848331,-0.36208 0.07858,-0.011 0.276419,-0.0151 0.364911,-0.008 0.586611,0.05 1.099129,0.39153 1.375593,0.91671 0.01599,0.0304 0.03261,0.0637 0.03693,0.0741 0.0075,0.018 0.0074,0.0188 -0.002,0.0188 -0.0075,0 -0.01764,-0.0152 -0.04314,-0.0647 z"
       id="path4543"
       inkscape:connector-curvature="0" />
    <path
       style="fill:#cc79a7;fill-opacity:1;stroke-width:0.00088769"
       d="m 18.787644,268.83422 c 0,-7.4e-4 0.01028,-0.0203 0.02114,-0.0403 0.148005,-0.27177 0.37109,-0.50184 0.637531,-0.65749 0.02605,-0.0152 0.02966,-0.0172 0.03201,-0.0172 0.0013,0 -0.0043,0.004 -0.01476,0.01 -0.08209,0.0468 -0.169581,0.10729 -0.239619,0.16572 -0.05559,0.0464 -0.125016,0.11228 -0.121741,0.11555 9e-4,9e-4 0.0042,-9.4e-4 0.0096,-0.005 0.0028,-0.002 0.0053,-0.004 0.0057,-0.004 3.6e-4,0 -0.0137,0.0145 -0.03127,0.0322 -0.03277,0.033 -0.05144,0.0529 -0.07645,0.0815 -0.07966,0.0911 -0.148646,0.18915 -0.20769,0.29506 -0.0049,0.009 -0.01,0.0181 -0.01126,0.0206 -0.0021,0.004 -0.0032,0.006 -0.0032,0.004 z"
       id="path4545"
       inkscape:connector-curvature="0" />
    <path
       style="fill:#cc79a7;fill-opacity:1;stroke-width:0.00394591"
       d=""
       id="path4547"
       inkscape:connector-curvature="0"
       transform="matrix(0.26458333,0,0,0.26458333,0,246.19998)" />
    <path
       style="fill:#cc79a7;fill-opacity:1;stroke-width:0.00394591"
       d=""
       id="path4549"
       inkscape:connector-curvature="0"
       transform="matrix(0.26458333,0,0,0.26458333,0,246.19998)" />
    <path
       style="fill:#cc79a7;fill-opacity:1;stroke-width:0.00351507"
       d="m 32.184665,269.97344 c -1.71e-4,-0.003 0.002,-0.0187 0.005,-0.0351 0.06367,-0.35854 0.006,-0.74443 -0.159963,-1.07034 -0.08501,-0.16695 -0.180516,-0.29838 -0.314463,-0.43274 -0.07494,-0.0752 -0.126776,-0.12049 -0.197172,-0.17235 -0.189922,-0.13992 -0.410361,-0.24078 -0.639568,-0.29263 -0.05985,-0.0135 -0.141426,-0.027 -0.209145,-0.0344 -0.06925,-0.008 -0.258231,-0.009 -0.323387,-0.002 -0.229991,0.0244 -0.419976,0.0787 -0.613079,0.17519 -0.202754,0.10133 -0.38468,0.24244 -0.530163,0.4112 -0.01561,0.0181 -0.02913,0.0322 -0.03004,0.0312 -0.0025,-0.003 0.06006,-0.076 0.103221,-0.12115 0.278652,-0.29129 0.645442,-0.47155 1.056005,-0.51897 0.105423,-0.0122 0.27975,-0.0104 0.393688,0.004 0.571502,0.0722 1.068949,0.42668 1.321683,0.94178 0.01897,0.0387 0.04397,0.094 0.05555,0.12303 0.116903,0.29278 0.150482,0.61349 0.09698,0.92622 -0.0087,0.051 -0.01453,0.0767 -0.01514,0.0668 z"
       id="path4551"
       inkscape:connector-curvature="0" />
    <path
       style="fill:#cc79a7;fill-opacity:1;stroke-width:0.00087877"
       d="m 28.987273,268.8339 c -1.64e-4,-0.003 0.03448,-0.0653 0.05486,-0.0994 0.08619,-0.14386 0.190678,-0.27164 0.316175,-0.38664 0.0057,-0.005 0.01055,-0.009 0.0108,-0.009 2.25e-4,2.5e-4 -0.0062,0.007 -0.01426,0.014 -0.03476,0.032 -0.0713,0.0686 -0.101706,0.1018 -0.03864,0.0423 -0.0805,0.0924 -0.0805,0.0964 0,0.002 0.0011,9.7e-4 0.0077,-0.005 0.0025,-0.002 0.0046,-0.004 0.0046,-0.004 0,3.3e-4 -0.0062,0.008 -0.01384,0.0176 -0.06382,0.0781 -0.122097,0.16408 -0.170168,0.25112 -0.01303,0.0236 -0.01359,0.0245 -0.01365,0.0233 z"
       id="path4553"
       inkscape:connector-curvature="0" />
    <path
       style="fill:#cc79a7;fill-opacity:1;stroke-width:0.00087877"
       d="m 29.174398,268.54888 c 0,-0.002 0.02626,-0.034 0.05094,-0.0622 0.107175,-0.12247 0.227626,-0.22625 0.364281,-0.31388 0.05329,-0.0342 0.121166,-0.0721 0.174966,-0.0977 l 0.01678,-0.008 0.02011,8e-5 0.02011,7e-5 -0.0048,0.002 c -0.0027,10e-4 -0.01492,0.007 -0.02724,0.0124 -0.147926,0.0673 -0.288081,0.15693 -0.412145,0.26369 -0.03182,0.0274 -0.05767,0.0515 -0.0923,0.0861 -0.0312,0.0312 -0.0485,0.0496 -0.07595,0.0809 -0.01971,0.0225 -0.033,0.0369 -0.03399,0.0369 -4.5e-4,0 -6.75e-4,-3.2e-4 -6.75e-4,-6.8e-4 z"
       id="path4555"
       inkscape:connector-curvature="0" />
    <path
       style="fill:#cc79a7;fill-opacity:1;stroke-width:0.00087877"
       d="m 29.174398,268.5489 c 0,-0.003 0.04374,-0.055 0.07873,-0.0933 0.141039,-0.15458 0.317427,-0.28627 0.506429,-0.37807 l 0.02142,-0.0104 0.02018,2.3e-4 0.02016,2.2e-4 -0.02314,0.0105 c -0.144913,0.0655 -0.277487,0.14828 -0.398729,0.24906 -0.06767,0.0563 -0.130518,0.11769 -0.192527,0.18822 -0.01797,0.0204 -0.03078,0.0343 -0.03174,0.0343 -4.5e-4,0 -6.75e-4,-2.9e-4 -6.75e-4,-6.5e-4 z"
       id="path4557"
       inkscape:connector-curvature="0" />
    <path
       style="fill:#cc79a7;fill-opacity:1;stroke-width:0.00248553"
       d="m 32.160619,280.27413 c 0,-0.002 0.0033,-0.0165 0.0073,-0.0334 0.08191,-0.34538 0.05583,-0.70473 -0.0749,-1.03199 -0.09764,-0.24441 -0.244568,-0.45685 -0.438703,-0.63429 -0.114638,-0.10479 -0.245108,-0.19424 -0.386586,-0.26507 l -0.04412,-0.0221 v -0.0159 -0.0159 l 0.03045,0.0144 c 0.181981,0.0861 0.366225,0.2209 0.505672,0.37011 0.266074,0.28471 0.423136,0.63552 0.45978,1.02695 0.0054,0.0578 0.0062,0.22638 0.0013,0.27962 -0.0098,0.10715 -0.02348,0.1898 -0.04679,0.28327 -0.01026,0.0411 -0.01338,0.0514 -0.01338,0.0442 z"
       id="path4559"
       inkscape:connector-curvature="0" />
    <path
       style="fill:#cc79a7;fill-opacity:1;stroke-width:0.00124277"
       d="m 29.008278,278.99371 c 4.5e-4,-0.001 0.0071,-0.0134 0.01467,-0.0267 0.06227,-0.10942 0.135942,-0.21098 0.22223,-0.30634 0.0264,-0.0292 0.08766,-0.0903 0.11677,-0.11644 0.118903,-0.10692 0.244431,-0.19276 0.383976,-0.26259 0.01572,-0.008 0.02889,-0.0143 0.02923,-0.0143 4.49e-4,0 6.74e-4,0.005 6.74e-4,0.0104 v 0.0104 l -0.0202,0.01 c -0.04664,0.0222 -0.113713,0.0591 -0.161071,0.0886 -0.181263,0.11297 -0.339091,0.25756 -0.466365,0.42724 -0.03882,0.0518 -0.07893,0.1121 -0.108626,0.16342 -0.0097,0.0167 -0.01298,0.0217 -0.01125,0.0168 z"
       id="path4561"
       inkscape:connector-curvature="0" />
    <path
       style="fill:#cc79a7;fill-opacity:1;stroke-width:0.00175754"
       d="m 21.839459,279.08696 c -0.02625,-0.0544 -0.06293,-0.11954 -0.09722,-0.1727 -0.168511,-0.26126 -0.405143,-0.47251 -0.68178,-0.60863 l -0.03644,-0.0179 -2.8e-5,-0.0161 -2.8e-5,-0.0162 0.0094,0.004 c 0.01718,0.008 0.08361,0.0413 0.108025,0.0548 0.28483,0.15735 0.520846,0.39464 0.675854,0.67949 0.02351,0.0432 0.06086,0.11907 0.06086,0.12361 0,4.5e-4 -0.0053,6.8e-4 -0.01186,6.8e-4 l -0.01186,-1.1e-4 z"
       id="path4563"
       inkscape:connector-curvature="0" />
    <path
       style="fill:#cc79a7;fill-opacity:1;stroke-width:0.00175754"
       d="m 18.839854,278.94032 c 5.62e-4,-0.002 0.0091,-0.0159 0.01892,-0.0316 0.166852,-0.2676 0.405303,-0.48521 0.685234,-0.62534 l 0.03174,-0.0159 v 0.0102 0.0102 l -0.03767,0.0187 c -0.277748,0.13788 -0.5171,0.35233 -0.681166,0.61031 -0.01463,0.023 -0.01902,0.029 -0.01706,0.0234 z"
       id="path4565"
       inkscape:connector-curvature="0" />
  </g>
</svg>
