<?xml version="1.0" encoding="UTF-8" standalone="no"?>
<!-- Created with Inkscape (http://www.inkscape.org/) -->

<svg
   xmlns:dc="http://purl.org/dc/elements/1.1/"
   xmlns:cc="http://creativecommons.org/ns#"
   xmlns:rdf="http://www.w3.org/1999/02/22-rdf-syntax-ns#"
   xmlns:svg="http://www.w3.org/2000/svg"
   xmlns="http://www.w3.org/2000/svg"
   xmlns:sodipodi="http://sodipodi.sourceforge.net/DTD/sodipodi-0.dtd"
   xmlns:inkscape="http://www.inkscape.org/namespaces/inkscape"
   width="1000"
   height="1000"
   viewBox="0 0 264.58333 264.58334"
   version="1.1"
   id="svg3953"
   inkscape:version="0.92.0 r15299"
   sodipodi:docname="squirgleLogoWithTextNan.svg"
   inkscape:export-filename="C:\Users\zgcrowno\Documents\ArtAssets\PlanarGazer\Squirgle\squirgleLogo48.png"
   inkscape:export-xdpi="24"
   inkscape:export-ydpi="24">
  <defs
     id="defs3947" />
  <sodipodi:namedview
     id="base"
     pagecolor="#0072b2"
     bordercolor="#666666"
     borderopacity="1.0"
     inkscape:pageopacity="1"
     inkscape:pageshadow="2"
     inkscape:zoom="0.35355341"
     inkscape:cx="-218.0274"
     inkscape:cy="532.30619"
     inkscape:document-units="mm"
     inkscape:current-layer="layer1"
     showgrid="false"
     units="px"
     inkscape:window-width="1920"
     inkscape:window-height="1001"
     inkscape:window-x="-9"
     inkscape:window-y="-9"
     inkscape:window-maximized="1">
    <inkscape:grid
       type="xygrid"
       id="grid3955"
       empspacing="1" />
  </sodipodi:namedview>
  <metadata
     id="metadata3950">
    <rdf:RDF>
      <cc:Work
         rdf:about="">
        <dc:format>image/svg+xml</dc:format>
        <dc:type
           rdf:resource="http://purl.org/dc/dcmitype/StillImage" />
        <dc:title></dc:title>
      </cc:Work>
    </rdf:RDF>
  </metadata>
  <g
     inkscape:label="Layer 1"
     inkscape:groupmode="layer"
     id="layer1"
     transform="translate(0,-32.416643)">
    <circle
       style="fill:#000000;fill-opacity:1;stroke-width:0.94309723"
       id="path4021-8-1"
       cx="208.18187"
       cy="226.33603"
       r="14.647336" />
    <rect
       style="fill:#e69f00;fill-opacity:1;stroke-width:0.77520281"
       id="rect4053"
       width="156.23824"
       height="12.861073"
       x="54.172756"
       y="219.90553" />
    <circle
       style="fill:#000000;fill-opacity:1;stroke-width:0.94309723"
       id="path4021-8-1-3"
       cx="56.401875"
       cy="226.33603"
       r="14.647336" />
    <circle
       style="fill:#e69f00;fill-opacity:1;stroke-width:0.94309723"
       id="path4021-8-1-8"
       cx="167.81256"
       cy="-162.01341"
       r="14.647336"
       transform="rotate(120)" />
    <rect
       style="fill:#e69f00;fill-opacity:1;stroke-width:0.77520281"
       id="rect4053-2"
       width="156.23824"
       height="12.861073"
       x="13.803391"
       y="-168.44397"
       transform="rotate(120)" />
    <circle
       style="fill:#e69f00;fill-opacity:1;stroke-width:0.94309723"
       id="path4021-8-1-8-2"
       cx="300.10349"
       cy="67.122314"
       r="14.647336"
       transform="matrix(0.5,0.8660254,0.8660254,-0.5,0,0)" />
    <rect
       style="fill:#e69f00;fill-opacity:1;stroke-width:0.77520275"
       id="rect4053-2-0"
       width="156.23824"
       height="12.861073"
       x="146.09537"
       y="60.6917"
       transform="matrix(0.5,0.8660254,0.8660254,-0.5,0,0)" />
    <circle
       style="fill:#e69f00;fill-opacity:1;stroke-width:0.94309723"
       id="path4021-8-1-3-2-5"
       cx="148.32436"
       cy="67.122345"
       r="14.647336"
       transform="matrix(0.5,0.8660254,0.8660254,-0.5,0,0)" />
    <circle
       style="fill:#000000;fill-opacity:1;stroke-width:1.19118118"
       id="path4328"
       cx="132.29185"
       cy="182.5929"
       r="37.45192" />
    <circle
       style="fill:#ffffff;fill-opacity:1;stroke-width:1.25767684"
       id="path4330"
       cx="110.967"
       cy="161.16481"
       r="7.1867242" />
    <circle
       style="fill:#ffffff;fill-opacity:1;stroke-width:1.25767684"
       id="path4330-6"
       cx="110.967"
       cy="203.92229"
       r="7.1867242" />
    <rect
       style="fill:#cc79a7;fill-opacity:1;stroke-width:1.68735051"
       id="rect4347"
       width="6.0637984"
       height="41.323669"
       x="107.88121"
       y="162.87575" />
    <circle
       style="fill:#ffffff;fill-opacity:1;stroke-width:1.25767684"
       id="path4330-9"
       cx="203.92229"
       cy="-153.7245"
       r="7.1867242"
       transform="rotate(90)" />
    <circle
       style="fill:#cc79a7;fill-opacity:1;stroke-width:1.25767684"
       id="path4330-6-1"
       cx="204.04146"
       cy="-110.91312"
       r="7.1867242"
       transform="rotate(90)" />
    <rect
       style="fill:#cc79a7;fill-opacity:1;stroke-width:1.68735051"
       id="rect4347-3"
       width="6.0637984"
       height="41.323669"
       x="201.00961"
       y="-152.07886"
       transform="rotate(90)" />
    <circle
       style="fill:#cc79a7;fill-opacity:1;stroke-width:1.25767684"
       id="path4330-93"
       cx="-153.67061"
       cy="-204.0417"
       r="7.1867242"
       transform="scale(-1)" />
    <circle
       style="fill:#ffffff;fill-opacity:1;stroke-width:1.25767684"
       id="path4330-6-2"
       cx="-153.7245"
       cy="-161.16481"
       r="7.1867242"
       transform="scale(-1)" />
    <rect
       style="fill:#cc79a7;fill-opacity:1;stroke-width:1.68735051"
       id="rect4347-7"
       width="6.0637984"
       height="41.323669"
       x="-156.70253"
       y="-202.44992"
       transform="scale(-1)" />
    <circle
       style="fill:#cc79a7;fill-opacity:1;stroke-width:1.25767684"
       id="path4330-9-3"
       cx="-161.28384"
       cy="110.91312"
       r="7.1867242"
       transform="rotate(-90)" />
    <circle
       style="fill:#cc79a7;fill-opacity:1;stroke-width:1.25767684"
       id="path4330-6-1-9"
       cx="-161.28384"
       cy="153.67061"
       r="7.1867242"
       transform="rotate(-90)" />
    <rect
       style="fill:#cc79a7;fill-opacity:1;stroke-width:1.68735051"
       id="rect4347-3-8"
       width="6.0637984"
       height="41.323669"
       x="-164.31592"
       y="112.50491"
       transform="rotate(-90)" />
    <path
       style="fill:#e69f00;fill-opacity:1;stroke-width:0.03156727"
       d=""
       id="path4519"
       inkscape:connector-curvature="0"
       transform="matrix(0.26458333,0,0,0.26458333,0,246.19998)" />
    <path
       style="fill:#e69f00;fill-opacity:1;stroke-width:0.03156727"
       d=""
       id="path4521"
       inkscape:connector-curvature="0"
       transform="matrix(0.26458333,0,0,0.26458333,0,246.19998)" />
    <path
       style="fill:#e69f00;fill-opacity:1;stroke-width:0.02977099"
       d="m 49.096178,239.01198 c -1.142605,-0.66192 -2.133752,-1.42295 -3.050833,-2.34262 -1.78303,-1.78797 -3.082598,-4.02048 -3.750357,-6.44269 l -0.104965,-0.38073 v -3.51236 -3.51231 l 0.09033,-0.32536 c 1.002642,-3.60948 3.269781,-6.64749 6.414634,-8.59575 1.652024,-1.02346 3.493938,-1.71097 5.388549,-2.01136 0.875452,-0.13863 1.237409,-0.1649 2.313381,-0.16651 l 1.033227,-0.002 3.432422,-5.94647 3.432426,-5.94648 7.408375,-2.8e-4 7.40838,-2.9e-4 -0.09648,0.17097 c -0.05307,0.0938 -2.416745,4.19024 -5.252632,9.10247 -2.835875,4.91222 -5.17098,8.95918 -5.189112,8.99334 -0.02788,0.0529 -0.01091,0.0966 0.114909,0.29302 0.284299,0.44376 0.559956,0.92929 0.812617,1.4314 0.140048,0.27848 0.255198,0.49564 0.255804,0.48292 6.19e-4,-0.0121 -0.03921,-0.10307 -0.08864,-0.20088 l -0.08977,-0.17784 h 20.855017 20.85502 v 6.41565 6.41569 H 90.433419 69.578325 l 0.07489,-0.14793 c 0.0411,-0.0812 0.07457,-0.15844 0.07413,-0.17097 -4.45e-4,-0.0121 -0.131641,0.2316 -0.291534,0.54237 -0.729062,1.41842 -1.482378,2.46286 -2.595219,3.59808 -0.969661,0.98914 -2.00783,1.79548 -3.159472,2.45389 l -0.375685,0.21462 h -6.904057 -6.904029 z m 20.748589,-6.83817 c 0,-0.0162 -0.02547,0.0162 -0.05707,0.074 -0.03152,0.0574 -0.05707,0.11762 -0.05707,0.1342 0,0.0162 0.02547,-0.0162 0.05707,-0.0748 0.03152,-0.0574 0.05707,-0.11762 0.05707,-0.13419 z m 0.08973,-0.20856 c 0,-0.0162 -0.0194,0.003 -0.04256,0.0445 -0.02344,0.042 -0.04256,0.0881 -0.04256,0.10427 0,0.0162 0.0194,-0.004 0.04256,-0.0445 0.02345,-0.042 0.04256,-0.0877 0.04256,-0.10427 z m 0.06075,-0.14874 c 0,-0.0162 -0.01293,-0.008 -0.0291,0.0162 -0.01576,0.0243 -0.0291,0.0582 -0.0291,0.0744 0,0.0162 0.01293,0.008 0.0291,-0.0162 0.01576,-0.0243 0.0291,-0.0578 0.0291,-0.0744 z m 0.05953,-0.14874 c 0,-0.0162 -0.01293,-0.008 -0.0291,0.0162 -0.01576,0.0243 -0.0291,0.0582 -0.0291,0.0744 0,0.0162 0.01293,0.008 0.0291,-0.0162 0.01576,-0.0243 0.0291,-0.0582 0.0291,-0.0744 z m 0.07316,-0.1936 c 0.01374,-0.0513 0.01131,-0.0607 -0.0077,-0.0283 -0.01495,0.0243 -0.03638,0.078 -0.04749,0.11923 -0.01374,0.0517 -0.01131,0.0607 0.0077,0.0283 0.01495,-0.0243 0.03638,-0.078 0.04749,-0.11923 z m 0.103429,-0.27323 c 0.03395,-0.10104 0.05687,-0.18915 0.05044,-0.19521 -0.0065,-0.008 -0.03516,0.0594 -0.0637,0.14671 -0.02869,0.0873 -0.0582,0.17461 -0.06576,0.19522 -0.0077,0.0202 -0.0069,0.0364 0.0016,0.0364 0.0085,0 0.04325,-0.0825 0.07744,-0.1835 z m 0.209122,-0.66305 c -0.0013,-0.0162 -0.03476,0.0618 -0.07441,0.17542 -0.04002,0.11357 -0.07122,0.22108 -0.07001,0.23805 0.0013,0.0162 0.03476,-0.0618 0.07441,-0.17541 0.04002,-0.11357 0.07122,-0.22108 0.07001,-0.23806 z m 0.05756,-0.19481 c 0,-0.0283 -0.0097,-0.0202 -0.02547,0.0162 -0.01414,0.0323 -0.02547,0.0796 -0.02547,0.10427 0,0.0283 0.0097,0.0202 0.02547,-0.0162 0.01414,-0.0324 0.02547,-0.0796 0.02547,-0.10428 z m 0.07494,-0.26797 c 0.01293,-0.0711 0.01091,-0.0857 -0.0072,-0.0449 -0.01414,0.0323 -0.03435,0.1063 -0.04494,0.16369 -0.01293,0.0715 -0.01091,0.0857 0.0072,0.0449 0.01414,-0.0324 0.03435,-0.1067 0.04494,-0.16409 z m 0.0388,-0.1839 c -0.0097,-0.0243 -0.01617,-0.0162 -0.01819,0.0162 -0.0013,0.0283 0.0061,0.049 0.01536,0.0364 0.0101,-0.008 0.01091,-0.0324 0.0024,-0.057 z m 0.02991,-0.11924 c -0.0097,-0.0243 -0.01617,-0.0162 -0.01819,0.0162 -0.0013,0.0283 0.0061,0.0489 0.01536,0.0364 0.0101,-0.008 0.01091,-0.0324 0.0024,-0.057 z m 0.06305,-0.24735 c 0,-0.0473 -0.0049,-0.0441 -0.02385,0.0162 -0.01293,0.042 -0.02385,0.10145 -0.02385,0.13419 0,0.0469 0.0049,0.0441 0.02385,-0.0162 0.01293,-0.042 0.02385,-0.10104 0.02385,-0.13378 z m 0.02547,-0.17097 c -0.0085,-0.0202 -0.01495,-0.003 -0.01495,0.0364 0,0.042 0.0069,0.0578 0.01495,0.0364 0.0085,-0.0202 0.0085,-0.0542 0,-0.0744 z m 0.02991,-0.14874 c -0.0085,-0.0202 -0.01495,-0.004 -0.01495,0.0364 0,0.042 0.0069,0.0578 0.01495,0.0364 0.0085,-0.0202 0.0085,-0.0542 0,-0.0744 z m 0.02991,-0.14874 c -0.0085,-0.0202 -0.01495,-0.004 -0.01495,0.0364 0,0.042 0.0069,0.0578 0.01495,0.0364 0.0085,-0.0202 0.0085,-0.0542 0,-0.0744 z m 0.02991,-0.14874 c -0.0085,-0.0202 -0.01495,-0.004 -0.01495,0.0364 0,0.042 0.0069,0.0578 0.01495,0.0364 0.0085,-0.0202 0.0085,-0.0542 0,-0.0748 z m 0.03072,-0.16288 c -0.0077,-0.0283 -0.01414,-0.0121 -0.01455,0.0364 -6.1e-4,0.0489 0.0052,0.0731 0.01374,0.0529 0.0081,-0.0202 0.0089,-0.0602 0.0011,-0.0893 z m 0.02991,-0.20896 c -0.0077,-0.0283 -0.01374,-0.004 -0.01374,0.0521 0,0.0574 0.0065,0.0809 0.01374,0.0522 0.0077,-0.0283 0.0077,-0.0756 0,-0.10428 z m 0.02991,-0.20856 c -0.0077,-0.0283 -0.01334,-0.004 -0.01334,0.0521 0,0.0574 0.0065,0.0809 0.01334,0.0522 0.0077,-0.0283 0.0077,-0.0756 0,-0.10428 z m 0.02991,-0.23847 c -0.0077,-0.0283 -0.01334,0.002 -0.01293,0.0675 3.28e-4,0.0655 0.0065,0.0889 0.01334,0.0522 0.0072,-0.0364 0.0069,-0.0905 -6.02e-4,-0.11924 z m 0.03031,-0.253 c -0.0072,-0.0364 -0.01293,-0.008 -0.01293,0.067 0,0.0735 0.0061,0.10388 0.01293,0.0671 0.0072,-0.0364 0.0072,-0.0974 0,-0.13378 z m 0.03031,-0.31284 c -0.0069,-0.0448 -0.01253,-0.008 -0.01253,0.0816 0,0.0901 0.0052,0.12691 0.01253,0.0816 0.0069,-0.0448 0.0069,-0.11883 0,-0.1641 z m 0.03031,-0.46068 c -0.0065,-0.0699 -0.01131,-0.0202 -0.01172,0.11115 -1.21e-4,0.13095 0.0049,0.18834 0.01131,0.12731 0.0065,-0.061 0.0065,-0.16814 2.06e-4,-0.23806 z m 0.03031,-0.95205 c -0.0052,-0.1358 -0.0101,-0.0324 -0.0101,0.22918 -2.8e-5,0.2619 0.0045,0.37305 0.0101,0.24695 0.0052,-0.12611 0.0052,-0.34032 6.1e-5,-0.47637 z m -0.03031,-0.71511 c -0.0065,-0.0699 -0.01131,-0.0202 -0.01172,0.11074 -1.21e-4,0.13096 0.0049,0.18835 0.01131,0.12732 0.0065,-0.0606 0.0065,-0.16814 2.06e-4,-0.23806 z m -0.03031,-0.40297 c -0.0069,-0.0449 -0.01253,-0.008 -0.01253,0.0816 0,0.0901 0.0052,0.12691 0.01253,0.0816 0.0069,-0.0449 0.0069,-0.11884 0,-0.16369 z m -0.03031,-0.28292 c -0.0072,-0.0364 -0.01293,-0.008 -0.01293,0.0671 0,0.074 0.0061,0.10387 0.01293,0.0671 0.0072,-0.0364 0.0072,-0.0974 0,-0.13419 z m -0.03031,-0.25342 c -0.0077,-0.0283 -0.01334,-0.004 -0.01334,0.0522 0,0.0574 0.0065,0.0809 0.01334,0.0521 0.0077,-0.0283 0.0077,-0.0756 0,-0.10427 z m -0.02991,-0.20856 c -0.0077,-0.0283 -0.01334,-0.004 -0.01334,0.0522 0,0.0574 0.0065,0.0808 0.01334,0.0522 0.0077,-0.0283 0.0077,-0.0756 0,-0.10428 z m -0.02991,-0.20815 c -0.0077,-0.0283 -0.01374,-0.004 -0.01374,0.0522 0,0.0574 0.0065,0.0809 0.01374,0.0521 0.0077,-0.0283 0.0077,-0.0756 0,-0.10428 z m -0.02991,-0.17824 c -0.0077,-0.0283 -0.01414,-0.0121 -0.01455,0.0364 -6.1e-4,0.049 0.0052,0.0728 0.01374,0.0529 0.0081,-0.0202 0.0089,-0.0602 0.0011,-0.0893 z m -0.03072,-0.1645 c -0.0085,-0.0202 -0.01495,-0.003 -0.01495,0.0364 0,0.042 0.0069,0.0578 0.01495,0.0364 0.0085,-0.0202 0.0085,-0.0542 0,-0.0744 z m -0.04947,-0.27525 c -0.02061,-0.10792 -0.04272,-0.19037 -0.04967,-0.18349 -0.0072,0.008 0.0037,0.10104 0.02345,0.20976 0.02021,0.10833 0.04227,0.19077 0.04967,0.1835 0.0072,-0.008 -0.0033,-0.10185 -0.02345,-0.20977 z m -0.07606,-0.35568 c -0.01131,-0.0594 -0.02628,-0.10266 -0.03355,-0.095 -0.0072,0.008 -0.004,0.0622 0.0072,0.12206 0.01131,0.0598 0.02628,0.10266 0.03355,0.0958 0.0072,-0.008 0.004,-0.0623 -0.0072,-0.12206 z m -0.05246,-0.20087 c -0.0097,-0.0243 -0.01617,-0.0162 -0.01819,0.0162 -0.0013,0.0283 0.0061,0.0489 0.01536,0.0364 0.0101,-0.008 0.01091,-0.0323 0.0024,-0.057 z m -0.02991,-0.11924 c -0.0097,-0.0243 -0.01657,-0.0162 -0.01819,0.0162 -0.0013,0.0283 0.0061,0.0489 0.01536,0.0364 0.0101,-0.008 0.01091,-0.0324 0.0024,-0.057 z m -0.02991,-0.11923 c -0.0097,-0.0243 -0.01617,-0.0162 -0.01819,0.0162 -0.0013,0.0283 0.0061,0.0489 0.01536,0.0364 0.0101,-0.008 0.01091,-0.0323 0.0024,-0.057 z m -0.03718,-0.15601 c -0.01091,-0.0436 -0.02547,-0.0731 -0.03274,-0.0667 -0.0072,0.008 -0.0038,0.0485 0.0072,0.0922 0.01091,0.0436 0.02547,0.0735 0.03274,0.0667 0.0072,-0.008 0.0038,-0.0485 -0.0072,-0.0922 z m -0.05954,-0.20815 c -0.01091,-0.0436 -0.02547,-0.0731 -0.03274,-0.0667 -0.0072,0.008 -0.0038,0.0485 0.0072,0.0922 0.01091,0.0436 0.02547,0.0731 0.03274,0.0667 0.0072,-0.008 0.0038,-0.0485 -0.0072,-0.0922 z m -0.07502,-0.25221 c -0.02021,-0.0671 -0.04207,-0.11641 -0.04879,-0.10994 -0.0069,0.008 0.004,0.0671 0.02425,0.13419 0.02021,0.0671 0.04207,0.11641 0.04879,0.10994 0.0069,-0.008 -0.004,-0.0671 -0.02425,-0.13459 z m -0.20896,-0.62458 c -0.01859,-0.053 -0.0384,-0.0905 -0.0449,-0.0841 -0.0065,0.008 0.0034,0.0546 0.02183,0.10711 0.01859,0.0529 0.0384,0.0905 0.04494,0.0841 0.0065,-0.008 -0.0034,-0.0546 -0.02183,-0.10711 z m -0.192511,-0.50716 c -0.06006,-0.14995 -0.114018,-0.26797 -0.119879,-0.26191 -0.0061,0.004 0.03799,0.13379 0.09813,0.28373 0.05982,0.15036 0.113777,0.26838 0.11988,0.26192 0.0065,-0.004 -0.03799,-0.13379 -0.09813,-0.28374 z m -0.187781,-0.43857 c -0.03314,-0.063 -0.06095,-0.10469 -0.06172,-0.093 -0.0021,0.0323 0.09753,0.2324 0.110382,0.21946 0.0065,-0.008 -0.01536,-0.0634 -0.04866,-0.1261 z"
       id="path4523"
       inkscape:connector-curvature="0" />
    <path
       style="fill:#e69f00;fill-opacity:1;stroke-width:0.02977099"
       d="m 49.12871,239.03477 c -1.281056,-0.7339 -2.550488,-1.74806 -3.500162,-2.79627 -1.610955,-1.7781 -2.713789,-3.77316 -3.348216,-6.05705 l -0.09033,-0.32537 v -3.51752 -3.51753 l 0.09086,-0.32536 c 0.447773,-1.6029 1.064917,-2.95277 1.972553,-4.31453 0.877556,-1.31665 2.049157,-2.55526 3.340035,-3.53119 1.83356,-1.38617 4.053814,-2.34581 6.326341,-2.73438 0.937451,-0.16006 1.342887,-0.19199 2.475993,-0.19321 l 1.032107,-8.4e-4 3.43298,-5.94676 3.432979,-5.94676 h 7.406105 c 4.073356,0 7.406104,0.004 7.406104,0.0121 0,0.008 -0.165471,0.29788 -0.367722,0.64754 -3.89203,6.72553 -10.171182,17.62958 -10.171182,17.66272 0,0.0243 0.09106,0.18875 0.202412,0.36498 0.219509,0.3484 0.421764,0.70097 0.649604,1.13226 l 0.145343,0.27485 20.862034,3.2e-4 20.862032,2.8e-4 v 6.41565 6.41564 H 90.433387 69.578191 l 0.06014,-0.11761 c 0.03314,-0.065 0.05986,-0.12813 0.05949,-0.14146 -3.59e-4,-0.0121 -0.132045,0.23119 -0.292705,0.54212 -0.745936,1.44478 -1.485915,2.45317 -2.66684,3.6341 -1.002646,1.00264 -1.828557,1.64286 -3.006931,2.33093 l -0.414816,0.24251 H 56.40556 49.494618 l -0.365862,-0.20977 z m 20.687866,-6.80143 c 0,-0.0162 -0.01293,-0.008 -0.0291,0.0162 -0.01576,0.0243 -0.0291,0.0582 -0.0291,0.0744 0,0.0162 0.01293,0.008 0.0291,-0.0162 0.01576,-0.0243 0.0291,-0.0582 0.0291,-0.0744 z m 0.10157,-0.21018 c 0.0101,-0.0243 0.0049,-0.0364 -0.01172,-0.0283 -0.01617,0.008 -0.0295,0.0283 -0.0295,0.0461 0,0.0429 0.02142,0.0324 0.0411,-0.0162 z m 0.07704,-0.20653 c 0,-0.0162 -0.01293,-0.008 -0.0291,0.0162 -0.01576,0.0243 -0.0291,0.0582 -0.0291,0.0744 0,0.0162 0.01293,0.008 0.0291,-0.0162 0.01576,-0.0243 0.0291,-0.0578 0.0291,-0.0744 z m 0.05953,-0.14874 c 0,-0.0162 -0.01293,-0.008 -0.0291,0.0162 -0.01576,0.0243 -0.0291,0.0582 -0.0291,0.0744 0,0.0162 0.01293,0.008 0.0291,-0.0162 0.01576,-0.0243 0.0291,-0.0582 0.0291,-0.0744 z m 0.192268,-0.52098 c 0.01374,-0.0517 0.01131,-0.0607 -0.0077,-0.0283 -0.01495,0.0243 -0.03638,0.078 -0.04749,0.11924 -0.01374,0.0513 -0.01131,0.0607 0.0077,0.0283 0.01495,-0.0243 0.03638,-0.0784 0.04749,-0.11923 z m 0.60305,-2.38724 c -0.0097,-0.0243 -0.01617,-0.0162 -0.01819,0.0162 -0.0013,0.0283 0.0061,0.0489 0.01536,0.0364 0.0101,-0.008 0.01091,-0.0324 0.0024,-0.057 z m 0.05954,-0.3868 c -0.0097,-0.0243 -0.01617,-0.0162 -0.01819,0.0162 -0.0013,0.0283 0.0061,0.0489 0.01536,0.0364 0.0101,-0.008 0.01091,-0.0324 0.0024,-0.057 z m 0.02991,-0.23806 c -0.0097,-0.0243 -0.01617,-0.0162 -0.01819,0.0162 -0.0013,0.0283 0.0061,0.0489 0.01536,0.0364 0.0101,-0.008 0.01091,-0.0324 0.0024,-0.0569 z m 0.0291,-0.26959 c -0.0085,-0.0202 -0.01495,-0.003 -0.01495,0.0364 0,0.042 0.0069,0.0578 0.01495,0.0364 0.0085,-0.0202 0.0085,-0.0542 0,-0.074 z m 0.02991,-0.29748 c -0.0085,-0.0202 -0.01495,-0.003 -0.01495,0.0364 0,0.042 0.0069,0.0578 0.01495,0.0364 0.0085,-0.0202 0.0085,-0.0542 0,-0.0748 z m 0.03072,-0.43166 c -0.0077,-0.0283 -0.01334,-0.004 -0.01334,0.0522 0,0.0574 0.0065,0.0809 0.01334,0.0521 0.0077,-0.0283 0.0077,-0.0756 0,-0.10427 z m 0.03072,-0.86296 c -0.0069,-0.0452 -0.01253,-0.0162 -0.01293,0.0667 -2.35e-4,0.0816 0.0052,0.11924 0.01253,0.082 0.0072,-0.0364 0.0072,-0.10347 4.08e-4,-0.14874 z m -0.03072,-0.80419 c -0.0077,-0.0283 -0.01334,-0.004 -0.01334,0.0522 0,0.0574 0.0065,0.0809 0.01334,0.0521 0.0077,-0.0283 0.0077,-0.0756 0,-0.10387 z m -0.03072,-0.43171 c -0.0085,-0.0202 -0.01495,-0.003 -0.01495,0.0364 0,0.042 0.0069,0.0578 0.01495,0.0364 0.0085,-0.0202 0.0085,-0.0542 0,-0.0748 z m -0.02991,-0.29747 c -0.0085,-0.0202 -0.01495,-0.004 -0.01495,0.0364 0,0.042 0.0069,0.0578 0.01495,0.0364 0.0085,-0.0202 0.0085,-0.0542 0,-0.0748 z m -0.02991,-0.26797 c -0.0085,-0.0202 -0.01495,-0.004 -0.01495,0.0364 0,0.042 0.0069,0.0578 0.01495,0.0364 0.0085,-0.0202 0.0085,-0.0542 0,-0.0744 z m -0.0291,-0.20654 c -0.0097,-0.0243 -0.01617,-0.0162 -0.01819,0.0162 -0.0013,0.0283 0.0061,0.049 0.01536,0.0364 0.0101,-0.008 0.01091,-0.0324 0.0024,-0.057 z m -0.05954,-0.3868 c -0.0097,-0.0243 -0.01617,-0.0162 -0.01819,0.0162 -0.0013,0.0283 0.0061,0.0489 0.01536,0.0364 0.0101,-0.008 0.01091,-0.0324 0.0024,-0.057 z m -0.05953,-0.32738 c -0.0097,-0.0243 -0.01617,-0.0162 -0.01819,0.0162 -0.0013,0.0283 0.0061,0.049 0.01536,0.0364 0.0101,-0.008 0.01091,-0.0324 0.0024,-0.057 z m -0.02991,-0.14874 c -0.0097,-0.0243 -0.01657,-0.0162 -0.01819,0.0162 -0.0013,0.0283 0.0061,0.049 0.01536,0.0364 0.0101,-0.008 0.01091,-0.0324 0.0024,-0.057 z M 70.40334,222.0031 c -0.0097,-0.0243 -0.01617,-0.0162 -0.01819,0.0162 -0.0013,0.0283 0.0061,0.0489 0.01536,0.0364 0.0101,-0.008 0.01091,-0.0323 0.0024,-0.057 z m -0.225094,-0.66945 c -0.03516,-0.0602 -0.04357,-0.042 -0.01455,0.0324 0.0101,0.0243 0.02466,0.042 0.03274,0.0323 0.0077,-0.008 -2.63e-4,-0.0364 -0.01778,-0.0683 z m -0.357254,-0.89315 c -0.03516,-0.0602 -0.04357,-0.042 -0.01455,0.0323 0.0101,0.0243 0.02466,0.042 0.03233,0.0324 0.0077,-0.008 -2.63e-4,-0.0364 -0.01778,-0.0683 z m -0.134066,-0.29707 c -0.02506,-0.0465 -0.04632,-0.0751 -0.04701,-0.0639 -0.002,0.0324 0.06725,0.1734 0.08039,0.16046 0.0069,-0.008 -0.0085,-0.0505 -0.03355,-0.097 z"
       id="path4525"
       inkscape:connector-curvature="0" />
    <path
       style="fill:#e69f00;fill-opacity:1;stroke-width:0.94309723"
       id="path4527"
       d="m 126.14863,107.28189 c -0.081,0.17258 -0.17517,0.3383 -0.27961,0.49774 -0.0779,0.13015 -0.16878,0.251 -0.26324,0.36902 -0.29566,0.34961 -0.48301,0.36699 -1.00626,0.65521 -0.11988,-0.10589 -0.12804,-0.28333 -0.14765,-0.43299 -0.006,-0.17784 -0.0415,-0.34841 -0.0863,-0.51949 -0.0463,-0.12934 -0.0848,-0.2607 -0.10594,-0.39731 -0.0173,-0.14025 -0.0153,-0.28212 -0.0153,-0.42322 0.007,-0.16207 0.0529,-0.3197 0.10295,-0.47309 0.0351,-0.11883 0.10153,-0.22432 0.1491,-0.33749 0.11033,-0.32779 -0.0654,-0.0772 0.81308,-0.3965 0.019,-0.008 -0.0153,0.0364 -0.0238,0.0558 -0.0308,0.0679 -0.0328,0.0707 -0.0684,0.14268 -0.11556,0.2134 -0.27553,0.39771 -0.43588,0.57842 -0.12242,0.15641 -0.27039,0.28737 -0.41687,0.42067 -0.0935,0.076 -0.18034,0.16046 -0.25152,0.25827 -1.10132,1.19398 -0.80784,0.3484 -0.7229,0.0364 0.0582,-0.21138 0.12607,-0.41994 0.19793,-0.627 0.0537,-0.1447 0.10493,-0.2906 0.16385,-0.4332 0.005,-0.0121 0.004,-0.0283 0.0153,-0.0364 0.26206,-0.14591 0.51852,-0.30556 0.79675,-0.41797 0.0279,-0.0121 0.0234,0.0566 0.0263,0.0869 0.008,0.08 -0.0725,0.17259 -0.11163,0.23241 -0.13055,0.17986 -0.29505,0.32981 -0.46374,0.4724 -0.13006,0.10872 -0.25313,0.22513 -0.39233,0.32253 -0.38183,0.23726 -0.76523,0.47516 -1.17548,0.6595 -0.0291,0.008 -0.051,0.0243 -0.0715,-0.0121 -0.0637,-0.10832 -0.003,-0.14227 0.0671,-0.21785 0.11911,-0.12085 0.22634,-0.25302 0.33919,-0.37993 0.11079,-0.13459 0.2193,-0.2704 0.33603,-0.40054 0.13807,-0.13338 0.28479,-0.25504 0.41444,-0.3969 0.11523,-0.11237 0.19716,-0.24453 0.26045,-0.39085 0.056,-0.14671 0.12926,-0.28373 0.20957,-0.41796 0.0303,-0.0533 0.047,-0.0752 0.0655,-0.13095 0.003,-0.0121 0.005,-0.042 0.006,-0.0323 6e-4,0.0121 0.004,0.0323 -0.005,0.0424 -0.0182,0.0202 -0.16539,0.0889 -0.16781,0.0901 -0.25269,0.12732 -0.88312,0.47786 0.2206,-0.13904 0.0621,-0.0364 -0.12206,0.0724 -0.18285,0.10954 -0.18407,0.11155 -0.1689,0.10306 -0.34493,0.21542 -0.4611,0.31809 -1.82531,1.02872 -0.36998,0.22756 0.0324,-0.0162 -0.0611,0.042 -0.0915,0.063 -0.0178,0.0121 -0.13087,0.0926 -0.1514,0.10711 -0.12461,0.0909 -0.2208,0.21502 -0.30188,0.34517 -0.0655,0.12166 -0.12659,0.24453 -0.19631,0.36376 -0.0687,0.10509 -0.14951,0.20249 -0.21717,0.30799 0.15189,-0.008 0.34117,-0.0845 0.49548,-0.13904 0.36199,-0.13459 0.72624,-0.26555 1.08074,-0.41841 0.28592,-0.1354 0.82879,-0.44637 -0.4345,0.26555 -0.0238,0.0121 0.0463,-0.0283 0.0687,-0.044 0.0372,-0.0243 0.0805,-0.0614 0.11604,-0.0905 0.0638,-0.0529 0.0328,-0.0242 0.093,-0.082 0,0 0.81539,-0.3383 0.81539,-0.3383 v 0 c -0.0585,0.0631 -0.0287,0.0323 -0.0901,0.093 -0.0614,0.0465 -0.11774,0.10832 -0.18427,0.14712 -0.35474,0.20815 -0.69067,0.42402 -1.06416,0.5861 -0.35823,0.1447 -0.71935,0.28212 -1.08287,0.41291 -0.13741,0.0465 -0.4722,0.19926 -0.59111,0.042 -0.0153,-0.0202 -0.0194,-0.0473 -0.0291,-0.0711 0.0351,-0.0808 0.0932,-0.13621 0.14069,-0.20937 0.0125,-0.0162 0.021,-0.042 0.0344,-0.0602 0.0117,-0.0162 0.0267,-0.0323 0.0404,-0.0469 0.0818,-0.11075 0.13613,-0.23766 0.20019,-0.35932 0.0731,-0.14186 0.17335,-0.27241 0.28951,-0.38114 0.0805,-0.0578 0.16224,-0.12529 0.247,-0.17662 1.00638,-0.60575 1.17061,-0.67535 0.23389,-0.14147 -0.05,0.0283 0.0979,-0.0602 0.14685,-0.0905 0.58108,-0.37346 1.17513,-0.73173 1.79392,-1.03878 0.0491,-0.0162 0.15164,-0.0724 0.21486,-0.0505 0.12707,0.0457 0.0476,0.19117 0.007,0.26312 -0.0767,0.13378 -0.16374,0.26029 -0.21325,0.40789 -0.0653,0.15076 -0.12727,0.30193 -0.25059,0.41797 -0.12828,0.14469 -0.26365,0.27847 -0.41604,0.39811 -0.11818,0.12772 -0.23135,0.25989 -0.33579,0.39933 -0.11357,0.12489 -0.21987,0.25585 -0.33397,0.37993 -0.008,0.008 -0.0877,0.10589 -0.10663,0.0978 -0.0234,-0.0121 -0.0633,-0.0449 -0.0447,-0.0622 0.009,-0.008 0.0222,-0.0121 0.0328,-0.0121 0.28062,-0.12247 0.6384,-0.35608 -0.54173,0.33062 -0.0153,0.0121 0.062,-0.0364 0.14187,-0.0845 0.021,-0.0121 0.0419,-0.0283 0.0628,-0.042 0.15133,-0.0788 0.26963,-0.2025 0.40003,-0.31082 0.16842,-0.13944 0.33688,-0.27929 0.47412,-0.4509 0.008,-0.0121 0.11099,-0.17501 0.12368,-0.18067 0.009,-0.004 0.0189,0.0121 0.0271,0.0121 0.25499,-0.13783 0.50181,-0.29101 0.75447,-0.43304 0.01,-0.008 -0.0162,0.0121 -0.0247,0.0202 -0.0757,0.13419 -0.11284,0.28737 -0.17464,0.42798 -0.0765,0.2033 -0.14316,0.41 -0.19991,0.61965 -0.13984,0.5382 -0.008,0.26635 -0.89268,0.704 -0.005,0.003 0.006,-0.0121 0.009,-0.0121 0.0791,-0.0954 0.14797,-0.20168 0.2495,-0.27645 0.1544,-0.12489 0.30503,-0.25868 0.43,-0.41376 0.15905,-0.1738 0.31983,-0.35042 0.43708,-0.55639 0.008,-0.0121 0.0895,-0.18188 0.091,-0.18269 1.51932,-0.8139 0.90528,-0.65247 0.79189,-0.35204 -0.0368,0.11964 -0.10885,0.22028 -0.15279,0.33668 -0.0494,0.14591 -0.10144,0.29384 -0.11612,0.44775 3.6e-4,0.13701 -1.6e-4,0.27484 0.0125,0.41125 0.0166,0.13419 0.0518,0.26312 0.0987,0.39044 0.0434,0.17541 0.0882,0.3484 0.0891,0.53 8.2e-4,0.008 0.0487,0.36456 0.0754,0.30151 -0.24376,0.14106 -0.48756,0.28172 -0.73134,0.42217 0.0489,-0.0202 0.0471,-0.0162 0.0896,-0.0574 0.0457,-0.0436 0.0799,-0.0986 0.13233,-0.13459 0.0974,-0.11559 0.19368,-0.23281 0.27032,-0.36295 0.10609,-0.15238 0.20265,-0.31082 0.28054,-0.47992 0,0 0.80339,-0.36942 0.80339,-0.36942 z"
       inkscape:connector-curvature="0" />
    <path
       style="fill:#e69f00;fill-opacity:1;stroke-width:0.94309723"
       id="path4529"
       d="m 125.3375,107.6315 c 0.041,0.0202 0.0832,0.0364 0.12267,0.0639 0.0259,0.0162 0.0512,0.0364 0.0785,0.0546 0.0299,0.0121 0.0613,0.0202 0.0894,0.0364 0.0259,0.0162 0.0552,0.0283 0.0821,0.0441 0.0319,0.0121 0.0596,0.0323 0.0885,0.0481 0.0348,0.0202 0.07,0.0428 0.10921,0.0562 0.0328,0.0121 0.061,0.0323 0.092,0.0444 0.0295,0.008 0.0552,0.0202 0.082,0.0364 0.0315,0.0121 0.0634,0.0202 0.0949,0.0323 0.0323,0.0121 0.0648,0.0121 0.0973,0.0202 0.0371,0.008 0.0705,0.0283 0.10654,0.042 0.0351,0.0121 0.0682,0.0364 0.10233,0.0546 0.0315,0.0162 0.062,0.0364 0.0908,0.0602 0.0307,0.0162 0.0578,0.042 0.0863,0.0606 0.0303,0.0202 0.062,0.042 0.0975,0.0525 0.0364,0.0121 0.0707,0.0323 0.10695,0.0485 0.0384,0.0121 0.0751,0.0283 0.11354,0.042 0.0388,0.004 0.0748,0.0162 0.10989,0.0364 0.0348,0.0162 0.0724,0.0283 0.10788,0.0428 0.0364,0.0162 0.0764,0.0243 0.11414,0.0364 0.0344,0.0121 0.0679,0.0202 0.10225,0.0323 0.0275,0.0121 0.0591,0.0162 0.089,0.0243 0.0335,0.008 0.0648,0.0242 0.097,0.0364 0.0388,0.0121 0.0762,0.0283 0.11491,0.042 0.0331,0.004 0.065,0.0162 0.0982,0.0202 0.0315,0.004 0.0616,0.0121 0.0933,0.0162 0.0311,0.008 0.0623,0.0121 0.0942,0.0162 0.0308,4.5e-4 0.0602,0.002 0.0902,0.008 0.0299,0.008 0.0608,0.008 0.0908,0.0121 0.034,0.008 0.0666,0.0162 0.101,0.0243 0.0344,0.0121 0.0691,0.0162 0.1027,0.0283 0.0307,0.0162 0.0628,0.0323 0.091,0.0513 0.0182,0.0121 0.0319,0.0243 0.0459,0.0364 0,0 -0.18815,0.11519 -0.18815,0.11519 v 0 c -0.0133,-0.0121 -0.027,-0.0242 -0.044,-0.0364 -0.0271,-0.0162 -0.0571,-0.0323 -0.0871,-0.0465 -0.0331,-0.0121 -0.0668,-0.0202 -0.10105,-0.0283 -0.0339,-0.008 -0.0664,-0.0162 -0.10052,-0.0202 -0.0307,-0.003 -0.0612,-0.008 -0.0913,-0.0121 -0.0299,-0.004 -0.0596,-0.003 -0.0893,-0.008 -0.0319,-0.004 -0.0629,-0.0121 -0.0944,-0.0162 -0.0319,-0.004 -0.0623,-0.0121 -0.0939,-0.0162 -0.0335,-0.008 -0.0665,-0.0162 -0.0998,-0.0243 -0.0384,-0.0121 -0.0765,-0.0283 -0.11556,-0.042 -0.0315,-0.0121 -0.0617,-0.0283 -0.0952,-0.0364 -0.0311,-0.008 -0.0617,-0.0121 -0.0907,-0.0243 -0.0339,-0.0121 -0.0677,-0.0202 -0.10144,-0.0323 -0.0384,-0.0121 -0.0785,-0.0202 -0.1156,-0.0364 -0.036,-0.0121 -0.073,-0.0243 -0.10759,-0.0441 -0.0351,-0.0121 -0.0717,-0.0243 -0.10913,-0.0323 -0.038,-0.0121 -0.0758,-0.0283 -0.11398,-0.0424 -0.0356,-0.0121 -0.0706,-0.0323 -0.10687,-0.0477 -0.036,-0.0121 -0.0696,-0.0364 -0.1014,-0.057 -0.0275,-0.0202 -0.0559,-0.0424 -0.0858,-0.0606 -0.0287,-0.0202 -0.0585,-0.0364 -0.089,-0.0574 -0.0328,-0.0162 -0.0654,-0.0364 -0.10044,-0.0521 -0.0344,-0.0121 -0.068,-0.0323 -0.10501,-0.0364 -0.0331,-0.008 -0.0666,-0.0121 -0.0985,-0.0242 -0.0328,-0.0121 -0.0655,-0.0202 -0.0972,-0.0364 -0.0267,-0.0121 -0.0541,-0.0242 -0.082,-0.0364 -0.0299,-0.0121 -0.0582,-0.0323 -0.0901,-0.0436 -0.0392,-0.0121 -0.0754,-0.0364 -0.11184,-0.059 -0.0287,-0.0162 -0.0579,-0.0323 -0.0881,-0.0473 -0.027,-0.0121 -0.0557,-0.0283 -0.082,-0.0437 -0.0295,-0.0121 -0.0615,-0.0242 -0.0901,-0.0364 -0.0271,-0.0162 -0.0509,-0.0364 -0.0775,-0.055 -0.04,-0.0243 -0.0818,-0.0424 -0.1232,-0.063 0,0 0.18521,-0.12044 0.18521,-0.12044 z"
       inkscape:connector-curvature="0" />
    <path
       style="fill:#e69f00;fill-opacity:1;stroke-width:0.94309723"
       id="path4531"
       d="m 128.3292,109.07434 c -0.0474,10e-4 -0.0929,5.7e-4 -0.13766,-0.0121 -0.0351,-0.0121 -0.068,-0.0323 -0.10153,-0.0517 -0.0323,-0.0121 -0.0658,-0.0242 -0.099,-0.0364 -0.0335,-0.0121 -0.0701,-0.0121 -0.10444,-0.0202 -0.0133,-0.003 -0.0267,-0.008 -0.04,-0.0121 0,0 0.18281,-0.12448 0.18281,-0.12448 v 0 c 0.0125,0.003 0.025,0.008 0.038,0.0121 0.0351,0.008 0.0711,0.0121 0.10497,0.0202 0.0344,0.0121 0.0697,0.0202 0.10153,0.0364 0.0328,0.0162 0.0638,0.0364 0.0989,0.0489 0.044,0.0121 0.0891,0.0121 0.13459,0.0121 0,0 -0.17872,0.12934 -0.17872,0.12934 z"
       inkscape:connector-curvature="0" />
    <path
       style="fill:#e69f00;fill-opacity:1;stroke-width:0.94309723"
       id="path4533"
       d="m 128.49184,108.9058 c 0.0392,0.0162 0.0826,0.0243 0.12412,0.0364 0.0335,0.0121 0.0646,0.0283 0.099,0.0364 0.0255,0.0121 0.05,0.0243 0.0772,0.0323 0.0348,0.004 0.0663,0.0202 0.099,0.0323 0.0356,0.008 0.0703,0.0202 0.10493,0.0323 0.0311,0.0121 0.0629,0.0121 0.0945,0.0202 0.0324,0.008 0.0652,0.008 0.0981,0.0121 0.0279,-0.002 0.0549,0.008 0.0824,0.0121 0.0299,0.004 0.0593,0.004 0.089,0.004 0.0323,0.008 0.0646,0.0121 0.0972,0.0121 0.0254,0.008 0.0515,0.0121 0.078,0.0121 0.0231,-0.002 0.04,0.0121 0.0591,0.0202 0.0126,0.008 0.0198,0.008 0.0328,0.0121 0.0328,0.0121 0.0665,0.0242 0.0992,0.0364 0.0247,0.0121 0.0518,0.0121 0.078,0.0162 0.0459,0.0833 0.0202,0.0202 -0.18645,0.13136 -0.003,0.002 -0.008,-0.003 -0.0109,-0.004 -0.0153,-0.004 -0.0311,-0.008 -0.0461,-0.0121 -0.0323,-0.0121 -0.0649,-0.0121 -0.098,-0.0121 -0.0335,-2e-4 -0.0666,-0.002 -0.0998,-0.008 -0.0476,-0.0121 -0.0976,-0.0121 -0.14607,-0.0243 -0.0247,-0.008 -0.0631,-0.004 -0.0791,-0.0283 -0.003,-0.004 -0.003,-0.008 -0.005,-0.0121 0.22387,-0.14307 0.13237,-0.13216 0.28001,-0.0982 0.0392,0.008 0.0782,0.0162 0.11802,0.0202 0.0482,0.004 0.0968,0.004 0.14518,0.008 0.0323,0.008 0.0658,0.008 0.0974,0.0121 0.0279,0.008 0.057,0.0121 0.086,0.0121 0.0299,0.001 0.059,0.001 0.0886,0.001 0.0299,9.2e-4 0.0604,-0.003 0.0901,0.003 0.0344,0.004 0.0677,0.0121 0.10189,0.0202 0.034,0.008 0.0686,0.003 0.10238,0.008 0.0335,0.004 0.0632,0.0202 0.0948,0.0323 0.0287,0.008 0.0581,0.0121 0.0876,0.0121 0.0303,0.008 0.0592,0.0162 0.0903,0.0242 0.0295,0.004 0.0586,0.004 0.0881,0.004 0.0299,8e-5 0.0595,-8e-5 0.0892,-1.2e-4 0.0299,-4e-5 0.0596,-8e-5 0.0893,-8e-5 0.0307,6.9e-4 0.0613,-0.002 0.0916,0.003 0.0392,0.002 0.0735,0.0162 0.10775,0.0364 0.0315,0.0121 0.0617,0.0323 0.0921,0.0489 0.0251,0.0121 0.0537,0.0121 0.082,0.0162 0.0295,9.3e-4 0.0586,5.7e-4 0.0879,4.4e-4 0.0198,-1.2e-4 0.0101,9.3e-4 0.0291,-0.003 0,0 -0.177,0.13216 -0.177,0.13216 v 0 c -0.0206,0.001 -0.0105,7.7e-4 -0.0307,8.1e-4 -0.0299,8e-5 -0.0594,4.5e-4 -0.0891,-0.002 -0.0307,-0.003 -0.0604,-0.0121 -0.087,-0.0243 -0.0299,-0.0162 -0.0607,-0.0323 -0.0915,-0.0485 -0.0323,-0.0162 -0.0665,-0.0243 -0.10315,-0.0283 -0.0303,-0.001 -0.0604,-4.9e-4 -0.0905,-6.9e-4 -0.0299,0 -0.0596,4e-5 -0.0893,8e-5 -0.0299,8e-5 -0.0596,2.4e-4 -0.0894,-2.4e-4 -0.0303,-7.3e-4 -0.0608,-0.002 -0.0905,-0.008 -0.0299,-0.008 -0.0578,-0.0202 -0.0882,-0.0202 -0.0312,-0.002 -0.0619,-0.004 -0.0911,-0.0162 -0.0299,-0.0121 -0.0596,-0.0243 -0.092,-0.0283 -0.0344,-0.003 -0.0694,-0.003 -0.10335,-0.0121 -0.0335,-0.008 -0.0667,-0.0162 -0.10112,-0.0162 -0.0299,-0.001 -0.0591,-2.4e-4 -0.0886,-5.6e-4 -0.0299,-1.2e-4 -0.0597,-1.6e-4 -0.0895,-0.002 -0.0299,-0.003 -0.059,-0.008 -0.0879,-0.0121 -0.0311,-0.004 -0.0622,-0.0121 -0.0937,-0.0121 -0.0489,-9.2e-4 -0.0981,-0.001 -0.14676,-0.008 -0.0404,-0.008 -0.0798,-0.0121 -0.11956,-0.0202 -0.0189,-0.004 -0.0376,-0.0121 -0.0571,-0.0121 -0.004,-6e-4 -0.01,-0.002 -0.0146,-0.001 -0.003,3.6e-4 -0.0117,0.004 -0.009,0.003 0.06,-0.0364 0.12072,-0.0772 0.1811,-0.1156 -0.002,-0.002 -0.004,-0.003 -0.006,-0.004 -0.002,-10e-4 0.003,0.003 0.005,0.004 0.0142,0.008 0.0307,0.0121 0.046,0.0121 0.007,10e-4 0.013,0.003 0.0194,0.004 0.0488,0.008 0.0981,0.0121 0.14648,0.0202 0.0331,0.004 0.0661,0.003 0.0993,0.008 0.034,0.003 0.0669,0.0121 0.0996,0.0162 0.0202,0.004 0.0126,0.003 0.0323,0.008 0.004,7.2e-4 0.009,0.002 0.0137,0.002 0.003,1.2e-4 0.0101,-0.002 0.008,-10e-4 -0.18887,0.11802 -0.22509,0.0517 -0.17465,0.12813 -0.0267,-0.008 -0.0537,-0.0121 -0.0788,-0.0202 -0.0331,-0.0121 -0.0657,-0.0243 -0.0987,-0.0364 -0.0299,-0.0121 -0.0565,-0.0283 -0.0895,-0.0283 -0.0259,-0.003 -0.0516,-0.0121 -0.0775,-0.0121 -0.0324,-0.003 -0.0639,-0.0121 -0.0961,-0.0121 -0.0307,-6.5e-4 -0.0613,-0.001 -0.0915,-0.008 -0.0267,-0.004 -0.053,-0.0121 -0.0804,-0.008 -0.0335,-0.002 -0.0669,-0.004 -0.0997,-0.0121 -0.0323,-0.008 -0.0656,-0.0121 -0.0965,-0.0202 -0.0344,-0.0121 -0.0698,-0.0202 -0.10468,-0.0323 -0.0323,-0.0121 -0.0647,-0.0242 -0.099,-0.0323 -0.0263,-0.0121 -0.0508,-0.0202 -0.0771,-0.0323 -0.0331,-0.0121 -0.0642,-0.0283 -0.0979,-0.0364 -0.0422,-0.0121 -0.0841,-0.0202 -0.1253,-0.0364 0,0 0.18245,-0.12489 0.18245,-0.12489 z"
       inkscape:connector-curvature="0" />
    <path
       style="fill:#e69f00;fill-opacity:1;stroke-width:0.94309723"
       id="path4535"
       d="m 129.68377,109.41668 c -0.0656,0.001 -0.13094,-0.004 -0.19643,-0.008 -0.0726,-0.004 -0.14509,-0.0121 -0.21696,-0.0202 -0.0407,-0.0121 -0.0825,-0.008 -0.12311,-0.0121 -0.0388,-0.008 -0.0755,-0.0202 -0.1097,-0.0364 -0.0331,-0.0202 -0.0685,-0.0364 -0.10379,-0.0509 -0.0376,-0.0162 -0.0773,-0.0283 -0.11753,-0.0364 -0.002,1.2e-4 -0.008,0.001 -0.005,4e-4 0.0659,-0.042 0.1293,-0.0869 0.19895,-0.12044 0.009,-0.004 0.0198,0.008 0.0295,0.008 0.0475,0.0121 0.0947,0.0283 0.14211,0.0424 0.10104,0.0323 0.20383,0.0582 0.3077,0.08 0.0637,0.0121 0.12845,0.0162 0.19328,0.0162 0.0218,-0.001 0.0439,0.002 0.0656,2e-4 0.0682,-0.008 0.3128,-0.19683 -0.16676,0.11802 -0.0563,-0.008 -0.11286,-0.004 -0.16927,-0.008 -0.0823,0.001 -0.16438,-2.8e-4 -0.24627,-0.0121 -0.0748,-0.0121 -0.15015,-0.0121 -0.22553,-0.0162 -0.0509,-0.003 -0.063,-0.0121 -0.0968,-0.0493 0,0 0.1871,-0.11479 0.1871,-0.11479 v 0 c 0.0299,0.0283 0.0447,0.0323 0.0871,0.0364 0.0751,0.004 0.15004,0.0121 0.22468,0.0202 0.0816,0.008 0.1635,0.008 0.24554,0.008 0.0588,2.5e-4 0.11862,-0.002 0.17658,0.0121 -0.17836,0.14227 -0.11433,0.13823 -0.25952,0.13378 -0.0649,-0.003 -0.12966,-0.0121 -0.19319,-0.0242 -0.10339,-0.0243 -0.20549,-0.0513 -0.30669,-0.0825 -0.009,-0.002 -0.0922,-0.0243 -0.10392,-0.0283 -0.0137,-0.004 -0.0275,-0.008 -0.0415,-0.0121 -0.0105,-0.003 -0.0388,-3.3e-4 -0.0319,-0.008 0.1379,-0.14429 0.10068,-0.15723 0.17048,-0.12893 0.0407,0.0121 0.0802,0.0242 0.11871,0.042 0.036,0.0121 0.0709,0.0323 0.1048,0.0521 0.0335,0.0162 0.0688,0.0283 0.1059,0.0323 0.0407,0.004 0.0814,0.008 0.12165,0.0162 0.071,0.0121 0.14276,0.0162 0.21458,0.0202 0.0663,0.004 0.13249,0.008 0.1989,0.004 0,0 -0.17873,0.13015 -0.17873,0.13015 z"
       inkscape:connector-curvature="0" />
    <path
       style="fill:#e69f00;fill-opacity:1;stroke-width:0.94309723"
       id="path4537"
       d="m 123.37423,106.58007 c -0.0178,-0.0323 -0.038,-0.0671 -0.0673,-0.0918 -0.0243,-0.0162 -0.0532,-0.0162 -0.0817,-0.0162 -0.0356,-0.0121 -0.0706,-0.0162 -0.10711,-0.0243 -0.0227,-0.008 -0.0476,2.9e-4 -0.0698,-0.008 -0.003,-10e-4 -0.0299,-0.0121 -0.0331,-0.0162 -0.0311,-0.0202 -0.0607,-0.0424 -0.0875,-0.0679 -0.0291,-0.0242 -0.0443,-0.0606 -0.0634,-0.0926 -0.0186,-0.0323 -0.0426,-0.0647 -0.0743,-0.0865 -0.0267,-0.0121 -0.0545,-0.0283 -0.0816,-0.0445 -0.0299,-0.0162 -0.0505,-0.042 -0.0713,-0.0691 -0.0263,-0.0323 -0.057,-0.0574 -0.0839,-0.0877 -0.0227,-0.0283 -0.0428,-0.0618 -0.0581,-0.0966 -0.0129,-0.0323 -0.0311,-0.0635 -0.0525,-0.0914 -0.0182,-0.0242 -0.0427,-0.0323 -0.0691,-0.0441 -0.0482,-0.0121 -0.0969,-0.0202 -0.14546,-0.0283 -0.0518,-0.0121 -0.0846,-0.0242 -0.12789,-0.0521 -0.0238,-0.0162 -0.0404,-0.042 -0.0537,-0.0675 -0.0178,-0.0243 -0.0259,-0.0562 -0.0376,-0.0845 -0.0157,-0.0283 -0.0344,-0.0594 -0.0535,-0.0881 -0.015,-0.0283 -0.0376,-0.0521 -0.0583,-0.0772 -0.0222,-0.0283 -0.0449,-0.0558 -0.0697,-0.0808 -0.0271,-0.0242 -0.0572,-0.0473 -0.0871,-0.0691 -0.0323,-0.0202 -0.0646,-0.0445 -0.0949,-0.0695 -0.0311,-0.0243 -0.0571,-0.0582 -0.0794,-0.0918 -0.0222,-0.0364 -0.0392,-0.0744 -0.061,-0.10993 -0.0198,-0.0243 -0.0315,-0.0542 -0.0516,-0.0784 -0.0182,-0.0242 -0.0388,-0.0444 -0.059,-0.0663 -0.0214,-0.0202 -0.0433,-0.042 -0.0637,-0.063 -0.0202,-0.0243 -0.0407,-0.0489 -0.0639,-0.0715 -0.0259,-0.0202 -0.0563,-0.0364 -0.082,-0.059 -0.0271,-0.0202 -0.0563,-0.042 -0.0844,-0.0635 -0.0315,-0.0202 -0.0646,-0.042 -0.093,-0.0667 -0.0275,-0.0243 -0.0474,-0.055 -0.0641,-0.0877 -0.0117,-0.0243 -0.023,-0.0529 -0.034,-0.0796 -0.009,-0.0283 -0.0137,-0.055 -0.0287,-0.0796 -0.0142,-0.0283 -0.0299,-0.0538 -0.0485,-0.0784 -0.025,-0.0283 -0.0513,-0.059 -0.081,-0.0849 -0.0234,-0.0202 -0.047,-0.042 -0.0709,-0.0627 -0.0227,-0.0202 -0.0427,-0.0428 -0.0644,-0.0638 -0.025,-0.0202 -0.0473,-0.0465 -0.0707,-0.0695 -0.0238,-0.0242 -0.0461,-0.0501 -0.0666,-0.0776 -0.0178,-0.0283 -0.04,-0.0513 -0.0569,-0.0796 -0.0146,-0.0243 -0.0331,-0.0505 -0.0478,-0.0776 -0.009,-0.0121 -0.004,-0.008 -0.0137,-0.0202 0,0 0.19008,-0.11276 0.19008,-0.11276 v 0 c 0.011,0.0121 0.006,0.008 0.0153,0.0202 0.0137,0.0243 0.0323,0.0501 0.047,0.0768 0.0162,0.0283 0.038,0.0513 0.0553,0.0776 0.0202,0.0242 0.042,0.0513 0.0654,0.0752 0.0227,0.0243 0.0462,0.0469 0.0709,0.0691 0.0206,0.0202 0.0411,0.0429 0.0636,0.0622 0.0238,0.0202 0.047,0.042 0.0703,0.0635 0.0299,0.0283 0.0575,0.057 0.0833,0.0885 0.0198,0.0242 0.036,0.0521 0.0505,0.0804 0.0153,0.0243 0.0227,0.0538 0.0303,0.0824 0.0105,0.0243 0.0218,0.0521 0.0324,0.0776 0.0153,0.0323 0.0335,0.0582 0.0596,0.0808 0.0287,0.0242 0.0618,0.0428 0.0922,0.0655 0.0287,0.0202 0.0575,0.042 0.0852,0.0647 0.0267,0.0202 0.0578,0.0364 0.0829,0.0602 0.0234,0.0202 0.0436,0.0477 0.0648,0.0728 0.0206,0.0202 0.0425,0.042 0.0638,0.0635 0.0202,0.0202 0.0415,0.0436 0.0597,0.0679 0.0202,0.0242 0.0335,0.0554 0.053,0.0816 0.0206,0.0364 0.0376,0.0744 0.0601,0.10913 0.021,0.0323 0.0464,0.0614 0.0761,0.0861 0.0303,0.0243 0.063,0.0457 0.0945,0.0687 0.0311,0.0202 0.0618,0.0457 0.0894,0.0724 0.0247,0.0243 0.0483,0.0538 0.0707,0.082 0.021,0.0243 0.0442,0.0493 0.0594,0.0792 0.0198,0.0283 0.038,0.0606 0.0553,0.0917 0.0121,0.0283 0.0202,0.0574 0.0372,0.0825 0.0121,0.0202 0.0254,0.0437 0.0473,0.0582 0.0371,0.0243 0.0775,0.0364 0.12153,0.0461 0.0501,0.0121 0.10121,0.0162 0.14999,0.0323 0.0299,0.0121 0.0558,0.0283 0.0752,0.0542 0.0222,0.0283 0.0407,0.061 0.0548,0.0958 0.0146,0.0323 0.0323,0.0627 0.0543,0.0905 0.027,0.0323 0.0586,0.0574 0.0844,0.0893 0.0198,0.0243 0.0407,0.0457 0.0679,0.0614 0.0271,0.0162 0.0568,0.0283 0.0824,0.0469 0.0323,0.0243 0.0585,0.0578 0.0787,0.0938 0.0182,0.0323 0.0328,0.0639 0.0605,0.0869 0.0254,0.0242 0.0534,0.0457 0.0841,0.0622 0.0319,0.0121 0.0649,0.0121 0.0991,0.0162 0.0356,0.008 0.0706,0.0162 0.10658,0.0202 0.0323,0.003 0.0639,0.0121 0.0895,0.0323 0.0299,0.0283 0.0521,0.0639 0.0727,0.0994 0,0 -0.19271,0.10872 -0.19271,0.10872 z"
       inkscape:connector-curvature="0" />
    <path
       style="fill:#e69f00;fill-opacity:1;stroke-width:0.94309723"
       id="path4539"
       d="m 120.45557,103.70818 c -0.0227,-0.0323 -0.0435,-0.0703 -0.0659,-0.10549 -0.0142,-0.0283 -0.0348,-0.0497 -0.0542,-0.0736 -0.0234,-0.0243 -0.0344,-0.0558 -0.052,-0.0833 -0.0141,-0.0242 -0.0263,-0.0513 -0.0404,-0.0764 -0.0149,-0.0283 -0.0303,-0.0542 -0.047,-0.08 -0.0166,-0.0283 -0.0275,-0.0586 -0.0368,-0.0893 -8.4e-4,-0.004 -0.003,-0.0121 -0.004,-0.0121 0,0 0.19436,-0.10468 0.19436,-0.10468 v 0 c 8.5e-4,0.004 0.002,0.0121 0.003,0.0121 0.009,0.0283 0.0186,0.0578 0.034,0.0841 0.0174,0.0243 0.0324,0.0542 0.0482,0.0812 0.0133,0.0243 0.0254,0.0509 0.0392,0.0756 0.0166,0.0283 0.0271,0.0582 0.0504,0.0808 0.0202,0.0242 0.0407,0.0481 0.0552,0.076 0.0222,0.0364 0.0423,0.0723 0.067,0.10589 0,0 -0.19139,0.11074 -0.19139,0.11074 z"
       inkscape:connector-curvature="0" />
    <path
       style="fill:#e69f00;fill-opacity:1;stroke-width:0.94309723"
       id="path4541"
       d="m 120.16435,103.29855 c 0.0146,-0.0364 0.0158,-0.0804 0.0153,-0.12247 5.3e-4,-0.0202 -0.002,-0.0444 -0.005,-0.0659 0,0 0.19477,-0.10347 0.19477,-0.10347 v 0 c 0.004,0.0202 0.008,0.0461 0.007,0.0695 4.6e-4,0.0429 3.7e-4,0.0861 -0.0121,0.12732 0,0 -0.19974,0.0946 -0.19974,0.0946 z"
       inkscape:connector-curvature="0" />
    <path
       style="fill:#cc79a7;fill-opacity:1;stroke-width:0.02105128"
       d="m 117.30133,157.97636 c -1.09583,-2.1291 -3.21384,-3.58054 -5.60976,-3.84435 -0.61887,-0.0683 -1.46983,-0.0364 -2.07355,0.0756 -1.33095,0.24816 -2.60551,0.87924 -3.53704,1.75082 -0.0991,0.0925 -0.18466,0.16368 -0.19012,0.15844 -0.0166,-0.0162 0.34873,-0.35811 0.59182,-0.55211 1.02577,-0.8196 2.22512,-1.33154 3.55637,-1.5179 0.32941,-0.0461 1.15881,-0.0634 1.52978,-0.0324 2.4592,0.20977 4.60778,1.64137 5.76676,3.84301 0.067,0.12732 0.13669,0.26716 0.15484,0.31082 0.0315,0.0756 0.0311,0.0789 -0.009,0.0789 -0.0315,0 -0.074,-0.0639 -0.18083,-0.2712 z"
       id="path4543"
       inkscape:connector-curvature="0" />
    <path
       style="fill:#cc79a7;fill-opacity:1;stroke-width:0.00372139"
       d="m 104.57153,157.89264 c 0,-0.003 0.0431,-0.0853 0.0886,-0.16894 0.62046,-1.13934 1.55568,-2.10383 2.67266,-2.75634 0.1092,-0.0639 0.12432,-0.0719 0.13418,-0.0719 0.005,0 -0.0182,0.0162 -0.0618,0.042 -0.34415,0.19602 -0.71092,0.44977 -1.00453,0.69474 -0.23305,0.19441 -0.52409,0.4707 -0.51036,0.48441 0.003,0.003 0.0178,-0.004 0.0404,-0.0202 0.0117,-0.008 0.0222,-0.0162 0.0238,-0.0162 0.002,0 -0.0575,0.0607 -0.13107,0.135 -0.13739,0.13823 -0.21563,0.22189 -0.32052,0.34153 -0.33393,0.38195 -0.62315,0.79292 -0.87068,1.23695 -0.0206,0.0364 -0.0419,0.076 -0.0472,0.0865 -0.009,0.0162 -0.0133,0.0243 -0.0133,0.0162 z"
       id="path4545"
       inkscape:connector-curvature="0" />
    <path
       style="fill:#cc79a7;fill-opacity:1;stroke-width:0.00394591"
       d=""
       id="path4547"
       inkscape:connector-curvature="0"
       transform="matrix(0.26458333,0,0,0.26458333,0,246.19998)" />
    <path
       style="fill:#cc79a7;fill-opacity:1;stroke-width:0.00394591"
       d=""
       id="path4549"
       inkscape:connector-curvature="0"
       transform="matrix(0.26458333,0,0,0.26458333,0,246.19998)" />
    <path
       style="fill:#cc79a7;fill-opacity:1;stroke-width:0.01473586"
       d="m 160.73453,162.66847 c -7.2e-4,-0.0121 0.009,-0.0784 0.021,-0.14713 0.26692,-1.5031 0.025,-3.12082 -0.67059,-4.48707 -0.35637,-0.69991 -0.75677,-1.25089 -1.3183,-1.81415 -0.31416,-0.31526 -0.53147,-0.5051 -0.82658,-0.72251 -0.79619,-0.58659 -1.72032,-1.0094 -2.6812,-1.22677 -0.25091,-0.0566 -0.59289,-0.11317 -0.87678,-0.14429 -0.29032,-0.0324 -1.08256,-0.0364 -1.3557,-0.008 -0.96417,0.10225 -1.76062,0.3298 -2.57015,0.73442 -0.84999,0.4248 -1.61266,1.01636 -2.22255,1.72383 -0.0655,0.076 -0.1221,0.135 -0.12594,0.13095 -0.0105,-0.0121 0.25176,-0.31849 0.43272,-0.50789 1.16816,-1.22114 2.70582,-1.97683 4.42698,-2.17565 0.44196,-0.0513 1.17277,-0.0436 1.65042,0.0162 2.39585,0.30273 4.48125,1.78874 5.54077,3.94814 0.0795,0.16208 0.18434,0.39408 0.23289,0.51577 0.49008,1.22741 0.63084,2.57188 0.40655,3.88291 -0.0364,0.21381 -0.0609,0.32172 -0.0634,0.28009 z"
       id="path4551"
       inkscape:connector-curvature="0" />
    <path
       style="fill:#cc79a7;fill-opacity:1;stroke-width:0.00368396"
       d="m 147.33041,157.89131 c -6.8e-4,-0.0121 0.14454,-0.27362 0.22998,-0.4167 0.36134,-0.60312 0.79936,-1.13877 1.32548,-1.62088 0.0238,-0.0202 0.0442,-0.0364 0.0452,-0.0364 8.5e-4,8.4e-4 -0.0259,0.0283 -0.0598,0.0586 -0.14571,0.13419 -0.2989,0.28777 -0.42637,0.42677 -0.162,0.17743 -0.33749,0.38721 -0.33749,0.40418 0,0.008 0.004,0.004 0.0323,-0.0202 0.0105,-0.008 0.0194,-0.0162 0.0194,-0.0162 0,0.002 -0.0259,0.0323 -0.058,0.0735 -0.26756,0.32738 -0.51185,0.68787 -0.71337,1.05276 -0.0546,0.099 -0.057,0.10266 -0.0572,0.0978 z"
       id="path4553"
       inkscape:connector-curvature="0" />
    <path
       style="fill:#cc79a7;fill-opacity:1;stroke-width:0.00368396"
       d="m 148.11488,156.69644 c 0,-0.008 0.1101,-0.14267 0.21357,-0.26069 0.44931,-0.51339 0.95425,-0.94849 1.52714,-1.31585 0.22339,-0.14348 0.50795,-0.30232 0.73349,-0.40955 l 0.0703,-0.0324 0.0843,3.3e-4 0.0843,3.2e-4 -0.0202,0.008 c -0.0113,0.004 -0.0626,0.0283 -0.11418,0.0521 -0.62013,0.28212 -1.20769,0.65788 -1.72779,1.10543 -0.13338,0.11478 -0.24178,0.21583 -0.38696,0.36093 -0.1308,0.13095 -0.20331,0.20775 -0.31842,0.3391 -0.0826,0.0942 -0.13835,0.1548 -0.14247,0.1548 -0.002,0 -0.003,-0.002 -0.003,-0.003 z"
       id="path4555"
       inkscape:connector-curvature="0" />
    <path
       style="fill:#cc79a7;fill-opacity:1;stroke-width:0.00368396"
       d="m 148.11488,156.69653 c 0,-0.0121 0.18338,-0.23039 0.33005,-0.39125 0.59127,-0.64802 1.33072,-1.20013 2.12306,-1.58495 l 0.0898,-0.0436 0.0846,8.4e-4 0.0845,8.4e-4 -0.097,0.0441 c -0.60749,0.27444 -1.16328,0.62163 -1.67154,1.04412 -0.28369,0.23603 -0.54716,0.49338 -0.80712,0.78903 -0.0753,0.0857 -0.12905,0.14389 -0.13305,0.14389 -0.002,0 -0.003,-8.4e-4 -0.003,-0.003 z"
       id="path4557"
       inkscape:connector-curvature="0" />
    <path
       style="fill:#cc79a7;fill-opacity:1;stroke-width:0.01041984"
       d="m 160.63372,205.85103 c 0,-0.008 0.0137,-0.0691 0.0308,-0.13985 0.3434,-1.44789 0.23406,-2.95439 -0.314,-4.32629 -0.40933,-1.02463 -1.02528,-1.91524 -1.83914,-2.65909 -0.48058,-0.4393 -1.02753,-0.8143 -1.62064,-1.11121 l -0.18495,-0.0925 v -0.0667 -0.0667 l 0.12763,0.0602 c 0.76291,0.36093 1.5353,0.92606 2.11989,1.55156 1.11543,1.19354 1.77387,2.66422 1.92748,4.30519 0.0227,0.24251 0.0259,0.94901 0.005,1.1722 -0.0411,0.4492 -0.0984,0.7957 -0.19615,1.18751 -0.043,0.17219 -0.0561,0.21543 -0.0561,0.18553 z"
       id="path4559"
       inkscape:connector-curvature="0" />
    <path
       style="fill:#cc79a7;fill-opacity:1;stroke-width:0.00520994"
       d="m 147.41847,200.48325 c 0.002,-0.004 0.0299,-0.0562 0.0615,-0.11195 0.26106,-0.45871 0.56989,-0.88447 0.93164,-1.28424 0.11066,-0.12247 0.36747,-0.37872 0.48951,-0.48813 0.49847,-0.44823 1.02471,-0.80811 1.60971,-1.10086 0.0659,-0.0324 0.12109,-0.0598 0.12255,-0.0598 0.002,0 0.003,0.0202 0.003,0.0436 v 0.0436 l -0.0847,0.042 c -0.19554,0.093 -0.47671,0.24776 -0.67524,0.37144 -0.75989,0.47362 -1.42154,1.07976 -1.95509,1.79108 -0.16277,0.21704 -0.33091,0.46998 -0.45538,0.68512 -0.0407,0.0699 -0.0544,0.0909 -0.0472,0.0703 z"
       id="path4561"
       inkscape:connector-curvature="0" />
    <path
       style="fill:#cc79a7;fill-opacity:1;stroke-width:0.00736797"
       d="m 117.36534,200.87417 c -0.11005,-0.22795 -0.26381,-0.50114 -0.40756,-0.72396 -0.70643,-1.09528 -1.69844,-1.98088 -2.85815,-2.5515 l -0.15279,-0.0752 -1.2e-4,-0.0675 -1.1e-4,-0.0679 0.0392,0.0162 c 0.072,0.0324 0.3505,0.17299 0.45286,0.22957 1.19406,0.65962 2.18349,1.65439 2.83332,2.84853 0.0985,0.18108 0.25511,0.49917 0.25511,0.5182 0,0.002 -0.0222,0.003 -0.0497,0.003 l -0.0497,-4.9e-4 z"
       id="path4563"
       inkscape:connector-curvature="0" />
    <path
       style="fill:#cc79a7;fill-opacity:1;stroke-width:0.00736797"
       d="m 104.7904,200.25945 c 0.002,-0.008 0.038,-0.0667 0.0793,-0.13256 0.69948,-1.12184 1.69911,-2.03411 2.87264,-2.62154 l 0.13305,-0.0667 v 0.0429 0.0429 l -0.15791,0.0784 c -1.16438,0.57801 -2.16779,1.47703 -2.85559,2.55853 -0.0613,0.0966 -0.0798,0.12166 -0.0715,0.0982 z"
       id="path4565"
       inkscape:connector-curvature="0" />
    <text
       xml:space="preserve"
       style="font-style:normal;font-variant:normal;font-weight:normal;font-stretch:normal;font-size:47.11698914px;line-height:29.4481163px;font-family:UltraCondensedSansSerif;-inkscape-font-specification:UltraCondensedSansSerif;letter-spacing:0px;word-spacing:0px;fill:#e69f00;fill-opacity:1;stroke:none;stroke-width:1.17792463"
       x="68.98349"
       y="265.44766"
       id="text4530"><tspan
         sodipodi:role="line"
         id="tspan4528"
         x="68.98349"
         y="265.44766"
         style="fill:#e69f00;fill-opacity:1;stroke-width:1.17792463">SQUIRGLE</tspan></text>
    <flowRoot
       xml:space="preserve"
       id="flowRoot4530"
       style="font-style:normal;font-variant:normal;font-weight:normal;font-stretch:normal;font-size:40px;line-height:25px;font-family:UltraCondensedSansSerif;-inkscape-font-specification:UltraCondensedSansSerif;letter-spacing:0px;word-spacing:0px;fill:#e69f00;fill-opacity:1;stroke:none"
       transform="matrix(0.22709267,-0.13576916,0.13576916,0.22709267,34.34824,99.534533)"><flowRegion
         id="flowRegion4532"
         style="fill:#e69f00;fill-opacity:1"><rect
           id="rect4534"
           width="451.99997"
           height="138"
           x="298"
           y="48.00005"
           style="fill:#e69f00;fill-opacity:1" /></flowRegion><flowPara
         id="flowPara4536"><flowSpan
   style="font-size:133.33332825px;fill:#e69f00;fill-opacity:1"
   id="flowSpan4538">N</flowSpan> </flowPara></flowRoot>    <flowRoot
       xml:space="preserve"
       id="flowRoot4530-9"
       style="font-style:normal;font-variant:normal;font-weight:normal;font-stretch:normal;font-size:40px;line-height:25px;font-family:UltraCondensedSansSerif;-inkscape-font-specification:UltraCondensedSansSerif;letter-spacing:0px;word-spacing:0px;fill:#e69f00;fill-opacity:1;stroke:none"
       transform="matrix(0.22786906,0.134462,-0.134462,0.22786906,82.699867,12.0506)"><flowRegion
         id="flowRegion4532-4"
         style="fill:#e69f00;fill-opacity:1"><rect
           id="rect4534-2"
           width="451.99997"
           height="138"
           x="298"
           y="48.00005"
           style="fill:#e69f00;fill-opacity:1" /></flowRegion><flowPara
         id="flowPara4536-0"><flowSpan
           style="font-size:133.33332825px;fill:#e69f00;fill-opacity:1"
           id="flowSpan4538-1">N</flowSpan></flowPara></flowRoot>    <flowRoot
       xml:space="preserve"
       id="flowRoot4530-0"
       style="font-style:normal;font-variant:normal;font-weight:normal;font-stretch:normal;font-size:40px;line-height:25px;font-family:UltraCondensedSansSerif;-inkscape-font-specification:UltraCondensedSansSerif;letter-spacing:0px;word-spacing:0px;fill:#e69f00;fill-opacity:1;stroke:none"
       transform="matrix(0.26455301,-0.00400544,0.00400544,0.26455301,47.633197,55.317833)"><flowRegion
         id="flowRegion4532-9"
         style="fill:#e69f00;fill-opacity:1"><rect
           id="rect4534-6"
           width="451.99997"
           height="138"
           x="298"
           y="48.00005"
           style="fill:#e69f00;fill-opacity:1" /></flowRegion><flowPara
         id="flowPara4536-3"
         style="font-size:113.33333588px">a</flowPara></flowRoot>  </g>
</svg>
